<svg width="20" height="20" viewBox="0 0 20 20" fill="none" xmlns="http://www.w3.org/2000/svg">
<path d="M1.31935 12.3848C2.36454 16.198 5.85504 19 10 19C13.3305 19 16.2384 17.191 17.7948 14.5019L14.5 11.2071L11.8536 13.8536C11.6583 14.0488 11.3417 14.0488 11.1464 13.8536L5.5 8.20711L1.35355 12.3536C1.34252 12.3646 1.33111 12.375 1.31935 12.3848ZM1.08091 11.212L5.14645 7.14645C5.34171 6.95118 5.65829 6.95118 5.85355 7.14645L11.5 12.7929L14.1464 10.1464C14.3417 9.95118 14.6583 9.95118 14.8536 10.1464L18.2681 13.561C18.7391 12.4689 19 11.2649 19 10C19 5.02944 14.9706 1 10 1C5.02944 1 1 5.02944 1 10C1 10.411 1.02755 10.8156 1.08091 11.212ZM10 20C4.47715 20 0 15.5228 0 10C0 4.47715 4.47715 0 10 0C15.5228 0 20 4.47715 20 10C20 15.5228 15.5228 20 10 20ZM13 4H15C15.5523 4 16 4.44772 16 5V7C16 7.55228 15.5523 8 15 8H13C12.4477 8 12 7.55228 12 7V5C12 4.44772 12.4477 4 13 4Z" fill="#FECC39"/>
</svg>
