<svg width="32" height="16" viewBox="0 0 32 16" fill="none" xmlns="http://www.w3.org/2000/svg">
<path d="M23.04 0H8.95996C4.55996 0 0.959961 3.6 0.959961 8C0.959961 12.4 4.55996 16 8.95996 16H23.04C27.44 16 31.04 12.4 31.04 8C31.04 3.6 27.44 0 23.04 0Z" fill="white"/>
<path d="M23.04 0.648C24.028 0.648 24.988 0.844 25.892 1.228C26.768 1.6 27.552 2.132 28.232 2.808C28.908 3.484 29.44 4.272 29.812 5.148C30.196 6.052 30.392 7.012 30.392 8C30.392 8.988 30.196 9.948 29.812 10.852C29.44 11.728 28.908 12.512 28.232 13.192C27.556 13.868 26.768 14.4 25.892 14.772C24.988 15.156 24.028 15.352 23.04 15.352H8.95996C7.97196 15.352 7.01196 15.156 6.10796 14.772C5.23196 14.4 4.44796 13.868 3.76796 13.192C3.09196 12.516 2.55996 11.728 2.18796 10.852C1.80396 9.948 1.60796 8.988 1.60796 8C1.60796 7.012 1.80396 6.052 2.18796 5.148C2.55996 4.272 3.09196 3.488 3.76796 2.808C4.44396 2.132 5.23196 1.6 6.10796 1.228C7.01196 0.844 7.97196 0.648 8.95996 0.648H23.04ZM23.04 0H8.95996C4.55996 0 0.959961 3.6 0.959961 8C0.959961 12.4 4.55996 16 8.95996 16H23.04C27.44 16 31.04 12.4 31.04 8C31.04 3.6 27.44 0 23.04 0Z" fill="#3C4043"/>
<path d="M15.304 8.56796V10.988H14.536V5.01196H16.572C17.088 5.01196 17.528 5.18396 17.888 5.52796C18.256 5.87196 18.44 6.29196 18.44 6.78796C18.44 7.29596 18.256 7.71596 17.888 8.05596C17.532 8.39596 17.092 8.56396 16.572 8.56396H15.304V8.56796ZM15.304 5.74796V7.83196H16.588C16.892 7.83196 17.148 7.72796 17.348 7.52396C17.552 7.31996 17.656 7.07196 17.656 6.79196C17.656 6.51596 17.552 6.27196 17.348 6.06796C17.148 5.85596 16.896 5.75196 16.588 5.75196H15.304V5.74796Z" fill="#3C4043"/>
<path d="M20.4479 6.76392C21.0159 6.76392 21.4639 6.91592 21.7919 7.21992C22.1199 7.52392 22.2839 7.93992 22.2839 8.46792V10.9879H21.5519V10.4199H21.5199C21.2039 10.8879 20.7799 11.1199 20.2519 11.1199C19.7999 11.1199 19.4239 10.9879 19.1199 10.7199C18.8159 10.4519 18.6639 10.1199 18.6639 9.71992C18.6639 9.29592 18.8239 8.95992 19.1439 8.71192C19.4639 8.45992 19.8919 8.33592 20.4239 8.33592C20.8799 8.33592 21.2559 8.41992 21.5479 8.58792V8.41192C21.5479 8.14392 21.4439 7.91992 21.2319 7.73192C21.0199 7.54392 20.7719 7.45192 20.4879 7.45192C20.0599 7.45192 19.7199 7.63192 19.4719 7.99592L18.7959 7.57192C19.1679 7.03192 19.7199 6.76392 20.4479 6.76392ZM19.4559 9.73192C19.4559 9.93192 19.5399 10.0999 19.7119 10.2319C19.8799 10.3639 20.0799 10.4319 20.3079 10.4319C20.6319 10.4319 20.9199 10.3119 21.1719 10.0719C21.4239 9.83192 21.5519 9.55192 21.5519 9.22792C21.3119 9.03992 20.9799 8.94392 20.5519 8.94392C20.2399 8.94392 19.9799 9.01992 19.7719 9.16792C19.5599 9.32392 19.4559 9.51192 19.4559 9.73192Z" fill="#3C4043"/>
<path d="M26.4599 6.896L23.8999 12.784H23.1079L24.0599 10.724L22.3719 6.896H23.2079L24.4239 9.832H24.4399L25.6239 6.896H26.4599Z" fill="#3C4043"/>
<path d="M12.2491 8.08002C12.2491 7.82962 12.2267 7.59002 12.1851 7.35962H8.96594V8.67962L10.8199 8.68002C10.7447 9.11922 10.5027 9.49362 10.1319 9.74322V10.5996H11.2355C11.8799 10.0032 12.2491 9.12162 12.2491 8.08002Z" fill="#4285F4"/>
<path d="M10.1323 9.74323C9.8251 9.95043 9.4295 10.0716 8.9667 10.0716C8.0727 10.0716 7.3143 9.46923 7.0427 8.65723H5.9043V9.54043C6.4683 10.6596 7.6275 11.4276 8.9667 11.4276C9.8923 11.4276 10.6699 11.1232 11.2359 10.5992L10.1323 9.74323Z" fill="#34A853"/>
<path d="M6.93552 8.00193C6.93552 7.77393 6.97352 7.55354 7.04272 7.34634V6.46313H5.90432C5.67112 6.92593 5.53992 7.44833 5.53992 8.00193C5.53992 8.55553 5.67152 9.07793 5.90432 9.54073L7.04272 8.65754C6.97352 8.45034 6.93552 8.22993 6.93552 8.00193Z" fill="#FABB05"/>
<path d="M8.9667 5.93193C9.4719 5.93193 9.9243 6.10593 10.2815 6.44593L11.2595 5.46873C10.6655 4.91553 9.8911 4.57593 8.9667 4.57593C7.6279 4.57593 6.4683 5.34393 5.9043 6.46313L7.0427 7.34633C7.3143 6.53433 8.0727 5.93193 8.9667 5.93193Z" fill="#E94235"/>
</svg>
