<svg width="38" height="12" viewBox="0 0 38 12" fill="none" xmlns="http://www.w3.org/2000/svg">
<path d="M24.603 0C21.9733 0 19.6233 1.36303 19.6233 3.88133C19.6233 6.76935 23.7911 6.96882 23.7911 8.41968C23.7911 9.03058 23.091 9.57742 21.8953 9.57742C20.1984 9.57742 18.9301 8.81331 18.9301 8.81331L18.3874 11.3546C18.3874 11.3546 19.8484 12 21.7882 12C24.6633 12 26.9257 10.57 26.9257 8.00868C26.9257 4.95697 22.7405 4.76343 22.7405 3.41679C22.7405 2.93824 23.3152 2.41389 24.5075 2.41389C25.8528 2.41389 26.9503 2.96961 26.9503 2.96961L27.4814 0.515195C27.4814 0.515195 26.2872 0 24.603 0ZM0.543656 0.185239L0.47998 0.555717C0.47998 0.555717 1.58631 0.758192 2.58273 1.16208C3.86571 1.62523 3.9571 1.89485 4.17318 2.73227L6.52774 11.809H9.68403L14.5466 0.185239H11.3975L8.27303 8.08828L6.99807 1.38929C6.88115 0.622597 6.28888 0.185239 5.56392 0.185239H0.543656ZM15.8128 0.185239L13.3425 11.809H16.3454L18.807 0.185239H15.8128ZM32.561 0.185239C31.8369 0.185239 31.4533 0.572912 31.1717 1.25036L26.7723 11.809H29.9214L30.5306 10.0492H34.3671L34.7376 11.809H37.5162L35.0921 0.185239H32.561ZM32.9706 3.32562L33.904 7.68741H31.4033L32.9706 3.32562Z" fill="#1434CB"/>
</svg>
