<svg width="14" height="16" viewBox="0 0 14 16" fill="none" xmlns="http://www.w3.org/2000/svg">
<path fill-rule="evenodd" clip-rule="evenodd" d="M7.08925 15.3409L7.57668 12.2501L7.60813 12.0788C7.6316 11.9298 7.70787 11.7936 7.82276 11.6955C7.93765 11.5974 8.08416 11.5433 8.23523 11.5433H8.62228C9.26746 11.5433 9.86018 11.4743 10.3841 11.3384C10.9431 11.1935 11.4403 10.9678 11.8617 10.6681C12.3086 10.3503 12.6839 9.93951 12.9774 9.44735C13.287 8.92813 13.5144 8.30299 13.6532 7.58952C13.7759 6.95949 13.7989 6.39546 13.7218 5.91292C13.6402 5.40316 13.4438 4.9682 13.1383 4.61977C12.953 4.40873 12.7158 4.22588 12.4336 4.07628L12.4269 4.07269L12.4267 4.06454C12.5253 3.43566 12.5216 2.91106 12.4155 2.45948C12.3089 2.00692 12.0932 1.59967 11.7553 1.21474C11.0554 0.41718 9.78228 0.0126953 7.97155 0.0126953H2.99861C2.83239 0.0126953 2.67105 0.0721783 2.54458 0.180225C2.41812 0.288273 2.33436 0.438365 2.30828 0.602636L0.237624 13.7334C0.21872 13.8532 0.253106 13.9749 0.331982 14.0668C0.410858 14.1592 0.525587 14.2122 0.646834 14.2122H3.73196L3.72919 14.2268L3.51734 15.5703C3.50104 15.6748 3.53102 15.7807 3.59963 15.8609C3.66824 15.9413 3.76814 15.9875 3.87374 15.9875H6.46134C6.60654 15.9875 6.74718 15.9356 6.85751 15.8412C6.96784 15.7468 7.04117 15.616 7.06382 15.4727L7.08925 15.3409Z" fill="#27346A"/>
<path fill-rule="evenodd" clip-rule="evenodd" d="M5.31654 4.08151C5.3493 3.8734 5.48277 3.7031 5.66252 3.61689C5.74433 3.57778 5.83559 3.55594 5.93125 3.55594H9.82926C10.2911 3.55594 10.7217 3.58625 11.1154 3.64965C11.2278 3.66774 11.3372 3.6886 11.4436 3.71223C11.55 3.73586 11.6532 3.76209 11.7531 3.79143C11.8031 3.80593 11.8522 3.82125 11.9006 3.83739C12.0939 3.90159 12.2738 3.97721 12.4393 4.06489C12.6346 2.82031 12.438 1.97337 11.7648 1.20628C11.0236 0.361787 9.68471 0 7.9716 0H2.99866C2.64861 0 2.35054 0.254717 2.29595 0.600534L0.225288 13.7313C0.184384 13.9904 0.38467 14.2246 0.646884 14.2246H3.71686L5.31654 4.08151Z" fill="#27346A"/>
<path fill-rule="evenodd" clip-rule="evenodd" d="M12.4393 4.06494C12.4245 4.15995 12.408 4.25659 12.3885 4.35616C11.7329 7.72323 9.48915 8.8873 6.62353 8.8873H5.16433C4.81427 8.8873 4.51865 9.14218 4.46406 9.488L3.505 15.5685C3.46931 15.795 3.6445 16 3.87379 16H6.46154C6.76776 16 7.02851 15.7772 7.07626 15.4746L7.10168 15.3431L7.58911 12.2519L7.62057 12.0811C7.66832 11.7785 7.92906 11.5557 8.23528 11.5557H8.62232C11.1292 11.5557 13.0922 10.5372 13.6658 7.59171C13.9054 6.36098 13.7815 5.33364 13.1478 4.61137C12.9561 4.39299 12.7175 4.21226 12.4393 4.06494Z" fill="#2790C3"/>
<path fill-rule="evenodd" clip-rule="evenodd" d="M11.7531 3.7914C11.6532 3.76206 11.5501 3.73582 11.4437 3.71219C11.3372 3.68856 11.2279 3.6677 11.1154 3.64961C10.7217 3.58622 10.2912 3.55591 9.82931 3.55591H5.9313C5.83564 3.55591 5.74438 3.57775 5.66257 3.61686C5.48282 3.70307 5.34935 3.87337 5.31659 4.08148L4.48807 9.33456L4.46411 9.48791C4.51871 9.14209 4.81433 8.88721 5.16438 8.88721H6.62359C9.4892 8.88721 11.7329 7.72314 12.3885 4.35608C12.4081 4.2565 12.4246 4.15986 12.4394 4.06485C12.2738 3.97718 12.0939 3.90156 11.9006 3.83735C11.8522 3.82122 11.8032 3.8059 11.7531 3.7914Z" fill="#1F264F"/>
</svg>
