<svg width="18" height="18" viewBox="0 0 18 18" fill="none" xmlns="http://www.w3.org/2000/svg">
<path fill-rule="evenodd" clip-rule="evenodd" d="M5 0H7V2.00048C7.18926 2 7.38895 2 7.6 2H8V0H10V2H10.4C10.6111 2 10.8107 2 11 2.00048V0H13V2.07837C13.4363 2.13282 13.7821 2.2251 14.089 2.38148C14.7475 2.71703 15.283 3.25247 15.6185 3.91103C15.7749 4.21795 15.8672 4.56374 15.9216 5H18V7H15.9995C16 7.18926 16 7.38895 16 7.6V8H18V10H16V10.4C16 10.6111 16 10.8107 15.9995 11H18V13H15.9216C15.8672 13.4363 15.7749 13.7821 15.6185 14.089C15.283 14.7475 14.7475 15.283 14.089 15.6185C13.7821 15.7749 13.4363 15.8672 13 15.9216V18H11V15.9995C10.8107 16 10.6111 16 10.4 16H10V18H8V16H7.6C7.38895 16 7.18926 16 7 15.9995V18H5V15.9216C4.56374 15.8672 4.21795 15.7749 3.91103 15.6185C3.25247 15.283 2.71703 14.7475 2.38148 14.089C2.2251 13.7821 2.13282 13.4363 2.07837 13H0V11H2.00048C2 10.8107 2 10.6111 2 10.4V10H0V8L2 8V7.6C2 7.38895 2 7.18926 2.00048 7L0 7V5L2.07837 5C2.13282 4.56374 2.2251 4.21795 2.38148 3.91103C2.71703 3.25247 3.25247 2.71703 3.91103 2.38148C4.21795 2.2251 4.56374 2.13282 5 2.07837V0ZM11.0511 4H10.1761V5.5832C9.90336 5.52681 9.62081 5.5 9.33084 5.5C9.0194 5.5 8.71684 5.53121 8.4261 5.59677V4H7.5511V5.9214L7.51696 5.94003C6.97734 6.23859 6.54965 6.66271 6.24759 7.19991C5.94006 7.74226 5.8011 8.3518 5.8011 9C5.8011 9.64921 5.94045 10.2598 6.24654 10.805L6.24866 10.8087C6.55147 11.3419 6.97929 11.7625 7.51696 12.06L7.5511 12.0786V14H8.4261V12.4032C8.71684 12.4688 9.0194 12.5 9.33084 12.5C9.62081 12.5 9.90336 12.4732 10.1761 12.4168V14H11.0511V12.1127C11.511 11.8796 11.8989 11.5544 12.199 11.1372L10.7782 10.1154C10.6426 10.304 10.4627 10.456 10.2196 10.5716C9.98529 10.683 9.69547 10.75 9.33084 10.75C8.92662 10.75 8.61345 10.6666 8.36417 10.5287C8.10564 10.3857 7.91308 10.195 7.77144 9.94636C7.6336 9.70007 7.5511 9.3935 7.5511 9C7.5511 8.60524 7.63411 8.30221 7.77039 8.06225L7.77248 8.05852C7.91492 7.80483 8.10756 7.61326 8.36417 7.47128C8.61345 7.33336 8.92662 7.25 9.33084 7.25C9.69547 7.25 9.98529 7.31702 10.2196 7.42842C10.4627 7.54399 10.6426 7.69602 10.7782 7.88459L12.199 6.86284C11.8989 6.4456 11.511 6.12039 11.0511 5.88727V4Z" fill="black"/>
</svg>
