<svg width="26" height="16" viewBox="0 0 26 16" fill="none" xmlns="http://www.w3.org/2000/svg">
<g clip-path="url(#clip0_4374_25066)">
<path d="M23.2544 0H2.7382C2.65275 0 2.56715 0 2.48186 0.000498277C2.40976 0.00101165 2.33782 0.00181192 2.26589 0.00377483C2.10901 0.00801773 1.95078 0.0172736 1.79586 0.0451167C1.63847 0.073443 1.49201 0.119647 1.34912 0.192395C1.20865 0.26383 1.08005 0.357265 0.968605 0.468758C0.85711 0.580251 0.763676 0.708641 0.692256 0.849261C0.619492 0.992145 0.573258 1.13865 0.545128 1.29617C0.517136 1.45113 0.507818 1.60933 0.50359 1.76605C0.501657 1.83798 0.500828 1.90991 0.500359 1.98183C0.49986 2.06731 0.500027 2.15272 0.500027 2.23835V13.7618C0.500027 13.8474 0.49986 13.9327 0.500359 14.0184C0.500828 14.0903 0.501657 14.1622 0.50359 14.2341C0.507818 14.3907 0.517136 14.5489 0.545128 14.7038C0.573258 14.8614 0.619492 15.0079 0.692256 15.1508C0.763676 15.2914 0.85711 15.4199 0.968605 15.5313C1.08005 15.6429 1.20865 15.7364 1.34912 15.8076C1.49201 15.8805 1.63847 15.9268 1.79586 15.9551C1.95078 15.9827 2.10901 15.9922 2.26589 15.9964C2.33782 15.998 2.40976 15.999 2.48186 15.9993C2.56715 16 2.65275 16 2.7382 16H23.2544C23.3397 16 23.4253 16 23.5105 15.9993C23.5825 15.999 23.6544 15.998 23.7267 15.9964C23.8832 15.9922 24.0414 15.9827 24.1967 15.9551C24.3539 15.9268 24.5004 15.8805 24.6433 15.8076C24.7839 15.7364 24.9121 15.6429 25.0238 15.5313C25.1351 15.4199 25.2286 15.2914 25.3002 15.1508C25.3731 15.0079 25.4193 14.8614 25.4473 14.7038C25.4753 14.5489 25.4844 14.3907 25.4886 14.2341C25.4906 14.1622 25.4915 14.0903 25.4919 14.0184C25.4925 13.9327 25.4925 13.8474 25.4925 13.7618V2.23835C25.4925 2.15272 25.4925 2.06731 25.4919 1.98183C25.4915 1.90991 25.4906 1.83798 25.4886 1.76605C25.4844 1.60933 25.4753 1.45113 25.4473 1.29617C25.4193 1.13865 25.3731 0.992145 25.3002 0.849261C25.2286 0.708641 25.1351 0.580251 25.0238 0.468758C24.9121 0.357265 24.7839 0.26383 24.6433 0.192395C24.5004 0.119647 24.3539 0.073443 24.1967 0.0451167C24.0414 0.0172736 23.8832 0.00801773 23.7267 0.00377483C23.6544 0.00181192 23.5825 0.00101165 23.5105 0.000498277C23.4253 0 23.3397 0 23.2544 0Z" fill="black"/>
<path d="M23.2544 0.533203L23.5068 0.533686C23.5751 0.534169 23.6435 0.534909 23.7123 0.536782C23.8318 0.540013 23.9717 0.546491 24.1021 0.569864C24.2155 0.590279 24.3105 0.621323 24.4018 0.667768C24.4918 0.713534 24.5744 0.773509 24.6464 0.845457C24.7187 0.917888 24.7788 1.00054 24.8252 1.09161C24.8713 1.18213 24.9022 1.27674 24.9225 1.39092C24.9458 1.5199 24.9523 1.66017 24.9555 1.7805C24.9574 1.84841 24.9583 1.91633 24.9586 1.98586C24.9593 2.06995 24.9592 2.15399 24.9592 2.23825V13.7617C24.9592 13.846 24.9593 13.9299 24.9586 14.0157C24.9583 14.0836 24.9574 14.1516 24.9555 14.2196C24.9522 14.3397 24.9458 14.4799 24.9222 14.6104C24.9022 14.7231 24.8714 14.8177 24.8249 14.9087C24.7787 14.9995 24.7187 15.0821 24.6467 15.154C24.5743 15.2265 24.492 15.2863 24.4009 15.3325C24.3103 15.3787 24.2154 15.4097 24.1032 15.4299C23.9701 15.4536 23.8244 15.4602 23.7146 15.4631C23.6456 15.4647 23.5768 15.4656 23.5064 15.466C23.4225 15.4666 23.3383 15.4666 23.2544 15.4666H2.7382C2.73709 15.4666 2.736 15.4666 2.73487 15.4666C2.65191 15.4666 2.56879 15.4666 2.48432 15.4659C2.41546 15.4656 2.34674 15.4647 2.2803 15.4632C2.16802 15.4602 2.02218 15.4536 1.89023 15.4301C1.77703 15.4097 1.68213 15.3787 1.59038 15.3319C1.50011 15.2861 1.41792 15.2264 1.34543 15.1538C1.27349 15.0819 1.21372 14.9996 1.1675 14.9087C1.12123 14.8178 1.09028 14.7229 1.06993 14.6089C1.0464 14.4787 1.03994 14.339 1.03671 14.2197C1.03487 14.1514 1.0341 14.0831 1.03366 14.0152L1.03333 13.8146L1.03334 13.7617V2.23825L1.03333 2.18531L1.03364 1.98523C1.0341 1.9169 1.03487 1.84859 1.03671 1.78033C1.03994 1.66088 1.0464 1.52118 1.07012 1.38985C1.09029 1.27692 1.12123 1.18201 1.16774 1.09067C1.2136 1.00039 1.27348 0.917979 1.34579 0.845683C1.41782 0.773629 1.50027 0.71373 1.59112 0.667527C1.68189 0.621308 1.77697 0.590279 1.89017 0.56991C2.02059 0.546475 2.16058 0.540013 2.28047 0.536767C2.34881 0.534909 2.41715 0.534169 2.48497 0.533701L2.7382 0.533203H23.2544Z" fill="white"/>
<path d="M7.32277 5.38151C7.53677 5.11385 7.68198 4.75446 7.64368 4.38721C7.33043 4.40278 6.94816 4.59387 6.72684 4.86174C6.52812 5.09113 6.35224 5.46557 6.3981 5.81742C6.74974 5.84793 7.10106 5.64165 7.32277 5.38151Z" fill="black"/>
<path d="M7.6397 5.88607C7.12902 5.85565 6.69482 6.1759 6.45095 6.1759C6.20694 6.1759 5.83349 5.9014 5.42958 5.9088C4.90385 5.91652 4.41604 6.21377 4.14926 6.68653C3.60053 7.63229 4.00445 9.03519 4.53806 9.80545C4.79719 10.1865 5.10949 10.6061 5.52099 10.5911C5.90979 10.5758 6.06218 10.3393 6.53478 10.3393C7.00703 10.3393 7.14431 10.5911 7.55587 10.5834C7.98268 10.5758 8.24951 10.2022 8.50864 9.82071C8.80591 9.3863 8.9276 8.96685 8.93525 8.94382C8.9276 8.9362 8.11225 8.62341 8.10469 7.68551C8.097 6.90019 8.74483 6.52665 8.77532 6.50349C8.40948 5.96241 7.83787 5.9014 7.6397 5.88607Z" fill="black"/>
<path d="M12.0863 4.82324C13.1962 4.82324 13.9691 5.58834 13.9691 6.70226C13.9691 7.82015 13.1803 8.58922 12.0585 8.58922H10.8295V10.5436H9.94165V4.82324L12.0863 4.82324ZM10.8295 7.84393H11.8483C12.6214 7.84393 13.0614 7.42774 13.0614 6.70623C13.0614 5.9848 12.6214 5.57251 11.8523 5.57251H10.8295V7.84393Z" fill="black"/>
<path d="M14.2012 9.35823C14.2012 8.62877 14.7601 8.18084 15.7512 8.12533L16.8928 8.05797V7.7369C16.8928 7.27307 16.5796 6.99558 16.0565 6.99558C15.5608 6.99558 15.2516 7.23338 15.1764 7.60607H14.3677C14.4153 6.85282 15.0574 6.29785 16.0881 6.29785C17.099 6.29785 17.7451 6.83302 17.7451 7.66946V10.5435H16.9245V9.85769H16.9048C16.663 10.3215 16.1357 10.6148 15.5887 10.6148C14.772 10.6148 14.2012 10.1074 14.2012 9.35823ZM16.8928 8.98165V8.65262L15.8661 8.71601C15.3547 8.75172 15.0654 8.97767 15.0654 9.33445C15.0654 9.6991 15.3666 9.93698 15.8265 9.93698C16.425 9.93698 16.8928 9.52469 16.8928 8.98165Z" fill="black"/>
<path d="M18.5198 12.0778V11.384C18.5831 11.3999 18.7258 11.3999 18.7972 11.3999C19.1936 11.3999 19.4077 11.2334 19.5385 10.8053C19.5385 10.7973 19.6139 10.5516 19.6139 10.5476L18.1075 6.37329H19.035L20.0896 9.76667H20.1054L21.16 6.37329H22.0638L20.5018 10.7616C20.1451 11.7725 19.7329 12.0976 18.8687 12.0976C18.7972 12.0976 18.5831 12.0896 18.5198 12.0778Z" fill="black"/>
</g>
<defs>
<clipPath id="clip0_4374_25066">
<rect width="24.9925" height="16" fill="white" transform="translate(0.5)"/>
</clipPath>
</defs>
</svg>
