<svg width="120" height="120" viewBox="0 0 120 120" fill="none" xmlns="http://www.w3.org/2000/svg">
<g clip-path="url(#clip0_2594_641)">
<path opacity="0.88" d="M60.0911 0V18.8615L73.8024 52.3784H50.933L63.1241 82.2817H93.9219L60.0911 0ZM61.6112 59.5445H76.8212L83.2178 75.1015H67.9558L61.6112 59.5445ZM38.4467 52.3714L26.2555 82.2746H34.0093L46.2005 52.3714H38.4467Z" fill="white"/>
<path opacity="0.88" d="M49.1061 112.829H21.5042L30.8936 90.0991H23.095L10.8 120H56.4113V90.0991H49.1061V112.829Z" fill="white"/>
<path opacity="0.88" d="M50.9519 40.9097L54.464 32.2944H46.7079L43.2005 40.9097H50.9519ZM101.574 120.003H109.33L97.1367 90.0993H64.6938V120.003H71.9967V112.291H98.4326L101.574 120.003ZM71.9967 104.986V97.4046H92.3618L95.4515 104.986H71.9967Z" fill="white"/>
</g>
<defs>
<clipPath id="clip0_2594_641">
<rect width="120" height="120" fill="white"/>
</clipPath>
</defs>
</svg>
