<svg width="324" height="100" viewBox="0 0 324 100" fill="none" xmlns="http://www.w3.org/2000/svg">
<path d="M131.838 48.0272C123.368 48.0272 119.588 48.0272 111.118 48.0272V36.7697H103.886C103.886 45.3826 103.886 54.0608 103.886 62.6737H111.118V51.336C119.588 51.336 123.368 51.336 131.838 51.336V62.6737H139.073C139.073 54.0608 139.073 45.3826 139.073 36.7697H131.838V48.0272Z" fill="white"/>
<path d="M242.767 36.7672H219.229C216.028 36.7672 213.396 39.3917 213.396 42.5952V56.8432C213.396 60.0492 216.028 62.6712 219.229 62.6712H242.764C245.968 62.6712 248.59 60.0492 248.59 56.8432V42.5952C248.592 39.3917 245.97 36.7672 242.767 36.7672ZM241.355 55.4169C241.355 57.5576 239.611 59.3073 237.468 59.3073H224.528C222.387 59.3073 220.633 57.5601 220.633 55.4169V43.9839C220.633 41.8482 222.385 40.096 224.528 40.096H237.468C239.608 40.096 241.355 41.8457 241.355 43.9839V55.4169Z" fill="white"/>
<path d="M250.477 36.7672V40.096H264.457V62.6712H271.694V40.096H285.669V36.7672H250.477Z" fill="white"/>
<path d="M93.0325 62.6687C94.5545 62.6687 95.5545 62.6687 100.264 62.6687L100.269 36.7646H93.03L93.0325 62.6687Z" fill="white"/>
<path d="M179.656 42.5952V56.8432C179.656 60.0492 182.278 62.6712 185.482 62.6712H211.323V59.3524H190.783C188.642 59.3524 186.89 57.6027 186.89 55.4595V43.9839C186.89 41.8482 188.64 40.096 190.783 40.096H211.323V36.7672H185.482C182.278 36.7672 179.656 39.3917 179.656 42.5952Z" fill="white"/>
<path d="M142.685 42.5952V62.6712H149.924V43.8886C149.924 41.7529 151.674 40.0008 153.815 40.0008H177.876V36.7646H148.518C145.314 36.7672 142.685 39.3917 142.685 42.5952Z" fill="white"/>
<path d="M23.4919 27.9749C31.4904 27.9734 41.258 31.6999 44.7404 45.2411L45.011 45.9749C56.3727 29.1043 42.7698 14.4146 43.3124 12.0293C38.4139 13.6352 42.5845 22.3322 39.2521 24.794C34.0624 27.6014 15.1874 23.869 12.1227 31.2719C13.3669 29.7264 18.0154 27.9749 23.4919 27.9749Z" fill="white"/>
<path d="M44.2448 11.8083C49.0772 12.5642 65.3022 30.5583 48.486 47.0465L47.961 47.6407C47.961 47.6377 47.9654 47.6377 47.9698 47.6362L47.9595 47.6407C68.2478 49.0451 74.1698 29.9215 76.5051 29.198C72.6669 25.7598 67.2198 33.7186 63.4242 32.0671C58.4007 28.9715 52.1889 10.7583 44.2448 11.8083C44.2448 11.8083 44.2448 11.8083 44.2478 11.8083C44.2448 11.8083 44.2448 11.8083 44.2448 11.8083Z" fill="white"/>
<path d="M66.6022 70.7672C58.6095 70.7848 48.8537 67.0745 45.3654 53.5407C45.2625 53.2804 45.1625 53.0201 45.0684 52.751C33.711 69.6201 47.3081 84.3098 46.7684 86.6936C51.6669 85.0907 47.5007 76.3921 50.8301 73.9319C56.0213 71.1245 74.8978 74.8569 77.961 67.451C76.7125 68.9951 72.0698 70.7524 66.6022 70.7672Z" fill="white"/>
<path d="M69.2095 56.6352C69.3787 50.7337 82.0463 36.2543 77.1669 29.9014C78.7081 33.894 73.1978 52.0396 56.6022 52.2778C54.2316 52.3117 51.6331 51.9822 48.7978 51.1911L47.9919 51.0322C56.9184 69.3028 76.4419 64.869 78.2389 66.5322C79.2963 61.4867 69.6786 60.747 69.2095 56.6352Z" fill="white"/>
<path d="M42.0286 51.1711C42.0522 51.1505 42.0683 51.1299 42.0904 51.1093L42.1213 51.0784C21.8316 49.6755 15.911 68.8005 13.5757 69.5225C17.4154 72.9623 22.861 65.0034 26.6551 66.6549C31.686 69.749 37.8904 87.9622 45.8345 86.9108C45.8257 86.9108 45.8125 86.9078 45.8007 86.9064C40.9345 86.0799 24.6169 68.2431 42.0286 51.1711Z" fill="white"/>
<path d="M42.0536 47.6801L42.0889 47.6919C33.161 29.4184 13.636 33.8507 11.8463 32.1904C10.786 37.2345 20.4036 37.9757 20.8683 42.0875C20.7051 47.9904 8.03158 62.4698 12.9139 68.8257C12.8889 68.7566 12.8625 68.6816 12.8419 68.6066C11.383 63.5713 19.0551 41.1345 42.0536 47.6801Z" fill="white"/>
<path d="M42.0536 47.6808C19.0551 41.1352 11.3831 63.572 12.8419 68.6058C12.8625 68.6837 12.8889 68.7573 12.9139 68.8249C12.5478 66.4985 15.5066 58.1558 22.4316 52.5617C27.1272 48.6999 33.6272 46.1308 42.0889 47.6911L42.0536 47.6808Z" fill="white"/>
<path d="M23.4919 27.9746C18.0154 27.9746 13.3669 29.7261 12.1227 31.2702C14.4786 29.3628 28.3272 27.179 37.9316 35.4276C38.0845 35.557 38.2345 35.6878 38.3816 35.8217C38.383 35.8231 38.383 35.8261 38.386 35.8276C41.0595 38.2187 43.3595 41.4467 44.9272 45.7437L44.7404 45.2393C41.258 31.7011 31.4904 27.9731 23.4919 27.9746Z" fill="white"/>
<path d="M44.2492 11.8086C46.0977 12.5204 50.4595 17.4454 52.6139 24.2439C54.8021 31.0115 54.8124 39.5968 47.9713 47.6351L48.4874 47.0468C65.3021 30.5586 49.0816 12.563 44.2492 11.8086Z" fill="white"/>
<path d="M77.961 67.4494C77.436 67.8288 76.4698 68.2082 75.1889 68.5111C70.2978 69.7082 60.8492 69.8494 53.3772 64.2567C50.1169 61.867 47.2581 58.417 45.3654 53.5391C48.8537 67.0744 58.6095 70.7832 66.6022 70.7655C72.0698 70.7523 76.7125 68.9949 77.961 67.4494Z" fill="white"/>
<path d="M77.1669 29.9014C77.4536 31.7425 75.5787 37.4175 71.3331 42.4911C71.3331 42.4911 71.3272 42.4955 71.3272 42.497C71.2081 42.6411 71.0845 42.7837 70.961 42.9249C70.8345 43.072 70.7051 43.2161 70.5742 43.3617C70.5742 43.3617 70.5742 43.3631 70.5713 43.369C67.2934 46.997 62.7536 50.1631 56.8639 51.1661C56.8595 51.1661 56.8537 51.1661 56.8492 51.1675C56.6845 51.1955 56.5169 51.219 56.3536 51.2425C56.2375 51.2602 56.1286 51.2778 56.0154 51.294C55.9669 51.2999 55.9154 51.3028 55.8684 51.3102C53.4595 51.6146 50.8331 51.5572 47.9919 51.0308L48.7978 51.1896C51.6316 51.9808 54.2286 52.3102 56.6007 52.2764C73.1978 52.0381 78.7051 33.8955 77.1669 29.9014Z" fill="white"/>
<path d="M36.3919 69.7732C35.6051 63.96 36.7757 57.3526 42.1213 51.0791L42.0919 51.11C42.0683 51.1306 42.0522 51.1512 42.0286 51.1718C24.6169 68.2438 40.9345 86.0806 45.7992 86.907C45.8125 86.9085 45.8242 86.9115 45.833 86.9115C43.5757 86.0482 37.5625 78.9232 36.3919 69.7732Z" fill="white"/>
</svg>
