<svg width="20" height="20" viewBox="0 0 20 20" fill="none" xmlns="http://www.w3.org/2000/svg">
<path fill-rule="evenodd" clip-rule="evenodd" d="M12.5957 18.7945C12.0778 18.8872 11.5445 18.9355 11 18.9355C7.00197 18.9355 3.61282 16.3286 2.43964 12.7219C1.05059 12.4595 0 11.2395 0 9.77417C0 8.26717 1.11117 7.0197 2.5589 6.80637C3.83014 3.37844 7.12978 0.935547 11 0.935547C11.5756 0.935547 12.1386 0.989583 12.6841 1.09285C13.2344 0.425461 14.0675 0 15 0C16.6569 0 18 1.34315 18 3C18 3.37003 17.933 3.72442 17.8105 4.05169C19.1747 5.6294 20 7.6861 20 9.93555C20 12.2041 19.1607 14.2766 17.7756 15.8595C17.9202 16.2111 18 16.5962 18 17C18 18.6569 16.6569 20 15 20C14.0161 20 13.1427 19.5263 12.5957 18.7945ZM15 6C15.545 6 16.0561 5.85466 16.4966 5.60063C17.4381 6.79278 18 8.29854 18 9.93555C18 11.6136 17.4096 13.1537 16.4251 14.3595C16.0012 14.1302 15.5158 14 15 14C13.3886 14 12.074 15.2704 12.003 16.8642C11.6755 16.9112 11.3406 16.9355 11 16.9355C8.00239 16.9355 5.44486 15.0513 4.44716 12.4027C5.37292 11.8919 6 10.9063 6 9.77417C6 8.68535 5.41995 7.73202 4.55201 7.20631C5.61574 4.69632 8.10225 2.93555 11 2.93555C11.3395 2.93555 11.6734 2.95972 12 3.00644C12.0035 4.66033 13.3453 6 15 6Z" fill="#FECC39"/>
</svg>
