<svg width="12" height="12" viewBox="0 0 12 12" fill="none" xmlns="http://www.w3.org/2000/svg">
<path d="M6 12C2.72727 12 0 9.30091 0 6.01824C0 2.69909 2.72727 0 6 0C9.30909 0 12 2.69909 12 6.01824C12 9.30091 9.30909 12 6 12ZM1.52727 6.01824C1.52727 8.49848 3.52727 10.5046 6 10.5046C8.50909 10.5046 10.5091 8.49848 10.5091 6.01824C10.5091 3.50152 8.50909 1.49544 6 1.49544C3.52727 1.49544 1.52727 3.50152 1.52727 6.01824ZM3.01818 6.01824C3.01818 4.34043 4.36364 2.99088 6 2.99088C7.16364 2.99088 8.25455 3.64742 8.76364 4.81459L7.38182 5.43465C7.27273 5.03343 6.72727 4.48632 6 4.48632C5.16364 4.48632 4.50909 5.17933 4.50909 6.01824C4.50909 6.85714 5.16364 7.51368 6 7.51368C6.76364 7.51368 7.27273 6.96657 7.38182 6.56535L8.76364 7.18541C8.25455 8.38906 7.09091 9.00912 6 9.00912C4.36364 9.00912 3.01818 7.65957 3.01818 6.01824Z" fill="black"/>
</svg>
