<svg width="14" height="12" viewBox="0 0 14 12" fill="none" xmlns="http://www.w3.org/2000/svg">
<path d="M1.55688 6.99457C0.649929 6.66874 0 5.7882 0 4.75307C0 3.44071 1.04467 2.37684 2.33333 2.37684H5.83333C7.30358 2.37684 9.3179 1.60758 11.8555 0.0570499C12.1147 -0.101332 12.4444 0.0888114 12.4444 0.39665V2.41645C13.332 2.59992 14 3.39903 14 4.35703V5.14911C14 6.10711 13.332 6.90622 12.4444 7.08969V9.10949C12.4444 9.41733 12.1147 9.60747 11.8555 9.44909C9.3179 7.89856 7.30358 7.1293 5.83333 7.1293H4.83788C4.7194 7.27665 4.66667 7.40793 4.66667 7.52534C4.66667 7.47166 4.68709 7.48899 4.84058 7.56715C5.27042 7.78602 5.44444 7.9337 5.44444 8.31741C5.44444 8.59611 5.35435 8.7628 5.16483 8.96959L5.14541 8.99075C5.06622 9.07715 5.05593 9.0956 5.05557 9.16208C5.05574 9.12968 5.06073 9.1316 5.19775 9.18642C5.21267 9.19238 5.21267 9.19238 5.22818 9.19857C5.64175 9.36369 5.83333 9.51029 5.83333 9.90157C5.83333 10.2822 5.65716 10.6411 5.33054 10.9737C4.1442 12.1818 3.08724 12.3612 2.39865 11.3094C1.84968 10.4708 1.57793 9.03897 1.55688 6.99457Z" fill="white"/>
</svg>
