<svg width="14" height="16" viewBox="0 0 14 16" fill="none" xmlns="http://www.w3.org/2000/svg">
<path fill-rule="evenodd" clip-rule="evenodd" d="M0 1.5C1.61921 1.25089 4.72776 0.759764 7.03003 0.360527C7.80843 0.225546 8.49466 0.101068 9 0C9.06763 0.541057 9.18101 1.09431 9.33022 1.6511C10.0378 4.29159 11.5515 7.0116 12.8155 8.88728C13.2554 9.54012 13.6651 10.0907 14 10.5L6 16C2 10.5 0.5 6 0 1.5ZM9.35601 6.99559C8.61497 5.59071 7.8993 3.97402 7.43957 2.31928C5.84828 2.59591 3.87548 2.91555 2.26518 3.17037C2.63897 5.19612 3.28097 7.26693 4.36717 9.5L9.35601 6.99559Z" fill="#272727"/>
</svg>
