<svg width="20" height="20" viewBox="0 0 20 20" fill="none" xmlns="http://www.w3.org/2000/svg">
<path d="M8.73508 1.08819C4.36343 1.70309 1 5.45876 1 10C1 14.9706 5.02944 19 10 19C14.9706 19 19 14.9706 19 10C19 9.31261 18.9229 8.64322 18.777 8H17V8.5C17 8.77614 16.7761 9 16.5 9H15V9.29289L15.8536 10.1464C16.0488 10.3417 16.0488 10.6583 15.8536 10.8536L14 12.7071V14.5C14 14.5776 13.9819 14.6542 13.9472 14.7236L12.9472 16.7236L12.8536 16.8536L11.8536 17.8536C11.6583 18.0488 11.3417 18.0488 11.1464 17.8536L10.1464 16.8536C10.0527 16.7598 10 16.6326 10 16.5V13.7071L9.14645 12.8536C9.05268 12.7598 9 12.6326 9 12.5V11.7071L8.20382 10.9109L6.27639 9.94721L6.14645 9.85355L5.14645 8.85355C4.95118 8.65829 4.95118 8.34171 5.14645 8.14645L6 7.29289V6.5C6 6.22386 6.22386 6 6.5 6H8.29289L9.14645 5.14645C9.34171 4.95118 9.65829 4.95118 9.85355 5.14645L10.7962 6.08907L12.618 7H13.2929L14 6.29289V5.70711L13.1464 4.85355C13.0527 4.75979 13 4.63261 13 4.5V4H12V4.5C12 4.77614 11.7761 5 11.5 5H10.5C10.3674 5 10.2402 4.94732 10.1464 4.85355L9.29289 4H8.5C8.05455 4 7.83146 3.46143 8.14645 3.14645L9 2.29289V1.61803L8.73508 1.08819ZM10 20C4.47715 20 0 15.5228 0 10C0 4.47715 4.47715 0 10 0C15.5228 0 20 4.47715 20 10C20 15.5228 15.5228 20 10 20Z" fill="white"/>
</svg>
