<svg width="20" height="20" viewBox="0 0 20 20" fill="none" xmlns="http://www.w3.org/2000/svg">
<path d="M1.51212 13H6.1719C6.05949 12.0524 6 11.0445 6 10C6 8.95554 6.05949 7.94765 6.1719 7H1.51212C1.18046 7.93834 1 8.94809 1 10C1 11.0519 1.18046 12.0617 1.51212 13ZM1.93552 14C3.1259 16.3953 5.35208 18.1851 8.02801 18.7833C7.24889 17.7228 6.65216 16.0371 6.31375 14H1.93552ZM18.4879 13C18.8195 12.0617 19 11.0519 19 10C19 8.94809 18.8195 7.93834 18.4879 7H13.8281C13.9405 7.94765 14 8.95554 14 10C14 11.0445 13.9405 12.0524 13.8281 13H18.4879ZM18.0645 14H13.6862C13.3478 16.0371 12.7511 17.7228 11.972 18.7833C14.6479 18.1851 16.8741 16.3953 18.0645 14ZM7.1844 13H12.8156C12.934 12.0624 13 11.0528 13 10C13 8.94717 12.934 7.93761 12.8156 7H7.1844C7.06598 7.93761 7 8.94717 7 10C7 11.0528 7.06598 12.0624 7.1844 13ZM7.33498 14C7.85717 16.9678 8.91807 19 10 19C11.0819 19 12.1428 16.9678 12.665 14H7.33498ZM1.93552 6H6.31375C6.65216 3.96286 7.24889 2.27722 8.02801 1.21671C5.35208 1.81488 3.1259 3.60466 1.93552 6ZM18.0645 6C16.8741 3.60466 14.6479 1.81488 11.972 1.21671C12.7511 2.27722 13.3478 3.96286 13.6862 6H18.0645ZM7.33498 6H12.665C12.1428 3.03217 11.0819 1 10 1C8.91807 1 7.85717 3.03217 7.33498 6ZM10 20C4.47715 20 0 15.5228 0 10C0 4.47715 4.47715 0 10 0C15.5228 0 20 4.47715 20 10C20 15.5228 15.5228 20 10 20Z" fill="#FECC39"/>
</svg>
