<svg width="20" height="14" viewBox="0 0 20 14" fill="none" xmlns="http://www.w3.org/2000/svg">
<path fill-rule="evenodd" clip-rule="evenodd" d="M0.156345 6.6184C2.35391 1.25271 8.43644 -1.37879 13.8462 0.724207C16.5677 1.78217 18.7349 3.91399 19.8435 6.61818L20 6.99986L19.8437 7.3816C17.6461 12.7473 11.5636 15.3788 6.15381 13.2758C3.4323 12.2178 1.2651 10.086 0.156478 7.38183L0 7.00014L0.156345 6.6184ZM2.15704 6.99961C3.09828 9.0145 4.7815 10.5991 6.86759 11.41C11.1459 13.0732 15.9324 11.0997 17.843 7.00039C16.9017 4.9855 15.2185 3.40091 13.1324 2.58997C8.85406 0.926795 4.0676 2.90034 2.15704 6.99961ZM6.01978 7C6.01978 4.78804 7.80691 3.00421 10 3.00421C12.1931 3.00421 13.9802 4.78804 13.9802 7C13.9802 9.21196 12.1931 10.9958 10 10.9958C7.80691 10.9958 6.01978 9.21196 6.01978 7ZM10 5.0039C8.89226 5.0039 8.00352 5.90273 8.00352 7C8.00352 8.09727 8.89226 8.9961 10 8.9961C11.1077 8.9961 11.9965 8.09727 11.9965 7C11.9965 5.90273 11.1077 5.0039 10 5.0039Z" fill="#FECC39"/>
</svg>
