<svg width="20" height="18" viewBox="0 0 20 18" fill="none" xmlns="http://www.w3.org/2000/svg">
<path fill-rule="evenodd" clip-rule="evenodd" d="M19 1.41467L2.41463 18L0.999962 16.5853L17.5853 0L19 1.41467Z" fill="#FECC39"/>
<path d="M7.53443 15.7082C12.5621 16.9154 17.8315 14.2947 19.8437 9.38164L20 8.9999L19.8435 8.61821C19.3567 7.4307 18.6657 6.35357 17.8133 5.42928L16.4041 6.83852C16.9852 7.4782 17.4718 8.20586 17.843 9.00043C16.2859 12.3412 12.8188 14.2701 9.27324 13.9693L7.53443 15.7082Z" fill="#FECC39"/>
<path d="M13.9712 9.27138C13.8378 11.2712 12.2408 12.8616 10.2548 12.9878L13.9712 9.27138Z" fill="#FECC39"/>
<path d="M6.02881 8.72848L9.74496 5.01233C7.75913 5.13859 6.1623 6.72882 6.02881 8.72848Z" fill="#FECC39"/>
<path d="M10.7266 4.03072C7.1811 3.73002 3.71405 5.65893 2.15704 8.99965C2.5282 9.79417 3.01473 10.5218 3.59585 11.1615L2.18661 12.5707C1.33424 11.6464 0.643299 10.5693 0.156478 9.38186L0 9.00018L0.156345 8.61844C2.16852 3.70542 7.4378 1.08472 12.4654 2.29189L10.7266 4.03072Z" fill="#FECC39"/>
</svg>
