<svg width="18" height="18" viewBox="0 0 18 18" fill="none" xmlns="http://www.w3.org/2000/svg">
<path d="M8.99996 2.16817C11.2251 2.16817 11.4886 2.17666 12.3673 2.21675C13.1798 2.25382 13.6211 2.38957 13.9147 2.50369C14.3037 2.65485 14.5813 2.83545 14.8729 3.12705C15.1645 3.41866 15.3451 3.69626 15.4963 4.08524C15.6104 4.37888 15.7461 4.82014 15.7832 5.63261C15.8233 6.51135 15.8318 6.7749 15.8318 9C15.8318 11.2251 15.8233 11.4887 15.7832 12.3674C15.7461 13.1799 15.6104 13.6211 15.4963 13.9148C15.3451 14.3037 15.1645 14.5813 14.8729 14.8729C14.5813 15.1645 14.3037 15.3451 13.9147 15.4963C13.6211 15.6104 13.1798 15.7462 12.3673 15.7833C11.4887 15.8233 11.2252 15.8318 8.99996 15.8318C6.77471 15.8318 6.51118 15.8233 5.63258 15.7833C4.8201 15.7462 4.37884 15.6104 4.0852 15.4963C3.69622 15.3451 3.41862 15.1645 3.12702 14.8729C2.83542 14.5813 2.65481 14.3037 2.50365 13.9148C2.38953 13.6211 2.25378 13.1799 2.2167 12.3674C2.17661 11.4887 2.16813 11.2251 2.16813 9C2.16813 6.7749 2.17661 6.51135 2.2167 5.63263C2.25378 4.82014 2.38953 4.37888 2.50365 4.08524C2.65481 3.69626 2.83541 3.41866 3.12701 3.12706C3.41862 2.83545 3.69622 2.65485 4.0852 2.50369C4.37884 2.38957 4.8201 2.25382 5.63257 2.21675C6.5113 2.17666 6.77486 2.16817 8.99996 2.16817ZM8.99996 0.666668C6.73676 0.666668 6.45297 0.676253 5.56414 0.716806C4.67714 0.75728 4.07138 0.898152 3.5413 1.10416C2.99332 1.31712 2.52858 1.60206 2.06529 2.06533C1.60201 2.52862 1.31708 2.99336 1.10412 3.54134C0.89811 4.07142 0.757238 4.67718 0.716764 5.56418C0.676212 6.45302 0.666626 6.73679 0.666626 9C0.666626 11.2632 0.676212 11.547 0.716764 12.4358C0.757238 13.3228 0.89811 13.9286 1.10412 14.4587C1.31708 15.0066 1.60201 15.4714 2.06529 15.9347C2.52858 16.3979 2.99332 16.6829 3.5413 16.8958C4.07138 17.1019 4.67714 17.2427 5.56414 17.2832C6.45297 17.3238 6.73676 17.3333 8.99996 17.3333C11.2632 17.3333 11.5469 17.3238 12.4358 17.2832C13.3228 17.2427 13.9285 17.1019 14.4586 16.8958C15.0066 16.6829 15.4713 16.3979 15.9346 15.9347C16.3979 15.4714 16.6828 15.0066 16.8958 14.4587C17.1018 13.9286 17.2427 13.3228 17.2832 12.4358C17.3237 11.547 17.3333 11.2632 17.3333 9C17.3333 6.7368 17.3237 6.45302 17.2832 5.56418C17.2427 4.67718 17.1018 4.07142 16.8958 3.54134C16.6828 2.99336 16.3979 2.52862 15.9346 2.06533C15.4713 1.60206 15.0066 1.31712 14.4586 1.10416C13.9285 0.898152 13.3228 0.75728 12.4358 0.716806C11.5469 0.676253 11.2632 0.666668 8.99996 0.666668ZM8.99996 4.72072C6.63658 4.72072 4.72068 6.63662 4.72068 9C4.72068 11.3634 6.63658 13.2793 8.99996 13.2793C11.3633 13.2793 13.2792 11.3634 13.2792 9C13.2792 6.63662 11.3633 4.72072 8.99996 4.72072ZM8.99996 11.7778C7.46584 11.7778 6.22218 10.5341 6.22218 9C6.22218 7.46588 7.46584 6.22222 8.99996 6.22222C10.5341 6.22222 11.7777 7.46588 11.7777 9C11.7777 10.5341 10.5341 11.7778 8.99996 11.7778ZM13.4483 3.55165C12.896 3.55165 12.4483 3.99936 12.4483 4.55165C12.4483 5.10393 12.896 5.55165 13.4483 5.55165C14.0006 5.55165 14.4483 5.10393 14.4483 4.55165C14.4483 3.99936 14.0006 3.55165 13.4483 3.55165Z" fill="white"/>
</svg>
