<svg width="20" height="20" viewBox="0 0 20 20" fill="none" xmlns="http://www.w3.org/2000/svg">
<path d="M8 5L14 10L8 15V12H0.199951C0.0688477 11.3538 0 10.6849 0 10C0 9.31506 0.0688477 8.64624 0.199951 8H8V5Z" fill="#FECC39"/>
<path d="M4.21265 18.1561C5.84608 19.3173 7.84331 20 10 20C15.5229 20 20 15.5228 20 10C20 4.47715 15.5229 0 10 0C7.84331 0 5.84608 0.682737 4.21265 1.84387L5.81601 3.18001C7.03331 2.43161 8.46625 2 10 2C14.4183 2 18 5.58172 18 10C18 14.4183 14.4183 18 10 18C8.46625 18 7.03331 17.5684 5.81601 16.82L4.21265 18.1561Z" fill="#FECC39"/>
</svg>
