<svg width="44" height="44" viewBox="0 0 44 44" fill="none" xmlns="http://www.w3.org/2000/svg">
<g clip-path="url(#clip0_4865_14742)">
<path fill-rule="evenodd" clip-rule="evenodd" d="M14.4771 19.2053L10.0312 30.1645H12.8636L17.3025 19.2053H14.4771Z" fill="#FFFCF5"/>
<path fill-rule="evenodd" clip-rule="evenodd" d="M22.3684 6.91418V0L34.7055 30.1645H23.4746L19.0287 19.2053H27.3709L22.3684 6.91418ZM28.47 21.8335H22.925L25.236 27.5363H30.8021L28.47 21.8335Z" fill="#FFFCF5"/>
<path fill-rule="evenodd" clip-rule="evenodd" d="M18.3702 41.3718H8.30178L10.4507 36.1294V36.1224L10.6339 35.669H10.641L11.726 33.0336H8.88658L4.39844 44H21.0335V33.0336H18.3702V41.3718Z" fill="#5187C4"/>
<path fill-rule="evenodd" clip-rule="evenodd" d="M19.0363 15.0256L20.3186 11.8661H17.5003L16.2109 15.0256H19.0363ZM37.4962 44.0283H40.3145L35.8686 33.0337H24.0458V44H26.7091V41.1663H36.3477L37.4962 44.0283ZM26.7091 38.4885V35.7115H34.1353L35.2627 38.4885H26.7091Z" fill="#FECC39"/>
</g>
<defs>
<clipPath id="clip0_4865_14742">
<rect width="35.9333" height="44" fill="white" transform="translate(4.39844)"/>
</clipPath>
</defs>
</svg>
