<svg width="40" height="40" viewBox="0 0 40 40" fill="none" xmlns="http://www.w3.org/2000/svg">
<path fill-rule="evenodd" clip-rule="evenodd" d="M39.9999 26.5362L35.9999 33.4643L29.8492 32.6149C28.6673 33.5371 27.3698 34.2804 26.0002 34.8333L24.0001 40L16.0001 40L14.0002 34.8349C13.3213 34.5591 12.6528 34.2335 12.0001 33.8566C11.3474 33.4798 10.7317 33.064 10.1534 32.6139L4.00002 33.4647L0 26.5365L3.47467 22.221C3.26866 20.7585 3.26372 19.2627 3.47141 17.778L5.43998e-05 13.4644L4.00004 6.5362L10.151 7.38569C11.333 6.46348 12.6304 5.72013 14 5.16728L16.0002 0L24.0002 1.65381e-05L26.0003 5.16579C26.6792 5.44159 27.3474 5.76707 28.0001 6.1439C28.6528 6.52073 29.2692 6.9364 29.8475 7.38697L35.9999 6.53643L39.9999 13.4646L36.5252 17.78C36.731 19.2424 36.7362 20.7379 36.5285 22.2226L39.9999 26.5362ZM20.0002 32.0001C26.6276 32.0001 32.0002 26.6276 32.0002 20.0002C32.0002 13.3728 26.6276 8.0002 20.0002 8.0002C13.3728 8.0002 8.00026 13.3728 8.00026 20.0002C8.00026 26.6276 13.3728 32.0001 20.0002 32.0001Z" fill="#FECC39"/>
</svg>
