<svg width="12" height="14" viewBox="0 0 12 14" fill="none" xmlns="http://www.w3.org/2000/svg">
<path d="M5.17839 10.4437C4.3496 9.92496 3.23986 10.1589 2.72461 10.9816C0.99416 13.7443 -0.69137 13.9917 0.289807 13.9987C3.76862 14.0244 5.19858 13.6743 5.72491 12.8586C6.25195 12.0429 6.00719 10.9618 5.17839 10.4437Z" fill="white"/>
<path d="M4.34277 9.58616C4.52116 8.78022 4.93621 7.77624 5.54702 6.73743C5.57422 6.69296 5.60132 6.64844 5.62841 6.6039C5.70829 6.47264 5.78817 6.34136 5.87074 6.21173C7.35821 3.90759 11.0653 -0.452014 11.8484 0.0380894C12.6321 0.528163 10.1949 5.68249 8.70804 7.98603C8.62498 8.11341 8.53884 8.23884 8.45271 8.36425C8.42218 8.4087 8.39166 8.45314 8.36127 8.49767C7.66481 9.48368 6.91757 10.2793 6.25218 10.7801C6.085 10.4367 5.82118 10.1334 5.47089 9.91429C5.1203 9.69501 4.72951 9.58949 4.34277 9.58616Z" fill="white"/>
</svg>
