<svg width="16" height="20" viewBox="0 0 16 20" fill="none" xmlns="http://www.w3.org/2000/svg">
<path d="M10 18C10 19.1046 9.10457 20 8 20C6.89543 20 6 19.1046 6 18C6 16.8954 6.89543 16 8 16C9.10457 16 10 16.8954 10 18Z" fill="#FECC39"/>
<path d="M12 6C12 6.11554 11.9469 6.52513 11.2569 7.04264C10.8558 7.34347 10.4232 7.55207 9.97071 7.69621C7.86581 8.3668 6 9.79086 6 12V14H10V12.6364C10 12.1572 10.3422 11.7507 10.8035 11.6212C13.839 10.7693 16 8.57392 16 6C16 2.68629 12.4183 0 8 0C3.58172 0 0 2.68629 0 6H4C4 5.88446 4.05313 5.47487 4.74315 4.95736C5.43439 4.43893 6.57265 4 8 4C9.42735 4 10.5656 4.43893 11.2569 4.95736C11.9469 5.47487 12 5.88446 12 6Z" fill="#FECC39"/>
</svg>
