<svg width="40" height="40" viewBox="0 0 40 40" fill="none" xmlns="http://www.w3.org/2000/svg">
<path fill-rule="evenodd" clip-rule="evenodd" d="M4.51411 32.6575C5.36044 33.6917 6.30832 34.6396 7.34254 35.4859C10.7903 38.3073 15.1975 40 20 40C31.0457 40 40 31.0457 40 20C40 8.9543 31.0457 0 20 0C8.9543 0 0 8.9543 0 20C0 24.8025 1.69273 29.2097 4.51411 32.6575ZM10.1887 32.6397C12.8981 34.7458 16.3026 36 20 36C28.8366 36 36 28.8366 36 20C36 16.3026 34.7458 12.8981 32.6397 10.1887L10.1887 32.6397ZM29.8113 7.36028C27.1019 5.25416 23.6974 4 20 4C11.1634 4 4 11.1634 4 20C4 23.6974 5.25416 27.1019 7.36028 29.8113L29.8113 7.36028Z" fill="#FECC39"/>
</svg>
