<svg width="18" height="12" viewBox="0 0 18 12" fill="none" xmlns="http://www.w3.org/2000/svg">
<path fill-rule="evenodd" clip-rule="evenodd" d="M15.5116 0.514849C16.2287 0.706522 16.7935 1.27127 16.9851 1.98835C17.3334 3.2881 17.3334 5.99991 17.3334 5.99991C17.3334 5.99991 17.3334 8.71173 16.9851 10.0115C16.7935 10.7286 16.2287 11.2933 15.5116 11.485C14.2119 11.8333 9.00008 11.8333 9.00008 11.8333C9.00008 11.8333 3.78827 11.8333 2.48852 11.485C1.77144 11.2933 1.20669 10.7286 1.01502 10.0115C0.666748 8.71173 0.666748 5.99991 0.666748 5.99991C0.666748 5.99991 0.666748 3.2881 1.01502 1.98835C1.20669 1.27127 1.77144 0.706522 2.48852 0.514849C3.78827 0.166584 9.00008 0.166584 9.00008 0.166584C9.00008 0.166584 14.2119 0.166584 15.5116 0.514849ZM11.6516 5.99987L7.29553 8.46192V3.53768L11.6516 5.99987Z" fill="white"/>
</svg>
