<svg width="20" height="14" viewBox="0 0 20 14" fill="none" xmlns="http://www.w3.org/2000/svg">
<path fill-rule="evenodd" clip-rule="evenodd" d="M17.8139 0.417918C18.6744 0.647926 19.3521 1.32563 19.5821 2.18612C20 3.74582 20 7 20 7C20 7 20 10.2542 19.5821 11.8139C19.3521 12.6744 18.6744 13.3521 17.8139 13.5821C16.2542 14 10 14 10 14C10 14 3.74583 14 2.18613 13.5821C1.32563 13.3521 0.647934 12.6744 0.417925 11.8139C0 10.2542 0 7 0 7C0 7 0 3.74582 0.417925 2.18612C0.647934 1.32563 1.32563 0.647926 2.18613 0.417918C3.74583 0 10 0 10 0C10 0 16.2542 0 17.8139 0.417918ZM13.1818 7.00004L7.95453 9.9545V4.04541L13.1818 7.00004Z" fill="#FECC39"/>
</svg>
