<svg width="25" height="24" viewBox="0 0 25 24" fill="none" xmlns="http://www.w3.org/2000/svg">
<path fill-rule="evenodd" clip-rule="evenodd" d="M7.16667 0H9.83333V2.6673C10.0857 2.66667 10.3519 2.66667 10.6333 2.66667H11.1667V0H13.8333V2.66667H14.3667C14.6481 2.66667 14.9143 2.66667 15.1667 2.6673V0H17.8333V2.77117C18.415 2.84376 18.8761 2.9668 19.2853 3.1753C20.1634 3.62271 20.8773 4.33662 21.3247 5.21471C21.5332 5.62393 21.6562 6.08499 21.7288 6.66667H24.5V9.33333H21.8327C21.8333 9.58568 21.8333 9.85193 21.8333 10.1333V10.6667H24.5V13.3333H21.8333V13.8667C21.8333 14.1481 21.8333 14.4143 21.8327 14.6667H24.5V17.3333H21.7288C21.6562 17.915 21.5332 18.3761 21.3247 18.7853C20.8773 19.6634 20.1634 20.3773 19.2853 20.8247C18.8761 21.0332 18.415 21.1562 17.8333 21.2288V24H15.1667V21.3327C14.9143 21.3333 14.6481 21.3333 14.3667 21.3333H13.8333V24H11.1667V21.3333H10.6333C10.3519 21.3333 10.0857 21.3333 9.83333 21.3327V24H7.16667V21.2288C6.58499 21.1562 6.12393 21.0332 5.71471 20.8247C4.83662 20.3773 4.12271 19.6634 3.6753 18.7853C3.4668 18.3761 3.34376 17.915 3.27117 17.3333H0.5V14.6667H3.1673C3.16667 14.4143 3.16667 14.1481 3.16667 13.8667V13.3333H0.5V10.6667H3.16667V10.1333C3.16667 9.85193 3.16667 9.58568 3.1673 9.33333L0.5 9.33333V6.66667L3.27117 6.66667C3.34376 6.08499 3.4668 5.62393 3.6753 5.21471C4.12271 4.33662 4.83662 3.62271 5.71471 3.1753C6.12393 2.9668 6.58499 2.84376 7.16667 2.77117V0ZM15.2348 5.33333H14.0681V7.44427C13.7045 7.36907 13.3277 7.33333 12.9411 7.33333C12.5259 7.33333 12.1225 7.37495 11.7348 7.46236V5.33333H10.5681V7.8952L10.5226 7.92004C9.80312 8.31812 9.23286 8.88361 8.83012 9.59988C8.42008 10.323 8.2348 11.1357 8.2348 12C8.2348 12.8656 8.4206 13.6798 8.82872 14.4067L8.83154 14.4116C9.2353 15.1226 9.80572 15.6833 10.5226 16.08L10.5681 16.1048V18.6667H11.7348V16.5376C12.1225 16.625 12.5259 16.6667 12.9411 16.6667C13.3277 16.6667 13.7045 16.6309 14.0681 16.5557V18.6667H15.2348V16.1503C15.8479 15.8395 16.3652 15.4059 16.7653 14.8495L14.871 13.4872C14.6902 13.7386 14.4503 13.9413 14.1262 14.0954C13.8137 14.244 13.4273 14.3333 12.9411 14.3333C12.4022 14.3333 11.9846 14.2222 11.6522 14.0383C11.3075 13.8476 11.0508 13.5934 10.8619 13.2618C10.6781 12.9334 10.5681 12.5247 10.5681 12C10.5681 11.4737 10.6788 11.0696 10.8605 10.7497L10.8633 10.7447C11.0532 10.4064 11.3101 10.151 11.6522 9.96171C11.9846 9.77781 12.4022 9.66667 12.9411 9.66667C13.4273 9.66667 13.8137 9.75603 14.1262 9.90456C14.4503 10.0587 14.6902 10.2614 14.871 10.5128L16.7653 9.15045C16.3652 8.59414 15.8479 8.16053 15.2348 7.84969V5.33333Z" fill="#FECC39"/>
</svg>
