<svg width="22" height="28" viewBox="0 0 22 28" fill="none" xmlns="http://www.w3.org/2000/svg">
<path d="M11.3558 25.9475C9.10736 25.9475 7.13737 25.6207 5.44585 24.9672C3.77496 24.2932 2.45476 23.3538 1.48523 22.1488C0.536334 20.9438 0.0412565 19.5551 0 17.9825H5.13643C5.28083 19.2283 5.89967 20.2188 6.99297 20.954C8.10689 21.6689 9.59212 22.0263 11.4487 22.0263C13.2021 22.0263 14.5326 21.7505 15.4402 21.1991C16.3685 20.6477 16.8326 19.9227 16.8326 19.0241C16.8326 18.4931 16.6882 18.0438 16.3994 17.6761C16.1313 17.3085 15.6568 17.0022 14.9761 16.7571C14.316 16.4916 13.3877 16.3078 12.1913 16.2057L8.94234 15.8993C5.9925 15.6338 3.81622 14.919 2.4135 13.7549C1.01078 12.5908 0.309423 11.0489 0.309423 9.1291C0.309423 7.65864 0.732302 6.40263 1.57806 5.36105C2.44445 4.29905 3.6512 3.48213 5.19831 2.91028C6.74543 2.33844 8.57103 2.05252 10.6751 2.05252C12.7792 2.05252 14.6151 2.36907 16.1828 3.00219C17.7712 3.61488 19.0192 4.48286 19.9269 5.60613C20.8345 6.70897 21.3296 8.00584 21.4121 9.49672H16.3066C16.1828 8.47557 15.6568 7.63822 14.7286 6.98468C13.8003 6.31072 12.4285 5.97374 10.6132 5.97374C8.94233 5.97374 7.66339 6.23924 6.77637 6.77024C5.90999 7.30124 5.47679 8.02626 5.47679 8.9453C5.47679 9.37418 5.60056 9.77243 5.8481 10.14C6.09564 10.4872 6.52883 10.7732 7.14768 10.9978C7.76653 11.2225 8.61228 11.3859 9.68495 11.488L13.2124 11.7943C15.3371 11.9781 17.0389 12.3559 18.3179 12.9278C19.6174 13.4792 20.556 14.2144 21.1336 15.1335C21.7112 16.0525 22 17.1656 22 18.4726C22 19.9227 21.5668 21.2195 20.7004 22.3632C19.834 23.4865 18.6067 24.3647 17.0183 24.9978C15.4299 25.6309 13.5424 25.9475 11.3558 25.9475ZM12.903 0V28H9.03516V0H12.903Z" fill="#343434"/>
</svg>
