<svg width="24" height="24" viewBox="0 0 24 24" fill="none" xmlns="http://www.w3.org/2000/svg">
<path d="M0.5 7.77465H18.6917V10.8476H0.5V7.77465ZM0.5 13.0602H18.6917V16.1332H0.5V13.0602ZM3.19507 12.0154C3.19507 9.61844 3.74634 7.52881 4.84887 5.74648C5.9514 3.94366 7.48269 2.54033 9.44274 1.53649C11.4232 0.512164 13.7304 0 16.3642 0C17.773 0 19.0899 0.122919 20.3149 0.368758C21.5399 0.614597 22.6016 0.932139 23.5 1.32138V5.43918C22.5608 4.98848 21.5195 4.6402 20.3762 4.39437C19.2532 4.14853 18.1303 4.02561 17.0073 4.02561C15.1902 4.02561 13.6385 4.34315 12.3522 4.97823C11.0863 5.59283 10.1165 6.49424 9.44274 7.68246C8.76897 8.87068 8.43209 10.315 8.43209 12.0154C8.43209 13.6953 8.76897 15.1293 9.44274 16.3175C10.1165 17.5058 11.0863 18.4072 12.3522 19.0218C13.6385 19.6364 15.1902 19.9437 17.0073 19.9437C18.1099 19.9437 19.2328 19.831 20.3762 19.6056C21.5195 19.3598 22.5608 19.0115 23.5 18.5608V22.7093C22.6016 23.0986 21.5399 23.4059 20.3149 23.6312C19.1103 23.8771 17.8036 24 16.3948 24C13.7406 24 11.4232 23.4981 9.44274 22.4942C7.46227 21.4904 5.92077 20.0871 4.81824 18.2843C3.73613 16.4814 3.19507 14.3918 3.19507 12.0154Z" fill="#FECC39"/>
</svg>
