<svg width="26" height="24" viewBox="0 0 26 24" fill="none" xmlns="http://www.w3.org/2000/svg">
<path d="M12.6919 24C10.5766 24 8.72828 23.7026 7.14692 23.1077C5.5861 22.4923 4.37441 21.6513 3.51185 20.5846C2.66983 19.4974 2.24882 18.2564 2.24882 16.8615C2.24882 16.041 2.37204 15.3333 2.61848 14.7385C2.88547 14.1231 3.34755 13.6 4.00474 13.1692C4.66193 12.7179 5.56556 12.3282 6.71564 12C7.88626 11.6718 9.35466 11.3744 11.1209 11.1077L14.3246 10.4C15.8444 10.0923 16.9431 9.66154 17.6209 9.10769C18.2986 8.55385 18.6374 7.86667 18.6374 7.04615C18.6374 6.12308 18.1856 5.37436 17.282 4.8C16.3784 4.22564 15.0742 3.93846 13.3697 3.93846C11.5829 3.93846 10.248 4.24615 9.36493 4.86154C8.48183 5.47692 7.95814 6.2359 7.79384 7.13846H2.68009C2.80332 5.72308 3.31675 4.48205 4.22038 3.41538C5.12401 2.32821 6.35624 1.48718 7.91706 0.892307C9.47788 0.297436 11.2954 0 13.3697 0C15.4439 0 17.2409 0.297436 18.7607 0.892307C20.3009 1.46667 21.4818 2.25641 22.3033 3.26154C23.1453 4.26667 23.5664 5.42564 23.5664 6.73846C23.5664 7.6 23.4226 8.33846 23.1351 8.95385C22.8476 9.56923 22.3752 10.1026 21.718 10.5538C21.0608 10.9846 20.1675 11.3641 19.0379 11.6923C17.9289 12.0205 16.5427 12.3179 14.8791 12.5846L11.9218 13.2615C10.7717 13.4872 9.84755 13.7744 9.14929 14.1231C8.45103 14.4513 7.94787 14.8513 7.63981 15.3231C7.33175 15.7744 7.17772 16.2872 7.17772 16.8615C7.17772 17.8051 7.66035 18.5744 8.62559 19.1692C9.61137 19.7641 10.9771 20.0615 12.7227 20.0615C14.5916 20.0615 16.0292 19.7744 17.0355 19.2C18.0419 18.6256 18.658 17.8051 18.8839 16.7385H23.9976C23.8949 18.1949 23.361 19.4769 22.3957 20.5846C21.451 21.6718 20.1572 22.5128 18.5142 23.1077C16.8918 23.7026 14.951 24 12.6919 24ZM0 15.4462V13.0154H26V15.4462H0ZM0 10.9231V8.46154H26V10.9231H0Z" fill="#FECC39"/>
</svg>
