<svg width="340" height="162" viewBox="0 0 340 162" fill="none" xmlns="http://www.w3.org/2000/svg">
<path fill-rule="evenodd" clip-rule="evenodd" d="M285.854 16.2354C289.917 23.3987 296.362 30.0077 304.189 32.5695C324.981 39.3748 340 58.9335 340 82C340 110.719 316.719 134 288 134H158.169C158.579 132.694 158.924 131.36 159.2 130H288C314.51 130 336 108.51 336 82C336 61.5462 323.207 44.0805 305.186 37.1681C297.07 34.0551 289.814 41.3943 285.247 48.7901C279.61 57.9175 269.515 64 258 64C246.26 64 235.996 57.6775 230.428 48.2516C226.128 40.9726 219.472 34 211.018 34H88C61.4903 34 40 55.4903 40 82C38.6501 82 37.3159 82.0669 36.0004 82.1975C36.0001 82.1317 36 82.0658 36 82C36 53.2812 59.2812 30 88 30H211.018C219.472 30 226.128 23.0274 230.428 15.7484C235.996 6.32248 246.26 0 258 0C269.941 0 280.355 6.54089 285.854 16.2354ZM230 32C230 16.536 242.536 4 258 4C273.464 4 286 16.536 286 32C286 47.464 273.464 60 258 60C242.536 60 230 47.464 230 32Z" fill="#FECC39"/>
<path d="M40 82H120C142.091 82 160 99.9086 160 122C160 124.74 159.725 127.415 159.2 130H88C61.4903 130 40 108.51 40 82Z" fill="#FECC39"/>
<path d="M158.169 134H88C59.347 134 36.1068 110.825 36.0004 82.1975C15.7869 84.2042 0 101.258 0 122C0 144.091 17.9086 162 40 162H120C137.911 162 153.072 150.228 158.169 134Z" fill="#FECC39"/>
</svg>
