<svg width="300" height="264" viewBox="0 0 300 264" fill="none" xmlns="http://www.w3.org/2000/svg">
<path d="M225.268 21.9433L225.298 21.9858C225.282 21.9619 225.268 21.9353 225.253 21.9087L225.268 21.9433ZM225.343 22.0443C225.332 22.0356 225.323 22.0248 225.316 22.0124C225.316 22.0124 225.316 22.0124 225.316 22.031L225.343 22.0443ZM187.151 212.679L186.827 213.004C186.933 212.895 187.039 212.785 187.151 212.679ZM187.172 212.698C187.171 212.703 187.171 212.708 187.172 212.714C187.171 212.711 187.17 212.709 187.17 212.706C187.17 212.703 187.171 212.7 187.172 212.698ZM278.74 14.7792C277.747 15.8429 277.356 17.1885 277.12 18.4889C276.14 23.9005 275.611 29.3626 276.1 34.8673C276.692 41.5498 277.968 48.1538 279.909 54.5751C280.321 55.934 281.014 57.2211 281.16 58.7581C277.587 56.5669 274.16 54.3916 270.665 52.344C266.481 49.8922 262.164 47.6823 257.752 45.6586C252.943 43.4514 248.058 41.4277 243.08 39.6354C240.052 38.5451 236.991 37.5478 233.918 36.5878C231.939 35.9709 229.88 35.7289 227.933 34.9923C226.286 34.37 225.662 34.846 225.444 36.5878C225.308 37.6861 225.199 38.7897 225.021 39.8827C224.883 40.7469 225.154 41.9569 224.49 42.3771C223.871 42.7733 222.995 41.8718 222.224 41.5793C216.808 39.4253 211.333 37.4548 205.693 35.9736C202.59 35.1598 199.567 34.0642 196.417 33.4207C192.477 32.6229 188.551 31.7586 184.548 31.3119C184.97 31.1974 185.398 31.1085 185.831 31.0459C198.26 29.8918 210.666 30.4476 223.066 31.5645C228.252 32.0325 233.352 33.0723 238.45 34.0802C239.682 34.3248 240.928 34.5774 242.169 34.8513C244.501 35.3672 246.799 36.0533 249.139 36.5001C251.145 36.883 253.193 37.0319 255.223 37.2766L255.308 37.2926C255.376 37.3067 255.446 37.3068 255.515 37.2929C255.583 37.279 255.648 37.2513 255.706 37.2115C255.763 37.1717 255.812 37.1206 255.849 37.0614C255.886 37.0022 255.91 36.9361 255.921 36.8671C256.118 36.1969 256.649 36.1437 257.191 36.2448C258.403 36.4343 259.632 36.478 260.854 36.3751L262.283 36.431C257.287 34.3753 252.346 33.3116 247.471 32.0378C242.124 30.6589 236.708 29.5609 231.245 28.7483C228.288 28.3246 225.331 27.8991 222.376 27.4719C222.054 27.424 221.6 27.5277 221.491 27.0836C221.406 26.7379 221.741 26.5172 221.972 26.3576C223.396 25.3817 224.158 24.1265 223.531 21.9114C224.453 22.9751 225.186 22.9538 225.954 22.5522L225.834 22.4725L225.954 22.5496L226.047 22.4911C226.828 22.3528 226.36 21.8688 226.222 21.6162C225.792 20.8415 225.228 20.1492 224.556 19.5712C221.879 17.231 218.914 15.2978 215.851 13.5293C208.91 9.54045 201.692 6.08341 194.084 3.56242C190.044 2.2195 186.046 0.594681 181.665 0.693074C181.275 0.693074 180.799 0.50427 180.539 0.871249C180.141 1.42704 181.15 1.4031 181.036 1.88974C180.605 2.21683 180.109 2.07057 179.631 2.08919C179.2 2.08919 178.632 2.0626 178.568 2.62104C178.515 3.11567 179.062 3.15289 179.415 3.29915C179.537 3.3612 179.654 3.43139 179.766 3.50924C179.373 3.78846 178.831 3.36564 178.502 3.86824C179.506 4.42934 180.744 4.54635 181.708 5.84407C180.276 5.45848 179.184 5.18724 178.215 4.55965C177.556 4.13683 176.682 3.76187 176.129 4.23256C175.428 4.83887 174.825 4.64474 174.174 4.49848C169.887 3.55976 165.565 2.98536 161.158 3.07046C159.893 3.09705 158.631 3.14492 157.367 3.18481C158.436 2.53888 159.561 1.98893 160.727 1.54138C160.993 1.43235 161.418 1.51745 161.447 1.1026C161.476 0.687758 161.054 0.570748 160.748 0.427148C159.534 -0.184483 158.257 -0.00897193 156.992 0.161221C151.06 0.959001 145.423 2.95877 139.688 4.53837C134.906 5.868 130.159 7.40506 125.266 8.37037C122.952 8.83043 120.639 9.3809 118.575 10.6148C116.946 11.5907 116.542 12.7422 117.246 14.4628C117.552 15.1994 117.002 15.3403 116.593 15.4945C115.804 15.7926 115.081 16.2446 114.468 16.8242C114.264 16.9943 114.116 17.2215 114.043 17.4764C113.97 17.7314 113.974 18.0025 114.056 18.2549C114.234 18.8053 114.765 18.5766 115.188 18.6351C115.884 18.7309 116.641 18.3692 117.507 18.9011C116.598 19.3797 115.857 19.7494 115.148 20.1669C114.966 20.2552 114.815 20.3952 114.713 20.5693C114.611 20.7435 114.563 20.9439 114.574 21.1455C114.614 21.555 115.036 21.4752 115.307 21.5816C115.777 21.7678 116.255 21.9406 116.888 22.1799C115.355 22.8208 113.966 23.3846 112.605 23.9803C112.3 24.1186 111.891 24.3366 112.029 24.7515C112.138 25.0706 112.56 25.0174 112.858 25.0014C113.814 24.9828 114.768 24.927 115.724 24.8844C114.449 25.387 113.142 25.6317 112.032 26.4082C111.845 26.5077 111.691 26.6578 111.586 26.8413C111.481 27.0247 111.43 27.2341 111.439 27.4453C111.423 28.8334 112.396 28.9132 113.299 28.993C114.569 29.1047 115.862 28.9744 117.129 29.1047C118.317 29.2243 119.595 28.8015 120.671 29.3467C122.53 30.288 124.528 30.3572 126.488 30.4316C132.627 30.6736 138.708 29.9689 144.775 29.0754C149.929 28.3149 155.058 27.3841 160.254 26.8975C165.355 26.4215 170.434 25.7274 175.529 25.2115C177.463 25.0147 179.341 24.8365 181.208 24.1185C182.659 23.5601 181.785 22.0363 182.784 21.4593L182.223 21.1349L181.347 20.5418C182.008 20.0259 182.478 19.6297 182.314 18.5394C182.098 17.1273 183.142 16.5848 184.497 17.138C185.592 17.59 186.66 18.1219 187.733 18.6298C191.693 20.4913 195.115 23.2702 198.954 25.3445C199.368 25.5705 199.844 25.7753 199.963 26.3257C192.626 26.6874 185.307 27.1794 178.045 28.3601C172.851 29.2057 167.684 30.2482 162.542 31.3092C161.413 31.0752 160.416 31.506 159.354 31.8224C156.567 32.6442 153.597 32.4447 150.787 33.2026C150.745 33.2174 150.699 33.2174 150.657 33.2026C149.294 32.2692 148.059 33.1441 146.805 33.5058C145.551 33.8674 144.284 34.4152 142.99 34.745C142.443 34.8859 142.026 34.8407 141.662 35.4869C141.298 36.1331 140.108 35.8273 139.662 36.6357C139.053 35.8911 138.599 36.8006 137.669 36.6011C138.668 37.4335 138.748 38.0637 137.977 38.6727C137.504 39.0122 137.137 39.4795 136.918 40.02C136.7 40.5605 136.64 41.1521 136.745 41.7255C135.772 41.7591 134.818 42.0079 133.953 42.4542C127.091 45.9352 120.341 49.605 113.894 53.8305C109.675 56.5935 105.736 59.7208 101.727 62.7657C100.535 61.9253 99.6686 62.8268 98.8345 63.4092C94.3477 66.5418 90.3843 70.2674 86.737 74.3388C85.7355 75.4557 84.6118 76.4662 83.6156 77.5831C79.8322 81.823 76.306 86.2862 73.0562 90.9486C69.8392 95.5996 66.8348 100.381 64.4334 105.516C62.9192 108.747 61.4475 111.989 60.3823 115.411C59.6996 117.594 58.9557 119.751 58.5573 122.009C60.3211 118.371 62.0107 114.712 63.7055 111.053C66.2496 105.464 69.2083 100.073 72.5568 94.9268C76.9319 88.2946 82.0642 82.2873 87.5073 76.5353C88.7346 75.2403 89.7626 73.6873 91.4707 72.8975C93.1735 74.1766 93.1735 74.1766 94.7249 72.7432C94.8869 72.597 95.0516 72.4481 95.219 72.3045C103.433 65.2042 112.045 58.6571 121.406 53.1258C125.577 50.6313 129.88 48.3675 134.298 46.3447C133.53 47.1762 132.719 47.9663 131.867 48.7114C129.795 50.6554 127.771 52.6073 125.861 54.732C123.401 57.4684 121.382 60.5159 119.095 63.3667C117.045 65.9149 115.264 68.6697 113.782 71.5864C113.078 72.9772 112.271 74.3255 111.694 75.7695C110.969 77.5778 110.528 79.4924 109.763 81.2901C109.458 81.9975 109.075 82.8059 108.321 83.2979C107.173 84.0424 106.071 84.8615 104.936 85.6247C97.1821 90.8448 89.999 96.7777 83.1773 103.149C82.723 103.577 82.0271 103.99 82.6779 104.79C83.3712 105.644 83.8866 104.912 84.3355 104.543C86.5483 102.708 88.708 100.82 90.9076 98.9583C96.8253 93.9683 103.041 89.3441 109.521 85.1115C110.212 84.6621 110.924 84.1302 111.848 84.4653C113.052 84.8987 114.258 85.3216 115.453 85.7789C119.438 87.3133 123.423 88.8823 127.407 90.4007C132.269 92.2622 137.148 94.0599 142.018 95.9054C146.393 97.5622 150.641 99.5274 154.851 101.554C156.976 102.575 159.248 103.309 161.168 104.745C160.145 105.16 159.027 105.125 157.98 105.277C152.737 106.074 147.572 107.215 142.411 108.396C134.718 110.173 127.233 112.751 120.075 116.087C119.677 116.273 119.302 116.709 118.774 116.424V116.39H118.758C118.686 115.64 119.217 115.161 119.637 114.693C124.419 109.375 130.042 105.279 136.878 102.992C137.494 102.788 138.123 102.564 138.926 103.12C135.865 104.42 133.036 105.872 130.499 108.018C130.661 108.12 130.85 108.168 131.041 108.157C131.231 108.145 131.414 108.075 131.562 107.955C134.157 106.255 136.854 104.763 139.831 103.83C140.506 103.623 140.65 103.2 140.254 102.617C138.926 100.663 137.488 98.8944 135.1 98.0967C132.5 97.2351 129.846 97.4239 127.224 97.61C120.834 98.107 114.509 99.2356 108.342 100.979C95.1552 104.607 83.2065 110.648 72.6125 119.283C66.4788 124.288 60.6771 129.67 55.5874 135.77C55.3908 136.007 55.2314 136.302 54.8595 136.231C55.0189 135.513 55.5129 134.978 55.9513 134.441C62.1567 126.838 68.1975 119.094 75.3992 112.369C77.5243 110.38 79.445 108.157 81.8145 106.439C82.553 105.907 82.1519 105.359 81.873 104.963C81.4878 104.431 81.2089 105.064 80.9618 105.274C80.1224 105.989 79.3069 106.737 78.5019 107.495C71.7824 113.831 65.4822 120.599 59.6411 127.755C53.7597 134.975 48.0058 142.294 42.762 149.995C39.5238 154.747 36.5512 159.664 33.7141 164.669C33.5893 164.847 33.5123 165.054 33.4904 165.271C33.4685 165.487 33.5026 165.706 33.5892 165.905C33.8018 165.581 33.9213 165.413 34.0275 165.235C38.5513 157.676 43.5493 150.411 48.9914 143.485C50.5852 141.451 52.0436 139.286 53.9031 137.456C53.6375 138.871 52.4767 139.743 51.7488 140.879C44.6268 152.021 37.6961 163.27 31.751 175.106C28.0585 182.451 24.6237 189.913 21.6245 197.569C20.9259 199.362 20.5062 201.263 19.4994 202.946C21.08 195.607 23.9729 188.666 26.0369 181.473C24.8415 182.999 24.2039 184.783 23.5292 186.525C20.1077 195.354 17.5363 204.438 15.5333 213.684C15.3633 214.463 15.1269 215.431 16.123 215.958C16.6942 215.665 16.8907 215.102 17.0342 214.554C19.1726 206.403 22.3684 198.641 25.6199 190.886C28.9431 182.967 32.6967 175.255 36.7053 167.666C36.862 167.368 36.9231 166.98 37.4384 166.788C36.9071 169.003 35.6851 170.777 34.7527 172.681C29.1742 184.039 24.5599 195.782 20.6204 207.805C19.8474 210.155 19.2497 212.554 18.4952 214.91C18.4014 215.34 18.348 215.777 18.3359 216.216L16.1124 215.95L16.1868 215.987C14.6673 221.678 13.4772 227.438 12.4678 233.246C12.2234 234.661 12.6962 235.142 13.9686 235.575C19.1646 237.346 24.4617 238.748 29.7533 240.173C35.9243 241.835 42.2387 242.652 48.5637 243.41C51.8976 243.806 55.2765 243.816 58.6343 243.923C65.0895 244.125 71.5447 244.085 77.9839 243.473C85.8417 242.729 93.5454 241.149 101.167 239.152C105.29 238.072 109.426 237.025 113.456 235.618C114.76 235.161 116.112 234.82 117.621 234.373C117.201 234.982 116.758 235.075 116.348 235.232C105.75 239.366 94.7228 242.297 83.4722 243.971C74.9556 245.247 66.3911 245.359 57.8028 245.189C49.4482 245.021 41.2398 243.699 33.0978 241.982C26.4008 240.532 19.8051 238.648 13.3524 236.341C12.1756 235.929 11.9099 236.288 12.064 237.362C11.6947 240.038 11.352 242.71 10.9456 245.38C10.7092 246.976 10.7411 248.547 10.6986 250.135C10.6667 251.199 11.1422 251.611 12.1384 251.249C13.3533 250.817 14.3595 249.94 14.9542 248.795C15.2836 248.186 15.5732 247.563 16.1921 247.045C17.013 248.957 16.0407 250.372 15.1056 251.792C16.3355 251.281 16.3356 251.281 16.5959 251.611C17.2069 252.385 18.8353 252.834 19.6694 252.371C20.224 252.099 20.8317 251.953 21.4492 251.943C26.1379 251.579 30.7229 250.704 35.1061 248.967C37.805 247.904 40.419 246.601 43.1737 245.689C43.7449 245.713 44.3213 245.702 44.8898 245.763C51.4432 246.475 58.03 246.836 64.622 246.843C82.0005 246.792 98.7149 243.505 114.693 236.631C116.718 235.762 118.824 234.99 120.477 233.44C121.133 232.831 122.033 232.299 121.688 231.137C122.344 230.765 122.588 230.145 122.801 229.422C121.906 229.435 121.552 230.119 121.016 230.517C120.886 230.517 120.702 230.589 120.633 230.517C119.924 229.879 119.929 228.488 118.487 228.568C118.221 228.587 118.354 228.06 118.553 227.8C118.678 227.637 118.978 227.438 118.784 227.268C118.544 227.091 118.248 227.007 117.95 227.034C117.692 227.088 117.454 227.212 117.262 227.393C116.959 227.627 116.588 227.842 116.311 227.574C115.974 227.244 116.38 226.959 116.577 226.696C116.707 226.531 116.885 226.382 116.779 226.063C116.439 226.063 116.101 226.015 115.775 225.92C114.252 225.234 112.738 224.914 111.163 225.773C110.937 225.893 110.518 226.039 110.526 225.473C109.463 225.683 108.724 224.675 107.603 224.776C104.652 225.042 101.679 225.244 98.7149 225.284C94.4911 225.345 90.2594 225.263 86.0356 225.202C80.6483 225.124 75.2584 225.037 69.8923 224.47C70.2749 223.718 70.9363 224.074 71.4198 224.204C72.8941 224.563 74.0391 224.09 75.1814 223.17C77.8378 221.028 80.4057 218.792 82.8851 216.461C87.3692 212.24 91.5797 207.773 95.0862 202.683C95.9548 201.425 96.5924 200.125 96.1621 198.479C95.2303 194.787 94.7187 191.002 94.6373 187.195C94.5018 182.337 94.438 177.476 95.466 172.54C95.5132 172.7 95.5488 172.864 95.5723 173.029C95.5458 178.247 95.8991 183.417 97.0095 188.533C98.8132 196.843 102.176 204.473 106.817 211.568C109.838 216.202 113.429 220.437 117.507 224.172C119.768 226.236 122.143 228.173 124.618 229.975C126.448 231.305 128.51 232.315 130.462 233.467C130.993 233.788 131.66 234.56 132.13 233.788C132.425 233.307 131.493 232.866 131.017 232.56C128.377 230.87 125.825 229.058 123.361 227.124C117.26 222.357 112.017 216.58 107.861 210.044C104.114 204.205 101.369 197.78 99.7376 191.035C98.5375 185.88 97.8628 180.616 97.724 175.324C97.554 170.272 98.3218 165.256 99.1585 160.278C99.3658 159.05 99.4083 157.72 100.155 156.614C101.023 156.313 101.765 155.656 102.747 155.656C102.734 155.803 102.713 155.949 102.694 156.098C102.543 157.257 102.322 158.427 103.443 159.358C103.518 159.422 103.465 159.701 103.404 159.855C103.056 160.717 103.608 161.286 104.076 161.85C104.748 162.648 105.67 163.419 106.049 164.283C106.846 166.028 107.245 166.469 109.03 165.754C112.313 164.44 115.642 163.201 118.753 161.515C120.466 160.589 121.807 160.656 123.351 161.826C124.613 162.786 126.435 163.055 127.561 164.036C129.615 165.818 132.091 166.296 134.468 166.86C139.003 167.926 143.695 168.152 148.311 167.527C148.962 167.445 149.61 167.482 150.274 167.368C153.393 166.823 156.302 165.695 159.197 164.483C160.852 163.791 162.558 163.132 163.979 162.108C166.136 160.56 168.495 159.366 170.391 157.35C172.663 154.928 174.907 152.516 176.844 149.811C177.248 149.245 177.574 148.402 176.9 147.913C176.161 147.381 175.494 147.865 175.059 148.599C173.701 150.904 172.137 153.146 170.142 154.853C166.526 157.957 162.895 161.111 158.267 162.799C155.977 163.634 153.719 164.445 151.323 164.943C149.831 165.224 148.323 165.409 146.807 165.496C145.304 165.613 143.79 165.935 142.291 165.762C139.202 165.392 136.099 165.179 133.097 164.134C131.253 163.522 129.449 162.796 127.694 161.962C126.347 161.297 125.285 160.02 123.582 160.068C123.093 160.068 122.902 159.621 123.343 159.236C123.659 158.996 124.004 158.795 124.368 158.638C130.988 155.255 137.916 152.641 144.871 150.048C147.466 149.08 150.125 148.282 152.766 147.437C162.312 144.349 172.057 141.918 181.934 140.161C182.356 140.086 183.012 139.669 183.188 140.326C183.347 140.911 182.677 141.031 182.213 141.169C182.092 141.225 181.98 141.299 181.881 141.387C182.497 141.714 182.3 142.222 182.255 142.698C181.989 145.543 181.092 148.211 180.236 150.942C179.208 154.218 177.362 156.967 175.699 159.847C174.655 161.65 173.181 163.169 171.81 164.754C170.8 165.919 169.605 166.881 168.537 167.945C167.209 169.288 166.035 170.939 163.886 171.429C163.038 171.62 161.981 171.679 161.272 172.213C159.412 173.601 157.255 173.966 155.117 174.543C153.055 175.096 150.957 175.683 149.047 176.611C145.306 178.43 141.415 179.829 137.547 181.308C134.659 182.411 131.549 182.978 129.118 185.148C128.361 185.821 127.941 186.951 126.993 187.235C125.468 187.69 124.164 188.602 122.642 189.044C120.981 189.528 120.099 190.825 120.099 192.469C120.099 193.926 120.96 195.556 122.166 195.798C123.101 195.987 123.34 196.766 123.938 197.218C124.315 197.505 124.092 197.843 123.749 197.883C122.822 198 121.637 198.112 121.077 197.497C119.903 196.202 119.018 196.915 118.08 197.582C117.828 197.763 117.353 197.545 117.26 198.146C118.624 198.505 119.813 199.346 120.607 200.513C121.276 201.492 121.935 202.186 123.083 202.462C129.368 203.999 135.656 205.228 142.209 204.513C145.43 204.151 148.625 203.581 151.772 202.805C154.737 202.09 157.428 200.489 160.472 199.957C162.114 199.67 163.575 198.808 165.116 198.202C167.347 197.33 169.632 196.607 171.666 195.248C172.68 194.567 173.813 194.085 175.006 193.825C176.503 193.524 177.925 192.93 179.192 192.078C182.04 190.159 185.031 188.462 188.139 187.001C190.612 185.832 192.887 184.285 194.884 182.414C196.212 181.175 196.369 179.117 195.075 178.21C194.491 177.8 194.055 177.236 193.455 176.88C192.854 176.524 192.737 176.186 193.224 175.628C193.893 174.856 193.675 174.109 192.921 173.585C191.512 172.59 190.498 171.131 190.054 169.463C189.85 168.767 189.552 168.328 188.822 168.086C187.982 167.82 187.43 166.373 187.919 165.661C188.346 165.038 188.535 164.597 188.033 163.921C187.502 163.188 186.811 162.837 185.993 162.993C185.355 163.113 184.665 163.15 184.085 163.36C180.42 164.69 176.716 165.924 173.369 167.993C173.224 168.098 173.051 168.157 172.872 168.165C172.693 168.173 172.516 168.128 172.362 168.035C171.9 167.716 172.517 167.57 172.559 167.32C172.825 165.748 174.464 165.326 175.215 164.145C177.221 160.996 179.453 158.029 180.927 154.51C182.213 151.457 183.748 148.54 184.115 145.203C184.123 144.938 184.197 144.68 184.33 144.45C185.127 143.387 185.159 142.057 185.06 140.895C184.949 139.645 185.371 139.315 186.428 139.201C191.476 138.648 196.499 137.736 201.591 138.688C202.681 138.895 202.92 138.18 202.596 137.441C202.271 136.701 202.529 135.866 202.064 135.162C201.967 134.983 201.944 134.772 202.002 134.577C202.059 134.382 202.191 134.217 202.37 134.119C202.774 133.922 202.989 134.292 203.228 134.558C204.352 135.824 205.619 136.994 206.591 138.361C207.89 140.156 209.595 141.568 210.942 143.304C211.434 143.937 211.782 143.972 212.345 143.222C213.091 142.227 212.834 140.781 213.984 139.98C214.98 140.836 215.312 142.108 215.843 143.222C216.848 145.301 217.703 147.453 218.635 149.564C220.149 152.979 221.773 156.345 220.67 160.284C220.466 161.012 220.041 161.642 219.9 162.345C219.326 165.166 218.54 167.929 217.748 170.689C217.063 173.083 215.939 175.303 214.794 177.447C213.405 180.045 211.96 182.667 209.957 184.906C208.517 186.501 207.25 188.296 205.855 189.916C203.73 192.384 201.105 194.437 198.603 196.564C195.753 198.992 192.387 200.723 189.497 203.108C189.328 203.248 189.137 203.357 188.931 203.43C186.157 204.401 183.719 206.044 181.1 207.318C179.956 207.849 178.892 208.537 177.938 209.363C176.977 210.219 175.656 210.203 174.485 210.514C171.913 211.193 169.576 212.474 167.092 213.386C163.851 214.575 160.512 215.352 157.146 216.046C153.781 216.74 150.372 217.391 146.868 217.431C144.355 217.458 141.866 218.107 139.329 218.171C138.663 218.189 137.945 218.293 137.427 218.859C137.839 219.452 138.604 219.609 138.822 220.356C138.216 220.771 137.457 220.223 136.912 220.622C136.341 221.031 135.697 221.326 135.015 221.492C133.969 221.774 133.087 222.351 132.625 223.415C132.521 223.654 132.255 223.981 132.492 224.135C133.331 224.667 134.394 225.781 134.941 225.694C136.686 225.428 138.376 225.842 140.094 225.694C142.472 225.497 144.876 225.694 147.267 225.287C148.255 225.117 149.222 224.837 150.224 224.696C155.155 223.96 160.027 222.869 164.802 221.431C167.129 220.747 169.379 219.798 171.786 219.402C172.604 219.503 173.361 219.216 174.126 219.008C175.577 218.617 176.998 218.077 178.47 217.811C188.79 215.95 198.635 212.775 207.845 207.682C218.107 202.015 227.162 195.072 232.951 184.547C233.991 188.016 234.794 191.552 235.355 195.131C236.808 203.906 236.418 212.453 232.55 220.62C232.122 221.524 232.789 221.808 233.233 221.657C234.266 221.306 234.112 221.848 234.295 222.51C234.492 223.255 234.795 224.255 236.032 223.609C236.298 223.476 236.691 223.314 237.029 223.683C236.782 224.26 235.87 224.319 235.841 225.079C236.797 225.468 237.478 224.763 238.274 224.595L238.383 224.765L237.616 225.906C237.592 225.944 237.573 225.981 237.552 226.018L237.621 225.914C237.671 225.93 237.723 225.941 237.775 225.949C238.229 226.007 238.599 225.725 238.997 225.563C240.485 224.954 241.77 224.008 243.08 223.114C246.727 220.625 250.252 217.958 253.175 214.636C258.647 208.43 263.426 201.747 267.116 194.285C270.805 186.823 273.813 179.279 274.782 170.987C274.825 170.602 274.71 170.107 275.197 169.833C275.471 170.364 275.564 170.97 275.462 171.559C275.353 172.841 275.608 174.106 275.688 175.378C275.901 178.8 276.148 182.191 275.9 185.645C275.619 189.575 274.936 193.5 275.369 197.476C275.449 198.215 275.635 198.46 276.32 198.194C276.804 198.005 277.223 197.811 277.37 198.564C277.415 198.811 277.5 199.122 277.848 199.096C278.151 199.069 278.243 198.792 278.363 198.564C279.196 196.804 279.771 194.933 280.069 193.009C281.105 187.249 281.296 181.404 281.208 175.574C281.175 171.3 280.871 167.032 280.3 162.797C279.742 158.837 279.07 154.904 277.965 151.043C277.433 149.144 276.419 147.301 276.511 145.293C276.644 142.291 276.777 139.305 276.299 136.326C276.998 136.938 277.704 137.536 278.384 138.166C282.247 141.757 285.777 145.668 289.401 149.487C289.932 150.048 290.639 151.585 291.675 149.835C291.728 149.748 291.985 149.753 292.15 149.761C294.254 149.886 294.775 149.54 295.04 147.532C296.696 135.151 298.333 122.765 299.952 110.375C300.016 109.901 300.072 109.444 299.732 108.986C297.97 106.609 295.657 104.835 293.337 103.067C293.149 102.921 292.923 102.827 292.745 103.016C292.567 103.205 292.729 103.418 292.854 103.596C293.191 104.072 293.813 104.338 293.941 105.021C293.276 105.064 293.117 104.298 292.551 104.293C292.49 104.154 292.408 104.077 292.286 104.21C292.286 104.21 292.371 104.335 292.416 104.396C292.416 104.928 292.833 105.138 293.144 105.439C293.345 105.628 293.752 105.822 293.38 106.149C293.149 106.354 292.915 106.13 292.719 105.928C292.134 105.319 291.526 104.734 290.928 104.141C291.651 103.535 290.838 103.367 290.58 103.155C290.322 102.942 289.762 102.992 289.563 102.748C288.667 101.652 287.422 100.974 286.314 100.213C284.577 99.0194 283.45 97.15 281.389 96.2724C280.196 95.7618 279.37 94.4109 278.376 93.4164C278.642 93.5041 279.009 93.7434 279.08 93.3073C279.136 92.9696 278.788 92.8473 278.448 92.8951H278.427C277.991 91.9564 276.663 91.8846 276.379 90.797C276.341 90.1641 276.057 89.6083 275.816 89.0365C274.357 85.5396 272.205 82.4549 270.032 79.3834C262.438 68.6533 252.625 60.2367 241.996 52.7216C237.848 49.7724 233.475 47.153 228.918 44.8874C227.766 44.3157 227.378 43.6243 227.633 42.3771C227.865 41.1127 228.031 39.8372 228.132 38.5557C228.236 37.5319 228.682 37.3564 229.654 37.6117C233.588 38.6381 237.411 39.9784 241.242 41.3346C247.452 43.4834 253.541 45.969 259.481 48.7806C266.858 52.2791 273.926 56.398 280.608 61.093C281.883 61.9945 283.028 62.9545 283.556 64.5261C283.99 65.7298 284.491 66.9079 285.057 68.0549C287.034 72.2672 288.986 76.4822 293.053 79.2239C294.666 80.3088 295.279 80.4817 296.4 78.9154C297.16 77.8517 297.415 78.4607 297.907 78.9367C298.122 79.1441 298.302 79.4898 298.664 79.3409C299.097 79.1627 298.993 78.7665 298.929 78.4208C298.644 77.081 298.186 75.7839 297.567 74.5622C294.493 68.507 291.404 62.4678 288.997 56.0962C287.195 51.3117 285.8 46.3834 284.826 41.3639C284.148 37.8499 283.736 34.2897 283.594 30.7135C283.4 26.2991 284.194 21.9805 284.733 17.6379C284.797 17.1194 285.105 16.5476 284.685 16.069C283.788 16.279 283.811 17.1912 283.23 17.7336C283.777 15.7631 282.26 15.1728 281.104 14.4654C280.743 14.212 280.299 14.1036 279.861 14.1617C279.424 14.2198 279.024 14.4401 278.74 14.7792ZM225.346 22.0576H225.33C225.33 22.0576 225.33 22.0443 225.33 22.039C225.334 22.0411 225.338 22.0429 225.343 22.0443L225.346 22.0576ZM225.3 21.9991L225.271 21.9566L225.255 21.922C225.268 21.9353 225.282 21.9592 225.298 21.9858L225.3 21.9991ZM203.026 26.339C202.866 26.3261 202.706 26.3048 202.548 26.2752L202.444 26.2539L202.309 26.2247L202.08 26.1609C202.035 26.1609 201.99 26.1343 201.947 26.121C201.905 26.1077 201.86 26.0891 201.817 26.0731C201.775 26.0572 201.69 26.0252 201.629 26.0013C201.568 25.9774 201.48 25.9428 201.408 25.9082C201.362 25.8903 201.316 25.8689 201.273 25.8444C201.23 25.8258 201.185 25.8045 201.143 25.7806C201.007 25.7141 200.877 25.6396 200.741 25.5652C200.606 25.4907 200.428 25.3764 200.274 25.278C200.12 25.1796 199.971 25.0785 199.82 24.9748C199.668 24.8711 199.519 24.7674 199.371 24.6664C199.222 24.5653 199.07 24.4589 198.922 24.3605C193.306 20.5737 187.555 17.0396 181.299 14.391C181.117 14.2777 180.946 14.1458 180.791 13.9974C182.723 14.0851 184.306 14.6356 185.801 15.2605C192.275 17.9677 198.181 21.6773 203.865 25.7726C204.068 25.9416 204.258 26.1256 204.434 26.3231L203.339 26.3523H202.957H203.223L203.026 26.339ZM177.736 32.1442C177.667 32.216 177.596 32.2852 177.524 32.349C177.45 32.4155 177.375 32.474 177.301 32.5325L177.107 32.6734L177.075 32.6973L176.894 32.8064C176.823 32.8463 176.754 32.8862 176.682 32.9207C176.61 32.9553 176.536 32.9899 176.464 33.0218C176.319 33.0833 176.171 33.1374 176.02 33.184C175.943 33.2053 175.869 33.2292 175.792 33.2478C175.638 33.2877 175.481 33.3196 175.327 33.3435H175.261L175.027 33.3755C174.846 33.3967 174.668 33.4074 174.496 33.4153C174.23 33.4153 173.964 33.4153 173.699 33.4153C172.105 33.3435 170.561 33.6494 168.991 33.5164C171.854 32.7713 174.782 32.3073 177.734 32.1309L177.736 32.1442ZM40.8095 245.369C36.4758 247.22 31.886 248.399 27.1978 248.866C27.1579 248.723 27.1181 248.577 27.0809 248.43C29.2061 247.808 31.3605 247.223 33.483 246.548C34.96 246.077 36.6362 246.09 37.8289 244.87L40.8095 245.369ZM68.875 217.25L84.5108 201.311C84.1947 204.749 73.2103 216.086 68.8723 217.237L68.875 217.25ZM187.175 212.711C187.173 212.713 187.173 212.716 187.173 212.719C187.173 212.722 187.173 212.725 187.175 212.727C187.174 212.722 187.174 212.716 187.175 212.711ZM187.154 212.692C187.042 212.799 186.933 212.91 186.827 213.017L187.151 212.692H187.154ZM232.223 181.446C230.704 183.55 229.535 185.874 227.959 187.959C224.835 192.07 221.126 195.702 216.951 198.739C208.498 204.954 198.993 209.588 188.894 212.419C188.599 212.504 188.309 212.629 187.99 212.509C187.995 212.487 188.001 212.466 188.009 212.445C188.009 212.421 188.025 212.4 188.03 212.379C188.043 212.338 188.059 212.297 188.078 212.259L188.134 212.145L188.195 212.038C188.213 212.005 188.234 211.974 188.259 211.945C188.278 211.914 188.299 211.885 188.322 211.857C188.369 211.801 188.418 211.748 188.471 211.698C188.5 211.668 188.531 211.641 188.564 211.615C188.587 211.595 188.611 211.575 188.636 211.557L188.71 211.501C188.757 211.465 188.806 211.432 188.856 211.403C189.303 211.121 189.831 210.959 190.28 210.73C193.468 209.102 196.592 207.358 199.729 205.635C201.071 204.901 201.969 203.707 202.981 202.694C204.62 201.098 206.389 199.643 208.27 198.343C209.734 197.301 210.599 195.772 211.875 194.62C215.522 191.315 218.008 187.145 220.628 183.076C222.012 180.925 222.968 178.555 224.065 176.245C225.186 173.894 225.598 171.296 226.844 168.679C229.79 172.591 230.712 177.138 232.22 181.433L232.223 181.446ZM286.699 144.254C281.782 140.384 277.704 135.611 273.037 131.473C278.642 134.595 282.797 139.281 286.696 144.24L286.699 144.254ZM220.357 80.2955C222.721 81.4151 224.607 83.1995 226.639 84.7658C237.307 92.9915 246.623 102.837 254.25 113.946C255.94 116.4 257.542 118.921 259.186 121.41C259.267 121.506 259.319 121.624 259.335 121.748C259.351 121.873 259.331 121.999 259.276 122.113C258.958 121.988 258.651 121.835 258.36 121.655C244.724 111.529 230.14 102.889 215.477 94.379C215.4 94.3338 215.402 94.1503 215.341 93.9429C216.194 93.8791 216.869 94.2567 217.45 94.6689C221.757 97.7191 226.533 99.9874 230.969 102.806C231.408 103.088 231.838 103.386 232.273 103.678L232.786 104.016C233.068 104.197 233.355 104.373 233.65 104.548C233.908 104.692 234.174 104.822 234.447 104.936L234.712 105.043L234.935 105.122C235.057 105.165 235.188 105.202 235.315 105.239C235.17 105.047 235.006 104.869 234.826 104.708C234.771 104.654 234.71 104.601 234.648 104.553C234.529 104.452 234.404 104.362 234.274 104.271C234.144 104.181 234.008 104.099 233.878 104.006C233.347 103.678 232.77 103.399 232.244 103.062C227.168 99.788 221.86 96.9027 216.592 93.9509C215.676 93.4376 214.871 92.7276 213.997 92.1319C213.078 91.5097 213.2 90.7438 213.888 90.1561C214.3 89.7944 214.547 89.3583 214.908 88.9754C215.339 88.5366 215.44 88.1005 214.767 87.7043C214.032 87.2788 214.236 86.824 214.69 86.1991C215.187 85.5316 216.191 84.7285 214.69 83.8988C214.101 83.5718 214.738 83.2154 215.049 83.1011C215.875 82.8192 216.749 82.6649 217.578 82.3804C218.465 82.0746 219.299 81.6491 219.438 80.5588C219.552 79.8089 219.897 80.0642 220.354 80.2796L220.357 80.2955ZM180.975 80.4179C181.07 80.6633 181.147 80.9158 181.203 81.1731C181.299 81.4789 181.402 81.8034 181.015 81.9709C180.627 82.1384 180.467 81.7794 180.308 81.5401C179.324 80.0252 178.481 78.4229 177.79 76.7534C176.496 73.7378 174.825 70.8365 174.783 67.2199C177.288 71.5439 178.818 76.1178 180.972 80.4019L180.975 80.4179ZM225.319 22.0284C225.325 22.0407 225.335 22.0516 225.346 22.0603H225.33C225.33 22.0603 225.322 22.0177 225.316 22.0124L225.319 22.0284ZM225.255 21.9247C225.271 21.9512 225.284 21.9778 225.3 22.0018L225.271 21.9592L225.255 21.9247ZM187.172 212.714C187.171 212.716 187.17 212.719 187.17 212.722C187.17 212.724 187.171 212.727 187.172 212.73C187.17 212.725 187.168 212.719 187.168 212.714C187.167 212.708 187.168 212.703 187.17 212.698L187.172 212.714ZM187.151 212.695C187.039 212.801 186.93 212.913 186.824 213.02L187.151 212.695ZM278.097 93.0414V93.0627V93.0494C278.097 93.0494 278.097 93.0281 278.095 93.0254L278.097 93.0414ZM278.228 244.444L277.221 245.635C278.549 245.244 279.813 245.619 281.054 246.064C279.938 247.449 277.882 247.555 276.719 248.965C277.308 249.364 277.691 248.494 278.392 248.699C277.68 249.296 276.91 249.822 276.094 250.268C274.835 250.996 273.534 251.597 272.243 252.26C269.838 253.475 267.336 254.387 264.791 255.294C262.095 256.246 259.409 257.28 256.689 258.182C252.605 259.578 248.401 260.59 244.129 261.205C241.901 261.509 239.733 262.269 237.523 262.745C236.414 262.959 235.283 263.03 234.157 262.958C232.077 262.878 230.031 263.304 227.989 263.596C226.522 263.806 225.082 263.596 223.629 263.694C221.648 263.822 219.645 263.915 217.65 263.96C214.037 264.04 210.437 264.011 206.838 263.766C202.612 263.482 198.372 263.176 194.22 262.362C188.822 261.298 183.435 260.187 178.148 258.562C174.559 257.461 170.891 256.586 167.323 255.4C164.822 254.537 162.45 253.338 160.273 251.834C161.022 251.406 161.622 251.906 162.199 251.709C162.146 251.316 161.628 251.374 161.482 251.015C161.954 250.622 162.515 250.462 163.304 250.483C162.361 250.007 161.814 249.515 162.921 248.813C161.986 247.954 160.741 247.75 159.604 247.484C155.545 246.489 151.59 245.107 147.796 243.356C146.518 242.777 145.219 242.25 144.077 241.412C146.544 241.636 148.468 243.303 150.795 243.931C155.297 245.149 159.702 246.718 164.279 247.67C164.4 247.716 164.514 247.781 164.616 247.861C165.241 247.441 165.897 247.534 166.51 247.824C167.279 248.177 168.124 248.332 168.968 248.276C168.803 247.856 168.396 247.784 168.064 247.606C168.024 247.585 167.963 247.577 167.95 247.547C167.477 246.508 166.561 245.42 166.678 244.444C166.787 243.551 168.221 243.247 169.286 243.269C170.84 243.303 172.272 243.923 173.723 244.388C174.294 244.572 174.889 244.723 175.433 244.939C178.103 246.002 180.892 246.68 183.626 247.518C186.282 248.335 189.074 248.723 191.781 249.396C198.73 251.119 205.842 251.831 212.919 252.696C215.942 253.065 219.028 253.1 222.086 253.206C224.084 253.275 226.087 253.267 228.084 253.313C230.664 253.371 233.259 253.087 235.841 252.85C240.697 252.406 245.585 252.129 250.391 251.35C258.073 250.108 265.753 248.768 273.09 245.994C274.652 245.377 276.291 245 278.225 244.428L278.228 244.444ZM75.8242 58.3912C75.1654 56.9339 74.14 55.6468 73.6326 54.0938C71.6244 47.9403 69.5496 41.8319 69.2867 35.2449C68.9811 28.0895 69.3681 20.9213 70.4422 13.8405C70.7079 12.1199 71.9325 11.0961 73.6566 11.3886C74.4535 11.5243 75.6834 10.7823 76.0048 12.2476C76.1244 12.7794 76.1457 13.3565 76.2253 14.0187C76.4965 13.8973 76.7215 13.6921 76.8674 13.4331C77.0133 13.1741 77.0722 12.875 77.0356 12.58C77.0064 11.5934 77.7103 10.9844 78.0982 10.2132C78.1539 10.1042 78.3133 9.94732 78.3638 9.94732C79.2112 10.2319 79.9125 9.69469 80.6855 9.57502C81.3895 9.46599 82.298 9.09369 82.12 10.4632C82.12 10.5483 82.2581 10.6547 82.3299 10.7504C82.9037 9.68671 83.4721 11.1865 84.1177 10.7504C84.6941 10.3515 84.9359 11.3089 85.4831 11.2637C85.4008 11.7769 85.3689 12.2449 86.0808 11.7211C86.4402 11.4409 86.6788 11.0336 86.7476 10.5829C86.9043 11.4073 86.7476 12.1572 87.409 12.6757C87.8155 13.0002 87.5684 13.5161 87.5179 13.9336C87.1221 17.2311 86.7556 20.5339 86.2774 23.8207C85.9586 26.004 86.0941 28.134 86.4155 30.304C86.6148 31.6629 86.3332 33.0643 86.4155 34.4737C86.5762 36.8459 86.8957 39.2047 87.3718 41.5341C87.7756 43.6987 87.9563 45.8953 88.4716 48.0466C88.987 50.198 89.5183 52.4504 89.59 54.6709C89.6484 56.5057 90.0256 58.6305 88.3016 60.0931C88.0983 60.2729 87.8583 60.4061 87.5982 60.4832C87.3381 60.5603 87.0642 60.5796 86.7959 60.5395C86.5276 60.4995 86.2713 60.4012 86.045 60.2515C85.8186 60.1018 85.6278 59.9043 85.4858 59.6729C85.3619 59.4343 85.1537 59.2503 84.9018 59.1569C84.6499 59.0635 84.3722 59.0674 84.123 59.1677C82.7257 59.6995 81.5781 59.5719 80.6696 58.2609C80.2977 57.729 79.8727 57.5588 79.607 58.4603C79.5683 58.6243 79.496 58.7784 79.3947 58.913C79.2933 59.0475 79.1651 59.1594 79.0183 59.2417C78.8714 59.324 78.709 59.3748 78.5414 59.3909C78.3739 59.407 78.2049 59.388 78.045 59.3352C77.28 59.1225 76.3582 59.5559 75.8242 58.3912ZM32.4363 127.205C24.9478 126.091 19.2019 119.493 20.2725 111.614C21.3563 103.655 28.2418 98.2163 36.0757 99.2029C43.814 100.176 49.6103 107.157 48.2582 115.063C47.6233 122.719 39.8877 128.301 32.4363 127.192V127.205ZM68.1551 89.2387C67.7885 88.9488 67.924 88.5074 67.8894 88.1749C66.8136 80.2557 61.9894 74.5701 56.4667 69.4032C51.4858 64.7362 45.5167 61.8349 38.7746 60.6276C38.687 60.6117 38.5435 60.6276 38.509 60.5877C38.1477 59.891 37.1808 60.0319 36.7796 59.2847C37.1436 58.7847 37.8236 58.9762 38.3124 58.6411C38.2062 58.3167 37.8953 58.4444 37.6908 58.3752C37.2631 58.229 36.6149 58.5401 36.4157 57.9763C36.2164 57.4126 36.8859 57.3966 37.1861 57.1307C37.6403 56.7344 37.1196 56.3834 36.9523 56.0457C36.8097 55.8299 36.6381 55.6348 36.4423 55.466C37.388 55.2825 35.9986 54.5884 36.6866 54.3491C37.101 54.2028 37.5022 53.9661 37.9272 53.9236C40.7032 53.6577 43.3543 54.2773 45.9896 55.0857C52.6307 57.1227 57.9091 61.2738 62.7598 66.0472C67.042 70.2621 70.2138 75.211 72.0574 80.955C72.6431 82.7085 72.8866 84.5584 72.7746 86.4039C72.2433 86.372 72.1929 86.0608 72.0627 85.8561C71.7785 85.412 71.2817 85.0875 70.8885 85.17C70.3413 85.287 70.5724 85.9225 70.6229 86.3188C70.7849 87.4649 70.1952 88.2547 69.5151 89.0472C69.292 89.3131 69.2495 89.2147 69.0396 89.0472C68.6305 88.6696 68.612 88.7068 68.1551 89.2387ZM10.2948 234.169C7.06404 233.093 3.957 231.675 1.02638 229.94C0.0833376 229.382 -0.0893061 228.329 0.58809 227.47C0.914834 227.058 0.681048 226.834 0.503065 226.547C0.325083 226.26 -0.153069 225.97 0.0488218 225.656C0.859041 224.385 0.101959 222.947 0.720913 221.537C1.51785 219.716 2.28557 217.796 2.65482 215.775C3.02407 213.753 4.08399 212.977 6.10821 213.041C6.37386 213.041 6.6395 213.107 6.90515 213.142L6.93167 213.038C9.47656 213.775 12.0268 214.495 14.5663 215.253C15.1986 215.442 15.4058 215.889 15.2304 216.583C13.8464 222.167 12.574 227.773 11.4982 233.421C11.3414 234.201 10.9934 234.413 10.2948 234.182V234.169ZM54.5912 45.8049C54.0308 45.735 53.4898 45.5548 52.9992 45.2749C52.5086 44.995 52.0781 44.6207 51.7325 44.1736C51.3868 43.7266 51.1329 43.2155 50.9853 42.6699C50.8376 42.1243 50.7992 41.5548 50.8722 40.9943C51.1776 38.8668 53.3001 37.3697 55.5634 37.6755C57.6673 37.9574 59.2214 40.1007 58.9424 42.3372C58.6635 44.5736 56.8067 46.0867 54.5912 45.8182V45.8049ZM9.7635 248.226C9.5802 248.866 9.43406 249.494 8.92402 250.023C8.74335 249.573 8.6892 249.082 8.76733 248.603C9.27471 245.066 9.51109 241.484 10.3797 238.009C10.6215 237.049 11.2192 236.192 11.2644 235.158C11.2644 234.892 11.4317 234.626 11.7797 234.73C12.1277 234.833 12.3455 235.131 12.1277 235.434C11.0864 236.897 11.3441 238.644 11.0518 240.261C10.5737 242.92 10.502 245.63 9.7635 248.239V248.226ZM9.97869 236.687C7.78711 235.772 5.82925 234.474 3.95114 233.028C6.27554 233.56 8.34758 234.685 10.5285 235.543C10.9775 235.722 10.9004 236.075 10.7942 236.429C10.664 236.948 10.34 236.849 9.97869 236.7V236.687Z" fill="#FECC39"/>
</svg>
