<svg width="238" height="251" viewBox="0 0 238 251" fill="none" xmlns="http://www.w3.org/2000/svg">
<path d="M47.5744 64.8736C47.5527 62.5584 46.4733 60.8244 44.6678 59.4191C43.2879 58.3449 42.3791 56.7729 40.9319 55.7463C40.8755 55.6964 40.8312 55.6344 40.8025 55.5651C40.7738 55.4958 40.7613 55.4209 40.766 55.3461C40.8117 55.108 41.0665 55.1484 41.2468 55.108C41.6507 55.0317 42.2589 55.3342 42.4152 54.8102C42.5859 54.2314 41.9464 53.9599 41.5882 53.6193C41.3069 53.3525 40.9174 53.1977 40.6265 52.9286C40.4438 52.7547 40.2395 52.4331 40.5111 52.1997C40.7828 51.9663 40.891 52.3926 41.0761 52.4379C42.331 52.7237 42.9152 53.817 43.7783 54.5816C44.6414 55.3461 45.8338 55.0365 46.8387 55.3533C46.8387 55.7463 46.8555 56.1512 47.3556 56.2489C47.6537 56.3084 47.7523 56.0869 47.7883 55.8392C47.8268 55.8035 47.8652 55.7654 47.9013 55.7272C49.8005 57.5327 51.7014 59.339 53.6038 61.146C57.2244 64.5926 60.506 68.3702 64.2131 71.731C66.0017 73.203 67.1893 75.3205 69.4588 76.7115C69.3338 76.2971 69.3362 76.1589 69.2665 76.097C68.2558 75.2459 67.3805 74.2485 66.6701 73.1387C66.2469 72.4503 65.8503 71.2332 64.5328 71.4523C64.1073 71.0522 64.2323 70.1971 63.4125 70.1233C63.5063 69.1705 64.0496 68.0915 62.7153 67.5032L62.6985 67.4818C62.7266 67.328 62.6938 67.1694 62.6069 67.039C62.5201 66.9086 62.3858 66.8164 62.2321 66.7815L61.9917 66.4266L61.9725 66.3599L61.7681 66.086L61.7441 66.0622L61.5325 65.7906L61.3354 65.5763L61.0493 65.3143C61.0448 65.259 61.0368 65.2041 61.0252 65.1499L60.5781 64.5926C59.8232 64.1162 59.5083 62.9943 58.3134 63.1277C58.0466 63.1587 57.924 62.7895 57.9095 62.4965C58.1692 61.9725 57.9095 61.7986 57.4287 61.782L57.4504 61.8058C57.6162 61.6605 57.5129 61.5223 57.4191 61.4104C55.0559 58.6474 52.8513 55.7392 49.9809 53.4407V53.4669L47.7691 50.3895C48.6153 50.2751 48.7764 51.6376 49.7308 51.2851C54.5246 55.9249 59.3472 60.5339 63.3091 65.9335C63.6505 66.4099 63.9919 66.9125 64.5857 67.1245C65.0521 67.2984 64.5857 67.5628 64.6434 67.7962C64.7732 68.2725 64.9583 68.3631 65.3238 68.0177C65.6315 68.3607 65.6507 68.7322 65.6339 69.2086C65.6195 69.6255 65.9897 69.9613 66.3551 70.2209C66.5066 69.9661 67.0932 70.2209 67.0066 69.6874C67.7711 69.735 67.7591 70.7568 68.4899 70.8497L68.5861 70.8902L68.5068 70.8331C68.2351 69.5754 67.461 68.6251 66.5835 67.7366C66.5955 67.4841 66.6099 67.234 66.622 66.9816C66.9802 67.0578 67.1028 67.3698 67.2951 67.6223C70.3796 71.9835 73.2068 76.5067 75.8369 81.1442C76.7023 82.6709 78.3131 83.5999 78.9165 85.3148C79.2423 86.1667 79.6883 86.9687 80.2411 87.6967C81.4216 89.3235 82.6789 90.8932 83.905 92.4866L83.8761 92.5224C83.0635 92.8796 82.6116 92.5509 82.1356 91.8483C80.8133 89.8904 79.3372 88.0373 78.0222 86.0675C76.9884 84.524 76.0989 82.8877 75.1373 81.2704C74.5266 81.4157 74.7165 81.985 74.6252 82.4613C73.8583 82.0183 73.7525 81.1394 73.0072 80.694C72.5649 81.7444 73.339 82.4494 73.7068 83.1759C75.1493 86.0341 76.9956 88.6923 78.0702 91.7506C78.1592 91.9888 78.027 92.5152 78.5511 92.3532C78.6397 92.3299 78.722 92.2869 78.7915 92.2276C78.8611 92.1683 78.9162 92.0942 78.9527 92.0108C78.9893 91.9274 79.0063 91.8369 79.0025 91.746C78.9987 91.6552 78.9743 91.5664 78.9309 91.4862C78.8955 91.4117 78.8766 91.3305 78.8756 91.248C78.9045 90.8384 78.604 90.2096 79.092 90.0857C79.6401 89.9475 79.9022 90.6002 79.955 91.0384C80.1426 92.5366 81.0489 93.7442 81.5297 95.1186C81.9384 96.2833 81.9721 96.3095 80.4864 96.2619C83.4434 101.502 84.381 107.435 87.4318 112.813C86.9341 110.215 86.951 107.735 85.7201 105.549C85.4937 105.198 85.3709 104.792 85.3658 104.376C85.3607 103.96 85.4735 103.551 85.6912 103.196C86.4125 103.515 86.35 104.432 86.8933 104.82C87.1721 104.729 87.1625 104.582 87.0808 104.434C86.9654 104.224 86.7851 103.979 87.1241 103.855C87.463 103.731 87.5448 104.048 87.6049 104.258C87.8236 105.013 88.04 105.77 88.1891 106.54C88.2612 106.911 88.3237 107.414 88.6939 107.366C89.6556 107.245 89.9537 108.319 90.7879 108.355C91.098 108.371 91.0596 108.695 91.1197 108.914C92.4515 113.588 93.8771 118.232 94.9806 122.967C95.5552 125.433 95.6802 127.969 96.3197 130.406C96.464 130.951 96.464 131.523 95.8389 131.854C95.1177 132.228 95.6538 133.045 95.197 133.6C94.0743 133.017 94.3892 131.797 94.0334 130.932C93.2328 128.989 93.6031 126.774 92.9804 124.782C92.3193 122.663 92.2375 120.369 90.7133 118.485C89.8046 117.36 89.3502 115.865 88.7132 114.536C88.5954 114.297 88.605 113.947 88.2059 114.031C88.1259 114.045 88.05 114.077 87.9832 114.123C87.9163 114.169 87.86 114.228 87.818 114.297C87.776 114.366 87.7492 114.444 87.7394 114.524C87.7296 114.604 87.737 114.685 87.7611 114.762C87.8299 115.189 87.9942 115.596 88.242 115.953C89.1315 117.189 89.7565 118.499 89.444 120.095C89.3382 120.631 89.5233 121.09 89.8503 121.617C90.7182 123.015 90.8504 124.685 91.0668 126.271C91.6197 130.32 91.6486 134.408 91.5764 138.492C91.5764 139.207 91.5548 139.922 92.2087 140.438C92.2985 140.515 92.3711 140.61 92.422 140.716C92.4729 140.822 92.501 140.938 92.5044 141.055C92.276 143.368 92.966 145.607 93.0117 147.894C93.0117 148.108 93.0958 148.37 92.7713 148.537C91.2182 146.086 90.9466 143.297 90.6076 140.534C90.5331 139.922 90.8167 139.259 90.3672 138.7C90.3263 138.385 90.3047 138.068 90.247 137.747C89.0858 131.361 87.7275 125.023 85.2825 118.968C85.3883 116.906 84.0108 115.681 82.6765 114.428L82.662 114.405C82.6044 113.771 82.5563 113.13 81.9408 112.737L81.7269 112.499C81.2172 111.225 80.407 110.093 80.044 108.736C79.7261 107.682 79.2186 106.695 78.5462 105.82C76.3994 99.6584 71.9182 94.8352 68.7856 89.2282C66.9585 85.9579 64.1794 83.2069 61.8282 80.2248C59.1646 76.8181 56.244 73.6164 53.0917 70.6473L53.0028 70.5853L52.397 70.109C52.3547 70.0008 52.2901 69.9025 52.2073 69.8205C52.1245 69.7385 52.0253 69.6745 51.9162 69.6326L51.695 69.3444L48.31 65.8192C48.2187 65.3881 48.1345 64.9546 47.5888 64.8665L47.5744 64.8736ZM75.2214 88.8686C75.4618 88.447 75.2358 88.154 75.1397 87.8872C74.4565 85.9974 73.4719 84.2282 72.2235 82.6471C71.7235 82.0016 71.4758 81.1513 70.6584 80.7583C70.305 80.5892 69.9613 80.5201 69.668 80.8083C69.3747 81.0965 69.6535 81.3943 69.8435 81.6229C70.8724 82.8734 71.5576 84.3549 72.5432 85.6197C73.4087 86.7034 74.0506 87.9968 75.2358 88.8686H75.2214ZM80.383 95.4211C80.3609 95.3582 80.3344 95.2969 80.3036 95.2377C80.2694 95.2291 80.2331 95.2343 80.2027 95.252C80.1913 95.3165 80.1849 95.3818 80.1834 95.4473L80.383 95.4211ZM74.0194 80.7559L74.0915 80.7154C74.0723 80.6988 74.053 80.6678 74.0314 80.6654C74.0098 80.663 73.9833 80.6868 73.9593 80.7011L74.0194 80.7559ZM131.477 168.98C131.542 169.049 131.607 169.116 131.674 169.183L131.958 169.421L132.198 169.704L132.636 170.14L132.922 170.378C132.969 170.461 133.04 170.528 133.126 170.57C133.211 170.613 133.308 170.629 133.403 170.617C133.394 170.717 133.412 170.818 133.454 170.91C133.496 171.002 133.561 171.081 133.643 171.141L133.84 171.334C133.936 171.572 134.03 171.81 134.122 172.048C134.446 173.058 135.403 173.532 136.045 174.273C136.37 174.698 136.635 175.167 136.831 175.664C137.328 176.701 138.11 177.578 139.088 178.193C139.375 178.37 139.716 178.443 139.617 178.834C139.226 180.378 140.598 181.045 141.3 181.997C141.618 182.428 142.171 182.771 142.502 183.272C143.397 184.651 144.757 185.618 145.794 186.89C146.438 187.683 145.976 188.609 146.717 189.307C147.976 190.498 148.575 192.215 149.77 193.49C149.96 193.671 150.102 193.897 150.181 194.147C150.261 194.397 150.275 194.662 150.224 194.919C150.108 194.893 149.999 194.843 149.905 194.772C149.81 194.701 149.732 194.611 149.676 194.507C146.657 190.583 143.633 186.664 140.605 182.75C137.817 179.137 134.836 175.676 131.802 172.27C131.643 172.093 131.484 171.77 131.141 171.984C130.996 172.294 131.239 172.415 131.381 172.601C132.67 174.316 134.15 175.876 135.535 177.507C139.827 182.569 143.726 187.921 147.683 193.228C150.054 196.408 152.289 199.685 154.6 202.908C155.54 204.218 156.523 205.497 157.485 206.792C157.158 207.031 156.763 205.902 156.475 206.831C156.018 206.29 155.513 205.775 155.107 205.201C150.602 198.937 145.971 192.763 141.288 186.623C135.97 179.661 130.297 172.984 124.642 166.294C121.488 162.561 118.029 159.117 114.622 155.62C114.206 155.194 113.773 154.739 113.752 154.108C113.658 151.345 113.019 148.613 113.249 145.833C114.245 146.493 115.413 146.696 116.524 147.067C118.5 147.732 120.416 148.596 122.423 149.132C125.177 149.85 127.774 151.061 130.088 152.705C130.96 153.327 131.931 153.817 133.184 153.512C134.768 153.131 136.309 153.751 137.807 154.194C138.247 154.322 139.009 154.117 139.197 154.873C137.233 154.622 135.367 153.736 133.333 153.92C134.15 154.335 134.939 154.801 135.696 155.316C136.473 155.84 137.095 156.604 138.062 156.84L139.94 158.445C139.552 159.16 139.831 159.636 140.495 160.029C143.846 161.945 147.07 164.069 150.15 166.389C151.638 167.535 153.145 168.63 154.838 169.452C156.936 170.471 159.045 171.474 161.148 172.486C161.12 173.041 161.535 172.91 161.85 172.932L162.3 173.013L162.54 173.208L162.781 173.434C162.593 173.484 162.252 173.515 162.242 173.592C162.06 174.916 161.115 174.466 160.343 174.418L160.266 174.375L160.341 174.421L160.115 174.659C159.634 174.44 159.797 175.226 159.393 175.135C159.304 175.073 159.213 175.014 159.119 174.959C159.093 174.985 159.069 175.012 159.047 175.042L159.355 175.18L159.958 175.74C161.23 176.919 162.988 177.343 164.286 178.472C167.95 181.642 171.664 184.755 175.462 187.761C180.821 192.737 186.093 197.801 191.017 203.205C193.101 205.49 195.183 207.783 196.962 210.322C197.109 210.534 197.364 210.713 197.258 211.063C190.63 204.315 184.942 196.591 176.297 192.068C175.917 192.184 175.746 192.544 175.482 192.782L175.159 192.58C175.2 192.249 175.4 191.763 174.717 192.13C172.794 190.279 170.832 188.471 169.166 186.38C169.009 186.165 168.775 186.017 168.512 185.965C168.361 185.965 168.673 186.37 168.406 186.532L167.837 186.056C167.382 185.571 166.997 185.028 166.69 184.441C166.356 183.829 165.661 184.16 165.37 184.312C164.889 184.551 165.57 184.834 165.632 185.139C164.981 185.196 165.519 185.651 165.377 185.88C164.63 185.642 164.298 184.77 163.473 184.651L162.992 184.174C163.079 183.953 163.283 183.972 163.473 183.936C163.56 183.993 163.646 184.05 163.735 184.103C163.759 184.078 163.781 184.051 163.8 184.022L163.497 183.908C162.353 182.595 160.944 181.549 159.624 180.449C157.813 178.972 156.168 177.307 154.715 175.483C153.994 174.563 153.201 173.675 152.071 173.199C150.282 170.488 147.671 168.706 144.974 167.02C144.601 166.544 144.168 166.144 143.531 166.079C143.584 165.841 143.437 165.841 143.274 165.855C143.237 165.865 143.205 165.886 143.18 165.915C143.252 166.089 143.404 166.065 143.55 166.063C144.007 166.415 144.19 167.177 144.993 167.015C145.029 167.623 145.601 167.73 145.955 168.011C147.597 169.314 149.481 170.393 150.268 172.491C149.904 172.469 149.561 172.313 149.306 172.055C149.314 171.957 149.295 171.858 149.25 171.769C149.205 171.681 149.136 171.607 149.051 171.555C148.987 171.552 148.923 171.552 148.859 171.555C148.847 171.427 148.789 171.307 148.694 171.219C148.599 171.131 148.474 171.081 148.344 171.079C148.091 170.619 147.748 170.214 147.336 169.886C146.923 169.559 146.448 169.317 145.94 169.173C145.869 168.995 145.773 168.826 145.656 168.673C144.214 167.23 142.44 166.134 141.031 164.624C140.714 164.286 139.961 163.759 139.589 164.036C138.627 164.75 138.254 163.931 137.684 163.543C137.336 163.304 137.081 162.876 136.557 162.98C133.808 159.985 130.676 157.358 127.241 155.165C127.949 155.138 128.642 155.37 129.188 155.816C130.147 156.52 131.238 157.026 132.398 157.304C132.453 157.331 132.508 157.362 132.561 157.39L132.46 157.24C132.261 157.051 132.044 156.882 131.811 156.735C126.609 154.07 121.666 150.933 116.396 148.399C116.325 148.476 116.282 148.576 116.277 148.681C116.271 148.786 116.302 148.89 116.365 148.975C117.127 149.909 116.339 149.971 115.721 150.116C115.522 150.141 115.322 150.146 115.122 150.13L115.067 150.059L115.134 150.118C115.879 150.595 116.615 151.09 117.372 151.547C118.048 151.955 118.358 152.793 119.185 153.01C120.94 154.692 123.152 155.77 125.01 157.297C126.104 158.198 127.462 158.66 128.525 159.648C128.931 160.025 129.727 160.27 130.277 160.696C134.36 163.84 138.447 166.98 142.538 170.116C143.152 171.053 144.094 171.732 145.183 172.022L145.664 172.498C145.541 172.584 145.423 172.701 145.555 172.832C145.688 172.963 145.796 172.844 145.892 172.722L146.373 172.977C145.952 174.58 147.414 176.39 149.258 176.55L149.303 176.631L149.34 176.598L149.258 176.55C149.162 176.202 148.513 175.888 148.948 175.554C149.34 175.249 149.582 175.859 149.859 176.093C150.255 176.424 150.58 176.831 150.972 177.172C151.676 177.784 152.583 177.965 153.422 178.32C152.722 177.472 151.912 176.783 151.191 176.016C150.878 175.683 150.251 175.357 150.393 174.914C150.561 174.378 151.241 174.752 151.679 174.63C151.871 174.575 152.063 174.532 152.256 174.482V174.518C152.239 174.694 152.316 174.768 152.496 174.728V174.752C152.496 174.959 152.607 175.035 152.797 175.04L153.323 175.423L155.927 177.981C155.725 177.95 155.519 177.994 155.347 178.105C155.176 178.215 155.052 178.384 154.999 178.579C154.905 178.934 155.415 178.979 155.597 179.194C156.734 180.516 158.088 181.599 159.444 182.671C160.04 183.148 159.684 183.886 160.187 184.462C162.033 186.58 164.132 188.464 165.904 190.629C166.82 191.744 167.613 192.956 168.671 193.964C169.079 194.354 168.272 194.678 168.469 195.124C168.099 195.124 167.589 195.093 167.603 194.683C167.647 193.323 166.55 193.306 165.714 192.954C164.824 192.58 164.343 191.706 163.509 191.213C162.572 190.66 161.699 189.926 161.242 188.831C160.978 188.204 160.156 188.452 159.73 188C159.05 187.273 158.273 186.632 157.631 185.877C157.066 185.213 156.864 185.544 156.735 186.115C156.619 186.609 156.72 187.197 155.97 187.256C154.763 186.237 153.638 185.126 152.604 183.934C152.646 183.26 152.325 182.943 151.643 182.981C151.63 182.732 151.524 182.497 151.347 182.321C151.169 182.145 150.932 182.041 150.681 182.028C150.724 181.352 150.395 181.04 149.719 181.075C148.621 180.442 148.036 179.325 147.212 178.434C144.926 175.94 142.089 174.08 139.625 171.793C137.317 169.052 134.288 167.206 131.302 165.329C129.984 164.5 128.672 163.707 127.537 162.633C127.094 162.213 126.575 161.389 125.88 162.394C125.277 161.88 124.375 162.254 123.779 161.699C123.576 161.543 123.363 161.4 123.142 161.27C123.262 162.242 123.962 162.699 124.368 163.202C126.075 165.317 128.215 167.013 130.357 168.68C130.561 168.84 130.751 168.959 130.975 168.725L131.215 168.702L131.477 168.98ZM173.188 188.092C173.188 188.157 173.222 188.188 173.287 188.185C173.95 188.736 174.409 189.512 175.21 189.917L175.45 190.155L175.823 190.524C176.15 190.841 176.345 191.339 176.922 191.322C176.859 191.68 177.023 191.834 177.376 191.815C177.282 192.075 177.448 192.158 177.65 192.213C177.689 192.211 177.727 192.198 177.758 192.175C177.708 191.982 177.633 191.811 177.39 191.806C177.381 191.683 177.327 191.567 177.239 191.48C177.15 191.393 177.034 191.339 176.91 191.329C176.73 190.9 176.401 190.549 175.982 190.341L175.621 189.965L175.414 189.757C174.881 189.069 174.171 188.566 173.517 188.011C173.514 187.982 173.5 187.954 173.478 187.934C173.456 187.913 173.427 187.901 173.397 187.9L173.142 187.678L172.902 187.454L172.645 187.233C172.573 187.133 172.491 187.03 172.38 187.183C172.366 187.202 172.462 187.299 172.508 187.359C172.553 187.418 172.664 187.528 172.748 187.611L172.989 187.849L173.188 188.092ZM168.474 183.488L168.62 183.593L168.507 183.457L168.267 183.219C168.226 183.11 168.161 183.012 168.078 182.93C167.995 182.847 167.896 182.784 167.786 182.743C167.749 182.658 167.69 182.585 167.614 182.532C167.538 182.479 167.449 182.448 167.356 182.443C167.333 182.323 167.27 182.214 167.176 182.136C167.082 182.057 166.964 182.012 166.841 182.009C166.762 181.931 166.685 181.85 166.601 181.771L166.36 181.533C166.312 181.452 166.281 181.321 166.163 181.468C166.205 181.514 166.25 181.556 166.298 181.595L166.538 181.833L166.779 182.071C166.796 182.194 166.856 182.307 166.949 182.39C167.041 182.473 167.161 182.522 167.286 182.526C167.33 182.611 167.4 182.68 167.487 182.721C167.574 182.761 167.673 182.773 167.767 182.752C167.761 182.816 167.769 182.881 167.791 182.942C167.812 183.002 167.848 183.058 167.894 183.103C167.94 183.149 167.995 183.184 168.056 183.205C168.118 183.227 168.183 183.235 168.248 183.229L168.474 183.488ZM165.589 180.868L165.726 180.98L165.618 180.84L165.493 180.749L165.589 180.868ZM154.797 182.745L154.701 182.705L154.782 182.759C154.782 182.949 154.858 183.131 154.994 183.265C155.129 183.399 155.312 183.474 155.504 183.474C155.53 183.619 155.542 183.781 155.727 183.807C155.766 183.807 155.857 183.722 155.852 183.686C155.826 183.5 155.66 183.491 155.516 183.462C155.517 183.368 155.499 183.274 155.464 183.186C155.428 183.099 155.376 183.019 155.309 182.951C155.242 182.884 155.162 182.831 155.074 182.794C154.986 182.757 154.892 182.738 154.797 182.738V182.745ZM151.431 178.696L151.347 178.651L151.429 178.696C151.429 179.253 151.429 179.827 151.909 180.208C152.085 180.351 152.275 180.099 152.333 179.911C152.559 179.129 151.671 179.144 151.431 178.698V178.696ZM154.119 182.031C153.878 181.295 153.982 180.642 153.297 180.335C153.205 180.292 152.789 180.628 152.816 180.732C152.922 181.321 153.275 181.745 154.112 182.035L154.119 182.031ZM162.387 180.721C162.062 179.887 161.398 179.418 160.61 179.082C161.028 179.811 161.557 180.428 162.379 180.725L162.387 180.721ZM160.355 178.675C160.28 178.614 160.2 178.561 160.115 178.515C160.098 178.515 159.999 178.632 160.004 178.636C160.073 178.713 160.147 178.784 160.225 178.851L160.355 178.675ZM172.097 186.761L171.856 186.594C171.832 186.649 171.777 186.716 171.794 186.751C171.827 186.814 171.883 186.862 171.95 186.887C171.957 186.902 172.015 186.828 172.089 186.766L172.097 186.761ZM49.9929 83.919C49.9761 84.5836 50.2573 85.0123 50.9545 85.11C51.2743 85.2624 51.4714 85.6459 51.8969 85.5863C51.8056 86.0794 52.1373 86.3652 52.4114 86.7106C53.9308 88.6518 55.4646 90.5859 56.7123 92.72C56.4687 93.1186 56.2283 93.5156 55.9911 93.911C55.1472 93.7752 54.6256 94.6136 53.8274 94.6255L53.7457 94.5803L53.825 94.6255C53.8227 94.72 53.8398 94.8139 53.8752 94.9017C53.9106 94.9894 53.9637 95.0691 54.0311 95.1359C54.0985 95.2027 54.179 95.2553 54.2675 95.2904C54.3561 95.3255 54.4509 95.3424 54.5462 95.3401H54.7866H55.027C55.027 95.4949 55.027 95.6521 55.027 95.8165C54.9549 96.3381 55.3083 96.674 55.5607 97.0622C56.1508 97.9464 56.6121 98.9086 56.9311 99.9204L54.9742 98.1102C54.4429 97.3957 53.9717 96.643 53.3586 96.0189C52.8922 95.5426 52.2479 95.2734 51.8488 96.1952L48.7451 93.7419C48.7956 93.2893 48.7451 92.7891 48.3485 92.5724C47.5744 92.146 47.6417 91.541 47.81 90.867C47.8893 90.6716 47.8677 90.4239 47.6729 90.4072C47.382 90.3787 47.507 90.6454 47.5046 90.8098C47.3652 90.886 47.2835 91.2671 47.0839 90.9908C46.5574 90.262 45.6968 89.9809 45.0452 89.4188C44.6005 89.0353 44.0355 88.7852 43.4321 89.1996C42.551 88.6582 41.7383 88.0145 41.0112 87.2822C40.7203 85.9317 39.4125 85.4577 38.5806 84.5883C36.7223 82.6543 34.1211 81.7301 32.0367 80.0842L31.479 79.6079C31.4237 79.5054 31.3948 79.3506 31.3107 79.3054C28.8606 78.006 26.4937 76.5583 24.2235 74.9704C21.5309 73.1363 18.6484 71.6072 15.8091 70.0065C14.9244 69.5087 14.2176 68.4512 12.953 68.7608C10.7437 67.4484 8.58964 66.0288 6.30576 64.8569C4.49307 63.928 2.51927 63.3016 0.615234 62.5418C0.968636 62.0535 1.75236 61.3365 1.93026 61.5723C2.3606 62.1416 2.74048 61.8963 3.0458 61.7343C3.70211 61.3842 4.30315 61.046 5.10371 60.9793C5.6855 60.9292 6.06531 60.2528 6.08454 59.6573C6.08296 59.5576 6.05489 59.4601 6.00313 59.3746C5.95137 59.2891 5.87775 59.2187 5.78972 59.1704C5.7017 59.122 5.60238 59.0976 5.50177 59.0994C5.40116 59.1013 5.30284 59.1294 5.2167 59.181C5.03879 59.181 4.84643 59.1952 4.75988 58.9833C4.86326 58.576 4.93303 58.152 5.22873 57.8495C5.66868 57.9567 5.61576 58.514 6.09657 58.564C6.44997 57.8114 6.87071 57.0849 5.39941 57.3374C5.72637 56.4061 6.16631 55.5867 5.69752 54.6745C5.64437 54.5915 5.62475 54.4917 5.64258 54.395C5.6604 54.2983 5.71433 54.2118 5.79366 54.1528C6.8178 53.1667 6.84428 51.8519 7.08949 50.4847C6.43318 50.8968 6.62308 51.6757 6.11101 52.0282L5.57972 51.0755C5.56048 50.8373 5.54366 50.58 5.52443 50.3323C5.76484 50.168 5.76484 49.9179 5.76484 49.6725C5.85138 48.0576 6.54614 46.7857 7.95734 45.9401C8.47649 45.6402 8.91777 45.2242 9.24596 44.7254C10.4095 42.9199 11.9722 41.3574 12.5852 39.2137C12.6645 38.9375 12.804 38.5206 13.2055 38.3968C13.2656 39.3686 13.8546 39.8807 14.7441 40.1093C16.1481 40.469 20.2062 43.2701 21.2351 44.6063C20.0331 44.6992 19.7326 44.5444 17.3021 42.8652C16.5664 42.3554 15.8091 41.9338 14.7633 42.222C13.7176 42.5103 13.4435 43.1438 13.3209 44.0061C13.1983 44.8683 13.857 45.0398 14.4196 45.4519C16.5111 46.9786 19.1219 47.5955 21.1173 49.2319C22.6896 50.5324 24.447 51.6376 25.6971 53.3001C25.9087 53.5812 26.0506 53.8741 25.7741 54.1504C25.3918 54.5292 24.9975 54.3886 24.5936 54.1123C22.9805 52.9524 21.3433 51.8138 19.5571 50.9325C18.4656 50.3919 17.4607 49.7083 16.2539 49.3462C14.9556 48.9556 13.8498 49.401 12.667 49.6678C12.2246 49.7702 12.3809 50.0679 12.5011 50.318C12.7503 50.8571 13.1813 51.2934 13.7199 51.5518C15.9053 52.6713 18.1338 53.7217 20.0812 55.258C20.3203 55.4243 20.5103 55.6509 20.6316 55.9142C20.7529 56.1776 20.8011 56.4683 20.7712 56.7562L16.5905 54.1362C16.7756 57.2326 18.932 58.8451 20.9178 60.6196C22.1487 61.7176 23.1969 63.0181 24.3316 64.2305C24.072 64.4687 23.9157 64.1233 23.733 63.9709C22.2401 62.7276 20.6077 61.6557 19.2445 60.2552C19.033 60.036 18.7277 59.7097 18.4392 60.017C18.0786 60.41 18.4945 60.6267 18.7854 60.8387C22.1511 63.2921 24.8485 66.5386 28.2719 68.9371C28.8084 69.3459 29.375 69.7145 29.9668 70.0399C30.325 70.2185 31.1208 70.9259 30.8924 69.6112C30.8515 69.373 31.2265 69.1991 31.4261 69.2491C31.7097 69.3379 31.9624 69.5041 32.155 69.7286C32.3476 69.9532 32.4724 70.227 32.5151 70.5186C32.5969 71.076 31.9382 70.5186 31.6761 70.7402C32.2555 72.8648 32.3757 72.9577 34.6307 72.9577C35.0322 72.9577 35.4337 72.9339 35.8328 72.9577C36.3425 73.0029 36.8305 73.1268 36.1405 73.6722C35.6597 74.039 35.8616 74.3106 36.2535 74.4487C37.0733 74.7369 37.9989 75.4015 38.5109 73.9938C38.7009 73.4745 39.124 73.7556 39.4293 73.8818C41.1427 74.5467 42.5874 75.7521 43.5403 77.3117C44.5864 78.9714 45.9387 80.421 47.5263 81.5848C48.4735 82.2732 48.9134 83.4165 49.9953 83.9L49.9929 83.919ZM47.2041 90.0238L46.9637 89.7856C46.8947 89.6231 46.7884 89.4788 46.6532 89.3643C46.5179 89.2497 46.3575 89.1681 46.1848 89.1258C46.0381 88.9543 45.9059 88.7495 45.6319 88.8352C45.5982 88.8352 45.5645 89.0115 45.5838 89.0258C45.7352 89.1234 45.8987 89.202 46.0646 89.2854C46.1274 89.445 46.2264 89.5882 46.354 89.7038C46.4815 89.8195 46.6342 89.9045 46.8002 89.9523L47.0407 90.1905C47.1488 90.3001 47.2642 90.393 47.3965 90.2381C47.3393 90.1608 47.2749 90.0891 47.2041 90.0238ZM52.0772 95.19C52.1469 95.2758 52.2239 95.3758 52.3176 95.2305C52.3176 95.2115 52.2407 95.1234 52.1998 95.0686C51.6517 94.2873 51.13 93.4751 49.8895 93.2083C50.5266 94.1754 51.1805 94.8232 52.0772 95.19ZM44.9443 88.4398L44.99 88.497L44.9347 88.4494C44.1846 87.1179 42.7301 86.5891 41.641 85.6388C41.1867 85.241 40.7203 84.6527 39.7178 84.7313C41.2502 86.2345 43.0145 87.4864 44.9443 88.4398ZM154.556 210.132C155.653 210.415 156.023 211.423 156.561 212.209C158.809 215.493 161.009 218.811 163.427 221.975C164.48 223.356 165.548 224.738 166.716 226.024C167.483 226.872 167.714 227.948 168.195 228.901C168.916 230.349 169.798 231.59 171.135 232.51L171.375 232.748C171.998 234.632 173.263 236.209 173.955 238.059C173.996 238.173 174.069 238.271 174.166 238.344C174.263 238.416 174.38 238.459 174.501 238.467L174.587 238.75L174.671 238.695L174.506 238.457V237.504C175.513 238.574 176.169 239.943 177.39 240.839C177.37 240.932 177.383 241.029 177.427 241.113C177.47 241.197 177.543 241.264 177.631 241.301C177.352 242.28 178.172 242.754 178.612 243.402C178.963 243.554 178.852 243.878 178.9 244.147C178.568 244.386 178.333 243.692 177.958 244.069C177.583 244.445 178.028 244.695 178.104 244.995C178.33 245.824 178.731 246.596 179.28 247.26L179.294 247.306C179.277 247.425 179.295 247.547 179.346 247.656C179.397 247.765 179.48 247.857 179.583 247.92C180.004 248.466 180.208 249.135 180.718 249.652C181.049 249.99 180.655 250.162 180.292 250.169C179.843 249.931 179.143 249.502 178.924 249.947C178.547 250.717 177.878 250.49 177.366 250.74C177.344 250.737 177.322 250.73 177.302 250.718C177.283 250.706 177.266 250.69 177.253 250.671C176.878 249.676 176.083 249.016 175.383 248.268C174.789 247.637 174.224 247.601 173.544 248.03C166.091 237.157 158.968 226.059 151.068 215.491C146.652 209.584 141.988 203.872 136.305 199.073C134.932 197.151 133.064 195.714 131.333 194.142C131.124 193.954 130.809 193.761 130.612 194.059C130.415 194.357 130.782 194.535 130.982 194.685C132.787 196.041 134.213 197.782 135.752 199.394C137.052 200.759 138.074 202.341 139.254 203.796C141.495 206.559 143.649 209.382 145.656 212.314L145.176 212.552C142.82 209.534 140.449 206.53 138.117 203.501C137.194 202.31 136.117 201.24 135.074 200.154C132.102 197.058 129.179 193.921 125.993 191.039C125.284 190.1 124.594 189.162 123.69 188.376C121.046 186.077 117.882 184.52 115.187 182.305C115.048 180.571 115.338 178.82 114.947 177.098C114.894 176.86 114.874 176.588 115.088 176.436C115.401 176.212 115.569 176.526 115.795 176.674C121.168 180.428 126.462 184.296 131.532 188.426C134.845 191.127 137.896 194.142 141.168 196.891C143.171 198.577 145.37 200.028 147.472 201.598C147.849 201.879 148.339 202.026 148.57 202.486C147.486 202.467 148.183 203.105 148.277 203.458C148.125 203.517 148.015 203.587 147.991 203.565C144.762 200.44 140.817 198.192 137.555 195.09C135.55 193.185 133.146 191.684 131.112 189.8C128.323 187.216 125.101 185.294 121.938 183.243C120.404 182.25 118.848 181.18 117.699 179.653C117.355 179.196 116.497 179.141 116.666 178.251C116.699 178.062 116.322 177.967 116.067 177.996C115.966 177.999 115.87 178.039 115.797 178.109C115.724 178.178 115.68 178.272 115.673 178.372C115.634 178.763 115.497 179.239 115.814 179.511C116.697 180.266 117.317 181.223 118.363 181.892C120.456 183.259 122.419 184.813 124.226 186.535C126.376 188.557 128.71 190.329 131.018 192.149C134.67 195.028 138.61 197.544 142.048 200.685C142.911 201.471 144.212 201.526 144.902 202.524C145.015 202.686 145.185 202.81 145.293 202.974C145.481 203.253 145.572 203.617 145.356 203.863C145.101 204.149 144.76 203.901 144.495 203.758C144.014 203.498 143.632 202.596 143.022 203.127C142.411 203.658 143.324 204.218 143.442 204.794C143.56 205.371 144.089 205.859 144.435 206.388C144.527 206.526 144.654 206.671 144.817 206.597C146.5 205.828 146.827 207.717 147.897 208.148C147.96 208.172 147.993 208.269 148.036 208.336C148.537 209.103 149.354 209.915 150.102 209.71C150.933 209.472 149.551 208.693 150.027 208.007C151.359 209.158 152.294 210.627 153.309 212.002C154.27 213.312 155.694 214.248 156.405 215.755C156.429 215.812 156.465 215.862 156.511 215.903C156.557 215.943 156.612 215.972 156.672 215.988C156.731 216.004 156.794 216.006 156.854 215.994C156.915 215.982 156.972 215.957 157.021 215.92C157.09 215.861 157.148 215.789 157.19 215.708C157.231 215.628 157.257 215.539 157.264 215.449C157.271 215.359 157.261 215.268 157.233 215.181C157.204 215.095 157.159 215.015 157.1 214.946C156.165 214.01 155.953 212.602 154.982 211.744C154.352 211.254 154.316 210.773 154.556 210.132ZM172.049 244.002C172.121 244.09 172.193 244.178 172.263 244.269L172.464 244.767C172.508 244.721 172.577 244.681 172.589 244.628C172.61 244.537 172.601 244.441 172.562 244.355C172.524 244.269 172.458 244.198 172.376 244.152L172.181 243.871L171.94 243.395L171.726 243.133C171.717 242.979 171.657 242.833 171.554 242.718C171.451 242.603 171.312 242.526 171.159 242.499C171.161 242.652 171.197 242.804 171.265 242.941C171.333 243.079 171.432 243.2 171.553 243.295L171.772 243.559L172.049 244.002ZM170.707 241.518L170.484 241.408C170.515 241.487 170.544 241.568 170.575 241.646C170.616 241.942 170.7 242.197 171.077 242.278C171.09 242.129 171.061 241.979 170.994 241.845C170.927 241.711 170.825 241.598 170.697 241.518H170.707ZM128.268 191.865C128.335 191.973 128.323 192.235 128.508 192.12C128.655 192.034 128.544 191.849 128.4 191.753C128.185 191.405 127.866 191.133 127.486 190.975C127.38 190.797 127.235 190.645 127.064 190.528C126.892 190.411 126.696 190.333 126.491 190.298C126.424 190.224 126.354 190.138 126.265 190.265C126.265 190.277 126.344 190.353 126.388 190.4C126.593 190.757 126.925 191.026 127.318 191.156C127.544 191.488 127.875 191.737 128.258 191.865H128.268ZM150.239 136.558H150.219C148.943 136.454 147.986 135.606 146.854 135.144C145.298 134.519 143.757 133.922 142.009 134.065C141.404 134.115 140.771 133.853 140.151 133.733C140.194 134.448 138.985 134.315 139.168 135.134L139.663 135.61C139.774 135.651 139.961 135.665 139.983 135.734C140.668 137.749 142.322 138.592 144.19 139.186C144.293 139.217 144.37 139.331 144.462 139.407C144.721 139.431 144.998 139.407 145.183 139.66C145.445 139.66 145.712 139.648 145.904 139.898H145.918C148.782 140.558 151.508 141.648 154.302 142.518C156.246 143.128 157.814 144.53 159.831 145.031C160.749 145.269 161.754 145.486 162.492 146.195C164.416 146.536 166.142 147.498 168.036 147.932C168.233 147.727 168.491 147.756 168.743 147.756V147.739C168.628 147.215 167.442 147.174 167.95 146.524C168.397 145.955 169.048 146.624 169.553 146.862C171.411 147.736 173.284 148.596 174.765 150.073C175.809 150.486 176.775 151.07 177.624 151.8L181.951 154.182L182.432 154.203C182.191 153.758 182.225 153.398 182.752 153.189C182.949 153.109 183.128 152.992 183.279 152.843C183.43 152.695 183.55 152.518 183.631 152.324C182.456 151.755 181.275 151.195 180.107 150.609C179.737 150.421 179.242 150.392 179.076 149.894L179.052 149.88C178.811 149.947 178.633 149.794 178.465 149.642C176.862 148.882 175.27 148.098 173.832 147.046C173.013 146.176 171.818 145.855 170.753 145.09C171.976 144.635 171.955 144.283 170.887 143.742C169.983 143.285 169.205 142.568 168.385 141.965C169.515 142.345 170.576 142.904 171.527 143.618C172.166 142.744 171.741 142.227 171.06 141.713C170.808 141.52 170.099 141.446 170.524 140.808L170.551 140.829C170.31 141.577 170.07 140.843 169.813 140.829C168.279 140 166.774 139.097 164.956 139.016L165.115 139.386L165.356 139.567C165.644 139.788 165.988 139.819 166.332 139.895C166.45 139.916 166.563 139.962 166.664 140.028C166.764 140.094 166.849 140.181 166.914 140.281C166.979 140.382 167.023 140.495 167.041 140.613C167.06 140.731 167.054 140.852 167.024 140.967C166.916 141.591 166.413 141.224 166.079 141.279C165.94 142.039 166.668 142.075 167.041 142.361C168.118 143.173 169.445 143.64 170.407 144.635L170.572 144.735L170.426 144.788C170.426 144.733 170.426 144.678 170.426 144.623C168.435 144.153 166.644 143.075 165.305 141.541L165.132 141.322L164.908 141.031C164.805 140.976 164.721 140.892 164.665 140.789C164.61 140.687 164.586 140.571 164.596 140.455C163.699 139.459 162.673 138.857 161.273 139.35C161.394 139.633 161.894 139.826 161.483 140.243C161.216 140.515 160.951 140.51 160.615 140.396C158.877 139.812 157.119 139.276 155.388 138.666C153.97 138.164 152.474 137.852 151.174 137.047C150.784 137.03 150.4 136.992 150.229 136.558H150.239ZM124.529 65.8168C124.527 65.7432 124.512 65.6706 124.484 65.6025C127.191 59.886 129.9 54.1695 132.612 48.453C132.831 47.9933 133.124 47.5717 133.384 47.1311C133.403 47.2859 133.362 47.5098 133.453 47.5908C135.155 49.1056 134.487 51.1112 134.203 52.7833C133.814 55.0889 133.934 57.416 133.468 59.7193C132.845 62.8014 132.446 65.874 131.29 68.8775C129.847 72.6314 128.08 76.278 127.097 80.2176C126.467 82.7472 125.52 85.2005 124.712 87.6872C124.69 87.7978 124.63 87.8975 124.543 87.9695C124.455 88.0415 124.345 88.0814 124.231 88.0825C124.121 85.129 124.871 82.2708 125.164 79.3411C124.296 80.17 123.931 81.1727 123.798 82.2803C123.758 82.6042 123.936 83.0806 123.402 83.1259C122.995 83.1592 122.782 82.821 122.632 82.4804C122.197 81.4967 122.77 80.6059 123.044 79.7627C123.635 77.9477 123.33 76.0089 124.005 74.2248C124.06 74.0951 124.064 73.9498 124.016 73.8175C123.968 73.6853 123.871 73.5756 123.746 73.5103C123.484 73.365 122.76 73.5269 123.024 73.0339C123.416 72.3193 123.14 71.2237 124.226 70.9212C124.439 70.8552 124.636 70.7481 124.806 70.6061C124.977 70.4641 125.117 70.29 125.219 70.094C125.321 69.8979 125.382 69.6838 125.4 69.4639C125.418 69.2441 125.392 69.0229 125.323 68.8132C125.237 68.5282 125.211 68.229 125.247 67.9338C125.282 67.6385 125.377 67.3535 125.527 67.0959C125.806 66.5338 126.215 66.0122 126.183 65.3333C126.65 65.25 126.808 64.9689 126.784 64.483C126.279 64.6354 126.258 65.0022 126.186 65.3381C125.59 65.369 124.948 65.219 124.52 65.8168H124.529ZM125.681 78.4407C125.63 78.1811 125.573 78.0739 125.424 78.1168C125.368 78.1335 125.291 78.243 125.303 78.2883C125.327 78.3812 125.397 78.5265 125.467 78.5265C125.537 78.5265 125.647 78.4479 125.671 78.436L125.681 78.4407ZM125.123 74.3654C125.064 74.3363 125.003 74.3116 124.94 74.2915C124.94 74.2915 124.875 74.3606 124.885 74.3725C124.921 74.4241 124.961 74.4728 125.005 74.5178L125.123 74.3654ZM187.49 163.685C188.346 163.731 189.113 164.326 190.053 163.976C190.692 163.738 190.368 164.691 190.832 164.769C193.885 165.074 196.912 165.593 199.89 166.325C200.556 166.489 201.071 166.61 201.686 166.017C202.302 165.424 203.107 165.005 204.064 165.138C204.227 165.162 204.355 165.034 204.386 164.693C202.429 164.193 200.912 162.816 199.169 161.823C198.342 162.113 197.705 161.554 197.005 161.304C196.654 161.152 196.276 161.071 195.892 161.065C195.933 161.435 196.051 162.018 195.411 161.694C194.849 161.404 194.092 161.175 193.969 160.358V160.346L193.907 160.363H193.844C193.664 160.363 193.51 160.348 193.488 160.125C193.248 160.222 193.07 160.186 193.022 159.886H193.003C192.849 159.886 192.647 159.946 192.548 159.872C189.961 157.898 186.694 157.35 183.91 155.804C183.028 155.316 182.093 154.944 181.218 154.453C180.119 154.565 179.492 153.636 178.6 153.293C177.862 153.97 177.157 153.331 176.436 153.253L175.732 153.055C175.801 153.61 176.287 153.786 176.655 154.077C176.953 154.315 176.934 154.62 176.765 154.934C176.597 155.249 176.316 155.454 175.984 155.268C174.465 154.42 172.7 154.327 171.099 153.67C169.83 153.15 168.38 152.622 166.668 153.143C167.51 153.474 168.212 153.755 168.808 154.353C167.861 154.506 167.125 154.129 166.348 153.989C166.065 153.936 165.627 153.774 165.55 154.208C165.481 154.561 165.853 154.825 166.154 154.818C167.837 154.777 169.404 154.996 170.659 156.247C170.705 156.295 170.81 156.287 170.899 156.292C172.113 156.364 173.332 156.573 174.506 156.668C175.948 156.785 176.842 157.907 178.177 158.038C178.376 158.059 178.549 158.419 178.722 158.633C178.895 158.848 179.081 159.091 179.374 159.124C180.634 159.267 181.569 160.21 182.8 160.453C183.442 160.582 183.581 161.073 183.194 161.644C183.047 161.861 182.689 162.035 182.869 162.335C183.05 162.635 183.396 162.554 183.641 162.459C184.211 162.221 184.492 162.59 184.959 163.004H183.85L187.49 163.685ZM128.191 101.616C128.191 102.683 129.095 102.109 129.41 102.128C132.499 102.317 135.591 102.445 138.656 102.905C138.772 102.931 138.892 102.945 139.012 102.945C142.298 102.707 145.529 103.5 148.808 103.474C150.063 103.474 151.316 103.82 152.535 104.074C155.758 104.748 158.99 104.417 162.197 104.274C163.216 104.243 164.226 104.067 165.195 103.75C165.524 103.634 165.834 103.512 165.966 103.955C165.988 104.043 165.991 104.134 165.974 104.223C165.957 104.312 165.921 104.396 165.868 104.469C165.815 104.543 165.747 104.605 165.668 104.65C165.589 104.695 165.502 104.723 165.411 104.732C164.264 104.789 163.581 105.842 162.48 105.999C163.481 106.368 164.571 106.426 165.606 106.166C166.375 105.958 167.169 105.854 167.966 105.854C168.305 105.854 168.613 105.899 168.719 106.29C168.411 106.404 168.154 106.668 168.656 106.718C169.221 106.778 169.426 107.145 169.733 107.461L171.123 107.488C172.827 107.445 174.515 107.011 176.241 107.352C176.434 107.388 177.222 107.576 177.143 106.799C178.585 107.037 179.905 106.287 181.316 106.285C182.165 106.459 183.076 106.132 184.033 106.556C183.591 106.669 183.193 106.91 182.889 107.247C181.944 107.59 180.934 107.533 179.965 107.723L179.302 107.785C177.52 107.964 175.741 108.145 174.013 108.602L173.13 108.71C172.356 108.726 171.659 108.35 170.967 108.145C169.539 107.733 168.233 107.645 166.808 108.145C166.021 108.421 165.096 108 164.307 107.826C161.495 107.202 158.617 107.266 155.792 106.802C153.532 106.43 151.333 105.732 149.034 105.573C148.438 105.578 147.841 105.551 147.248 105.489C145.048 105.151 142.853 104.813 140.617 104.865H137.252H134.848C134.804 104.567 134.877 104.151 134.343 104.313C134.155 104.365 133.961 104.563 133.799 104.532C131.419 104.082 129.071 105.592 126.686 104.637C126.493 104.56 126.277 104.529 126.277 104.294C126.276 104.243 126.287 104.194 126.307 104.148C126.328 104.103 126.359 104.062 126.398 104.03C126.437 103.998 126.482 103.975 126.531 103.962C126.58 103.95 126.631 103.948 126.681 103.958C127.946 104.174 129.184 103.481 130.46 103.893C130.905 104.034 131.46 103.86 131.523 103.384C131.609 102.717 130.977 103.034 130.655 102.981C129.479 102.798 128.301 102.645 127.123 102.483C127.004 102.472 126.892 102.419 126.808 102.334C126.724 102.249 126.673 102.137 126.664 102.019L127.866 101.542L128.191 101.616ZM167.572 106.201C167.5 106.175 167.411 106.111 167.373 106.132C167.295 106.192 167.227 106.263 167.173 106.344C167.267 106.373 167.365 106.386 167.464 106.385C167.507 106.378 167.538 106.268 167.572 106.201ZM230.73 150.135C230.805 149.999 230.853 149.768 230.954 149.744C232.281 149.423 232.091 148.987 231.194 148.256C230.297 147.524 229.497 146.61 228.658 145.771C228.521 145.633 228.357 145.462 228.525 145.264C228.558 145.225 228.6 145.195 228.647 145.175C228.693 145.155 228.744 145.146 228.795 145.149C228.846 145.152 228.896 145.167 228.94 145.192C228.984 145.217 229.022 145.253 229.05 145.295C229.771 146.534 231.213 146.85 232.16 147.803C232.246 147.886 232.34 147.959 232.442 148.022C232.798 148.26 232.682 149.339 233.403 148.737C233.711 148.484 233.201 147.703 232.805 147.372C231.22 146.052 229.66 144.69 227.953 143.542C225.823 142.113 223.691 140.684 221.681 139.095C220.892 138.471 219.924 138.168 219.111 137.63C217.972 136.875 216.543 136.456 215.938 134.974C215.606 134.167 214.476 133.893 214.171 132.964C220.748 135.822 226.657 139.795 232.639 143.656C233.803 144.428 234.885 145.314 235.87 146.3C235.949 146.777 236.394 146.955 236.663 147.279C236.839 147.486 237.144 147.86 236.969 147.965C235.836 148.627 237.209 149.004 237.108 149.532C236.781 149.792 236.315 149.363 236.012 149.744C235.711 149.63 235.343 149.506 235.149 149.792C234.954 150.078 235.315 150.268 235.461 150.49C235.747 150.907 235.985 151.359 236.406 151.681C236.553 151.795 236.904 151.893 236.69 152.2C236.476 152.507 236.209 152.367 235.969 152.252C235.649 152.105 235.339 151.933 234.867 152.095C234.903 152.531 235.071 152.946 235.348 153.286C235.357 153.379 235.345 153.473 235.313 153.561C235.282 153.649 235.231 153.729 235.165 153.796C235.099 153.863 235.019 153.914 234.93 153.947C234.842 153.98 234.748 153.993 234.654 153.986L230.73 150.135ZM226.655 141.084L226.739 141.129L226.657 141.082C226.609 140.808 226.578 140.515 226.203 140.496C226.169 140.505 226.138 140.523 226.113 140.547C226.088 140.572 226.071 140.602 226.061 140.636C226.081 140.998 226.381 141.024 226.655 141.074V141.084ZM223.943 139.386C224.023 139.455 224.097 139.562 224.196 139.59C224.294 139.619 224.407 139.557 224.513 139.536C224.434 139.454 224.348 139.379 224.256 139.312C224.155 139.243 224.035 139.207 223.943 139.376V139.386ZM225.523 140.169L225.371 140.057C225.349 140.109 225.332 140.164 225.321 140.219C225.321 140.234 225.383 140.279 225.395 140.272C225.443 140.24 225.486 140.203 225.523 140.16V140.169ZM192.765 41.779C192.642 41.8457 192.524 41.9124 192.394 41.9767L192.332 41.8386L192.769 41.7862C193.029 41.2788 193.51 41.3098 193.971 41.3098C194.048 40.8954 194.375 40.8858 194.693 40.8668L195.121 40.5786L195.897 40.2689C195.897 40.0736 194.849 40.157 195.748 39.7068C195.955 39.6044 196.647 39.7354 196.145 39.1256C194.601 39.7401 193.019 40.2832 191.517 40.9811C181.694 45.5305 172.501 51.1421 163.581 57.2231C160.281 59.4715 157.033 61.7796 154.013 64.3949C154.25 64.4375 154.494 64.4157 154.72 64.3319C154.946 64.248 155.144 64.1051 155.294 63.9185C155.564 63.6112 155.857 63.3254 156.311 63.6541C157.001 64.1543 157.499 63.878 157.898 63.2492C158.23 62.7276 158.776 62.4441 159.261 62.1154C160.499 61.2794 161.773 60.4934 163.04 59.6954C163.812 59.2191 164.533 58.564 165.38 58.2901C167.637 57.5613 169.366 56.0107 171.279 54.7531C171.561 54.5598 171.799 54.3093 171.976 54.0181C172.153 53.727 172.265 53.4018 172.306 53.0643C172.392 52.3331 172.404 51.6924 173.38 52.3712C173.426 52.4119 173.481 52.4411 173.541 52.4562C173.601 52.4712 173.663 52.4718 173.723 52.4577C173.783 52.4437 173.839 52.4155 173.886 52.3755C173.932 52.3356 173.968 52.2851 173.991 52.2283C174.195 51.4304 174.869 51.3518 175.489 51.1112C176.33 50.7873 177.441 50.5681 177.893 49.9202C178.698 48.7627 179.896 48.6531 180.965 48.1386C182.194 47.5479 183.475 47.1335 184.639 46.2974C186.081 45.2637 187.358 43.8846 189.146 43.3963C190.161 43.12 191.289 42.5293 192.164 42.6532C193.31 42.8175 192.986 42.3245 193.01 41.8005C192.918 41.7886 192.842 41.7885 192.765 41.7695V41.779ZM78.5054 216.339C79.7579 216.039 79.5103 214.891 79.7747 214.062C80.5392 211.659 80.7027 209.079 81.9384 206.816C82.6428 204.577 83.6694 202.441 83.9603 200.073C84.0864 199.295 84.3001 198.532 84.5974 197.801C85.2873 195.912 86.4413 194.228 86.8548 192.211C87.0688 191.179 87.576 190.205 87.9631 189.214C88.0857 188.898 88.3261 188.671 88.7035 188.769C88.9584 188.836 89.1843 189.088 89.0305 189.291C88.5497 189.898 88.6338 190.653 88.4776 191.322C87.9967 193.354 87.2106 195.288 86.7082 197.31C86.5952 197.768 87.2947 199.216 87.7106 199.413C87.6369 199.89 87.5616 200.366 87.4847 200.843L87.4366 200.912L87.4775 200.835L87.7828 201.312L87.5063 202.026C87.2515 202.155 87.1721 202.541 86.8019 202.503C86.5615 202.581 86.4317 202.717 86.5303 202.979V202.993C85.6119 203.26 85.5686 204.111 85.2921 204.808C84.7705 206.676 83.9579 208.434 83.2463 210.23C83.1597 210.139 83.0924 209.827 83.0059 209.965C82.4551 210.858 81.9558 211.781 81.5105 212.73C80.6186 214.75 79.8156 216.801 79.0776 218.878C78.7795 219.171 78.491 219.469 78.1856 219.755C77.5798 220.319 77.6688 219.719 77.5918 219.4C77.8851 218.606 78.1776 217.812 78.4693 217.018L78.6617 216.927L78.503 216.794L78.5054 216.339ZM85.5662 202.048C86.1408 201.024 87.0495 200.085 86.4629 198.758C86.2225 199.871 85.3354 200.809 85.559 202.043C85.5037 202.117 85.4484 202.191 85.3979 202.281C85.3979 202.281 85.446 202.322 85.47 202.343L85.5662 202.048ZM227.641 35.8053C226.982 34.6477 225.552 35.1384 224.662 34.4476C224.487 34.3119 223.926 34.3309 223.941 34.6001C224.023 35.5862 223.297 35.2908 222.825 35.3766C222.24 35.4661 221.683 35.6896 221.2 36.0292C220.04 36.911 218.582 37.3185 217.128 37.1677C216.146 37.1416 215.173 37.3543 214.293 37.787C213.49 38.1705 212.57 38.0728 211.819 38.5778C211.697 38.6461 211.561 38.6888 211.421 38.7031C211.28 38.7174 211.139 38.7032 211.004 38.6612C208.81 37.8728 206.677 38.6612 204.691 39.2471C203.008 39.7378 201.287 40.1998 199.643 40.8334C199.234 40.9809 198.804 41.0613 198.369 41.0716C197.972 41.093 197.486 41.0025 197.195 41.1931C196.154 41.8791 195.089 41.8886 193.962 41.5313C193.985 41.4541 193.992 41.373 193.981 41.2931C194.115 41.3267 194.256 41.3221 194.388 41.28C194.52 41.2379 194.637 41.1599 194.726 41.0549C195.048 41.0406 195.385 41.093 195.652 40.8429L197.84 40.0546C197.955 40.0546 198.067 40.0103 198.15 39.9307C198.233 39.8512 198.282 39.7428 198.287 39.6282C199.919 39.1161 201.549 38.5897 203.186 38.0919C205.363 37.3964 207.592 36.8739 209.853 36.5294C212.115 36.215 214.288 35.2837 216.5 34.6239C217.827 34.2237 219.169 33.9331 220.611 34.1475L218.484 34.8287C217.041 34.9478 215.813 35.7481 214.464 36.1745C215.858 36.1102 217.157 35.6767 218.452 35.2217C221.051 34.6691 223.624 33.9713 226.282 33.7355C226.951 33.6759 227.831 33.4758 227.934 34.3928C227.951 34.88 227.85 35.3642 227.641 35.8053ZM213.697 36.4293C213.624 36.3679 213.532 36.3324 213.436 36.3285C213.34 36.3246 213.246 36.3526 213.168 36.4079C213.351 36.5651 213.524 36.5008 213.697 36.4293ZM57.7124 51.0183C58.3029 51.4268 58.7192 52.0379 58.8808 52.7332H58.852C59.0563 52.7023 59.1116 52.8261 59.1236 52.9929L59.0996 52.9595C59.34 53.0929 59.4241 53.2453 59.1597 53.4359C58.4961 53.5121 58.3495 53.1358 58.4072 52.5879L57.5057 51.2065C54.4885 47.5527 50.9401 44.3824 47.8148 40.8358C47.1945 41.1764 47.697 41.9029 47.2955 42.3197C47.2912 42.3562 47.2996 42.3931 47.3192 42.4242C47.3389 42.4554 47.3687 42.479 47.4037 42.4912C47.463 42.4979 47.5203 42.5164 47.5722 42.5455C47.6242 42.5746 47.6696 42.6138 47.706 42.6607C47.7423 42.7076 47.7688 42.7612 47.7837 42.8184C47.7987 42.8757 47.8019 42.9353 47.7931 42.9938C49.8054 45.7067 51.5724 48.6007 53.7649 51.185C53.9404 50.1703 54.3058 50.1227 54.9814 50.8849C56.9864 53.1524 58.9601 55.4605 60.4194 58.102C60.9885 59.1597 61.6773 60.1498 62.4725 61.0531L62.7394 60.8149C62.8187 60.4267 62.4989 60.1813 62.3836 59.8622C62.624 59.4882 62.8644 60.1004 63.1048 59.8622C62.7033 58.6403 61.684 57.7495 61.3017 56.5276V56.5442C61.2116 56.4726 61.1419 56.3789 61.0997 56.2723C61.0576 56.1657 61.0443 56.0501 61.0613 55.9368L61.0757 55.913L60.8161 55.4652C60.7857 55.3388 60.7266 55.221 60.6433 55.1207C60.56 55.0204 60.4546 54.9403 60.3353 54.8864C59.828 54.7697 59.5467 54.441 59.3592 53.8742C59.929 53.8742 60.381 53.8741 60.3785 54.553C60.7247 54.6387 60.7969 54.2124 61.0806 54.1814C60.9964 53.162 60.03 52.5379 59.8785 51.5494L59.8641 51.5304C59.7784 51.4928 59.7081 51.4277 59.6644 51.3455C59.6208 51.2634 59.6064 51.1691 59.6237 51.0778L59.6092 51.0564L59.4001 50.7634C59.3183 50.6205 59.239 50.4776 59.1597 50.3371L58.7197 50.3538C58.3471 50.773 57.9264 50.4324 57.5177 50.4324L57.7124 51.0183ZM90.2878 63.7494L90.2229 63.5612L90.384 63.6517L91.312 65.1499C91.4875 64.8879 91.7519 64.8712 92.0332 64.8879C91.5692 63.9995 90.8311 63.142 90.7133 62.2131C90.5499 60.8292 89.771 60.641 88.7035 60.5886L88.1939 60.3504C88.1626 60.4719 88.2275 60.6577 88.0112 60.6577C87.9679 60.6577 87.8838 60.5601 87.8862 60.5148C87.9054 60.3171 88.0568 60.3338 88.2011 60.3576C86.999 59.4049 86.4124 58.0043 85.5566 56.7848C83.2342 53.1715 81.8375 49.1414 80.294 45.1827C79.8132 43.9561 78.979 42.8771 78.7771 41.5408L78.8035 41.5527C78.5631 41.6575 78.5775 41.4217 78.4982 41.3146C77.777 40.6476 77.5077 39.6639 76.8922 38.916C76.9259 39.4877 76.3273 39.0661 76.171 39.359C76.1974 39.4448 76.2215 39.5329 76.248 39.621C76.6374 39.7211 76.6639 40.0069 76.6182 40.3356L76.7047 40.5976C77.1856 40.6548 77.4019 40.8358 77.0918 41.3122C77.1952 41.5504 77.3009 41.7886 77.4043 42.0386C77.4678 42.0249 77.532 42.0145 77.5966 42.0077L77.6567 41.9243L77.6135 42.022L77.5341 42.3126C79.0704 46.1783 80.7172 49.9941 82.6212 53.7003C82.8472 54.1409 83.1621 54.553 83.0708 55.0937C83.1285 55.2699 83.1381 55.551 83.2535 55.6058C84.4122 56.156 84.0108 56.7014 83.2823 57.2731L84.1574 58.7022L85.7585 60.6267C86.148 60.6267 86.4798 60.5601 86.5567 60.098L86.4677 59.6716L86.2586 59.4072L86.1167 59.2596L86.2225 59.2095L86.2538 59.4096L86.5591 59.5859C87.0087 59.8717 87.463 60.1551 87.189 60.8054C87.9799 62.3465 89.2541 63.5279 90.2999 64.8808C90.8119 64.4806 90.1268 64.1257 90.2974 63.7494H90.2878ZM209.37 153.046C208.245 152.522 207.115 152.005 206.004 151.466C205.764 151.347 205.559 151.145 205.263 151.312H205.29C205.119 150.857 204.61 150.94 204.304 150.699C203.042 150.295 201.917 149.394 200.458 149.659C198.744 148.956 196.871 148.668 195.243 147.753C194.262 147.208 193.32 146.619 192.233 146.272C191.385 145.998 190.55 145.583 189.632 145.757C188.846 145.907 188.43 145.252 187.791 145.064C186.692 144.738 185.627 144.326 184.533 143.949C184.624 143.901 184.7 143.827 184.752 143.738C184.804 143.649 184.83 143.547 184.826 143.444V143.432C185.401 143.347 186.045 143.659 186.54 143.137C187.836 143.597 189.127 144.068 190.43 144.509C190.625 144.573 191.022 145.04 191.053 144.347L192.055 144.638L192.029 145.19L192.527 144.792C196.517 146.167 200.263 148.096 204.11 149.794L209.471 152.248C209.338 152.492 209.301 152.777 209.37 153.046ZM191.435 144.814L191.474 144.757H191.416L191.435 144.814ZM161.747 89.6641C161.721 89.3021 161.552 89.1544 161.199 89.3259C160.846 89.4974 160.567 89.6641 160.254 89.8308C160.014 89.9642 159.728 90.2548 159.533 89.9476C159.307 89.5879 159.701 89.3735 159.97 89.2568C160.41 89.0639 160.846 88.8948 161.172 88.4232C160.499 88.0159 159.778 88.2993 159.107 88.2112C158.867 88.1802 158.583 88.2374 158.533 87.9301C158.528 87.8306 158.562 87.7331 158.627 87.6571C158.692 87.5812 158.784 87.5323 158.884 87.5204C159.73 87.4037 160.408 86.6677 161.338 86.8726L160.884 87.2084C164.161 86.6915 167.219 85.6554 170.205 84.3859C170.572 84.3859 170.993 84.5098 171.142 83.9953C171.159 83.9452 171.193 83.9333 171.241 83.9548C171.637 83.9 172.135 84.1048 172.332 83.5356L172.628 83.4522C172.969 83.5145 173.285 83.6696 173.541 83.9L173.301 83.9857L173.09 84.1167L166.118 86.9369C171.008 85.7698 175.813 84.2239 180.802 83.4451C180.907 83.4748 181.019 83.4761 181.125 83.4489C181.231 83.4217 181.328 83.3669 181.405 83.2902L181.809 83.245C182.107 83.2759 182.437 83.164 182.682 83.4308L182.639 83.476H182.578C182.47 83.4495 182.357 83.4524 182.251 83.4842C182.144 83.5161 182.048 83.5758 181.973 83.657L181.905 83.6951L181.831 83.6785L181.239 83.8476C175.679 85.0576 170.181 86.4986 164.827 88.4232C163.68 88.8352 162.439 89.0972 161.747 90.2596V89.6641ZM162.588 87.9396C162.516 87.8872 162.42 87.7681 162.348 87.7824C162.213 87.8341 162.087 87.9055 161.973 87.9944C162.048 88.0587 162.115 88.1635 162.199 88.1754C162.24 88.1875 162.283 88.191 162.326 88.1855C162.368 88.1801 162.409 88.166 162.446 88.144C162.482 88.122 162.514 88.0927 162.539 88.0579C162.563 88.0232 162.58 87.9837 162.588 87.942V87.9396ZM71.9422 53.8003C71.483 53.0095 71.5191 51.8948 70.43 51.5137C70.3892 51.7781 70.5262 52.1378 70.2594 52.2783C69.9492 52.4426 69.7473 52.0925 69.6006 51.902C69.1631 51.3327 68.3986 51.1183 68.062 50.4585C67.8216 49.9822 67.437 50.3299 67.1172 50.318C67.0138 50.7229 67.336 50.9445 67.4898 51.2541C68.0524 52.3902 69.1463 53.1405 69.6535 54.3243C70.2089 55.632 70.9036 56.8396 72.298 57.4946C72.6178 57.6423 72.8389 58.0662 73.0192 58.4045C73.5409 59.3572 73.5241 59.3572 74.6733 59.3167C74.7262 59.0047 74.3872 58.8165 74.3824 58.5688C74.368 57.9757 73.5313 57.3445 73.9905 56.9753C74.5338 56.5371 75.457 56.6109 76.1253 57.0301C76.6711 57.3707 77.0052 57.2088 77.3586 56.8158C77.1735 56.1655 76.7576 55.6463 76.3826 55.1032C76.058 56.2346 74.9233 55.5653 74.291 56.0274C73.6034 56.5276 73.1972 56.2655 73 55.5105C72.6538 54.9436 72.2788 54.3863 71.9422 53.8027V53.8003ZM135.564 210.251C136.545 211.387 137.43 212.602 138.209 213.883C140.81 217.913 143.406 221.947 145.998 225.983L146.284 225.733C142.838 219.582 139.017 213.644 134.843 207.952C135.112 208.572 133.771 208.96 134.602 209.658C135.102 209.558 135.309 209.984 135.564 210.251ZM169.462 159.165C166.925 158.829 164.394 159.165 161.86 159.193C161.984 159.28 162.122 159.345 162.269 159.384C164.889 159.581 167.478 159.934 169.962 160.83L170.176 160.92C170.18 160.939 170.188 160.956 170.199 160.971C170.21 160.986 170.225 160.999 170.241 161.008C170.258 161.017 170.276 161.023 170.295 161.025C170.314 161.026 170.333 161.024 170.351 161.018C170.685 161.13 170.979 161.385 171.368 161.306L172.779 161.406C172.843 161.309 172.93 161.229 173.031 161.173C173.133 161.116 173.247 161.085 173.364 161.082C173.693 161.044 174.13 161.156 174.205 160.668C174.28 160.179 173.965 159.894 173.544 159.691C173.373 159.608 173.215 159.503 173.049 159.405C171.837 159.579 170.664 159.148 169.462 159.165ZM44.2711 48.4078C43.2181 48.4792 42.7758 47.5384 42.0642 47.0572C41.8382 46.9048 42.1555 46.7881 42.3406 46.7595C41.5786 45.459 39.9005 45.4352 38.9749 44.3776C38.6119 44.2252 38.3523 44.0227 38.5782 43.5797L38.559 43.5464C37.4315 43.7131 36.9338 42.9938 36.5372 42.1339C35.525 41.5623 34.787 40.4476 33.4118 40.5857C33.3902 41.0907 33.859 41.1978 34.1331 41.4622C34.549 41.8576 35.2005 42.0267 35.3351 42.6937L35.3616 42.7175C35.5419 42.6794 35.6356 42.7294 35.5779 42.9295L35.602 42.9533C35.7991 42.9009 35.8905 42.9533 35.8183 43.1676L35.8424 43.1867C36.179 42.9985 36.3232 43.3487 36.578 43.4249C37.2392 44.6158 38.5302 45.1255 39.463 46.0211C39.8933 46.0068 40.1842 46.2379 40.5063 46.4975C41.4175 47.243 42.3839 47.9266 43.2903 48.6769C43.7855 49.0914 44.1822 49.0175 44.6077 48.6293L44.2711 48.4078ZM9.13056 158.688C9.01998 159.165 8.78918 159.279 8.40934 158.926C7.39721 159.234 6.37785 159.52 5.37775 159.858C4.95944 160.001 4.60123 160.291 4.59642 160.789C4.59642 161.349 5.12774 161.265 5.45229 161.416C6.10861 161.527 6.68557 161.258 7.28899 161.068C9.47191 160.384 11.5587 159.327 13.9291 159.367C12.8617 158.919 11.7438 159.277 10.6547 159.165C10.246 159.124 9.7388 159.3 9.60898 158.674L9.13056 158.688ZM209.129 7.48964L209.103 7.50632C209.165 7.21335 209.283 7.02994 209.608 7.26813C209.512 6.84654 209.754 6.76079 210.088 6.77508L210.064 6.79175C210.132 6.51069 210.185 6.20581 210.564 6.55357C210.413 6.07719 210.709 6.04623 211.045 6.0629L211.026 6.08196C210.973 5.85568 211.084 5.79375 211.286 5.82472L211.262 5.84138C211.94 4.82433 212.993 4.22648 213.93 3.50001C215.096 2.62209 216.115 1.56747 216.95 0.375L210.877 4.67665C210.971 4.72429 211.293 4.59329 211.132 4.81957C210.971 5.04585 210.718 5.41741 210.286 5.3531L210.312 5.32928C210.358 5.54603 210.201 5.56747 210.05 5.59844L210.079 5.57224C209.913 5.86521 209.742 6.14865 209.324 6.04861L209.346 6.03194C209.286 6.46782 208.795 6.53928 208.624 6.87274L208.66 7.50869L209.129 7.48964ZM213.38 67.2745H214.171C215.5 66.6862 216.974 66.7648 218.361 66.3432C221.005 65.5382 223.739 65.0094 226.436 64.3639C226.434 64.2962 226.443 64.2287 226.463 64.1638C225.157 64.402 223.792 64.4735 222.561 64.9165C221.371 65.3452 220.058 65.1189 218.955 65.7644C216.791 65.905 214.755 66.853 212.557 66.8125C212.572 66.8705 212.594 66.9264 212.622 66.9792C212.639 67.0078 212.692 67.0125 212.728 67.0292C212.923 67.1602 213.305 66.7982 213.38 67.2745ZM173.789 110.596L170.621 110.834C170.57 110.84 170.519 110.84 170.469 110.834C170.183 111.132 169.813 111.072 169.459 111.072C168.781 111.382 168.043 111.545 167.296 111.549C167.103 112.113 166.183 111.811 166.113 112.523C169.411 111.506 172.844 111.301 176.239 110.856L177.842 110.56C177.753 109.712 177.076 110.27 176.703 110.084C175.861 111.065 174.751 110.386 173.789 110.596ZM174.049 87.6324C173.652 87.3346 173.219 87.6324 172.847 87.4823C170.596 88.104 168.224 88.2636 166.055 89.2092L166.079 89.3187L166.865 89.4116C168.616 89.1353 170.431 89.1973 172.087 88.4374C172.635 87.9682 173.431 88.0921 174.044 87.6324H174.049ZM45.4371 38.2157L41.1579 32.9208L40.8429 33.159C42.0911 35.2399 43.4614 37.2465 44.9467 39.1685C44.9779 38.7731 44.8169 38.292 45.4371 38.2157ZM22.7714 215.005C21.7112 214.667 20.8793 215.179 20.0186 215.482C19.6676 215.601 19.372 215.932 18.9921 215.572C18.6868 215.927 18.5281 216.341 17.8983 216.43C17.4175 216.499 16.7443 216.703 16.5808 217.382C18.8166 217.066 20.8096 216.153 22.7714 214.996V215.005ZM30.1784 14.0445C29.986 13.7825 29.6975 13.6372 29.5893 14.1541C30.4139 14.983 31.1592 15.8881 32.1329 16.5765C32.7916 17.0386 33.7965 16.9647 34.1163 18.027C34.2148 18.3581 34.5442 17.8674 34.6187 17.5769C33.359 16.1192 31.3371 15.6142 30.1784 14.035V14.0445ZM213.286 132.481C210.307 130.861 207.276 129.322 204.061 128.229C204.112 128.486 204.275 128.601 204.521 128.705C206.67 129.658 208.805 130.642 210.949 131.602C212.014 132.078 212.93 132.9 214.171 132.976C213.988 132.623 213.572 132.626 213.286 132.471V132.481ZM231.968 104.148C231.955 104.122 231.948 104.093 231.948 104.064C231.948 104.034 231.955 104.005 231.968 103.979C229.247 103.705 226.525 103.427 223.78 103.534L223.575 103.853C226.391 103.808 229.172 104.294 231.968 104.148ZM63.6313 65.1309L63.8717 65.5072L64.4895 66.5671L65.0737 66.5886C64.3766 64.5878 62.9605 63.1849 61.2272 62.032C61.8873 63.1654 62.6957 64.2073 63.6313 65.1309ZM234.132 61.5057L234.372 61.3246C234.542 61.2751 234.699 61.1875 234.829 61.0685C234.96 60.9496 235.061 60.8025 235.125 60.6387L235.336 60.3814C235.629 60.1258 235.894 59.8408 236.127 59.5311C236.495 58.9213 236.293 58.4855 235.601 58.2282C235.654 58.3735 235.704 58.5212 235.757 58.6665C235.916 59.3096 235.468 59.6573 235.11 60.0813C234.442 60.8721 233.408 61.3508 233.062 62.4179C233.598 62.3274 233.735 61.7772 234.132 61.5057ZM32.217 21.5427L32.2002 21.526C32.0175 21.5562 31.943 21.4823 31.9766 21.3045L31.9598 21.2854C31.7771 21.3188 31.7194 21.2402 31.7362 21.0639L31.7194 21.0496H31.479L31.4357 21.1163C31.8276 21.9095 32.532 22.4359 33.1763 22.9885C33.4431 23.2266 33.2051 22.7503 33.3686 22.7003C33.3463 22.4801 33.255 22.2724 33.1076 22.1063C32.9601 21.9401 32.7639 21.8238 32.5464 21.7737C32.3613 21.7999 32.2146 21.7809 32.217 21.5427ZM228.602 63.3992C228.064 63.9471 227.251 63.7851 226.643 64.1448H228.004L229.802 63.3992C229.523 63.111 229.16 63.2158 228.826 63.1992L228.602 63.3992ZM232.99 62.4179C232.555 62.1559 232.134 62.5918 231.701 62.4417C231.067 62.5632 230.432 62.6799 230.033 63.2706C230.99 62.9086 232.069 62.9443 232.983 62.4179H232.99ZM35.3736 18.2462C34.8471 19.5895 35.7727 19.1989 36.441 19.1251L35.3736 18.2462ZM163.04 85.8531C162.235 85.7912 161.468 85.7936 161.372 86.8702C161.985 86.6327 162.55 86.2882 163.04 85.8531ZM29.6134 19.4276L30.1591 19.9683C30.1965 19.9287 30.2375 19.8928 30.2817 19.8611C30.2457 19.7039 30.1182 19.5467 30.2817 19.3847V19.3585C30.111 19.53 29.9211 19.4014 29.7408 19.3895C29.6966 19.392 29.6538 19.4051 29.6158 19.4276H29.6134ZM47.334 55.3652C47.3376 55.4904 47.3894 55.6095 47.4788 55.6981C47.5682 55.7866 47.6884 55.838 47.8148 55.8416C47.8532 55.8058 47.8917 55.7677 47.9278 55.7296L47.4469 55.2675C47.4053 55.2929 47.3676 55.3255 47.334 55.3652ZM47.334 55.3652C47.3676 55.3303 47.4013 55.2969 47.4349 55.2652C47.2955 55.0627 47.1681 54.8436 46.8676 54.865C46.8676 55.027 46.8676 55.1889 46.8676 55.3414L47.334 55.3652ZM30.7649 20.3517V20.1135V20.1016L30.2841 19.8635C30.2399 19.8952 30.1988 19.9311 30.1615 19.9706L30.6423 20.4351C30.6832 20.3994 30.7217 20.366 30.7649 20.3351V20.3517ZM31.2458 20.8281C31.2458 20.7495 31.2458 20.6709 31.2458 20.5899V20.5756C31.0847 20.5756 31.0054 20.5113 31.0198 20.3517L31.0054 20.3374H30.7649C30.7217 20.3684 30.6832 20.4018 30.6423 20.4351C30.6892 20.5421 30.7581 20.6383 30.8446 20.7175C30.9311 20.7966 31.0334 20.857 31.1448 20.8948L31.2458 20.8281ZM61.2585 62.0725C61.2585 61.8344 61.2152 61.6414 60.9123 61.6533L61.2585 62.0725ZM146.27 225.747L145.983 225.998L146.193 226.343L146.452 226.064C146.382 225.945 146.33 225.838 146.267 225.733L146.27 225.747ZM31.4838 21.052V20.8138L31.4694 20.7995L31.2289 20.8114L31.1328 20.89C31.1881 21.0163 31.253 21.1282 31.4261 21.1139L31.4838 21.052ZM47.8148 50.3776L47.5503 50.1203C47.5479 50.299 47.6537 50.3633 47.8148 50.3776ZM47.5744 50.1251L47.2642 49.875C47.3339 50.0108 47.3989 50.137 47.5744 50.1251ZM221.489 103.82L221.549 103.767L221.472 103.724L221.417 103.791L221.489 103.82ZM3.95214 161.427H4.04347C4.01951 161.421 3.99736 161.409 3.97861 161.393C3.95987 161.377 3.94504 161.357 3.9353 161.335L3.95214 161.427ZM147.104 92.4962C148.998 91.6101 150.881 90.7336 152.563 89.4331C153.398 88.7876 154.275 88.1492 155.138 87.5276C156.97 86.1985 159.124 85.4172 160.908 84.0691C162.036 83.2235 163.293 82.64 164.514 81.9802C164.961 81.742 165.44 81.5967 165.622 82.3256C165.733 82.7686 166.048 82.6829 166.385 82.5947C167.019 82.428 167.642 82.1779 168.051 81.6991C168.861 80.7464 169.993 80.27 170.95 79.5555C171.818 78.8981 173.003 78.8862 173.758 78.0978C174.789 77.0211 176.131 76.409 177.484 76.0589C179.917 75.4301 182.134 74.2796 184.507 73.5269C185.379 73.2483 186.211 72.7362 187.096 72.6457C187.817 72.5694 188.663 71.5857 189.375 72.6957C189.433 72.6385 189.476 72.5599 189.543 72.5313C191.837 71.5786 194.315 71.1999 196.609 70.1709C198.352 69.3849 200.359 69.1943 202.208 68.6108C204.706 67.8224 207.403 67.4508 209.42 65.5143C209.564 65.3762 209.882 65.431 210.098 65.3476C210.925 65.0308 211.846 65.4024 212.639 65.0618C213.69 64.6068 214.608 63.8351 215.858 63.8971C215.94 63.9014 216.022 63.8874 216.098 63.8562C216.174 63.825 216.241 63.7773 216.296 63.7168C216.351 63.6562 216.391 63.5842 216.414 63.5062C216.437 63.4282 216.441 63.346 216.428 63.2659C216.382 62.8895 216.005 62.9991 215.743 62.9729C214.351 62.8324 213.077 63.3516 211.769 63.6875C210.242 64.0757 208.74 64.6902 207.201 64.8307C204.869 65.0404 202.706 65.7835 200.515 66.4456C198.815 66.9327 197.146 67.5181 195.515 68.1987C193.608 69.0205 191.462 69.0967 189.476 69.8231C186.762 70.8188 183.857 71.2666 181.187 72.4432C180.643 72.6814 180.184 73.0434 179.621 73.2673C176.905 74.3463 174.176 75.411 171.551 76.7044C168.688 78.1001 166 79.8341 163.238 81.4205C160.641 82.9091 158.011 84.3311 155.593 86.0961C155.348 86.3041 155.043 86.4307 154.722 86.4581C154.242 86.4883 153.775 86.628 153.358 86.8664C152.941 87.1048 152.585 87.4354 152.318 87.8325C151.837 88.5827 151.193 88.9329 150.57 89.3997C149.585 90.1381 148.575 90.8431 147.58 91.5672C147.438 91.678 147.322 91.8176 147.239 91.9766C147.156 92.1356 147.108 92.3103 147.099 92.489L147.104 92.4962ZM116.209 55.3223C116.209 55.4748 116.209 55.6248 116.209 55.7773C116.209 58.314 117.281 60.7982 116.598 63.373C116.537 63.565 116.545 63.7719 116.62 63.959C117.211 64.9856 116.841 66.1622 117.132 67.184C117.435 68.2487 116.928 69.3277 117.372 70.2805C118.243 72.1669 117.132 74.3034 118.211 76.147C118.286 76.2732 118.086 76.5281 118.108 76.7139C118.221 77.7595 117.327 78.6194 117.572 79.6865C118.175 78.4002 118.791 77.1212 119.373 75.8255C119.563 75.4362 119.646 75.0039 119.613 74.5726C119.159 69.473 118.779 64.3639 118.269 59.2691C118.098 57.5613 118.166 55.7987 117.483 54.1624C116.846 54.3386 117.19 55.551 116.202 55.3223H116.209ZM136.516 67.7438C136.54 67.5723 136.831 66.7434 136.064 67.3698C135.929 66.8458 135.456 66.4171 135.583 65.8216C134.764 66.1146 135.343 66.791 135.208 67.2722C134.474 69.7465 133.902 72.2655 133.497 74.8132C133.016 77.9096 131.624 80.8369 131.763 84.0334C131.849 84.0341 131.933 84.0083 132.004 83.9595C132.168 83.7898 132.323 83.6108 132.468 83.4236C134.37 78.8633 135.888 74.155 137.007 69.3468C136.684 68.8609 136.422 68.3702 136.509 67.7509L136.516 67.7438ZM117.774 89.4021L117.644 89.495L117.757 89.3854C117.716 89.2564 117.717 89.1179 117.761 88.9896C117.804 88.8614 117.887 88.7498 117.997 88.6709C118.803 86.7987 118.988 84.7837 119.382 82.8186C119.488 82.3018 119.572 81.7158 118.721 82.2494C118.778 82.379 118.784 82.5246 118.74 82.6589C118.696 82.7931 118.604 82.9067 118.481 82.9782C118.423 83.5808 118.086 84.0572 117.759 84.5383C117.108 85.8841 116.625 87.3227 115.596 88.4613C115.548 88.8995 115.069 89.1449 115.115 89.6522C115.235 90.9765 115.064 92.2246 114.17 93.3155C113.946 93.5894 113.913 94.2182 114.288 94.3159C114.572 94.3897 115.225 94.516 115.399 93.8014C115.635 92.8714 116.172 92.0434 116.928 91.4434C117.185 91.229 117.428 90.998 117.769 91.1933C118.065 91.3648 117.908 91.6696 117.935 91.9388C118.079 93.487 117.053 95.0519 118.009 96.5811C118.081 96.4426 118.134 96.2952 118.166 96.1428C118.312 93.9134 118.139 91.6673 118.445 89.4426C118.49 89.1163 118.469 88.8019 118.038 88.728C118.06 88.9829 118.045 89.2425 117.774 89.4021ZM131.167 100.161C130.927 100.161 129.965 100.142 130.715 100.933C130.787 101.009 130.588 101.338 130.513 101.55C131.823 101.476 133.134 101.352 134.444 101.34C137.639 101.307 140.834 101.34 144.029 101.319C144.43 101.319 144.916 101.502 145.281 100.904C142.178 100.232 139.05 100.826 135.836 100.444C136.648 99.7299 137.716 100.633 138.24 99.6632C135.843 99.2821 133.535 100.144 131.167 100.161ZM118.565 81.268C118.211 82.5447 117.788 82.0374 117.334 81.3442L117.06 81.5372V81.5515C117.071 81.65 117.055 81.7496 117.016 81.8406C116.976 81.9316 116.913 82.0108 116.834 82.0707C116.839 82.123 116.839 82.1756 116.834 82.2279C116.754 82.3184 116.673 82.4066 116.593 82.4971C116.593 82.6519 116.593 82.8067 116.593 82.9734C117.315 83.2783 117.161 83.8571 116.877 84.293C116.648 84.6877 116.543 85.1416 116.577 85.5959L117.495 84.1668C117.884 83.8119 117.805 83.0711 118.502 82.9758C118.449 82.8458 118.444 82.7012 118.488 82.5677C118.532 82.4343 118.622 82.3206 118.743 82.247L119.223 80.8298C118.776 80.6368 118.634 81.0155 118.565 81.268ZM115.61 88.4494C115.593 87.3847 116.348 86.5748 116.572 85.5911C116.113 85.6125 115.901 86.0508 115.56 86.2604C114.716 86.7749 114.824 88.0683 115.608 88.4565L115.61 88.4494ZM111.283 122.986C111.283 123.939 111.196 124.913 111.627 125.821C111.929 124.951 111.504 124.001 111.929 123.144L111.283 122.986ZM117.49 53.2096C117.142 52.376 117.396 51.4828 117.218 50.6324C117.089 51.5018 116.653 52.4164 117.493 53.1977L117.49 53.2096ZM175.054 110.122H176.669C176.078 109.743 175.383 109.862 174.746 109.727C174.616 110.017 174.765 110.115 175.056 110.11L175.054 110.122ZM116.507 54.0504C116.507 53.9718 116.391 53.9003 116.327 53.8265C116.264 53.9003 116.153 53.9718 116.149 54.048C116.144 54.1242 116.24 54.21 116.327 54.3386C116.415 54.1981 116.514 54.1147 116.509 54.0385L116.507 54.0504ZM147.104 92.4938C146.892 92.5366 146.604 92.4128 146.529 92.732C146.529 92.7748 146.606 92.8749 146.659 92.8868C146.986 92.9582 147.053 92.7248 147.104 92.4866V92.4938ZM101.69 145.714C102.017 145.893 101.852 146.465 102.34 146.515C102.356 146.607 102.376 146.698 102.392 146.791C101.979 147.165 102.099 147.629 102.099 148.108C102.099 150.428 102.27 152.734 101.335 155.001C100.839 156.192 100.914 157.655 100.827 158.967C100.652 161.587 100.017 164.105 99.647 166.672C99.2503 169.419 98.7935 172.191 98.0362 174.887C97.7021 176.078 97.4905 177.314 97.1876 178.684C96.7572 178.234 96.863 177.843 96.9472 177.493C97.5338 174.675 98.291 171.879 98.6805 169.035C98.9954 166.732 99.433 164.45 99.8249 162.168C100.195 159.996 100.45 157.807 100.832 155.637C100.889 155.324 100.927 155.007 100.945 154.689C100.964 154.306 100.89 153.975 100.392 153.944C100.302 153.931 100.21 153.937 100.122 153.96C100.034 153.983 99.9508 154.023 99.8784 154.078C99.8059 154.133 99.7452 154.201 99.6997 154.28C99.6542 154.358 99.6248 154.445 99.6133 154.534C99.4386 155.344 99.3301 156.167 99.2887 156.995C99.2599 160.151 98.5002 163.159 97.5674 166.146C97.1467 167.496 96.9448 168.911 96.4014 170.231C96.2524 170.6 96.161 171.003 95.6802 171.103C95.6081 170.605 95.8509 170.178 96.0023 169.733C96.0817 169.495 96.4832 169.29 96.1274 169.018C95.887 168.833 95.5841 168.954 95.3364 169.095C94.1921 169.74 93.9348 170.964 93.5262 172.034C93.0332 173.392 92.4294 174.708 91.7207 175.969C91.2663 176.743 90.6485 177.398 90.5018 178.351C90.4585 178.627 90.4345 179.051 90.021 179.096C89.6075 179.141 89.6796 178.62 89.4031 178.46C89.4031 178.308 89.4031 178.153 89.4031 177.998C90.7638 177.25 90.5186 175.833 90.8215 174.644C90.8696 173.411 91.6606 172.444 92.0428 171.326C92.6847 169.454 93.4853 167.632 93.4853 165.61C95.2306 162.154 96.2067 158.522 95.8293 154.396C96.5048 154.839 96.3269 155.261 96.3606 155.604C96.3942 155.947 96.2957 156.354 96.601 156.609C96.8727 156.83 97.2308 157.154 97.5073 157.116C97.9881 157.054 97.7862 156.54 97.7862 156.218C97.7862 153.882 98.1949 151.552 97.815 149.206C97.5746 147.732 97.1611 146.276 97.315 144.747C97.4424 143.485 98.0675 142.32 97.815 140.951C98.4617 141.136 98.4714 141.517 98.5363 141.851C98.9257 144.059 99.6061 146.276 99.5724 148.48C99.5532 149.718 99.2912 151.04 99.2743 152.338C99.2743 152.705 99.0988 153.186 99.5869 153.389C100.003 153.56 100.265 153.203 100.486 152.946C100.986 152.376 101.275 152.66 101.674 153.146L101.69 145.714ZM96.2788 168.266L96.3101 168.185C96.286 168.185 96.2476 168.154 96.2404 168.163C96.2235 168.186 96.212 168.212 96.2067 168.24L96.2788 168.266ZM81.9529 78.093C78.0294 71.7413 74.0979 65.3897 70.1584 59.038C69.4684 57.9281 68.9563 56.6562 67.5884 55.8559C67.4922 57.3207 68.6342 58.2377 68.8794 59.5668C67.6774 58.8284 67.3095 57.5518 66.2349 56.7086C66.0354 57.7161 66.7734 58.071 67.0812 58.6141C67.9803 60.1861 68.9563 61.7105 69.9036 63.2539C69.9925 62.93 69.9036 62.2559 70.5142 62.9253C70.9349 63.4016 71.3244 63.8971 71.7162 64.3806C72.5384 65.3857 73.8607 65.9502 74.3607 67.2079C74.8608 68.4655 76.1878 69.3372 76.1734 70.8473C77.2913 71.7286 77.6159 73.1292 78.4165 74.232C78.9261 74.9465 79.7147 75.5587 79.77 76.5519C80.1017 76.8878 81.0297 77.0855 80.0488 77.7429C80.4551 78.8528 81.5514 79.322 82.3087 80.1033C82.5683 80.3724 82.6885 79.9818 82.8712 79.8865C82.5779 79.2815 82.3039 78.6646 81.9529 78.093ZM101.666 135.191C102.109 137.973 102.563 140.75 103.013 143.528C103.207 143.092 102.888 142.52 103.366 142.099L103.847 142.923C103.869 142.577 103.979 142.263 103.919 141.887C103.371 138.388 102.448 134.979 101.647 131.528C101.549 131.104 101.351 131.123 101.075 131.366C101.279 132.645 101.464 133.919 101.666 135.191ZM68.8962 63.6636C67.7278 61.9368 65.9945 60.7006 64.855 58.9594C64.5929 58.5617 64.3742 58.1234 63.7803 58.1687L63.677 58.5664C64.0111 59.9098 65.1603 60.7458 65.8094 61.9011C66.3695 62.9014 67.0234 63.9233 67.9995 64.6402C68.0812 64.3591 67.913 63.7589 68.5717 64.2258C68.99 64.5235 69.4492 64.7641 69.8771 65.0499C70.4565 65.4405 70.8387 65.0237 70.7113 64.6283C70.5839 64.2329 70.6032 63.5422 69.9156 63.4374C69.7401 64.2948 69.2785 64.2257 68.8986 63.6636H68.8962ZM63.9582 53.6598C63.8924 53.5859 63.805 53.534 63.7081 53.5114C63.6112 53.4888 63.5096 53.4965 63.4173 53.5335C63.3716 53.5681 63.3339 53.6119 63.3065 53.662C63.2792 53.7121 63.2628 53.7673 63.2586 53.8241C63.1985 54.3553 64.4342 55.7296 65.0353 55.8249C64.8838 55.127 64.278 53.9361 63.9606 53.6574L63.9582 53.6598ZM150.229 201.557C150.518 202.453 151.191 202.941 152.008 203.294C151.611 202.51 151.102 201.843 150.224 201.562L150.229 201.557ZM102.58 145.412C102.52 145.707 102.457 146 102.395 146.295C102.765 146.317 102.876 145.955 103.116 145.802C103.139 145.721 103.137 145.635 103.11 145.555C103.083 145.475 103.032 145.406 102.965 145.355L102.58 145.412ZM152.633 203.939C152.736 204.134 152.828 204.346 153.114 204.325C153.138 204.325 153.181 204.261 153.174 204.239C153.09 203.98 152.864 203.956 152.638 203.941L152.633 203.939ZM152.633 203.939C152.58 203.856 152.732 203.627 152.46 203.701L152.636 203.939H152.633ZM102.388 146.788L102.462 146.827L102.392 146.784L102.388 146.788ZM149.989 201.317L149.904 201.276L149.981 201.324L149.989 201.317ZM87.3741 202.984L87.2082 202.939L87.3669 202.989L87.3741 202.984ZM53.8562 175.831C55.4021 175.216 56.556 174.087 57.7028 172.949C58.2389 172.417 58.8207 171.934 59.3496 171.398C60.1646 170.571 61.571 170.186 61.4051 168.606C61.3811 168.368 61.8018 167.994 62.0975 167.844C63.1769 167.296 63.4462 166.101 64.2347 165.319C64.5857 164.974 64.314 164.645 63.8212 164.674C63.5405 164.688 63.2657 164.759 63.0134 164.881C60.905 165.97 58.4144 166.124 56.4382 167.53C55.931 167.892 55.3516 167.685 54.8059 167.735C56.996 166.758 58.9698 165.291 61.4051 164.862C62.2033 164.722 62.8884 164.317 63.6144 163.99C68.2135 161.916 72.8269 159.877 77.5582 158.09C78.3563 157.79 79.0728 157.302 79.8805 156.98C78.7626 156.94 77.7842 157.383 76.7672 157.714C73.9424 158.636 71.1272 159.586 68.4058 160.777C64.5184 162.475 60.6622 164.236 56.7844 165.955C53.26 167.52 49.7212 169.052 46.2064 170.619C40.064 173.353 33.9456 176.109 27.7887 178.839C26.666 179.339 25.5072 179.765 24.3629 180.223C24.1345 180.313 23.8821 180.699 23.6705 180.325C23.4926 179.996 23.8868 179.868 24.1248 179.756C25.8558 178.937 27.5844 178.112 29.3273 177.322C35.0971 174.697 40.8774 172.077 46.668 169.461C52.3272 166.889 57.9408 164.221 63.6433 161.737C68.7736 159.508 74.0722 157.688 79.354 155.851C81.9985 154.925 84.6286 153.92 87.2611 152.943C87.7419 152.767 88.1818 151.212 87.927 150.657C87.6025 149.942 86.85 149.344 87.6458 148.437C87.8862 148.151 87.4847 148.063 87.1649 148.091C86.5303 148.151 85.8884 148.16 85.2417 148.179C84.8762 148.191 84.4964 148.208 84.3882 147.732C84.268 147.196 83.8377 147.239 83.4386 147.236C82.9866 147.236 82.7462 146.998 82.3904 146.703C81.4023 145.869 80.1257 146.162 79.0247 146.512C77.1519 147.11 75.3584 147.991 73.3029 147.686C74.1907 147.008 75.2321 146.554 76.3369 146.364C79.2507 145.95 82.2053 145.814 85.1431 145.586C85.4436 145.562 85.7778 145.481 86.0638 145.705C86.0638 146.367 85.3186 146.136 85.0661 146.51C85.2042 146.662 85.3926 146.761 85.5976 146.788C85.8025 146.815 86.0105 146.769 86.1841 146.657C87.1938 146.083 88.4223 146.495 89.42 145.883C89.6099 145.767 90.1917 145.836 89.9921 146.148C89.4728 146.96 90.2542 147.374 90.4201 147.944C90.7879 149.211 91.0427 150.385 90.2109 151.597C89.3791 152.81 89.4897 153.162 90.747 154.029C91.199 154.339 91.1004 154.794 91.0908 155.22C91.074 155.968 90.3527 156.116 89.908 156.209C87.8982 156.628 87.0952 158.152 86.2441 159.732C85.7225 160.684 85.1455 161.744 84.3041 162.383C83.8954 162.692 82.8616 163.466 82.0634 162.53C81.7197 162.132 81.3422 162.261 81.0393 162.611C80.6955 163.016 80.9768 163.128 81.3422 163.238C81.7846 163.369 81.6355 163.645 81.4167 163.857C80.8927 164.369 80.5537 165.122 79.6473 165.157C79.3901 165.157 78.9261 165.358 78.9261 165.493C78.8011 166.98 77.2793 167.384 76.5725 168.442C75.9739 169.34 74.8464 170.109 73.6876 170.55C73.1827 170.741 72.548 170.852 72.6899 171.481C72.8317 172.11 73.3727 171.996 73.8439 171.693C74.0049 171.588 74.1564 171.693 74.2117 171.86C74.2551 171.951 74.2628 172.055 74.2336 172.152C74.2043 172.249 74.14 172.331 74.053 172.384C73.2717 172.748 72.851 173.52 71.9278 173.842C70.7258 174.251 69.7353 175.24 68.6919 176.031C65.9031 178.151 62.9221 179.98 59.9722 181.859C57.6283 183.35 55.354 184.956 53.0413 186.492C52.139 187.108 51.197 187.665 50.2213 188.159C50.3775 187.354 51.2622 187.206 51.6637 186.492C51.0699 186.351 50.7838 186.751 50.4617 186.968C48.2571 188.397 46.0718 189.862 43.8769 191.313C43.6533 191.46 43.396 191.761 43.1556 191.551C42.872 191.291 43.0955 190.96 43.2975 190.705C43.4682 190.491 43.6269 190.208 43.8576 190.105C44.9251 189.629 45.3818 188.676 45.9035 187.745C46.5002 187.669 47.0712 187.458 47.5717 187.127C48.0722 186.797 48.4886 186.356 48.7884 185.839C48.8846 185.845 48.9809 185.83 49.0709 185.796C49.1609 185.762 49.2427 185.71 49.3108 185.642C49.379 185.575 49.4319 185.494 49.4661 185.404C49.5004 185.315 49.5153 185.22 49.5097 185.125C51.2286 184.574 52.3945 183.202 53.7505 182.159C54.6664 181.459 55.7771 181.033 56.556 180.156C56.758 179.93 57.121 179.68 56.8085 179.368C56.532 179.101 56.3565 179.53 56.1305 179.644C55.015 180.206 53.8466 180.663 52.8321 181.426C52.4402 181.721 52.0003 181.383 51.4618 181.142L54.2697 178.827C53.6086 178.632 52.9691 178.794 52.6398 178.232C52.497 178.169 52.3755 178.067 52.2902 177.938C52.2048 177.808 52.1592 177.657 52.1589 177.503C52.5099 176.74 53.4524 176.564 53.8514 175.842L53.8562 175.831ZM57.4432 178.927L57.6836 178.689L57.924 178.451L58.1644 178.212L58.2149 178.139L58.1716 178.22L57.9312 178.458L57.6908 178.696L57.4504 178.934L57.3999 179.013L57.4432 178.927ZM62.6071 174.623C61.1647 174.775 60.4747 175.978 59.4602 176.714C59.4342 176.744 59.4155 176.78 59.4057 176.818C59.3958 176.857 59.3951 176.897 59.4034 176.936C59.4118 176.974 59.4291 177.011 59.4539 177.042C59.4788 177.073 59.5106 177.098 59.5467 177.114C59.6223 177.125 59.6992 177.118 59.7719 177.096C59.8446 177.073 59.9114 177.035 59.9675 176.983C60.8498 176.214 61.7224 175.411 62.6023 174.63L62.6071 174.623ZM82.2534 86.208C82.4385 86.5915 82.6573 87.0369 81.9961 87.237C82.6861 88.7137 83.3833 90.1857 84.0564 91.6696C84.1766 91.9316 84.5901 92.3151 83.9098 92.458L83.8761 92.5224C84.5805 94.1897 86.6312 94.7899 86.9269 96.8097C87.3236 96.3857 87.237 96.0952 87.2683 95.8236C86.1432 93.3084 85.0325 90.7836 83.8809 88.2779C83.3328 87.0869 83.0539 85.7436 81.9408 84.867C81.9402 85.3336 82.0454 85.7943 82.2486 86.2152L82.2534 86.208ZM36.8641 199.797C35.7796 200.26 34.756 200.852 33.8158 201.56C33.3518 201.898 32.3252 201.995 32.443 202.977C35.2799 201.913 37.9571 200.47 40.4006 198.689C39.0663 198.623 38.0229 199.33 36.8593 199.804L36.8641 199.797ZM59.7366 149.268C58.8616 149.744 57.835 149.697 56.9479 150.128C55.5944 150.785 54.063 151.059 52.861 152.062C53.1831 152.56 53.5822 152.538 54.0942 152.324C55.705 151.609 57.2941 150.871 59.0467 150.483C59.6958 150.337 60.5709 150.347 61.0493 149.644C60.5565 149.687 60.2439 148.994 59.7318 149.275L59.7366 149.268ZM70.3002 147.601C68.841 147.405 67.3119 147.691 65.8166 147.808C65.6603 147.808 65.5209 148.046 65.3743 148.172C67.437 148.172 69.4997 148.172 71.5624 148.196C72.0696 148.196 72.5 148.113 72.8245 147.703C72.0119 147.234 71.1561 147.725 70.2954 147.61L70.3002 147.601ZM83.2006 133.155C84.066 132.785 84.4868 133.186 84.8834 133.919C85.1431 134.396 85.1431 135.084 85.7874 135.334C85.4195 132.952 85.0421 132.647 82.7414 132.809C81.8117 132.892 80.8987 133.106 80.0296 133.443C81.085 133.431 82.1716 133.6 83.1958 133.164L83.2006 133.155ZM45.0789 192.084L49.9448 188.576C48.6682 188.671 45.4107 191.091 45.0789 192.084ZM80.0296 133.433C79.1995 133.402 78.3743 133.572 77.6255 133.929C78.4092 133.688 79.4069 134.458 80.0296 133.433ZM77.6255 133.924C77.0233 133.909 76.4307 134.075 75.9258 134.4C76.5004 134.255 77.2625 134.786 77.6255 133.924ZM96.2933 132.423C96.238 132.45 96.173 132.573 96.1923 132.614C96.2493 132.704 96.3208 132.785 96.4038 132.852L96.5577 132.628C96.5168 132.431 96.4255 132.364 96.2981 132.423H96.2933ZM74.8127 83.1044C74.8127 83.183 74.9377 83.2426 75.005 83.3117C75.0603 83.2307 75.1589 83.1521 75.1613 83.0735C75.1637 82.9949 75.0603 82.921 74.9666 82.7948C74.8896 82.9377 74.8007 83.0282 74.8127 83.1044ZM81.8278 97.2051C81.8278 97.1932 81.7581 97.1408 81.7461 97.1479C81.6933 97.1845 81.6434 97.2251 81.5971 97.2694L81.7533 97.3885C81.7827 97.3293 81.8076 97.268 81.8278 97.2051ZM144.065 67.8176C144.676 67.477 145.027 66.9006 145.406 66.3528L144.897 66.3337C144.596 66.8101 144.06 67.1078 143.935 67.6985L144.065 67.8176ZM31.0727 178.227C29.3321 178.941 27.5242 179.53 25.9375 180.58C26.9628 180.705 28.0025 180.527 28.9258 180.068C30.4452 179.306 31.8444 178.31 33.4648 177.75C33.5812 177.721 33.6834 177.652 33.753 177.555C33.8226 177.458 33.8551 177.34 33.8446 177.222C32.794 177.195 31.979 177.858 31.0751 178.227H31.0727ZM21.3698 182.488C22.7377 182.609 23.8436 181.861 25.0095 181.354C25.3413 181.209 25.9207 181.173 25.9303 180.58C24.3277 181.002 22.7926 181.644 21.3698 182.488ZM55.8204 137.104C54.5943 137.013 53.3826 136.58 52.1445 136.866C51.7142 136.961 51.0915 136.958 51.017 137.58C50.9425 138.202 51.582 138.276 51.9354 138.552C52.2359 138.79 52.6254 138.688 52.9812 138.719C53.2216 138.74 53.6303 138.785 53.6375 138.857C53.7961 140.21 54.539 139.452 55.1232 139.283C55.5055 139.174 55.8901 139.071 56.282 138.993C56.5224 138.945 56.7965 138.938 56.8638 139.231C56.9311 139.524 56.669 139.607 56.4238 139.645C55.6858 139.762 54.9669 139.91 54.5751 140.653L62.2994 137.761C60.1357 137.54 57.9793 137.259 55.8156 137.104H55.8204ZM66.2181 135.001C64.4198 134.315 62.6119 133.672 60.7945 133.017C60.631 133.672 61.4027 133.598 61.7321 134.05C60.7945 134.288 60.0492 133.76 59.263 133.922C58.9024 133.995 58.3567 133.738 58.2509 134.274C58.1452 134.81 58.6909 134.843 59.0491 134.989C60.7536 135.629 62.5374 136.058 64.1866 136.844L67.0571 135.653C66.7734 135.425 66.5282 135.12 66.2133 135.001H66.2181ZM23.7907 154.634C26.4112 153.696 28.8393 152.348 31.3035 151.095L30.7674 150.84C28.4378 151.707 26.3198 153.012 24.0599 154.02C23.9638 154.225 23.8748 154.43 23.7859 154.634H23.7907ZM66.7325 109.219C66.5114 109.426 66.2998 109.176 66.1099 109.074C63.4654 107.645 60.7848 106.337 57.8567 105.437C55.5271 104.722 53.2889 103.589 51.0988 102.379C48.1802 100.759 45.1126 99.4107 42.1075 97.9459C41.1651 98.3817 41.9752 98.7938 42.1916 99.2059C41.8598 99.4202 41.4968 99.0082 41.1266 99.525C42.3623 100.268 43.6894 100.809 44.7327 101.919C45.7761 103.029 47.4397 103.77 48.9639 104.279C51.3272 105.07 53.1206 106.787 55.5223 107.659C54.7698 108.219 54.4789 108.59 55.479 108.941C56.3628 109.278 57.2265 109.666 58.0658 110.101C61.5566 111.794 64.9343 113.69 68.2928 115.624C69.7978 116.491 71.5119 117.001 72.8149 118.211C73.7151 118.354 74.5519 118.76 75.219 119.376C77.0221 121 79.1617 121.917 81.4841 122.496C82.5996 122.772 83.691 123.094 84.3425 124.163C85.1142 123.98 84.4243 123.52 84.5276 123.21C82.8904 122.203 81.3013 121.112 79.479 120.409C78.7578 120.126 78.0198 119.828 77.3154 119.487C77.01 119.342 76.4451 119.223 76.9067 118.663C75.6806 117.854 74.154 117.675 72.9495 116.796C72.0961 116.172 71.0695 115.798 70.305 115.026C69.8699 114.588 69.2424 114.533 68.7159 114.293C67.0956 113.547 65.9608 112.082 64.3886 111.258C64.3523 111.24 64.3201 111.215 64.2938 111.185C64.2674 111.154 64.2475 111.119 64.2352 111.081C64.2229 111.043 64.2184 111.003 64.222 110.963C64.2256 110.923 64.2373 110.884 64.2563 110.848C64.2764 110.803 64.3054 110.761 64.3418 110.727C64.3782 110.692 64.4212 110.666 64.4683 110.648C64.5153 110.63 64.5654 110.622 64.6158 110.624C64.6661 110.625 64.7155 110.637 64.7612 110.658C66.4296 111.239 68.0259 112.023 69.8338 112.204C70.2521 112.247 70.6705 112.656 71.0191 112.975C71.2186 113.167 71.4579 113.313 71.7203 113.404C71.9827 113.494 72.2619 113.527 72.5384 113.499C72.3485 112.897 71.7403 112.68 71.3604 112.254L71.12 112.032C70.1199 112.061 69.7665 111.177 69.1655 110.653C68.9169 110.405 68.6878 110.138 68.4803 109.855C67.9995 110.315 67.7447 110.043 67.5187 109.596C67.4401 109.382 67.3123 109.189 67.1454 109.033C66.9785 108.876 66.777 108.761 66.5571 108.695C66.6388 108.869 66.8071 109.16 66.7325 109.219ZM73.2645 113.721C73.3342 114.633 74.1059 114.674 74.7382 114.888C74.4208 114.288 74.3583 113.366 73.2645 113.721ZM169.447 226.8L169.168 226.562C168.365 226.5 168.135 226.767 168.613 227.479C169.058 228.068 169.421 228.713 169.69 229.399C170.178 229.749 170.519 230.263 170.652 230.845C170.734 230.926 170.815 231.004 170.892 231.083L171.133 231.321C171.214 231.37 171.279 231.441 171.322 231.525C171.364 231.609 171.382 231.704 171.373 231.797C171.443 231.833 171.536 231.855 171.58 231.912C173.743 234.749 176.047 237.48 177.374 240.844C177.462 240.881 177.534 240.947 177.578 241.032C177.622 241.116 177.635 241.213 177.614 241.306C178.167 241.544 178.376 242.139 178.816 242.511L178.903 242.859L178.927 242.887C179.244 242.78 179.508 242.649 179.302 242.242L179.061 241.801C178.915 241.737 178.793 241.629 178.712 241.493C178.63 241.357 178.594 241.199 178.607 241.041C178.126 240.279 177.559 239.56 177.369 238.66C177.222 238.066 176.587 237.916 176.268 237.395C175.145 235.561 174.104 233.67 172.698 232C171.375 230.428 170.197 228.739 169.455 226.8H169.447ZM167.563 224.847C166.436 223.52 165.408 222.113 164.488 220.638C164.264 220.288 163.906 219.652 163.387 220.064C162.968 220.395 163.427 220.876 163.697 221.184C164.658 222.275 165.745 223.23 166.526 224.473C166.803 224.911 167.007 225.464 167.587 225.731C167.694 225.608 167.751 225.449 167.746 225.287C167.742 225.124 167.676 224.969 167.563 224.852V224.847ZM155.982 202.991C156.703 204.153 157.424 205.321 158.386 206.326C158.314 204.708 157.381 203.687 155.982 202.996V202.991ZM159.393 209.398C159.634 209.741 160.023 209.679 160.374 209.577C160.474 209.559 160.563 209.502 160.621 209.42C160.679 209.337 160.702 209.235 160.684 209.136C160.576 208.681 160.18 208.71 159.824 208.693L158.658 208.195C158.901 208.603 159.124 209.024 159.393 209.403V209.398ZM150.205 194.905C150.25 195.168 150.36 195.416 150.525 195.627C150.69 195.839 150.904 196.007 151.15 196.117C151.217 195.419 150.933 194.997 150.205 194.909V194.905ZM155.013 201.574C155.155 202.147 155.496 202.652 155.975 203.003C156.049 202.26 155.739 201.779 155.016 201.574H155.013ZM168.476 195.128C168.548 195.464 168.57 195.843 169.106 195.991C169.058 195.514 168.964 195.202 168.474 195.131L168.476 195.128ZM153.09 208.705C153.138 208.979 153.164 209.274 153.539 209.293C153.573 209.284 153.604 209.267 153.629 209.242C153.654 209.217 153.672 209.187 153.681 209.153C153.662 208.781 153.364 208.755 153.087 208.708L153.09 208.705ZM151.27 206.545C151.188 206.488 151.107 206.385 151.03 206.39C150.953 206.395 150.893 206.511 150.823 206.581L151.063 206.8L151.27 206.545ZM159.127 181.075C158.95 180.806 158.693 180.598 158.391 180.48C158.403 180.98 158.713 181.102 159.143 181.073L159.127 181.075ZM151.628 196.82C151.627 196.973 151.672 197.123 151.757 197.25C151.843 197.378 151.966 197.477 152.109 197.534C152.152 197.163 152.128 196.848 151.645 196.817L151.628 196.82ZM154.032 200.154C154.031 200.307 154.076 200.458 154.161 200.585C154.247 200.712 154.37 200.811 154.513 200.869C154.556 200.497 154.528 200.183 154.052 200.147L154.032 200.154ZM158.36 206.347C158.361 206.5 158.407 206.648 158.493 206.775C158.578 206.902 158.699 207.002 158.84 207.062C158.884 206.697 158.865 206.361 158.376 206.338L158.36 206.347ZM152.109 197.534C152.11 197.685 152.156 197.832 152.242 197.957C152.327 198.082 152.449 198.178 152.59 198.234C152.633 197.875 152.602 197.548 152.126 197.529L152.109 197.534ZM159.321 207.776C159.327 207.928 159.375 208.075 159.46 208.201C159.545 208.327 159.663 208.427 159.802 208.491C159.845 208.122 159.819 207.788 159.329 207.767L159.321 207.776ZM153.071 198.725C153.073 198.877 153.12 199.026 153.205 199.152C153.291 199.279 153.411 199.379 153.551 199.44C153.595 199.082 153.595 198.754 153.087 198.725H153.071ZM152.59 198.234C152.59 198.358 152.638 198.477 152.726 198.566C152.813 198.655 152.931 198.707 153.056 198.711C153.064 198.65 153.058 198.588 153.039 198.53C153.021 198.471 152.989 198.417 152.947 198.372C152.906 198.327 152.854 198.291 152.797 198.267C152.74 198.243 152.678 198.232 152.616 198.234H152.59ZM152.008 207.731C152.121 207.793 152.164 207.75 152.097 207.643C152.039 207.558 151.974 207.478 151.902 207.405L151.748 207.559C151.84 207.622 151.936 207.679 152.035 207.731H152.008ZM152.599 208.226C152.601 208.163 152.59 208.1 152.567 208.042C152.543 207.983 152.508 207.93 152.463 207.885C152.418 207.84 152.364 207.805 152.305 207.782C152.246 207.759 152.182 207.748 152.119 207.75C152.118 207.815 152.132 207.88 152.158 207.94C152.184 208 152.223 208.055 152.271 208.099C152.319 208.144 152.376 208.178 152.439 208.2C152.501 208.222 152.567 208.231 152.633 208.226H152.599ZM152.599 208.226C152.597 208.289 152.609 208.352 152.632 208.411C152.655 208.47 152.691 208.523 152.736 208.568C152.781 208.612 152.835 208.647 152.894 208.671C152.953 208.694 153.017 208.705 153.08 208.703C153.08 208.576 153.03 208.455 152.939 208.366C152.849 208.277 152.727 208.226 152.599 208.226ZM154.412 210.113C154.525 210.175 154.566 210.132 154.501 210.025C154.442 209.941 154.377 209.861 154.306 209.787L154.15 209.941C154.268 210.003 154.35 210.065 154.439 210.113H154.412ZM157.057 179.16L156.468 178.577C156.455 178.658 156.463 178.74 156.489 178.817C156.515 178.895 156.559 178.965 156.618 179.022C156.677 179.079 156.749 179.121 156.828 179.145C156.907 179.169 156.99 179.175 157.071 179.16H157.057ZM151.171 196.31C151.203 196.421 151.261 196.524 151.34 196.609C151.42 196.693 151.518 196.758 151.628 196.798C151.634 196.738 151.627 196.677 151.608 196.619C151.589 196.561 151.558 196.508 151.517 196.463C151.475 196.418 151.425 196.382 151.369 196.357C151.313 196.332 151.252 196.319 151.191 196.319L151.171 196.31ZM153.576 199.645C153.607 199.756 153.665 199.858 153.743 199.944C153.822 200.029 153.921 200.095 154.03 200.135C154.036 200.074 154.03 200.013 154.011 199.955C153.992 199.897 153.961 199.843 153.92 199.797C153.879 199.752 153.829 199.715 153.773 199.689C153.717 199.664 153.656 199.65 153.595 199.649L153.576 199.645ZM154.746 201.097C154.742 201.189 154.762 201.28 154.804 201.361C154.846 201.443 154.909 201.512 154.987 201.562C155.002 201.472 154.99 201.38 154.95 201.297C154.91 201.215 154.846 201.147 154.766 201.102L154.746 201.097ZM158.396 207.936C158.47 208.024 158.545 208.11 158.622 208.195C158.576 208.119 158.499 208.043 158.425 207.945L158.396 207.936ZM181.617 161.744C181.049 161.485 180.614 161.463 179.948 161.83C180.677 162.056 181.122 162.142 181.646 161.754L181.617 161.744ZM139.348 154.882C139.874 155.171 140.461 155.335 141.062 155.358C140.716 154.503 139.954 155.03 139.377 154.892L139.348 154.882ZM141.231 155.358C141.328 155.452 141.446 155.522 141.575 155.563C141.704 155.605 141.841 155.616 141.976 155.597L142.252 155.763L142.493 155.799C142.296 155.094 141.707 155.449 141.259 155.377L141.231 155.358ZM162.699 173.423C162.853 173.677 163.016 173.661 163.18 173.442L162.699 173.423ZM165.32 185.832C165.3 186.154 165.533 186.32 165.728 186.516C167.435 188.216 169.14 189.919 170.844 191.625C170.89 190.932 171.431 190.755 171.962 190.57L168.334 186.504C168.198 186.541 168.053 186.528 167.925 186.467C167.798 186.406 167.697 186.302 167.642 186.173L165.32 185.832ZM186.026 202.417L184.874 200.862C184.562 200.645 184.17 200.485 183.944 200.197C182.742 198.687 181.239 197.482 179.936 196.074C179.136 195.769 178.677 194.924 177.737 194.631C177.922 196.298 179.287 196.863 180.254 197.689C182.042 199.216 183.841 200.716 185.302 202.574C185.543 202.75 185.694 203.051 186.043 203.051C186.064 202.855 186.05 202.646 186.05 202.436L186.026 202.417ZM171.601 192.006C171.498 191.768 171.236 191.791 171.008 191.803C171.118 191.946 171.226 192.089 171.337 192.23C171.512 192.23 171.724 192.23 171.637 192.025L171.601 192.006ZM66.5571 66.7482C66.1652 64.8808 64.7468 63.6517 63.6721 62.2083C64.076 64.1114 65.3646 65.4286 66.5931 66.7672L66.5571 66.7482ZM66.5667 67.7509C65.8935 67.5818 65.7709 66.7482 65.1242 66.56C64.9632 67.0792 65.4872 67.4127 65.4921 67.8891C65.8503 68.2535 66.2133 68.6179 66.5739 68.9823C66.5667 68.5607 66.5667 68.1511 66.5667 67.7509ZM63.0351 62.0344C63.0351 62.0344 63.1673 61.7962 63.2394 61.6867C63.2394 61.3794 63.1889 61.0936 62.797 61.0436L62.5038 61.0745C62.5735 61.4556 62.6336 61.8439 63.0351 62.0344ZM184.848 143.449C184.822 143.306 184.812 143.144 184.624 143.118C184.586 143.118 184.495 143.204 184.499 143.239C184.528 143.425 184.694 143.432 184.838 143.461L184.848 143.449ZM195.907 161.075C195.883 160.93 195.873 160.768 195.686 160.739C195.65 160.739 195.556 160.827 195.563 160.861C195.594 161.046 195.755 161.056 195.902 161.077L195.907 161.075ZM193.983 160.36L194.205 160.303L194.14 160.198L193.974 160.348L193.983 160.36ZM186.206 203.279C186.384 203.139 186.37 203.041 186.139 203.005C186.163 203.096 186.185 203.189 186.206 203.279ZM143.94 67.6985C143.793 67.7628 143.7 67.8438 143.851 67.9867C143.927 67.9363 143.998 67.8797 144.065 67.8176L143.94 67.6985ZM166.096 141.317L165.856 140.97L165.827 141.303C165.841 141.325 165.861 141.343 165.883 141.355C165.906 141.368 165.932 141.376 165.958 141.377C165.984 141.378 166.01 141.374 166.034 141.363C166.058 141.353 166.079 141.337 166.096 141.317ZM89.6051 179.525C89.5906 179.525 89.5209 179.577 89.5257 179.589C89.5509 179.65 89.5815 179.708 89.6171 179.763L89.7613 179.637C89.7144 179.595 89.6637 179.558 89.6099 179.525H89.6051ZM68.4899 65.3548C68.6166 65.9344 68.9602 66.4451 69.4516 66.7839C69.5213 66.0431 69.2112 65.5644 68.4899 65.3548ZM68.0332 64.8641C68.0254 64.927 68.0316 64.9908 68.0513 65.0511C68.071 65.1114 68.1037 65.1668 68.1472 65.2132C68.1907 65.2597 68.2439 65.2963 68.3031 65.3203C68.3623 65.3443 68.426 65.3553 68.4899 65.3524C68.4953 65.2899 68.4875 65.2271 68.4669 65.1678C68.4463 65.1086 68.4134 65.0542 68.3704 65.0082C68.3275 64.9623 68.2752 64.9257 68.2172 64.9009C68.1591 64.8761 68.0964 64.8635 68.0332 64.8641ZM69.4588 66.7696C69.4519 66.8345 69.4591 66.9002 69.48 66.9622C69.5008 67.0241 69.5348 67.0809 69.5797 67.1288C69.6246 67.1766 69.6793 67.2144 69.7401 67.2395C69.801 67.2647 69.8665 67.2766 69.9324 67.2745C69.9419 67.209 69.9362 67.1421 69.9156 67.079C69.8951 67.0159 69.8604 66.9583 69.814 66.9106C69.7677 66.8628 69.711 66.8261 69.6481 66.8034C69.5853 66.7806 69.5181 66.7723 69.4516 66.7791L69.4588 66.7696ZM174.51 237.516L174.421 237.471L174.506 237.519L174.51 237.516ZM66.6845 69.18C66.7638 69.3706 66.7927 69.5945 67.0403 69.6564C67.0508 69.5475 67.0203 69.4386 66.9546 69.3506C66.8889 69.2627 66.7927 69.2019 66.6845 69.18ZM147.243 173.835C146.986 173.775 146.883 173.963 146.892 174.185C146.911 174.635 147.248 174.778 147.613 174.837C147.842 174.875 147.984 174.737 147.996 174.411C147.914 174.078 147.601 173.906 147.243 173.823V173.835ZM165.601 185.146L165.699 185.194L165.61 185.137L165.601 185.146ZM168.726 147.751L169.108 147.944L169.178 147.803L168.738 147.734L168.726 147.751Z" fill="#FECC39"/>
</svg>
