<svg width="300" height="80" viewBox="0 0 300 80" fill="none" xmlns="http://www.w3.org/2000/svg">
<path d="M298.412 29.0075C248.906 7.00325 212.714 15.475 174.449 24.4528C152.317 29.6452 129.846 34.9084 104.147 34.1999C101.347 34.0683 98.5266 33.876 95.6667 33.6027C93.7933 33.4003 91.91 33.1776 90.0067 32.9145L87.5453 32.5298C85.1936 32.1182 82.8353 31.6661 80.4703 31.1736C75.6074 30.1108 70.8343 28.9367 66.1209 27.6513C57.2821 25.05 48.7123 22.1755 40.5212 19.058C38.7773 18.3596 37.0634 17.6511 35.3793 16.9527C33.1671 16.0216 31.0147 15.0904 28.932 14.1794C26.5305 13.0964 24.2286 12.0539 22.0463 11.0316C15.8581 8.04577 10.7661 5.46478 7.01931 3.50119C4.26901 2.02345 2.37568 0.980924 1.46888 0.464724L0.764535 0.0658573C0.527178 -0.0685564 0.228973 0.00882882 0.0823309 0.242892C-0.0787518 0.500003 0.0041205 0.842559 0.26473 0.990432C3.2463 2.68221 19.3542 11.7889 26.8693 15.3535C66.4796 35.9813 142.611 72.257 199.76 79.3623C202.976 79.7729 206.214 79.9858 209.455 80C233.082 80 239.679 66.8419 246.076 54.0989C253.939 38.4105 261.372 23.5925 297.844 30.131L299.499 30.4421C299.696 30.4791 299.891 30.3697 299.968 30.1797C300.056 29.9612 299.958 29.7106 299.747 29.6148L298.412 29.0075ZM174.678 25.4346C194.917 20.6876 214.538 16.0823 235.912 16.0823C245.144 16.0716 254.354 16.9699 263.415 18.7645C239.619 15.0094 219.689 18.7746 197.767 22.9346L180.059 26.2545C165.839 28.9569 151.49 31.6796 136.513 33.1979C149.656 31.295 162.212 28.3496 174.658 25.4346H174.678ZM191.618 32.0946C201.922 30.8092 210.89 28.7849 219.52 26.8314C233.54 23.6634 246.425 20.7585 262 21.72C248.378 21.4872 237.247 24.4832 225.18 27.793C215.215 30.4752 204.901 33.2586 192.067 34.5137C170.941 36.5886 148.421 37.9348 125.023 36.7607C147.444 36.9935 169.476 34.8477 191.559 32.0946H191.618ZM192.196 35.4752C205.151 34.21 215.464 31.4266 225.469 28.714C237.267 25.5358 248.149 22.5803 261.392 22.7322C249.534 23.1573 239.888 26.2848 229.505 29.6654C218.802 33.1473 207.732 36.7505 192.734 37.8437C169.6 39.6353 146.363 39.5642 123.239 37.6311C147.255 39.0178 170.443 37.6007 192.137 35.4752H192.196ZM193.94 45.5968C212.754 45.0401 224.363 39.6554 235.593 34.4631C242.658 31.1938 249.305 28.1067 257.187 26.4569C249.444 28.4205 243.167 31.8213 236.739 35.3032C225.778 41.2445 214.418 47.449 194.508 47.9754C161.903 48.9268 123.399 43.6939 87.2066 34.2809C121.715 42.4389 159.073 46.6292 193.88 45.6069L193.94 45.5968ZM260.396 26.6897C251.677 28.8051 245.14 32.955 238.473 37.2161C227.701 44.0583 216.55 51.1333 195.146 51.3863C166.367 51.6394 133.882 46.781 102.901 39.119C134.35 46.113 166.617 49.8377 194.578 49.0179C214.727 48.4308 226.176 42.2263 237.247 36.2242C244.602 32.1756 251.467 28.4306 260.336 26.6998L260.396 26.6897ZM196.77 62.4795C222.679 63.9978 232.813 53.8762 242.609 44.0887C246.335 40.3741 249.992 36.7202 254.437 33.795C249.933 37.0845 246.355 41.1939 242.708 45.3842C233.531 55.9107 224.044 66.7914 197.418 64.848C162.272 62.2974 121.037 50.4045 85.1637 37.3174C121.037 49.6657 162.013 60.4552 196.77 62.4795ZM245.12 53.6333C237.746 68.3298 230.8 82.1964 199.809 78.3502C160.837 73.5019 112.946 55.0098 73.9134 37.2262C112.597 54.19 159.97 71.6396 199.102 75.9817C229.674 79.4534 237.706 65.5464 245.458 52.0847C246.913 49.5644 248.348 47.0745 249.903 44.7061C248.179 47.5907 246.664 50.6272 245.15 53.6333H245.12ZM244.602 51.609C236.63 65.4047 229.136 78.421 199.212 75.0202C159.661 70.6274 111.67 52.8135 72.7874 35.6675C111.78 52.0543 159.482 68.7448 198.524 72.6517C227.97 75.587 236.56 62.6213 244.861 50.0806C246.954 46.7763 249.237 43.5995 251.696 40.5664C249.07 44.0528 246.699 47.73 244.602 51.5685V51.609ZM244.033 49.5138C235.902 61.8115 227.492 74.5343 198.624 71.6396C160.329 67.8136 113.584 51.6191 75.0594 35.5157C113.185 50.7689 159.382 65.8804 197.976 69.2711C226.286 71.7206 235.414 59.7062 244.243 48.0766C246.891 44.3795 249.831 40.9065 253.032 37.6918C249.678 41.3184 246.675 45.2637 244.063 49.4733L244.033 49.5138ZM243.416 47.4895C234.746 58.8965 225.778 70.7084 198.026 68.2995C163.298 65.263 122.402 52.692 86.8079 39.0785C122.283 51.8924 162.75 63.3703 197.348 65.931C199.501 66.0828 201.523 66.1638 203.467 66.1638C225.997 66.1638 234.866 55.9916 243.465 46.1231C246.923 42.1555 250.311 38.2586 254.527 35.0906C250.122 38.623 246.764 43.0664 243.446 47.4187L243.416 47.4895ZM241.921 43.4409C232.265 53.0766 222.28 63.0362 196.82 61.5484C164.454 59.6658 126.727 50.1717 92.6972 38.9064C126.677 49.4025 164.006 57.8034 196.182 59.1496C220.805 60.1617 231.408 51.0523 241.652 42.1757C246.017 38.4003 250.291 34.6959 255.603 31.9124C250.331 34.9691 246.186 39.1392 241.951 43.3599L241.921 43.4409ZM241.004 41.4166C230.9 50.1515 220.457 59.19 196.222 58.1475C166.417 56.8722 132.178 49.5442 100.29 40.121C131.769 48.7041 165.481 54.9896 195.604 55.7791C218.902 56.3965 229.883 48.1879 240.516 40.2526C245.558 36.4874 250.481 32.8031 256.619 30.2525C250.58 33.0966 245.867 37.1858 241.034 41.366L241.004 41.4166ZM239.918 39.4429C229.425 47.277 218.583 55.3742 195.624 54.7669C171.858 54.1394 145.85 50.0908 120.469 44.1899C145.91 49.4632 171.689 52.611 195.026 52.4086C216.72 52.2062 227.98 45.0502 238.872 38.1372C245.498 33.9165 251.966 29.8173 260.595 27.7423C252.284 30.1816 246.196 34.7262 239.948 39.3923L239.918 39.4429ZM235.095 33.5825C223.954 38.7546 212.435 44.0887 193.821 44.6454C168.223 45.2667 142.624 43.481 117.35 39.3113C142.52 42.5957 167.929 43.5882 193.273 42.2769C210.332 41.4065 221.842 36.9327 232.963 32.6007C242.27 28.9772 250.899 25.6067 261.761 24.7666C251.388 25.9913 243.366 29.7059 235.125 33.5319L235.095 33.5825ZM232.644 31.5987C221.583 35.9104 210.153 40.3538 193.253 41.2141C166.224 42.6251 139.124 41.3913 112.328 37.5299C139.027 40.5271 165.944 40.9677 192.724 38.8457C207.851 37.7425 218.972 34.1291 229.734 30.627C240.496 27.1249 250.232 23.967 262.528 23.7241C250.949 24.4731 241.931 27.9853 232.644 31.5987ZM219.281 25.8597C210.093 28.0844 200.801 29.8377 191.439 31.1128C170.991 33.6533 150.583 35.7181 129.866 35.7485C150.244 34.9793 169.726 31.9934 188.998 29.0379L190.991 28.7343C198.026 27.6614 204.632 26.3658 211.03 25.1107C224.293 22.5095 236.669 20.0499 250.301 20.0499C254.423 20.051 258.541 20.2774 262.638 20.7281C246.704 19.6552 233.57 22.6107 219.281 25.8597ZM210.831 24.1188C204.443 25.3638 197.876 26.6593 190.831 27.7322L188.838 28.0359C170.423 30.8598 151.799 33.7141 132.377 34.625C148.899 33.208 164.633 30.2322 180.209 27.2767C183.607 26.629 187.005 25.9812 190.403 25.3638L197.906 23.9468C213.451 21.0115 227.97 18.2584 243.575 18.2584C250.291 18.2339 256.998 18.7449 263.634 19.7868C244.332 17.5297 228.339 20.6572 210.831 24.0986V24.1188Z" fill="#FECC39"/>
</svg>
