<svg width="120" height="40" viewBox="0 0 120 40" fill="none" xmlns="http://www.w3.org/2000/svg">
<path d="M0 9.29586L0.0540108 6.42128H11.2282L11.3003 9.29586H10.7361V9.24185C10.5501 8.16763 10.2861 7.62152 9.94399 7.34547C9.52548 7.08961 9.03235 6.98379 8.54571 7.04541H6.52931V14.811C6.46311 15.5119 6.52204 16.2191 6.70334 16.8994C6.86537 17.2354 7.18944 17.3315 7.90358 17.3315H8.53371V17.9316H2.71854V17.3315H3.36667C4.08682 17.3315 4.41088 17.2414 4.56691 16.9234C4.75124 16.2867 4.81234 15.6206 4.74695 14.961V7.04541H2.52651C2.28199 7.0115 2.03289 7.0387 1.80145 7.12458C1.57002 7.21045 1.36346 7.35232 1.20024 7.53751C0.893417 8.06435 0.689748 8.6448 0.60012 9.24785V9.29586H0Z" fill="#272727"/>
<path d="M16.4613 17.9436V17.3435H16.5273C17.1274 17.3435 17.3915 17.3435 17.5115 17.1154C17.6678 16.5822 17.7148 16.0229 17.6495 15.4711V13.4067C17.6495 12.8066 17.6495 11.9064 17.0194 11.5703C16.828 11.4715 16.618 11.414 16.4029 11.4016C16.1879 11.3892 15.9726 11.4221 15.7712 11.4983C15.4487 11.6303 15.1552 11.8239 14.907 12.0684C14.769 12.1944 14.6429 12.3265 14.5169 12.4645C14.3909 12.6025 14.1808 12.7826 14.1808 12.8786V15.4591C14.1199 16.0043 14.1627 16.5561 14.3069 17.0854C14.4209 17.3015 14.6489 17.3315 15.201 17.3315H15.2611V17.9316H11.6603V17.3315H11.7263C12.3265 17.3315 12.6025 17.3315 12.7225 17.1094C12.8829 16.5749 12.9319 16.0133 12.8666 15.4591V8.77375C12.9073 8.36884 12.8623 7.95989 12.7345 7.57351C12.6085 7.35147 12.3565 7.25545 11.7924 7.25545H11.7323V6.65533H11.7924C12.5386 6.64804 13.2793 6.52661 13.9888 6.29526H14.1988V12.0324C14.4857 11.6505 14.8511 11.3346 15.2703 11.1058C15.6896 10.877 16.153 10.7407 16.6293 10.7061C16.9498 10.6799 17.2722 10.7196 17.5767 10.8228C17.8812 10.926 18.1613 11.0906 18.3997 11.3063C18.8266 11.8053 19.0419 12.4512 18.9998 13.1066V15.4711C18.935 16.0229 18.982 16.5821 19.1378 17.1154C19.2519 17.3255 19.5159 17.3435 20.104 17.3435H20.17V17.9436H16.4613Z" fill="#272727"/>
<path d="M21.8204 17.3135C21.428 16.9583 21.1175 16.5221 20.9102 16.0351C20.703 15.5481 20.604 15.0219 20.6201 14.4929C20.6071 13.4973 20.9569 12.5309 21.6043 11.7744C21.9094 11.424 22.2868 11.1438 22.7105 10.9532C23.1342 10.7626 23.5942 10.666 24.0588 10.6701C24.8104 10.6536 25.5388 10.9309 26.089 11.443C26.6393 11.9552 26.9681 12.6619 27.0054 13.4127V13.4727H22.2044C22.2044 13.7007 22.2044 13.9528 22.2044 14.2228C22.1769 14.8991 22.2745 15.5745 22.4925 16.2152C22.6174 16.6156 22.8724 16.9629 23.217 17.2021C23.5616 17.4412 23.9761 17.5586 24.3949 17.5355C24.812 17.5378 25.2215 17.4233 25.5768 17.2048C25.9321 16.9863 26.2191 16.6726 26.4053 16.2993V16.2693H27.0054V16.3473C26.7931 16.927 26.3991 17.4225 25.8821 17.7599C25.3651 18.0973 24.7529 18.2586 24.1368 18.2196C23.2803 18.2088 22.4569 17.8867 21.8204 17.3135ZM25.4211 12.8846C25.4297 12.8108 25.4297 12.7363 25.4211 12.6625C25.428 12.4758 25.396 12.2896 25.3269 12.116C25.2579 11.9423 25.1534 11.7849 25.0201 11.6539C24.8869 11.5229 24.7277 11.4211 24.5529 11.3551C24.3781 11.289 24.1914 11.2601 24.0048 11.2703C23.5662 11.2796 23.1461 11.4488 22.8234 11.7461C22.5007 12.0433 22.2977 12.4482 22.2525 12.8846H25.4211Z" fill="#272727"/>
<path d="M29.5799 17.8476V17.1754H30.246C32.4785 17.1754 32.4785 16.5753 32.4785 13.1906V4.70494C32.4785 0.852171 32.2144 0.972194 29.5859 0.972194V0.264053C31.4703 0.186037 34.4409 0.0780156 35.9532 0.0780156C36.9674 0.0780156 43.1546 -0.132026 43.1546 4.27886C43.1546 7.65153 39.4219 8.23365 38.2577 8.39568C41.2042 8.55171 44.1088 9.69794 44.1088 13.0166C44.1088 16.8934 40.7121 17.8476 37.6275 17.8476H29.5799ZM35.029 8.07762C38.4017 8.15563 40.4301 7.70554 40.4301 4.41088C40.4301 1.22425 38.5697 0.55211 35.029 0.870174V8.07762ZM35.029 12.5905C35.029 16.6293 35.029 17.1334 37.1534 17.1334C41.0542 17.1334 41.2703 14.4509 41.2703 12.9866C41.2703 10.148 40.07 8.55171 35.029 8.81576V12.5905Z" fill="#272727"/>
<path d="M49.1138 14.2108C49.1138 16.9174 49.1138 17.1574 50.6801 17.1574H51.0522V17.8476H45.4231V17.1754C47.2234 17.1754 47.2234 17.1754 47.2234 14.2288V11.2282C47.2234 8.28166 47.2234 8.29966 45.4231 8.29966V7.57351C46.44 7.4093 47.443 7.16857 48.4237 6.85337L48.6097 6.79936C48.8834 7.67663 49.0091 8.59334 48.9818 9.5119C49.804 7.54951 51.3823 6.79936 52.3785 6.79936C52.8366 6.78181 53.2841 6.93969 53.6298 7.24078C53.9755 7.54188 54.1933 7.96351 54.2388 8.41968C54.2421 8.65582 54.1517 8.88364 53.9876 9.05341C53.8234 9.22319 53.5988 9.32113 53.3627 9.32586C53.1415 9.31351 52.9305 9.22864 52.7624 9.08437C52.5942 8.9401 52.4783 8.74446 52.4325 8.52771C52.3005 8.23365 52.1144 7.83757 51.6883 7.83757C50.9442 7.83757 49.1138 9.10982 49.1138 11.8224V14.2108Z" fill="#272727"/>
<path d="M58.4937 14.2108C58.4937 16.5213 58.3077 17.1574 59.958 17.1574H60.3541V17.8476H54.6109V17.1754H55.061C56.2612 17.1754 56.6273 17.1214 56.6273 15.2671V11.1262C56.6273 8.20364 56.6273 8.20364 54.7429 8.20364V7.4895C55.9186 7.37103 57.0802 7.13993 58.2116 6.79936H58.4757L58.4937 14.2108ZM57.2995 0C57.6581 0.00787943 57.9991 0.157548 58.2476 0.416241C58.4962 0.674933 58.6322 1.02157 58.6257 1.38028C58.6305 1.55889 58.6 1.7367 58.5358 1.90347C58.4717 2.07024 58.3752 2.22269 58.252 2.35207C58.1287 2.48145 57.9811 2.5852 57.8177 2.65736C57.6542 2.72952 57.4781 2.76867 57.2995 2.77255C56.9381 2.76473 56.594 2.61605 56.3406 2.35821C56.0873 2.10037 55.9447 1.75376 55.9432 1.39228C55.94 1.21159 55.9727 1.03206 56.0392 0.864061C56.1058 0.696059 56.205 0.542913 56.3311 0.413464C56.4572 0.284015 56.6077 0.180829 56.7739 0.109863C56.9401 0.038897 57.1188 0.0015573 57.2995 0Z" fill="#272727"/>
<path d="M64.6089 8.20364V14.0908C64.6089 15.7291 64.6089 17.2234 66.1992 17.2234C66.5185 17.1944 66.8242 17.0806 67.0848 16.8939C67.3454 16.7072 67.5514 16.4542 67.6815 16.1612L68.2216 16.5453C67.972 17.0649 67.5801 17.5031 67.0915 17.809C66.6029 18.1149 66.0376 18.276 65.4611 18.2737C64.9941 18.282 64.5333 18.1657 64.1262 17.9368C63.719 17.7079 63.3802 17.3747 63.1446 16.9714C62.8026 16.3353 62.7485 15.7712 62.7485 13.8388V8.20364H61.2122V7.4895C62.4125 7.43549 63.6847 6.5233 64.0808 3.88878H64.6149V7.4895H67.7415V8.20964L64.6089 8.20364Z" fill="#272727"/>
<path d="M72.6145 14.1028C72.6145 16.4133 72.4285 17.1574 74.0788 17.1574H74.4749V17.8476H68.7377V17.1754H69.1878C70.3881 17.1754 70.7542 16.9114 70.7542 15.051V11.1262C70.7542 8.20364 70.5981 8.20364 68.7377 8.20364V7.4895C69.9569 7.37239 71.1624 7.14133 72.3385 6.79936H72.6145V14.1028ZM71.4143 0C71.773 0.00787943 72.1139 0.157548 72.3625 0.416241C72.611 0.674933 72.747 1.02157 72.7405 1.38028C72.7453 1.55889 72.7148 1.7367 72.6506 1.90347C72.5865 2.07024 72.49 2.22269 72.3668 2.35207C72.2435 2.48145 72.096 2.5852 71.9325 2.65736C71.769 2.72952 71.5929 2.76867 71.4143 2.77255C71.0529 2.76473 70.7088 2.61605 70.4555 2.35821C70.2021 2.10037 70.0595 1.75376 70.058 1.39228C70.0548 1.21159 70.0875 1.03206 70.1541 0.864061C70.2207 0.696059 70.3199 0.542913 70.446 0.413464C70.5721 0.284015 70.7226 0.180829 70.8888 0.109863C71.055 0.038897 71.2336 0.0015573 71.4143 0Z" fill="#272727"/>
<path d="M76.0232 14.6909H76.5813C76.8454 15.9632 77.7816 17.5835 79.6599 17.5835C79.9101 17.607 80.1624 17.5778 80.4006 17.4979C80.6388 17.418 80.8577 17.2891 81.0431 17.1195C81.2285 16.9499 81.3763 16.7434 81.4771 16.5133C81.5779 16.2831 81.6294 16.0344 81.6283 15.7832C81.6283 14.4029 80.4281 13.8448 79.0478 13.1546C77.7756 12.5185 76.0472 11.6663 76.0472 9.72795C76.0472 8.45569 76.6473 6.78136 78.8918 6.78136C79.3367 6.77804 79.7764 6.87696 80.177 7.0705C80.5775 7.26403 80.9283 7.547 81.2022 7.89758C81.4014 7.60545 81.5703 7.29378 81.7063 6.96739H82.1804V10.2621H81.6523C81.4363 9.25385 80.6441 7.4955 78.9398 7.4955C78.7265 7.46943 78.5101 7.48841 78.3046 7.5512C78.099 7.61399 77.909 7.7192 77.7467 7.86003C77.5843 8.00086 77.4534 8.17417 77.3622 8.36878C77.271 8.56338 77.2217 8.77494 77.2174 8.9898C77.2174 10.19 78.4897 10.7902 79.7139 11.3483C81.1242 11.9904 82.9006 12.8126 82.9006 15.123C82.9006 17.1034 81.5743 18.2557 79.6899 18.2557C79.1968 18.2787 78.7046 18.1941 78.2475 18.0075C77.7904 17.8209 77.3795 17.537 77.0434 17.1754C76.8012 17.4752 76.6252 17.8229 76.5273 18.1956H76.0232V14.6909Z" fill="#272727"/>
<path d="M66.8114 35.5631H67.3695C67.6335 36.8414 68.5697 38.4617 70.4481 38.4617C70.6982 38.4851 70.9505 38.456 71.1888 38.3761C71.427 38.2961 71.6458 38.1673 71.8312 37.9977C72.0166 37.8281 72.1645 37.6216 72.2653 37.3914C72.3661 37.1613 72.4176 36.9126 72.4165 36.6613C72.4165 35.2811 71.2162 34.7229 69.836 34.0328C68.5637 33.3967 66.8894 32.5445 66.8354 30.6061C66.7994 29.2619 67.4835 27.6595 69.6799 27.6595C70.1304 27.6546 70.5757 27.7545 70.9809 27.9514C71.3861 28.1482 71.7399 28.4366 72.0144 28.7938C72.2136 28.5016 72.3825 28.19 72.5185 27.8636H72.9986V31.1582H72.4645C72.2485 30.144 71.4563 28.3857 69.752 28.3857C69.5388 28.3606 69.3228 28.3802 69.1176 28.4434C68.9125 28.5065 68.7228 28.6118 68.5607 28.7524C68.3986 28.8931 68.2677 29.066 68.1762 29.2602C68.0847 29.4543 68.0348 29.6654 68.0296 29.88C68.0296 31.0802 69.3019 31.6803 70.5261 32.2444C71.9304 32.8806 73.7127 33.7027 73.7127 36.0132C73.7259 36.4356 73.651 36.8561 73.493 37.2481C73.3349 37.64 73.0971 37.9948 72.7947 38.2899C72.4922 38.5851 72.1317 38.8141 71.736 38.9625C71.3403 39.1108 70.918 39.1753 70.4961 39.1518C69.9982 39.1589 69.5049 39.0548 69.0523 38.8472C68.5996 38.6396 68.199 38.3336 67.8796 37.9516C67.6261 38.2633 67.442 38.6254 67.3395 39.0138H66.8354L66.8114 35.5631Z" fill="#272727"/>
<path d="M94.939 14.1028C94.939 17.0254 94.939 17.1574 96.7393 17.1574V17.8476H91.2422V17.1754C93.0426 17.1754 93.0426 17.0434 93.0426 14.1208V10.9102C93.0426 8.44369 92.2745 7.65153 90.7321 7.72354C89.5319 7.78356 88.3317 8.97179 87.4915 10.064V14.1028C87.4915 16.9474 87.4915 17.1574 89.1658 17.1574V17.8476H83.7648V17.1754C85.6251 17.1754 85.6251 17.0674 85.6251 14.1208V3.73875C85.6251 1.88438 85.6251 1.27225 83.8728 1.27225V0.558112C85.0367 0.547423 86.1923 0.359221 87.2995 0H87.4855V9.0018C88.7578 7.5015 89.958 6.81736 91.3383 6.81736C93.7027 6.81736 94.897 8.06561 94.897 10.4841L94.939 14.1028Z" fill="#272727"/>
<path d="M47.7996 21.1422H53.2006V21.8324H52.5405C50.23 21.8324 50.176 22.0484 50.176 25.6311V34.0328C50.176 37.4295 50.176 38.0176 52.4085 38.0176H53.2006V38.7077H44.799V38.0356H45.3991C47.6315 38.0356 47.6315 37.4355 47.6315 34.0508V23.1766L40.6761 38.7257H40.076L33.1086 22.9066V34.5789C33.1086 36.9794 33.9068 37.8736 35.8752 38.0596V38.7497H29.6039V38.0356C31.2242 37.8736 32.3645 37.3695 32.3645 34.3929V25.5231C32.3645 21.9644 32.3645 21.8324 30.084 21.8324H29.6039V21.1422H34.945L41.3303 35.5451L47.7996 21.1422Z" fill="#272727"/>
<path d="M63.6667 34.939C63.6667 37.7836 63.6667 38.0236 65.2871 38.0236V38.7257C64.3202 38.6824 63.3542 38.8271 62.4425 39.1518H62.2564C61.916 38.3867 61.7617 37.5517 61.8064 36.7153C61.4004 37.4418 60.811 38.049 60.0971 38.4765C59.3831 38.9041 58.5696 39.1369 57.7375 39.1518C54.6529 39.1518 54.4429 36.7093 54.4429 35.5931V31.8484C54.4429 28.9498 54.4429 28.7938 52.6905 28.7938V28.1036H56.2913V35.4491C56.2913 36.4573 56.2913 38.1256 58.3377 38.1256C58.8164 38.1096 59.2872 37.9981 59.7223 37.7978C60.1575 37.5976 60.5483 37.3125 60.8719 36.9593C61.1954 36.6061 61.4453 36.1918 61.6068 35.7408C61.7683 35.2899 61.8382 34.8112 61.8124 34.3329V31.8484C61.8124 28.8958 61.8124 28.7938 59.952 28.7938V28.1036H63.6727L63.6667 34.939Z" fill="#272727"/>
<path d="M77.8596 31.8304C77.8296 32.2024 77.8056 32.5085 77.8056 32.9586C77.8056 34.3149 77.8596 38.4617 81.2803 38.4617C81.9922 38.4908 82.6963 38.3034 83.2995 37.9241C83.9027 37.5448 84.3767 36.9915 84.6589 36.3373H85.2591C85.181 36.7093 84.1488 39.1518 80.9322 39.1518C78.5977 39.1518 75.6451 37.3515 75.6451 33.4927C75.6451 30.198 77.8236 27.6775 80.8242 27.6775C81.9599 27.6514 83.0606 28.0717 83.8898 28.8481C84.719 29.6246 85.2106 30.6954 85.2591 31.8304H77.8596ZM82.9846 31.1822C83.0185 31.0062 83.0366 30.8274 83.0386 30.6481C83.0655 30.3338 83.0248 30.0174 82.9195 29.72C82.8141 29.4227 82.6464 29.1513 82.4277 28.924C82.2089 28.6967 81.9441 28.5188 81.651 28.4021C81.3579 28.2855 81.0433 28.2328 80.7281 28.2476C78.3637 28.2476 78.0156 30.4801 77.9136 31.1702L82.9846 31.1822Z" fill="#272727"/>
<path d="M97.0274 34.951C97.0274 37.7956 97.0274 38.0356 98.6477 38.0356V38.7257C97.6809 38.6824 96.7148 38.8271 95.8032 39.1518H95.6171C95.2755 38.3468 95.1215 37.4746 95.167 36.6013C94.7696 37.3427 94.186 37.9677 93.4736 38.4149C92.7612 38.8622 91.9446 39.1161 91.1042 39.1518C88.0196 39.1518 87.8096 36.7033 87.8096 35.5931V31.8604C87.8096 28.9618 87.8096 28.8058 86.0572 28.8058V28.1036L89.6579 28.2176V35.4611C89.6579 36.4573 89.6579 38.1316 91.7043 38.1316C92.6655 38.085 93.5688 37.6587 94.2159 36.9464C94.8629 36.2341 95.2007 35.2941 95.155 34.3329V31.8604C95.155 28.9078 95.155 28.8058 93.2947 28.8058V28.1036H97.0154L97.0274 34.951Z" fill="#272727"/>
<path d="M106.821 28.6977C105.021 28.6977 103.929 30.186 103.401 30.9782V34.981C103.401 37.8496 103.401 38.0356 105.153 38.0356V38.7257H99.788V38.0356C101.54 38.0356 101.54 37.8736 101.54 34.981V32.0344C101.54 29.1358 101.54 28.9798 99.788 28.9798V28.2897C100.774 28.1548 101.751 27.9543 102.711 27.6895H103.053C103.252 28.4081 103.369 29.147 103.401 29.892C104.511 28.5657 105.897 27.6895 107.511 27.6895C109.912 27.6895 110.596 29.1478 110.728 30C112 28.5117 113.333 27.6895 114.929 27.6895C117.263 27.6895 118.248 28.9618 118.248 31.1402V34.993C118.248 37.8316 118.248 38.0476 120 38.0476V38.7377H114.557V38.0356C116.357 38.0356 116.357 37.8976 116.357 34.981V31.8724C116.357 30.4681 116.357 28.6857 114.209 28.6857C112.408 28.6857 111.31 30.174 110.782 30.9722V34.981C110.782 37.8496 110.782 38.0356 112.535 38.0356V38.7257H107.169V38.0356C108.922 38.0356 108.922 37.8196 108.922 34.981V32.0404C108.922 30.8762 109.132 28.6977 106.767 28.6977" fill="#272727"/>
</svg>
