<svg width="120" height="17" viewBox="0 0 120 17" fill="none" xmlns="http://www.w3.org/2000/svg">
<path d="M53.8235 16.1806L55.8374 11.4963L56.6527 15.9249H57.4092L56.0861 9.15424L53.8097 14.5397L51.5297 9.15424L50.2101 15.9249H50.9667L51.8165 11.4963L53.8235 16.1806ZM44.2167 9.40987V13.4654C44.2167 15.2237 45.0458 16.0976 46.7384 16.0976C48.4311 16.0976 49.2636 15.2237 49.2636 13.4654V9.40987H48.4795V13.4654C48.4795 14.7677 47.9509 15.3791 46.7523 15.3791C45.5536 15.3791 45.025 14.7677 45.025 13.4654V9.40987H44.2167ZM39.4772 15.9249H42.9317V15.2029H40.2683V12.7088H42.9317V11.9869H40.2683V10.118H42.9317V9.40987H39.4772V15.9249ZM36.9797 12.3047L36.0504 11.8971C35.4597 11.6414 35.1765 11.3133 35.1765 10.8607C35.1738 10.7318 35.1979 10.6038 35.2474 10.4848C35.2969 10.3657 35.3706 10.2583 35.4638 10.1692C35.5571 10.0802 35.6678 10.0116 35.789 9.96767C35.9102 9.92376 36.0393 9.90556 36.1679 9.91422C36.4037 9.92201 36.6325 9.99616 36.828 10.1281C37.0236 10.2601 37.1779 10.4446 37.2733 10.6604L37.9089 10.2527C37.76 9.93777 37.5193 9.67519 37.2185 9.49949C36.9176 9.32378 36.5707 9.24317 36.2232 9.26824C35.1385 9.26824 34.3923 9.95912 34.3923 10.8711C34.3923 11.6656 34.8103 12.2287 35.6774 12.5983L36.4719 12.9437C37.1628 13.2374 37.4806 13.6657 37.4806 14.2461C37.4831 14.4138 37.4505 14.5801 37.3847 14.7344C37.319 14.8887 37.2216 15.0274 37.0988 15.1417C36.9761 15.256 36.8307 15.3432 36.6722 15.3978C36.5136 15.4524 36.3453 15.4731 36.1782 15.4586C35.5219 15.4586 35.0763 15.051 34.8828 14.2564L34.192 14.6019C34.288 15.0516 34.5425 15.4519 34.909 15.7296C35.2755 16.0074 35.7297 16.1441 36.1886 16.1149C37.446 16.1149 38.2613 15.3135 38.2613 14.1217C38.2613 13.2996 37.8329 12.6985 36.9762 12.3323M28.0223 9.40987V13.4654C28.0223 15.2237 28.8514 16.0976 30.5475 16.0976C32.2437 16.0976 33.0727 15.2237 33.0727 13.4654V9.40987H32.2886V13.4654C32.2886 14.7677 31.76 15.3791 30.5613 15.3791C29.3627 15.3791 28.8341 14.7677 28.8341 13.4654V9.40987H28.0223ZM23.4487 16.1806L25.4626 11.4963L26.2917 15.9249H27.0482L25.7251 9.15424L23.4487 14.5397L21.1687 9.15424L19.8492 15.9249H20.6057L21.4175 11.4963L23.4487 16.1806Z" fill="#272727"/>
<path d="M114.542 6.83632H115.274V2.00011L120 7.10576V0.373078H119.268V5.28182L114.542 0.120905V6.83632ZM110.842 1.82048L111.879 4.19713H109.806L110.842 1.82048ZM110.842 0.120905L107.913 6.83632H108.745L109.585 4.85693H112.11L112.96 6.83632H113.792L110.842 0.120905ZM106.376 6.83632H107.146V0.373078H106.376V6.83632ZM101.07 6.83632H101.83V3.35425L104.742 6.83632H105.737L102.69 3.28516L105.453 0.373078H104.531L101.819 3.24716V0.373078H101.059L101.07 6.83632ZM94.2887 6.83632H95.021V2.00011L99.7501 7.10576V0.373078H99.0178V5.28182L94.3059 0.120905L94.2887 6.83632ZM89.6252 6.83632H93.0313V6.12125H90.3921V3.64442H93.0313V2.92936H90.3921V1.07778H93.0313V0.386896H89.6252V6.83632ZM84.5886 6.83632H85.9359C86.8582 6.83632 87.4904 6.80868 87.9602 6.34924C88.3078 5.98735 88.5 5.50379 88.4956 5.00201C88.4956 4.13495 88.0154 3.52697 87.2555 3.40952C87.5467 3.3343 87.8023 3.15931 87.9778 2.91503C88.1532 2.67075 88.2375 2.37265 88.2158 2.07266C88.2252 1.80694 88.1708 1.54284 88.0572 1.30244C87.9437 1.06204 87.7741 0.852345 87.5629 0.690886C87.1553 0.393805 86.6406 0.36617 85.9359 0.36617H84.5886V6.83632ZM85.3244 3.80678H86.1466C86.4855 3.77326 86.8271 3.83299 87.1346 3.9795C87.312 4.08438 87.4562 4.23737 87.5503 4.42077C87.6445 4.60418 87.6848 4.81049 87.6665 5.01583C87.6748 5.19636 87.6407 5.37631 87.5669 5.54127C87.4931 5.70624 87.3817 5.85163 87.2416 5.9658C86.9618 6.1627 86.5508 6.17998 85.9221 6.17998H85.3244V3.80678ZM85.3244 1.04324H85.9221C86.9584 1.04324 87.4144 1.23323 87.4144 2.16593C87.4144 2.95354 86.9618 3.20226 85.9221 3.20226H85.3244V1.04324ZM80.4226 6.83632H83.6318V6.10398H81.1791V0.373078H80.4122L80.4226 6.83632ZM74.0664 0.373078V4.39403C74.0664 6.14198 74.8886 7.00904 76.5709 7.00904C78.2532 7.00904 79.0754 6.14198 79.0754 4.39403V0.373078H78.2981V4.39403C78.2981 5.68945 77.773 6.29397 76.5709 6.29397C75.3688 6.29397 74.8437 5.68945 74.8437 4.39403V0.373078H74.0664ZM70.3771 3.48207V4.17295H72.2218C72.194 4.76378 71.9328 5.31943 71.4956 5.71779C71.0584 6.11615 70.4809 6.32463 69.89 6.29743C68.415 6.29743 67.3579 5.20583 67.3579 3.65824C67.3579 2.02084 68.3943 0.894697 69.89 0.894697C70.3106 0.880271 70.727 0.982721 71.0929 1.19067C71.4588 1.39861 71.7599 1.70391 71.9627 2.07266L72.6018 1.55449C71.9972 0.642524 71.0853 0.200357 69.8555 0.200357C69.009 0.166346 68.1834 0.468043 67.5583 1.03978C67.2119 1.37648 66.9405 1.78256 66.7619 2.23141C66.5833 2.68026 66.5016 3.16178 66.522 3.64442C66.4978 4.24325 66.6408 4.83699 66.9349 5.35921C67.2289 5.88143 67.6625 6.31154 68.187 6.60142C68.6893 6.86147 69.2485 6.99208 69.814 6.9814C71.7831 6.9814 73.0405 5.75163 73.0405 3.68933V3.4717L70.3771 3.48207ZM60.38 6.81905H63.7895V6.12125H61.1434V3.64442H63.7826V2.92936H61.1434V1.07778H63.7826V0.386896H60.3731L60.38 6.81905ZM56.6561 6.81905H57.4334V1.10542H59.2504V0.373078H54.8287V1.10542H56.6527L56.6561 6.81905ZM53.1395 3.24716L52.2172 2.83954C51.6299 2.58737 51.3501 2.26265 51.3501 1.80321C51.3474 1.67523 51.3714 1.54809 51.4205 1.42988C51.4696 1.31167 51.5428 1.20498 51.6354 1.1166C51.728 1.02822 51.838 0.960084 51.9584 0.916528C52.0788 0.872972 52.2069 0.854949 52.3346 0.863608C52.5685 0.871803 52.7954 0.945849 52.9891 1.07723C53.1828 1.20862 53.3355 1.39201 53.4297 1.60631L54.0618 1.19869C53.9128 0.887308 53.6738 0.627746 53.3758 0.453491C53.0778 0.279236 52.7344 0.198285 52.3899 0.221083C51.3121 0.221083 50.5729 0.91197 50.5729 1.81358C50.5729 2.60119 50.9874 3.1608 51.8475 3.54079L52.6317 3.88623C53.3019 4.17641 53.6369 4.6013 53.6369 5.18164C53.6333 5.3445 53.5963 5.50488 53.5281 5.65282C53.4599 5.80076 53.3621 5.9331 53.2406 6.04162C53.1191 6.15015 52.9766 6.23253 52.8219 6.28367C52.6673 6.33481 52.5038 6.3536 52.3415 6.33888C51.6921 6.33888 51.2499 5.93126 51.0599 5.14365L50.369 5.48909C50.4643 5.93487 50.7166 6.33157 51.0799 6.6068C51.4433 6.88202 51.8935 7.01743 52.3484 6.98831C53.5989 6.98831 54.4211 6.19379 54.4211 5.00892C54.4211 4.19368 53.9962 3.59952 53.1464 3.2368M44.1649 0.362715V4.39403C44.1649 6.14198 44.987 7.00904 46.6694 7.00904C48.3517 7.00904 49.1738 6.14198 49.1738 4.39403V0.373078H48.3966V4.39403C48.3966 5.68945 47.8715 6.29397 46.6694 6.29397C45.4672 6.29397 44.9421 5.68945 44.9421 4.39403V0.373078L44.1649 0.362715ZM39.6741 6.27324C39.3253 6.2753 38.9797 6.20691 38.658 6.07217C38.3363 5.93742 38.0451 5.7391 37.8018 5.48909C37.5531 5.24311 37.3561 4.94978 37.2226 4.62643C37.0892 4.30307 37.0218 3.95624 37.0246 3.60642C37.0221 3.25459 37.0895 2.90577 37.2229 2.58021C37.3564 2.25464 37.5531 1.95883 37.8018 1.70994C38.0471 1.46355 38.3386 1.26804 38.6596 1.13463C38.9806 1.00122 39.3248 0.932545 39.6724 0.932545C40.02 0.932545 40.3642 1.00122 40.6852 1.13463C41.0063 1.26804 41.2977 1.46355 41.543 1.70994C41.7929 1.95808 41.9907 2.25368 42.1248 2.57936C42.2589 2.90504 42.3265 3.25424 42.3237 3.60642C42.3228 4.31045 42.0439 4.98564 41.5477 5.48508C41.0515 5.98451 40.3781 6.26778 39.6741 6.27324ZM43.1286 3.60642C43.136 3.15626 43.0509 2.70936 42.8786 2.29342C42.7063 1.87747 42.4504 1.50134 42.1268 1.18832C41.4692 0.556684 40.5928 0.203931 39.681 0.203931C38.7693 0.203931 37.8928 0.556684 37.2353 1.18832C36.9103 1.50083 36.6528 1.87663 36.4787 2.29253C36.3047 2.70843 36.2177 3.1556 36.2232 3.60642C36.2197 4.05389 36.3077 4.49735 36.4817 4.9096C36.6558 5.32185 36.9122 5.6942 37.2353 6.0038C37.8895 6.64188 38.7672 6.99902 39.681 6.99902C40.5949 6.99902 41.4726 6.64188 42.1268 6.0038C42.4473 5.69282 42.7014 5.31998 42.8736 4.90789C43.0458 4.4958 43.1326 4.05303 43.1286 3.60642ZM32.7653 6.82595H35.9744V6.10398H33.508V0.373078H32.7445L32.7653 6.82595ZM28.9654 1.81012L30.0017 4.18677H27.9291L28.9654 1.81012ZM28.9654 0.110542L26.0257 6.83632H26.8582L27.6976 4.85693H30.2194L31.0622 6.83632H31.8948L28.9654 0.110542ZM25.4661 1.91721V0.915424C24.848 0.467776 24.1047 0.226056 23.3416 0.224538C22.8955 0.213155 22.4516 0.291362 22.0363 0.454533C21.6209 0.617704 21.2425 0.862523 20.9235 1.17451C20.5898 1.49148 20.3269 1.87535 20.1519 2.30098C19.9768 2.72662 19.8937 3.18443 19.9079 3.64442C19.9017 4.18999 20.0318 4.72846 20.2864 5.21104C20.5409 5.69361 20.9119 6.10502 21.3657 6.40797C21.9247 6.79849 22.5906 7.00718 23.2725 7.00558C24.0536 7.00982 24.8162 6.7681 25.4522 6.3147V5.27837C25.2007 5.60011 24.8795 5.86056 24.5126 6.04007C24.1458 6.21959 23.7431 6.31349 23.3347 6.3147C22.9055 6.31543 22.4828 6.21095 22.1034 6.01041C21.724 5.80987 21.3995 5.51938 21.1584 5.16437C20.8545 4.71101 20.7032 4.17246 20.7266 3.62715C20.716 3.27943 20.7749 2.93309 20.8998 2.60842C21.0248 2.28375 21.2132 1.98727 21.4542 1.73634C21.6951 1.48542 21.9837 1.28509 22.3031 1.1471C22.6224 1.0091 22.9661 0.936211 23.3139 0.932696C23.7232 0.927196 24.1285 1.01266 24.5007 1.18292C24.8729 1.35318 25.2026 1.60398 25.4661 1.91721Z" fill="#272727"/>
<path d="M8.40808 16.3567C3.69279 16.3567 0 12.8332 0 8.33554C0 3.50625 3.53734 0 8.40808 0C11.4411 0 13.7694 1.20214 15.3169 3.57534L14.6261 4.02096C13.2167 1.86539 11.182 0.811791 8.40808 0.811791C4.01405 0.811791 0.825609 3.9795 0.825609 8.33554C0.825609 12.3738 4.15568 15.538 8.42536 15.538C12.0249 15.538 14.8575 13.3306 15.3342 10.2286H12.9161V9.41332H16.2358L16.2013 9.85203C15.8904 13.6208 12.619 16.3567 8.40808 16.3567Z" fill="#272727"/>
<path d="M8.50135 4.76366C8.50135 4.72221 8.37354 4.68766 8.39081 4.76366C8.4275 4.76851 8.46467 4.76851 8.50135 4.76366Z" fill="#272727"/>
<path d="M1.38177 8.79498C1.33982 8.83936 1.28355 8.8675 1.22287 8.87443C1.14687 8.87443 1.10887 8.80189 1.04324 8.8088C1.07778 8.97116 1.38868 8.99188 1.38868 8.8088" fill="#272727"/>
<path d="M1.13305 6.9365C1.22287 6.84668 1.31268 6.75687 1.39904 6.66014C1.48105 6.5704 1.55611 6.47455 1.62358 6.37342C1.72376 6.2007 1.48886 6.28706 1.55104 6.28706C1.55741 6.29809 1.56076 6.3106 1.56076 6.32333C1.56076 6.33607 1.55741 6.34858 1.55104 6.35961C1.53128 6.42928 1.49167 6.49169 1.43704 6.53924C1.32305 6.6636 1.2125 6.76723 1.0916 6.88468C1.0916 6.90541 1.06051 6.97449 1.0916 6.95031" fill="#272727"/>
<path d="M1.12614 7.17831C1.23669 7.03322 1.34377 6.90541 1.45086 6.78105C1.55795 6.65669 1.70649 6.48742 1.7963 6.37688C1.81703 6.34233 1.85848 6.29397 1.83776 6.24561C1.77903 6.28361 1.76521 6.35615 1.73067 6.40797C1.66972 6.49215 1.60276 6.57181 1.53031 6.64632C1.39559 6.78796 1.24359 6.92268 1.10887 7.07122C1.08124 7.11267 1.0536 7.27158 1.13305 7.18521" fill="#272727"/>
<path d="M15.089 7.63775C15.0612 7.58842 15.03 7.5411 14.9957 7.49611C14.911 7.40825 14.8116 7.33578 14.7021 7.28194C14.6337 7.26878 14.5644 7.2607 14.4948 7.25776C14.4271 7.25471 14.3599 7.24428 14.2944 7.22667C14.184 7.1715 14.0682 7.12753 13.949 7.0954C13.7072 7.07467 13.6277 7.32339 13.3928 7.33376C13.3735 7.24725 13.3492 7.16191 13.3203 7.07813C13.2857 7.00213 13.2167 6.9365 13.2063 6.8605C13.2054 6.81521 13.2148 6.77031 13.2339 6.72923C13.2375 6.69016 13.2375 6.65085 13.2339 6.61178C13.2564 6.38876 13.2353 6.16348 13.1717 5.94853C13.1326 5.83975 13.084 5.73457 13.0267 5.63418C13.012 5.61205 13.0015 5.58748 12.9956 5.56163C12.9956 5.52018 13.1061 5.47873 13.1545 5.45455C13.2734 5.39829 13.3887 5.33484 13.4999 5.26455C13.5552 5.23001 13.607 5.16092 13.6657 5.16092C13.7245 5.16092 13.7279 5.19546 13.7625 5.21619L13.8246 5.25419C13.8661 5.25419 13.9732 5.29219 13.987 5.25419C14.0008 5.21619 13.797 5.1851 13.8074 5.09183C13.8177 4.99856 13.9939 5.06074 14.0526 5.05038C14.1424 4.81893 13.9455 4.73257 13.8108 4.64621C13.7429 4.59494 13.6713 4.54875 13.5966 4.50803C13.4446 4.41886 13.2878 4.33813 13.1268 4.26622C13.1051 4.21343 13.0683 4.16823 13.0209 4.13628C12.9736 4.10433 12.9179 4.08704 12.8608 4.08659C12.809 4.03823 12.8228 3.93114 12.7641 3.90005C12.7054 3.86896 12.6501 3.90005 12.5983 3.90005C12.4953 3.92663 12.3965 3.96731 12.3047 4.02096C12.2667 4.04859 12.208 4.10732 12.2252 4.13495C12.2425 4.16259 12.2978 4.13495 12.3289 4.10041C12.3631 4.07924 12.3989 4.06076 12.4359 4.04514C12.5016 4.02096 12.6225 3.96914 12.657 4.01405C12.6916 4.05896 12.5741 4.10386 12.5223 4.12459C12.4705 4.14532 12.4498 4.12459 12.4325 4.16604C12.4152 4.2075 12.4325 4.29731 12.3807 4.31804C12.3552 4.32823 12.3267 4.32823 12.3012 4.31804C12.208 4.28004 12.1389 4.17986 12.0352 4.15568C12.0352 4.22477 12.0041 4.26622 11.9627 4.32149C11.9411 4.35612 11.9099 4.38372 11.8729 4.40094C11.8003 4.41822 11.7658 4.3664 11.7278 4.33185C11.6898 4.29731 11.6138 4.23859 11.5965 4.17641C11.5793 4.11423 11.6587 4.02787 11.6483 3.96914C11.638 3.91041 11.5413 3.91387 11.4722 3.90351C11.4031 3.89314 11.3098 3.87587 11.2545 3.87587C11.145 3.87298 11.0362 3.89544 10.9367 3.9415C10.8918 3.95878 10.8158 3.98296 10.8296 4.02096C10.8435 4.05896 10.9264 4.02096 10.9747 3.98641C11.1288 3.94648 11.2905 3.94648 11.4445 3.98641C11.4445 4.01059 11.3858 4.06241 11.3305 4.06586C11.3018 4.0673 11.2729 4.0673 11.2442 4.06586C11.1474 4.06586 11.03 4.0935 11.03 4.13495C11.03 4.17641 11.0956 4.23168 11.1647 4.22131C11.2338 4.21095 11.2165 4.19368 11.2442 4.19368C11.2718 4.19368 11.296 4.22131 11.3236 4.22131C11.3513 4.22131 11.3858 4.20059 11.4134 4.22131C11.4444 4.23419 11.4744 4.2492 11.5033 4.26622L11.5931 4.31804C11.6345 4.34567 11.7278 4.41476 11.714 4.47349C11.7002 4.53221 11.4687 4.47349 11.4203 4.47349C11.372 4.47349 11.2787 4.53912 11.2442 4.47349C11.2096 4.40785 11.2649 4.4044 11.2442 4.36985C11.2234 4.33531 11.2027 4.39058 11.1682 4.36985C11.106 4.30077 11.0715 4.34222 10.9955 4.32495C10.9299 4.29769 10.8718 4.25503 10.8262 4.20059C10.7882 4.15568 10.7813 4.0935 10.7364 4.0935C10.6915 4.0935 10.6673 4.12459 10.6466 4.13495C10.5173 4.21797 10.418 4.34025 10.3633 4.48385C10.3357 4.54258 10.3011 4.62894 10.2389 4.62894C10.1768 4.62894 10.1042 4.52876 10.0835 4.46312C10.0628 4.39749 10.0835 4.39058 10.0558 4.36295C10.0282 4.33531 9.96603 4.30422 9.93149 4.26277C9.90881 4.22746 9.89136 4.18907 9.87967 4.14877C9.87967 4.09005 9.95567 4.05205 9.94531 3.99332C9.93494 3.9346 9.84858 3.92423 9.79676 3.90005C9.7382 3.87267 9.67681 3.85182 9.61368 3.83787C9.51666 3.8279 9.41866 3.83373 9.32351 3.85514C9.24406 3.85514 9.11279 3.89314 9.13697 3.94496C9.16115 3.99678 9.21988 3.94496 9.26133 3.92423C9.3712 3.88167 9.48943 3.86512 9.60677 3.87587C9.66204 3.87587 9.87622 3.97605 9.83822 4.04514C9.80022 4.11423 9.67241 4.00714 9.67241 3.98987C9.67241 3.97259 9.53423 3.98987 9.45823 3.98987C9.38223 3.98987 9.28205 3.98987 9.27169 4.04514C9.26133 4.10041 9.31314 4.14877 9.3546 4.15913C9.39605 4.1695 9.45132 4.15913 9.48587 4.15913C9.52041 4.15913 9.48587 4.24549 9.5135 4.24895C9.54114 4.2524 9.56877 4.17986 9.62404 4.17295C9.68335 4.16843 9.74228 4.18562 9.78986 4.22131C9.81404 4.24549 9.82095 4.30422 9.83476 4.32495C9.84858 4.34567 9.93149 4.38713 9.93149 4.43549C9.93149 4.48385 9.87622 4.52185 9.82095 4.52876C9.76567 4.53567 9.66895 4.48731 9.65168 4.50112C9.63441 4.51494 9.67241 4.54603 9.68968 4.5633C9.74906 4.62658 9.78868 4.70582 9.80367 4.7913C9.80919 4.8536 9.80192 4.91638 9.78232 4.97578C9.76272 5.03518 9.73119 5.08995 9.68968 5.13674C9.61078 5.18031 9.51915 5.19497 9.43059 5.17819C9.36812 5.13826 9.31508 5.08522 9.27515 5.02274C9.27515 5.00547 9.24751 4.96402 9.22678 4.96747C9.20606 4.97093 9.22678 5.04692 9.22678 5.04692C9.25104 5.10838 9.28111 5.16737 9.3166 5.2231C9.35114 5.27146 9.40641 5.2991 9.4375 5.34055C9.49743 5.42113 9.5484 5.508 9.5895 5.59963C9.59261 5.61327 9.59261 5.62744 9.5895 5.64108C9.5895 5.66872 9.47896 5.67908 9.41678 5.68254C9.13351 5.71017 8.86061 5.7309 8.57735 5.74817C8.42881 5.74817 8.31481 5.7689 8.23191 5.70326C8.21525 5.6888 8.20019 5.67259 8.187 5.6549C8.15438 5.61824 8.13387 5.57239 8.12828 5.52363C8.12828 5.46491 8.27336 5.44073 8.33899 5.41655C8.40463 5.39237 8.58081 5.27146 8.7328 5.30946C8.79153 5.30946 8.93661 5.42346 8.9677 5.30946C8.91588 5.27492 8.80189 5.27492 8.79843 5.19892C8.79498 5.12292 8.8468 5.11947 8.8917 5.11256C8.93661 5.10565 9.06097 5.15401 9.1197 5.11256C9.17842 5.0711 9.1197 5.00892 9.1197 4.9502C9.1197 4.89147 9.15079 4.8742 9.14733 4.83275C9.14733 4.7153 9.01952 4.66348 8.92625 4.62548C8.83298 4.58748 8.77771 4.57712 8.7708 4.51839C8.77055 4.48595 8.77909 4.45405 8.79551 4.42607C8.81193 4.3981 8.83562 4.37509 8.86407 4.35949C8.89516 4.35949 8.95043 4.35949 8.99188 4.35949C9.03334 4.35949 9.13006 4.26968 9.18879 4.27658C9.24751 4.28349 9.28551 4.39058 9.34423 4.34913C9.40296 4.30767 9.30624 4.30077 9.28896 4.27658C9.29278 4.25836 9.29278 4.23954 9.28896 4.22131C9.1646 4.16259 9.15079 3.99332 9.02297 3.9415C8.87702 4.02772 8.7463 4.13744 8.63608 4.26622C8.60499 4.31113 8.54972 4.41822 8.49099 4.42512C8.43227 4.43203 8.29409 4.33186 8.25609 4.29731C8.21809 4.26277 8.12482 4.13495 8.05919 4.10041C7.99355 4.06586 7.78974 4.04514 7.78629 3.97605L8.29063 3.82405L10.8745 3.09172L11.5033 2.91208C11.5033 2.91208 11.5862 2.83954 11.5033 2.82572L11.1578 2.92936L8.42536 3.71006C8.31481 3.7446 8.07991 3.81024 7.81738 3.87932C7.81738 3.85169 7.79319 3.84133 7.73447 3.8206L7.59975 3.7826H7.5652C7.40627 3.77473 7.24771 3.80431 7.10231 3.86896C7.06431 3.88623 6.99522 3.93114 7.00213 3.95878C7.00904 3.98641 7.0574 3.95878 7.08158 3.93805C7.16588 3.89138 7.25671 3.85761 7.35103 3.83787C7.44775 3.83787 7.72065 3.80333 7.69647 3.91387C7.69647 3.96914 7.55829 3.95532 7.48575 3.95878C7.33721 3.95878 7.18176 4.00023 7.16794 4.03477C7.15413 4.06932 7.26467 4.14186 7.31648 4.14186C7.3683 4.14186 7.3683 4.11768 7.39594 4.11768C7.42357 4.11768 7.45121 4.15913 7.4823 4.15913C7.51339 4.15913 7.53066 4.12804 7.5652 4.13841C7.59975 4.14877 7.60666 4.19368 7.63084 4.21095C7.69302 4.16604 7.72756 4.10041 7.82429 4.11077C7.87369 4.11955 7.92146 4.13586 7.96592 4.15913C8.04537 4.19713 8.149 4.27658 8.12137 4.3284C8.09373 4.38022 8.00737 4.35604 7.93828 4.37676C7.86919 4.39749 7.81392 4.44931 7.75174 4.43894C7.68956 4.42858 7.6792 4.36985 7.62738 4.36295C7.62738 4.39749 7.62738 4.42512 7.62738 4.44931C7.7932 4.51839 7.97283 4.57367 7.97283 4.79475C7.88992 4.89147 7.80356 5.0711 7.62738 5.0262C7.52375 5.00202 7.47884 4.89493 7.45466 4.79475C7.45466 4.76021 7.42357 4.68075 7.40284 4.68766C7.38212 4.69457 7.38557 4.86384 7.40284 4.90529C7.41898 4.95399 7.44472 4.99895 7.47854 5.03752C7.51236 5.07609 7.55358 5.10748 7.59975 5.12983C7.63429 5.12983 7.68265 5.12983 7.7172 5.15746C7.74784 5.18324 7.77126 5.21653 7.78519 5.25407C7.79911 5.29161 7.80306 5.33212 7.79665 5.37164C7.74829 5.44418 7.64466 5.45455 7.54793 5.48909C7.33256 5.56174 7.11347 5.62285 6.89159 5.67217C6.85566 5.59937 6.84014 5.51819 6.84668 5.43727C6.84668 5.35091 6.84668 5.2611 6.84668 5.17474C6.83928 5.00661 6.8603 4.83843 6.90886 4.6773C6.92613 4.6393 6.96759 4.58748 6.99868 4.53567C7.02364 4.4847 7.05498 4.43711 7.09195 4.39403C7.11613 4.36985 7.18867 4.31458 7.23358 4.32149C7.27849 4.3284 7.36139 4.43894 7.37521 4.42858C7.38903 4.41822 7.37521 4.35258 7.37521 4.31458C7.37521 4.27658 7.44084 4.25931 7.42357 4.23168C7.4063 4.20404 7.35448 4.27658 7.2923 4.28004C7.23497 4.27293 7.18033 4.25155 7.1334 4.21786C7.08837 4.19205 7.04854 4.15808 7.01595 4.11768C6.94686 4.02787 6.84323 3.85514 6.81905 3.87587C6.79487 3.8966 6.81905 3.92078 6.83632 3.95878V3.97605C6.83766 3.98868 6.83766 4.00142 6.83632 4.01405C6.83662 4.0392 6.82806 4.06366 6.81214 4.08314C6.79141 4.11077 6.76723 4.13495 6.73959 4.17295H6.67741C6.60833 4.19368 6.36652 4.24204 6.29743 4.25586L6.24561 4.22131C6.22326 4.21341 6.19887 4.21341 6.17652 4.22131C6.15234 4.22131 6.00035 4.24549 5.94853 4.24549C5.8847 4.24244 5.82076 4.24825 5.75854 4.26277C5.54579 4.33737 5.3258 4.38947 5.10219 4.41822C4.90942 4.43891 4.71874 4.47589 4.53221 4.52876C4.49556 4.53405 4.45833 4.53405 4.42167 4.52876C4.30687 4.51609 4.19103 4.51609 4.07623 4.52876C3.88278 4.54948 3.84478 4.4804 3.75842 4.47349H3.65133C3.64845 4.45999 3.64116 4.44784 3.63061 4.43894C3.60643 4.41476 3.63061 4.38713 3.63061 4.35949C3.60643 4.28004 3.53734 4.20404 3.58915 4.11423C3.58915 4.07968 3.53734 4.05205 3.52697 4.01405C3.51661 3.97605 3.52697 3.96914 3.55806 3.94841C3.55732 3.88592 3.53401 3.82581 3.49243 3.77915C3.33046 3.69966 3.14525 3.68127 2.97081 3.72733C2.8571 3.741 2.7476 3.77868 2.64955 3.83787C2.57351 3.9063 2.51362 3.99075 2.47419 4.08514C2.43476 4.17953 2.41678 4.28149 2.42156 4.38367C2.42043 4.39977 2.42043 4.41593 2.42156 4.43203C2.42527 4.43965 2.43059 4.44637 2.43715 4.45174C2.44371 4.45711 2.45135 4.46099 2.45955 4.46312C2.50446 4.46312 2.56664 4.46312 2.61155 4.46312C2.62187 4.46685 2.63047 4.47422 2.63573 4.48385C2.63573 4.50112 2.653 4.48385 2.65646 4.50112C2.65743 4.517 2.65447 4.53287 2.64784 4.54734C2.64121 4.5618 2.63112 4.5744 2.61846 4.58403H2.51137L2.30411 4.64275C2.17833 4.66255 2.05955 4.71363 1.95866 4.7913C1.87291 4.89827 1.7988 5.01407 1.73758 5.13674C1.69267 5.20928 1.50959 5.33019 1.46468 5.46491C1.4254 5.57313 1.37565 5.67726 1.31614 5.77581C1.28998 5.81962 1.2713 5.86749 1.26087 5.91744C1.24952 5.94868 1.24952 5.98292 1.26087 6.01416C1.28505 6.05216 1.29196 6.08325 1.35068 6.09362L1.63049 6.13161C1.73067 6.13161 2.04157 6.15579 2.11066 6.17307C2.14195 6.17452 2.1725 6.18304 2.20003 6.198C2.22755 6.21296 2.25132 6.23396 2.26956 6.25943C2.30003 6.30927 2.33992 6.35268 2.38701 6.38724C2.42472 6.4314 2.44444 6.48812 2.44228 6.54615C2.44418 6.56567 2.44418 6.58534 2.44228 6.60487C2.41905 6.6295 2.4045 6.66103 2.40083 6.69469C2.39452 6.73242 2.39452 6.77095 2.40083 6.80868C2.40083 6.80868 2.40083 6.83632 2.40083 6.85704C2.31101 7.12303 2.13829 7.27158 1.9863 7.2543L1.84121 7.22321L1.73067 7.20249C1.6374 7.17831 1.67194 7.05395 1.73067 7.01595C1.85183 6.89749 1.94505 6.75352 2.00357 6.59451C2.04306 6.49753 2.10318 6.41031 2.17975 6.33888C2.18944 6.33124 2.19764 6.32187 2.20393 6.31124C2.20393 6.28361 2.20393 6.24561 2.16593 6.29397C2.09301 6.35566 2.03412 6.43221 1.99321 6.51851C1.80793 6.82034 1.56067 7.07938 1.26778 7.27848L1.22978 7.30612C1.16532 7.34474 1.11142 7.3987 1.07285 7.46318C1.03427 7.52767 1.01224 7.60069 1.00869 7.67574C1.0033 7.72396 1.0033 7.77262 1.00869 7.82083C0.989858 7.94332 0.989858 8.06797 1.00869 8.19045C1.02942 8.225 1.04669 8.00046 1.12614 8.01773C1.17152 8.06026 1.2258 8.09212 1.28505 8.111C1.29848 8.11386 1.3112 8.11936 1.32249 8.12719C1.33377 8.13501 1.34339 8.14499 1.35078 8.15656C1.35818 8.16813 1.36319 8.18106 1.36555 8.19459C1.3679 8.20811 1.36755 8.22197 1.3645 8.23536V8.26645C1.34032 8.38045 1.3645 8.64298 1.29887 8.6948C1.23323 8.74662 1.0916 8.66026 1.05015 8.62917H1.03633C0.991422 8.60153 0.99833 8.66371 1.03633 8.6948C1.08545 8.7395 1.14474 8.77151 1.20905 8.78807C1.2442 8.79116 1.27939 8.78271 1.30931 8.76401C1.33922 8.74532 1.36224 8.71738 1.37486 8.68444C1.39306 8.57019 1.4023 8.45469 1.4025 8.33899C1.41465 8.28306 1.43564 8.22942 1.46468 8.18009C1.48535 8.13116 1.50959 8.08382 1.53722 8.03846C1.61368 7.94082 1.71876 7.86956 1.83776 7.83465C1.91338 7.80924 1.99293 7.79755 2.07266 7.8001C2.21203 7.82643 2.33582 7.90565 2.4181 8.02119C2.46058 8.08169 2.51693 8.13114 2.58244 8.16539C2.64795 8.19965 2.72071 8.21772 2.79463 8.21809C2.83263 8.19391 2.81882 8.149 2.82572 8.11446C2.83263 8.07991 2.84645 8.05573 2.85681 8.03155L2.99499 7.82083L3.10899 7.72065C3.18295 7.63922 3.26137 7.56195 3.34389 7.4892C3.50843 7.33231 3.70206 7.2091 3.91387 7.12649C4.1835 7.05744 4.46119 7.0249 4.73948 7.02977C4.95365 7.02977 5.18855 7.02977 5.40618 7.00213C5.52881 7.00044 5.65071 6.98303 5.7689 6.95031C5.8069 6.95031 5.85181 6.8985 5.90017 6.8985C5.94853 6.8985 5.94162 6.93304 5.97271 6.93304C6.0038 6.93304 6.03489 6.87086 6.06943 6.82941C6.15234 6.72232 6.25252 6.61869 6.33888 6.52542C6.40916 6.44342 6.49671 6.37798 6.59525 6.33378C6.69379 6.28959 6.80088 6.26774 6.90886 6.26979C6.95722 6.26979 7.04358 6.3147 7.05049 6.26979C7.0574 6.22488 6.99868 6.21452 6.97104 6.19034C6.92159 6.15084 6.88641 6.09625 6.87086 6.03489C6.85953 5.96459 6.86914 5.8925 6.8985 5.82762C6.92613 5.79308 7.00904 5.78617 7.08158 5.7689L7.47193 5.68254C7.56902 5.66043 7.66475 5.63275 7.75865 5.59963C7.8001 5.58236 7.85538 5.54091 7.91756 5.55818C7.97973 5.57545 8.04191 5.70326 8.07646 5.76199C8.18295 5.91929 8.25585 6.09686 8.29063 6.28361C8.31483 6.40447 8.31483 6.52892 8.29063 6.64978C8.28148 6.67873 8.26628 6.70541 8.24603 6.72804C8.22578 6.75068 8.20095 6.76874 8.17318 6.78105C8.03846 6.80868 7.98319 6.69123 7.86919 6.71196C7.86919 6.76032 7.90719 6.7845 7.93828 6.80868C7.9722 6.83333 8.00801 6.85527 8.04537 6.87432C8.19736 6.9365 8.39081 6.93995 8.39081 7.12303C8.39587 7.18755 8.3827 7.25218 8.35281 7.30957C8.32172 7.35448 8.24918 7.37521 8.19736 7.4063C8.14555 7.43739 8.10409 7.50648 8.03155 7.49266C7.95901 7.47884 7.98664 7.39939 7.9521 7.37175C7.91755 7.34412 7.83465 7.47193 7.7932 7.54102C7.76971 7.57745 7.74893 7.61555 7.73102 7.65502C7.73102 7.68956 7.68265 7.75174 7.71374 7.77592C7.74483 7.8001 7.81392 7.68265 7.86919 7.65156C7.91494 7.62768 7.96376 7.61025 8.01428 7.59975C8.15701 7.54709 8.29007 7.47122 8.40808 7.37521C8.55662 7.26812 8.68789 7.10576 8.91934 7.10231C9.09167 7.11399 9.26148 7.15004 9.42369 7.2094C9.58388 7.25702 9.74646 7.29622 9.91076 7.32685C9.97173 7.37922 10.0171 7.44733 10.042 7.52375C10.0766 7.59975 10.1249 7.65156 10.0835 7.74829C10.0835 7.81047 10.2148 7.85883 10.2044 7.93828C10.194 8.01773 10.0835 7.97628 10.0075 7.96246C9.93149 7.94864 9.89349 7.94519 9.88313 7.89337C9.87276 7.84156 9.96949 7.89337 10.0006 7.87265C10.0084 7.85836 10.0126 7.84232 10.0126 7.82601C10.0126 7.8097 10.0084 7.79366 10.0006 7.77938C10.0006 7.72411 9.90731 7.72411 9.84513 7.69647C9.79317 7.67631 9.74521 7.64707 9.7035 7.61011C9.67241 7.57211 9.6655 7.52029 9.63786 7.47884C9.61023 7.43739 9.46514 7.39594 9.35805 7.34412C9.25097 7.2923 9.23369 7.25085 9.11624 7.28885C9.08515 7.28885 9.06097 7.3303 9.02988 7.34757C8.96212 7.39355 8.88573 7.42528 8.80534 7.44084C8.70636 7.44519 8.60803 7.45907 8.51172 7.4823C8.43572 7.50993 8.339 7.56175 8.31827 7.62393C8.29754 7.68611 8.31827 7.70338 8.31827 7.74483C8.28882 7.81295 8.24244 7.87241 8.18355 7.91755C8.0472 8.046 7.86971 8.12189 7.68265 8.13173C7.56805 8.13584 7.45452 8.10835 7.35448 8.05228C7.27849 8.00391 7.23703 7.9141 7.12994 7.93828C7.12013 7.97097 7.11814 8.00552 7.12414 8.03913C7.13014 8.07273 7.14396 8.10445 7.16449 8.13173C7.18522 8.16282 7.25085 8.20773 7.24394 8.24918C7.23703 8.29063 7.12649 8.34245 7.09885 8.35627C6.93443 8.45379 6.75626 8.526 6.57033 8.57044C6.28624 8.65003 5.99084 8.68156 5.69636 8.66371C5.47616 8.64934 5.26214 8.58493 5.07059 8.47539C4.87903 8.36584 4.71499 8.21405 4.59094 8.03155C4.5633 7.99355 4.52185 7.90374 4.48385 7.89337C4.4066 7.88986 4.32935 7.90039 4.25586 7.92446C4.20059 7.94519 4.13841 7.99701 4.15223 8.03155C4.16604 8.06609 4.24549 8.03155 4.30422 8.03155C4.36295 8.03155 4.52185 8.10064 4.5253 8.15591C4.52876 8.21118 4.47349 8.19736 4.4804 8.22845C4.48731 8.25954 4.59785 8.28027 4.65657 8.31827C4.76961 8.39333 4.85064 8.50781 4.88385 8.63937C4.91707 8.77094 4.90008 8.91016 4.8362 9.02988C4.81202 9.06788 4.74639 9.09897 4.7533 9.1266C4.76021 9.15424 4.83966 9.1266 4.87075 9.14733C4.90184 9.16806 4.95365 9.28205 4.96056 9.32696C4.96562 9.43167 4.94916 9.53631 4.9122 9.63441C4.88802 9.70695 4.82238 9.84513 4.84657 9.91422C4.87075 9.9833 4.96402 9.97985 5.04001 9.9833C5.11131 9.98846 5.18289 9.98846 5.25419 9.9833C5.46902 9.96265 5.68534 9.96265 5.90017 9.9833C5.98998 10.0178 6.00725 10.1284 6.06253 10.2113C6.09527 10.2541 6.13106 10.2945 6.16961 10.3322C6.20761 10.3771 6.24216 10.4255 6.27325 10.46C6.30434 10.4946 6.40451 10.5464 6.36997 10.6051C6.33543 10.6638 6.21452 10.6051 6.19034 10.6051C6.16616 10.6051 6.10743 10.3564 5.99689 10.2838C5.96235 10.2631 5.92089 10.2527 5.88635 10.232C5.85181 10.2113 5.83453 10.1698 5.80344 10.1664C5.77235 10.1629 5.72745 10.2113 5.6929 10.2286H5.43382C5.3478 10.2394 5.26076 10.2394 5.17474 10.2286C5.1471 10.2286 5.12637 10.1837 5.09874 10.1768C5.02844 10.1591 4.95486 10.1591 4.88456 10.1768C4.85693 10.1768 4.85347 10.2562 4.81548 10.2666C4.77748 10.2769 4.62203 10.1526 4.61512 10.0835C4.60821 10.0144 4.64275 9.99712 4.64621 9.95221C4.63789 9.86334 4.61696 9.7761 4.58403 9.69313C4.58403 9.66895 4.56676 9.64131 4.55985 9.61368C4.54974 9.58786 4.54166 9.5613 4.53567 9.53423C4.53567 9.50659 4.53567 9.4755 4.51839 9.45132C4.51839 9.32005 4.59439 9.18878 4.44585 9.16806C4.38022 9.16806 4.31113 9.16806 4.22822 9.16806C4.15255 9.15814 4.0759 9.15814 4.00023 9.16806C3.96223 9.16806 3.94841 9.22678 3.92423 9.23369C3.85719 9.24931 3.78746 9.24931 3.72042 9.23369H3.6617L3.57188 9.19915H3.5477L3.49588 9.10242C3.33698 8.96079 3.30589 8.67407 3.19189 8.48408C3.15389 8.41845 3.08135 8.33554 3.01917 8.32518C2.95699 8.31481 2.83954 8.36318 2.76009 8.36663C2.65849 8.36741 2.55806 8.34496 2.46646 8.301C2.36974 8.25263 2.28338 8.15246 2.18665 8.09373C2.13501 8.05663 2.07618 8.03074 2.01393 8.01773C1.90328 8.00915 1.79287 8.03706 1.69958 8.09718C1.63243 8.13433 1.57364 8.18489 1.52686 8.24572C1.43704 8.38045 1.49231 8.59117 1.47504 8.78116C1.47504 8.89861 1.39559 9.04024 1.27123 9.05406C1.19993 9.05942 1.12871 9.04253 1.06742 9.0057C1.02942 8.98497 1.02942 9.06788 1.06742 9.08515C1.12136 9.11021 1.18085 9.12092 1.24014 9.11624C1.29541 9.11624 1.39904 9.03333 1.38868 9.07133C1.37139 9.10772 1.34463 9.13879 1.3112 9.16128C1.27777 9.18377 1.23891 9.19685 1.19869 9.19915C1.14956 9.19784 1.10127 9.18606 1.05706 9.1646C1.05706 9.1646 1.05706 9.19569 1.05706 9.22678V9.24405C1.1856 9.26981 1.31904 9.25282 1.43704 9.19569C1.47504 9.25096 1.49922 9.31314 1.53377 9.37187C1.56831 9.43059 1.62704 9.4755 1.62358 9.54805C1.49922 9.57913 1.49577 9.4755 1.38177 9.49623C1.35668 9.50396 1.33369 9.51732 1.31453 9.53528C1.29538 9.55323 1.28057 9.57532 1.27123 9.59986C1.2531 9.62267 1.24145 9.64993 1.23748 9.67879C1.23352 9.70765 1.23739 9.73704 1.24869 9.76389C1.26 9.79074 1.27832 9.81405 1.30173 9.83138C1.32515 9.84871 1.35279 9.85943 1.38177 9.8624C1.50613 9.90731 1.53722 9.79331 1.6754 9.82094C1.68297 9.86754 1.69692 9.91287 1.71685 9.95567C1.62013 10.1664 1.51995 10.3806 1.41632 10.5947C1.4147 10.6016 1.4147 10.6087 1.41632 10.6155C1.42502 10.632 1.43197 10.6493 1.43704 10.6673C1.47159 10.5982 1.50959 10.5256 1.53722 10.4669C1.56486 10.4082 1.61667 10.2493 1.67885 10.3115C1.66636 10.3803 1.64304 10.4468 1.60976 10.5084L1.4785 10.7778C1.47659 10.7822 1.47561 10.7869 1.47561 10.7916C1.47561 10.7964 1.47659 10.8011 1.4785 10.8055C1.488 10.8232 1.49608 10.8417 1.50268 10.8607C1.5994 10.6535 1.66849 10.4531 1.76176 10.2424C1.77578 10.1974 1.79551 10.1545 1.82048 10.1146C1.87576 10.0766 1.89648 10.1768 1.91721 10.2182C2.04502 10.4807 2.16247 10.6915 2.31101 10.9436C2.34556 11.0024 2.38701 11.0334 2.37665 11.1198C2.33388 11.238 2.25093 11.3373 2.14231 11.4004C2.03369 11.4636 1.90632 11.4865 1.78249 11.4653C1.78698 11.4781 1.79404 11.4898 1.80321 11.4998C1.85144 11.5049 1.90007 11.5049 1.9483 11.4998C2.07366 11.4772 2.19033 11.4204 2.28543 11.3357C2.38053 11.2509 2.45036 11.1416 2.48719 11.0196C2.57272 10.7977 2.62847 10.5654 2.653 10.3287C2.7117 9.89277 2.69534 9.44997 2.60464 9.01952C2.58391 8.91934 2.50792 8.71207 2.62882 8.69826C2.74973 8.68444 2.73245 8.78116 2.75664 8.86407C2.87961 9.30777 2.91827 9.77061 2.87063 10.2286C2.82572 10.7191 2.71864 11.2649 2.42846 11.5171C2.36301 11.573 2.29246 11.6228 2.21774 11.6656C2.15358 11.6971 2.08476 11.7181 2.01393 11.7278C1.95175 11.7278 1.95175 11.6967 2.01393 11.6863H2.04502C2.13202 11.6655 2.21415 11.628 2.28683 11.5758C2.36013 11.51 2.42405 11.4344 2.47683 11.3513C2.50792 11.2891 2.52864 11.2614 2.50446 11.2511C2.48028 11.2407 2.42501 11.3443 2.38701 11.3893C2.26897 11.5226 2.10733 11.6095 1.93103 11.6345H1.87576V11.6552C1.88247 11.6709 1.89056 11.6859 1.89994 11.7002L1.92066 11.7382C1.92502 11.7401 1.92973 11.741 1.93448 11.741C1.93924 11.741 1.94394 11.7401 1.9483 11.7382C2.05864 11.728 2.16568 11.6951 2.26265 11.6414C2.53177 11.4619 2.72208 11.1863 2.79463 10.8711C2.84556 11.0589 2.93559 11.2338 3.05881 11.3845C3.18204 11.5351 3.33569 11.658 3.5097 11.7451C3.64428 11.7951 3.78979 11.8082 3.93114 11.7831C4.08562 11.7507 4.23065 11.6834 4.35517 11.5864C4.47969 11.4894 4.58042 11.3653 4.64966 11.2234C4.7772 10.9941 4.86261 10.7437 4.90184 10.4842C4.90184 10.4013 4.92947 10.3184 4.93984 10.232C5.1123 10.2186 5.28554 10.2186 5.458 10.232C5.51327 10.232 5.62381 10.232 5.63072 10.308C5.6228 10.3398 5.60998 10.3701 5.59272 10.3978C5.55127 10.4807 5.51673 10.5775 5.47182 10.6535C5.42691 10.7295 5.24382 10.8089 5.2611 11.0196C5.2611 11.0956 5.32328 11.1544 5.31982 11.2234C5.31637 11.2925 5.19546 11.3789 5.18165 11.4756C5.16783 11.5723 5.19892 11.5827 5.18165 11.6276C5.16437 11.6725 5.0642 11.7554 5.09874 11.8314C5.13328 11.9074 5.23692 11.8625 5.31637 11.8625H5.87253C5.94853 11.8625 6.07634 11.8625 6.10052 11.8383C6.10573 11.8276 6.10843 11.8158 6.10843 11.8038C6.10843 11.7918 6.10573 11.78 6.10052 11.7692H6.41488C6.50124 11.7692 6.67051 11.7969 6.67741 11.7174C6.68432 11.638 6.60487 11.6172 6.57724 11.5827C6.54412 11.5368 6.5032 11.497 6.45633 11.4653C6.41142 11.4445 6.35615 11.4445 6.32852 11.3996C6.30088 11.3547 6.26979 11.3063 6.26979 11.2545C6.26979 11.2027 6.30779 11.1544 6.32506 11.0991C6.34744 11.0334 6.35911 10.9646 6.35961 10.8953C6.38033 10.8365 6.48742 10.8607 6.53578 10.8296C6.53578 10.726 6.4356 10.6155 6.43215 10.5118C6.43878 10.456 6.45894 10.4026 6.49088 10.3564C6.50989 10.3079 6.5318 10.2606 6.55651 10.2148C6.59796 10.1457 6.68432 10.004 6.76032 10.0109C6.83632 10.0178 6.83977 10.1008 6.87432 10.1457C6.90886 10.1906 6.9814 10.1768 6.98831 10.2217C6.99522 10.2666 6.95722 10.2735 6.95031 10.308C6.93579 10.3357 6.9282 10.3665 6.9282 10.3978C6.9282 10.4291 6.93579 10.4599 6.95031 10.4876C7.14862 10.5464 7.35501 10.5732 7.56175 10.5671C7.58247 10.5671 7.56175 10.5256 7.58593 10.5118C7.687 10.5221 7.78885 10.5221 7.88992 10.5118C8.00046 10.5118 8.16282 10.5118 8.17664 10.4669C8.19046 10.422 8.13864 10.3737 8.111 10.3287C8.08711 10.2822 8.05688 10.2392 8.02119 10.2009C7.97973 10.1664 7.9141 10.156 7.88301 10.1146C7.85192 10.0731 7.7932 9.90385 7.71374 9.83476C7.63429 9.76567 7.64811 9.80713 7.61011 9.77949C7.76209 9.75627 7.9161 9.74932 8.06955 9.75877C8.13173 9.77949 8.17664 9.83131 8.23536 9.84858C8.29409 9.86585 8.30791 9.84858 8.33554 9.86931C8.36318 9.89003 8.33554 9.95567 8.35627 9.99712C8.36188 10.0306 8.37467 10.0624 8.39375 10.0904C8.41284 10.1184 8.43776 10.142 8.46681 10.1595C8.54459 10.1722 8.62393 10.1722 8.70171 10.1595C8.82262 10.1595 8.96425 10.1595 8.98497 10.118C9.0057 10.0766 8.95734 9.99712 8.92625 9.95221C8.90085 9.90188 8.86696 9.85631 8.82607 9.81749C8.73971 9.74495 8.67407 9.75531 8.62226 9.6724C8.6106 9.64151 8.59675 9.6115 8.5808 9.58259C8.54128 9.54594 8.49715 9.51459 8.44954 9.48932C8.4219 9.47205 8.40118 9.44441 8.37354 9.43405C8.32563 9.42464 8.27636 9.42464 8.22845 9.43405C8.14555 9.43405 8.05919 9.45478 7.96592 9.45823C7.87265 9.46168 7.78974 9.45823 7.69993 9.45823C7.52305 9.47603 7.34482 9.47603 7.16794 9.45823C7.11958 9.45823 7.0574 9.41332 7.0574 9.3926C7.0574 9.37187 7.15413 9.29587 7.18176 9.26824C7.26781 9.18571 7.34749 9.0968 7.42012 9.00224C7.46157 8.95388 7.49266 8.89516 7.53066 8.85716C7.56866 8.81916 7.66884 8.73625 7.71374 8.73625C7.75865 8.73625 7.78629 8.78116 7.82429 8.81571C7.86228 8.85025 7.90719 8.87443 7.93828 8.89861C8.00983 8.96072 8.09015 9.01193 8.17664 9.05061L8.45299 9.1646C8.54746 9.1928 8.63629 9.23722 8.71553 9.29587C8.85544 9.4476 8.94685 9.63765 8.97807 9.84167C8.97317 9.93071 8.99352 10.0193 9.03679 10.0973C9.06652 10.127 9.10222 10.1501 9.14152 10.1649C9.18082 10.1798 9.22283 10.1862 9.26478 10.1837C9.32351 10.1837 9.37878 10.1284 9.44441 10.1077C9.54671 10.0989 9.64956 10.0989 9.75186 10.1077C9.84269 10.1008 9.93392 10.1008 10.0248 10.1077C10.1109 10.1239 10.1938 10.1543 10.27 10.1975C10.3357 10.2286 10.4704 10.2597 10.4842 10.3184C10.498 10.3771 10.46 10.4013 10.4531 10.4358C10.442 10.4882 10.4481 10.5427 10.4704 10.5913C10.4911 10.6224 10.5671 10.6431 10.6258 10.6638C10.7145 10.6958 10.808 10.7122 10.9022 10.7122C10.9713 10.7122 11.0749 10.7122 11.0922 10.6673C11.1094 10.6224 11.0542 10.5153 11.0265 10.4669C10.9989 10.4186 10.8676 10.3564 10.8331 10.2769C10.7985 10.1975 10.8331 10.1249 10.8089 10.0593C10.7571 9.90385 10.5982 9.89349 10.3978 9.88658H10.0869L9.78295 9.86585C9.68536 9.86979 9.58794 9.85454 9.49623 9.82094C9.41571 9.75369 9.35385 9.66685 9.3166 9.56877C9.30449 9.50718 9.30449 9.44382 9.3166 9.38223C9.35904 9.2413 9.37198 9.09313 9.3546 8.94697C9.3546 8.8917 9.32005 8.85025 9.31314 8.79498C9.30919 8.72929 9.31859 8.66348 9.34078 8.60153C9.35805 8.54971 9.38914 8.4599 9.44096 8.46335C9.49277 8.46681 9.48932 8.50826 9.51005 8.52553C9.53077 8.54281 9.57913 8.56699 9.60332 8.60153C9.62497 8.6357 9.64128 8.67298 9.65168 8.71207C9.65869 8.7533 9.67271 8.79303 9.69313 8.82952C9.73459 8.88134 9.84513 8.88825 9.8244 8.96079C9.80367 9.03333 9.74149 8.99879 9.71731 9.02988C9.7027 9.05941 9.69509 9.09192 9.69509 9.12488C9.69509 9.15783 9.7027 9.19034 9.71731 9.21987C9.73804 9.25787 9.80367 9.28896 9.84858 9.3166L9.98676 9.40641C10.0902 9.44802 10.1833 9.51167 10.2597 9.59295C10.2597 9.7484 10.2873 9.85894 10.4807 9.83822C10.5947 9.83822 10.7364 9.80713 10.8849 9.80022C11.0335 9.79331 11.1854 9.80022 11.296 9.80022C11.3396 9.80937 11.3823 9.82208 11.4238 9.83822C11.4929 9.83822 11.5654 9.83822 11.5758 9.88312C11.5862 9.92803 11.5378 9.94876 11.5309 9.98676C11.529 10.0239 11.5361 10.0609 11.5518 10.0946C11.5674 10.1283 11.5911 10.1577 11.6207 10.1802C11.67 10.1956 11.7211 10.2049 11.7727 10.2078C11.8761 10.2181 11.9802 10.2181 12.0836 10.2078C12.2218 10.1871 12.1285 10.0973 12.0836 10.0317C12.0387 9.96603 12.0352 9.94185 12.0041 9.90385C11.9731 9.86585 11.8867 9.83822 11.8556 9.79331C11.8411 9.7646 11.8295 9.73451 11.8211 9.70349C11.7943 9.65019 11.7567 9.60311 11.7105 9.56532C11.5607 9.49916 11.3938 9.48223 11.2338 9.51696C11.086 9.54572 10.9348 9.55386 10.7847 9.54114C10.7255 9.51996 10.6717 9.48611 10.6269 9.44195C10.5822 9.3978 10.5476 9.34441 10.5257 9.28551C10.5257 9.19915 10.5913 9.1266 10.5982 9.04715C10.6051 8.9677 10.5222 8.75698 10.6327 8.70171C10.6642 8.69 10.6966 8.68076 10.7295 8.67407C10.8435 8.63608 10.9575 8.55662 11.0749 8.5808C11.1924 8.60499 11.0991 8.75698 11.144 8.84334C11.144 8.87098 11.2062 8.90552 11.2407 8.9297C11.2753 8.95388 11.334 8.97461 11.3305 9.02297C11.3271 9.07133 11.2787 9.06097 11.2614 9.08515C11.2295 9.13553 11.2149 9.19498 11.22 9.25442C11.2901 9.32178 11.3737 9.37358 11.4653 9.40641C11.5551 9.44441 11.7105 9.50659 11.7796 9.47896C11.8487 9.45132 11.8003 9.32005 11.7796 9.24405C11.7649 9.20218 11.7464 9.16171 11.7243 9.12315C11.6989 9.08644 11.6802 9.04551 11.6691 9.00224C11.6691 8.95734 11.6691 8.89516 11.6691 8.84334C11.6691 8.79152 11.5827 8.75698 11.5482 8.70516C11.5268 8.66796 11.5094 8.62859 11.4963 8.58771C11.4549 8.51172 11.372 8.4599 11.3582 8.3839C11.5654 8.40117 11.9281 8.3839 11.9765 8.41154C12.0249 8.43917 12.0594 8.54281 12.0801 8.62226C12.1009 8.70171 12.201 8.67407 12.1907 8.72935C12.1803 8.78462 12.1354 8.75698 12.1043 8.78116C12.088 8.82933 12.088 8.88153 12.1043 8.9297C12.1285 8.98152 12.2701 9.04715 12.315 9.07133C12.36 9.09551 12.4981 9.20606 12.5499 9.18533C12.6018 9.1646 12.5914 9.11624 12.5949 9.06442C12.6058 8.90984 12.5906 8.75453 12.5499 8.60499C12.5109 8.54518 12.4618 8.49259 12.4049 8.44954C12.356 8.40271 12.3099 8.35312 12.2667 8.301C12.4739 8.21118 12.6536 7.99355 12.9576 8.08682C12.8747 8.19045 12.9576 8.24572 13.037 8.29063C13.1765 8.3758 13.3337 8.4278 13.4965 8.44263C13.5517 8.4219 13.4965 8.21463 13.4965 8.09718C13.5966 8.06264 13.6726 7.99701 13.7866 8.00737C13.8805 8.02312 13.9667 8.06923 14.0319 8.13864C14.0595 8.16973 14.0664 8.22154 14.101 8.25609C14.1355 8.29063 14.2426 8.31136 14.2599 8.38045C14.2362 8.40524 14.2198 8.4361 14.2124 8.46961C14.2051 8.50313 14.2072 8.53802 14.2184 8.57044C14.3396 8.65856 14.4867 8.70356 14.6364 8.69826C14.6675 8.68098 14.6364 8.44263 14.5915 8.35281C14.5466 8.263 14.5224 8.29063 14.5017 8.24572C14.481 8.20082 14.4533 8.06955 14.4015 8.01428C14.3393 7.97116 14.2664 7.94605 14.1908 7.94173C14.1206 7.92661 14.053 7.90099 13.9904 7.86574C13.9293 7.81462 13.8633 7.76951 13.7935 7.73101C13.5897 7.65847 13.5794 7.71029 13.5621 7.67229C13.5448 7.63429 13.6208 7.59629 13.6588 7.56866C13.6968 7.54102 13.7245 7.4892 13.7625 7.46502C13.8111 7.44136 13.862 7.42284 13.9144 7.40975C13.9644 7.38567 14.0165 7.36602 14.0699 7.35103C14.2219 7.35103 14.2841 7.48575 14.3877 7.51684C14.4913 7.54793 14.5846 7.46502 14.6295 7.49611C14.6744 7.5272 14.6468 7.70338 14.7159 7.74829C14.7902 7.77883 14.8714 7.78839 14.9508 7.77592C15.0164 7.77592 15.1235 7.77592 15.1339 7.71374C15.1442 7.65156 15.0959 7.59284 15.0717 7.55484M6.90886 4.18677C6.92883 4.18665 6.94839 4.19251 6.96501 4.20359C6.98163 4.21467 6.99455 4.23047 7.00213 4.24895C7.00213 4.33531 6.91577 4.37676 6.88468 4.43203C6.81214 4.55294 6.83977 4.69802 6.79487 4.86038C6.77414 4.92947 6.71196 4.99856 6.70505 5.06765C6.70923 5.15641 6.72313 5.24445 6.7465 5.33019C6.76378 5.42346 6.79141 5.51327 6.79832 5.58236C6.80523 5.65145 6.79832 5.72399 6.69814 5.7309C6.66944 5.65203 6.64635 5.57122 6.62905 5.48909C6.58825 5.37119 6.56611 5.24765 6.56342 5.12292C6.57694 4.94775 6.60701 4.77426 6.65323 4.60476C6.6747 4.52823 6.70124 4.45322 6.73269 4.38022C6.76032 4.31458 6.81905 4.19022 6.88468 4.18677M6.68087 4.26277L6.66014 4.31804C6.58254 4.48047 6.53123 4.65421 6.50815 4.83275C6.50815 4.94674 6.50815 5.0711 6.50815 5.19546C6.50589 5.3709 6.51513 5.5463 6.53578 5.72054C6.49088 5.7689 6.41142 5.77235 6.34233 5.78963C5.84357 5.91953 5.33705 6.01761 4.82584 6.08325C4.34803 6.11068 3.86865 6.08752 3.3957 6.01416L3.17808 5.99344H3.06408L3.04335 5.97616C3.04335 5.97616 3.04335 5.95198 3.06408 5.92435C3.17212 5.79892 3.26811 5.6636 3.3508 5.52018C3.40833 5.40818 3.45908 5.29282 3.50279 5.17474C3.5207 5.14848 3.54593 5.12806 3.57534 5.11601C3.70313 5.05463 3.84533 5.02953 3.98641 5.04347C4.26622 5.04347 4.33186 4.98474 4.48385 4.9882C4.67105 5.02287 4.86448 4.99367 5.0331 4.90529C5.24526 4.76205 5.47832 4.65251 5.72399 4.58057C5.86562 4.58057 5.9658 4.67384 6.06943 4.66693C6.13519 4.66029 6.1994 4.64278 6.25943 4.61512C6.28706 4.61512 6.33197 4.61512 6.35615 4.5253C6.38033 4.43549 6.3976 4.41131 6.38033 4.37331L6.69469 4.28695M6.18343 6.0418L6.48051 5.98998C6.48051 5.98998 6.50469 5.98998 6.50124 6.01762C6.49778 6.04525 6.42179 6.05907 6.38379 6.06253C5.82683 6.17007 5.26388 6.2439 4.69803 6.28361H4.39749C4.29512 6.29089 4.19227 6.28037 4.0935 6.25252C4.3048 6.23323 4.51696 6.22515 4.72912 6.22834C4.93062 6.22315 5.13149 6.20352 5.33019 6.16961C5.62036 6.1247 5.90708 6.08325 6.18343 6.03489M5.62727 6.10398C5.62727 6.08671 5.68599 6.07634 5.72054 6.06598C5.88635 6.02453 6.06598 5.98653 6.24561 5.94853C6.32369 5.92704 6.40342 5.91202 6.48397 5.90362C6.48749 5.91838 6.48749 5.93377 6.48397 5.94853C6.21452 6.01071 5.62727 6.1178 5.62727 6.10398ZM3.05717 6.15234C3.07721 6.14515 3.09589 6.13464 3.11244 6.12125H3.33353C3.38189 6.12125 3.47516 6.12125 3.4717 6.14543C3.46825 6.16961 3.19535 6.18343 3.05717 6.17307H3.02263C3.02263 6.15579 3.05026 6.15234 3.05717 6.14889M3.23335 6.06253H3.13662C3.13348 6.04539 3.12502 6.02967 3.11244 6.01762C3.28371 6.01937 3.45416 6.0414 3.62024 6.08325C3.62024 6.11089 3.57188 6.10398 3.5477 6.10398C3.44752 6.10398 3.3508 6.0798 3.23335 6.06943M2.98117 6.28361L3.24371 6.31124C3.39916 6.31124 3.72388 6.33888 3.72388 6.3527C3.72388 6.36652 3.64097 6.37342 3.59952 6.37688H3.4268L3.15044 6.34924L3.02263 6.33888H2.96736V6.3147M3.65824 4.58748H3.81024C3.85669 4.59383 3.90204 4.60662 3.94496 4.62548C3.96234 4.6333 3.98118 4.63734 4.00023 4.63734C4.01929 4.63734 4.03812 4.6333 4.0555 4.62548C4.14234 4.61018 4.23119 4.61018 4.31804 4.62548C4.38639 4.63802 4.45582 4.6438 4.5253 4.64275C4.66932 4.61883 4.81134 4.58419 4.9502 4.53912C5.05383 4.51149 5.17819 4.49421 5.27837 4.47349C5.34839 4.45873 5.41757 4.44028 5.48564 4.41822C5.60969 4.35584 5.73919 4.30496 5.87253 4.26622C5.94507 4.26622 6.07634 4.26622 6.10743 4.26622C6.15093 4.2725 6.19373 4.28291 6.23525 4.29731C6.23525 4.29731 6.27325 4.33531 6.23525 4.35604C6.20401 4.37578 6.16845 4.38763 6.13161 4.39058C6.11679 4.3876 6.10153 4.3876 6.08671 4.39058C6.05344 4.42468 6.01635 4.45481 5.97616 4.4804C5.9648 4.48566 5.95242 4.48838 5.93989 4.48838C5.92737 4.48838 5.91499 4.48566 5.90362 4.4804L5.78963 4.42167C5.78074 4.4182 5.77088 4.4182 5.76199 4.42167C5.76199 4.42167 5.56163 4.4804 5.50636 4.50803C5.45109 4.53567 5.35091 4.60821 5.26455 4.65657C5.1051 4.7649 4.92098 4.83142 4.72912 4.85002C4.65124 4.85845 4.57315 4.83614 4.51149 4.78784C4.49985 4.77966 4.48598 4.77528 4.47176 4.77528C4.45754 4.77528 4.44367 4.77966 4.43203 4.78784C4.26842 4.84676 4.09417 4.87031 3.92078 4.85693C3.75497 4.85693 3.82751 4.74293 3.77224 4.74639C3.71697 4.74984 3.56843 4.86729 3.54079 4.88111C3.52883 4.89156 3.51349 4.89731 3.49761 4.89731C3.48173 4.89731 3.46639 4.89156 3.45443 4.88111C3.43501 4.85532 3.42523 4.82354 3.4268 4.7913C3.4268 4.77057 3.4268 4.75675 3.4268 4.74984C3.4576 4.7463 3.48716 4.73566 3.51316 4.71875C3.51316 4.69802 3.55806 4.6773 3.56497 4.66003C3.5682 4.65237 3.56987 4.64415 3.56987 4.63585C3.56987 4.62754 3.5682 4.61932 3.56497 4.61166C3.56497 4.61166 3.56497 4.59094 3.56497 4.58748C3.57498 4.57525 3.58765 4.56546 3.60202 4.55887C3.61639 4.55229 3.63208 4.54908 3.64788 4.54948M3.40607 4.26622C3.44752 4.26622 3.44752 4.22822 3.46825 4.2075C3.49939 4.21666 3.52785 4.23326 3.55115 4.25586C3.57534 4.29386 3.60643 4.33531 3.5857 4.37676C3.56497 4.41822 3.53734 4.37676 3.53388 4.41131C3.53043 4.44585 3.50625 4.4804 3.48897 4.50803C3.4717 4.53567 3.54425 4.5253 3.5477 4.55294C3.55538 4.56913 3.55937 4.58683 3.55937 4.60476C3.55937 4.62268 3.55538 4.64038 3.5477 4.65657C3.50413 4.675 3.45629 4.68098 3.40952 4.67384C3.36408 4.66914 3.31904 4.66106 3.2748 4.64966C3.27046 4.64866 3.26595 4.64859 3.26159 4.64948C3.25722 4.65037 3.2531 4.65218 3.24949 4.65481C3.24589 4.65743 3.24289 4.66079 3.2407 4.66467C3.23851 4.66855 3.23718 4.67286 3.2368 4.6773C3.23837 4.69569 3.23837 4.71418 3.2368 4.73257C3.23518 4.74287 3.23518 4.75336 3.2368 4.76366C3.2295 4.79014 3.21906 4.81565 3.20571 4.83966H3.15735C3.14831 4.83715 3.13876 4.83715 3.12971 4.83966C3.12971 4.85693 3.12971 4.88456 3.10899 4.89838C3.08518 4.90438 3.06025 4.90438 3.03644 4.89838C3.00607 4.88749 2.97797 4.8711 2.95354 4.85002C2.94011 4.83536 2.92851 4.81912 2.91899 4.80166C2.87229 4.73431 2.82031 4.67078 2.76354 4.61166V4.56676C2.76832 4.54014 2.77967 4.51514 2.79657 4.49403C2.81346 4.47292 2.83535 4.45636 2.86027 4.44585C2.91438 4.4326 2.97069 4.43099 3.02547 4.44111C3.08026 4.45123 3.13227 4.47286 3.17808 4.50458L3.1608 4.39749C3.14417 4.33761 3.14305 4.27448 3.15756 4.21404C3.17206 4.15361 3.20171 4.09786 3.24371 4.05205C3.27527 4.01656 3.31586 3.99029 3.36116 3.97605C3.38168 3.96922 3.40362 3.96786 3.42482 3.9721C3.44602 3.97634 3.46575 3.98604 3.48207 4.00023C3.4941 4.01023 3.50353 4.02299 3.50954 4.03743C3.51556 4.05187 3.51799 4.06755 3.51661 4.08314C3.5193 4.08978 3.5193 4.09722 3.51661 4.10386C3.48897 4.13495 3.44407 4.10386 3.40952 4.1315C3.37238 4.15707 3.33971 4.18858 3.3128 4.22477C3.35601 4.22607 3.39842 4.23667 3.43716 4.25586M2.615 4.28349C2.5864 4.2642 2.56654 4.23441 2.55973 4.20059C2.52173 4.06241 2.615 3.96223 2.71173 3.87242L2.76354 3.80678C2.9143 3.7448 3.07836 3.72221 3.24026 3.74115C3.3128 3.76187 3.40261 3.74115 3.45098 3.8206C3.49934 3.90005 3.39225 3.86551 3.35771 3.87587C3.20907 3.93676 3.07662 4.03137 2.97081 4.15223C2.92218 4.2086 2.85948 4.25109 2.78909 4.27536C2.7187 4.29963 2.64314 4.30482 2.5701 4.2904M2.54937 4.66693C2.57242 4.6474 2.60211 4.6375 2.63228 4.6393C2.651 4.63904 2.66927 4.64513 2.68409 4.65657C2.68409 4.65657 2.71518 4.65657 2.76354 4.75675C2.76354 4.75675 2.78427 4.80166 2.79118 4.81548C2.79809 4.82929 2.81191 4.86038 2.81882 4.87075C2.84494 4.90615 2.87933 4.93461 2.91899 4.95365L2.97081 4.97783H3.02263C3.03739 4.98136 3.05277 4.98136 3.06753 4.97783C3.121 4.9733 3.17115 4.95006 3.20917 4.9122C3.22594 4.89658 3.241 4.87921 3.25407 4.86038C3.27394 4.83665 3.28706 4.80802 3.29207 4.77748C3.29207 4.75675 3.31625 4.7533 3.33007 4.7533C3.33007 4.7533 3.35425 4.84311 3.35771 4.86038C3.3868 4.96667 3.3868 5.07882 3.35771 5.1851C3.30814 5.36866 3.2198 5.53947 3.09862 5.68599C3.04335 5.74472 2.96736 5.77926 3.01226 5.68599C3.01226 5.6549 3.0399 5.62381 3.04681 5.60309C3.06001 5.56357 3.0704 5.52316 3.0779 5.48218C3.0779 5.44764 3.05717 5.458 3.04335 5.48218C3.00036 5.59917 2.93056 5.70447 2.83954 5.78963C2.80272 5.8199 2.75868 5.84013 2.71173 5.84835H2.615C2.57904 5.85933 2.54196 5.86628 2.50446 5.86908C2.50446 5.86908 2.48719 5.86908 2.50446 5.84144C2.52173 5.81381 2.55628 5.78963 2.59773 5.73435C2.63918 5.67908 2.67373 5.63072 2.69446 5.59618C2.75607 5.49681 2.80482 5.39002 2.83954 5.27837C2.83954 5.23001 2.83954 5.23001 2.82227 5.27837C2.76697 5.39001 2.70347 5.49739 2.63228 5.59963C2.56152 5.6872 2.48538 5.77026 2.40428 5.84835C2.38643 5.85866 2.36618 5.86409 2.34556 5.86409C2.32494 5.86409 2.30469 5.85866 2.28683 5.84835C2.21631 5.82326 2.14811 5.79205 2.08302 5.75508C2.08302 5.75508 2.05884 5.72054 2.08302 5.70672C2.30094 5.50003 2.49345 5.2681 2.65646 5.01583C2.67849 4.96963 2.68572 4.91776 2.67718 4.86729C2.67207 4.80279 2.64528 4.74192 2.60119 4.69457C2.57786 4.6772 2.55365 4.66106 2.52864 4.64621C2.52644 4.64426 2.52467 4.64187 2.52346 4.63919C2.52225 4.63651 2.52163 4.6336 2.52163 4.63066C2.52163 4.62772 2.52225 4.62482 2.52346 4.62214C2.52467 4.61946 2.52644 4.61706 2.52864 4.61512M2.31447 6.10398C2.20393 6.0798 2.12102 6.04525 2.01739 6.03144L1.69267 5.99344C1.64858 5.99202 1.60566 5.97891 1.56831 5.95544L1.4785 5.90017C1.45777 5.90017 1.39214 5.8518 1.40941 5.79653C1.42796 5.74173 1.45107 5.68858 1.4785 5.63763C1.50109 5.58452 1.52646 5.53263 1.55449 5.48218C1.60631 5.42346 1.77558 5.30946 1.79976 5.26455C1.81124 5.1923 1.83095 5.12161 1.85848 5.05383C1.90075 4.95498 1.97178 4.87115 2.06235 4.81323C2.15292 4.75532 2.25883 4.72601 2.36628 4.72912C2.44919 4.72912 2.653 4.75675 2.60119 4.96402C2.59489 4.99899 2.58324 5.03278 2.56664 5.06419C2.5242 5.13487 2.47441 5.20087 2.4181 5.2611C2.38503 5.29776 2.34448 5.3269 2.29919 5.34656C2.25391 5.36623 2.20493 5.37596 2.15556 5.37509C2.13484 5.37509 2.12102 5.37509 2.11411 5.40273C2.0821 5.48751 2.02707 5.56169 1.95521 5.6169C1.90785 5.65489 1.85556 5.68627 1.79976 5.71017C1.84942 5.72638 1.89789 5.746 1.94484 5.7689C2.03811 5.81035 2.19356 5.89671 2.2592 5.92089C2.3239 5.94965 2.39264 5.96829 2.46301 5.97616C2.53348 5.97046 2.60303 5.95655 2.67027 5.93471C2.69544 5.93065 2.7211 5.93065 2.74627 5.93471H2.83263C2.84217 5.93571 2.8514 5.93868 2.85972 5.94344C2.86805 5.9482 2.87529 5.95464 2.881 5.96235C2.90172 5.98307 2.9259 6.01416 2.95008 6.01762L3.00881 6.03834L3.04335 6.05562C3.04693 6.05777 3.04989 6.0608 3.05194 6.06444C3.054 6.06807 3.05508 6.07217 3.05508 6.07634C3.05508 6.08052 3.054 6.08462 3.05194 6.08825C3.04989 6.09188 3.04693 6.09492 3.04335 6.09707C3.02636 6.10146 3.00853 6.10146 2.99154 6.09707H2.91554C2.89314 6.08944 2.86885 6.08944 2.84645 6.09707C2.82227 6.11434 2.80845 6.15234 2.70827 6.12816C2.60809 6.10398 2.56664 6.08325 2.5321 6.0798C2.4629 6.10154 2.38971 6.10744 2.31792 6.09707M1.33341 8.0281C1.25249 8.01608 1.1792 7.97366 1.12849 7.90947C1.07778 7.84527 1.05347 7.76415 1.06051 7.68265C1.06611 7.59847 1.09319 7.51713 1.13914 7.44638C1.1851 7.37563 1.24841 7.31783 1.32305 7.27848C1.42301 7.24476 1.52881 7.23183 1.63395 7.24049C1.75103 7.25056 1.86677 7.27255 1.97939 7.30612C2.05043 7.31609 2.12252 7.31609 2.19356 7.30612C2.25414 7.29858 2.31415 7.28705 2.37319 7.27158C2.38378 7.26875 2.39502 7.2696 2.40506 7.27399C2.4151 7.27838 2.42336 7.28606 2.42846 7.29576C2.42846 7.31648 2.40774 7.34066 2.39047 7.35448C2.33622 7.39099 2.27274 7.41135 2.20738 7.41321C2.13077 7.41829 2.05383 7.4113 1.97939 7.39248C1.91375 7.39248 1.68922 7.3303 1.63395 7.32339C1.54655 7.31417 1.45845 7.33227 1.38177 7.37521C1.3233 7.41363 1.27407 7.46454 1.23763 7.52427C1.20119 7.58401 1.17846 7.65108 1.17105 7.72065C1.16996 7.75816 1.1775 7.79541 1.19307 7.82954C1.20864 7.86368 1.23183 7.89379 1.26087 7.91755C1.28713 7.94299 1.32121 7.95881 1.35759 7.96246C1.37131 7.95963 1.38546 7.9597 1.39915 7.96267C1.41283 7.96565 1.42574 7.97146 1.43704 7.97973C1.47159 8.00391 1.43704 8.035 1.43704 8.04537C1.43704 8.05573 1.40941 8.06609 1.34377 8.04537M1.70994 7.81738H1.68576C1.63306 7.84525 1.57745 7.86726 1.51995 7.88301C1.46198 7.88937 1.40356 7.87598 1.35414 7.84501C1.31268 7.81738 1.31614 7.73447 1.3265 7.68265C1.35068 7.57557 1.51649 7.3683 1.64085 7.38903C1.74618 7.4053 1.85011 7.42955 1.95175 7.46157H1.98975C2.03466 7.47884 2.26265 7.54102 2.12102 7.65502C2.06504 7.68872 2.00456 7.7143 1.94139 7.73101C1.86104 7.7415 1.78289 7.76483 1.70994 7.8001M6.10743 6.56687C5.99316 6.72258 5.82829 6.83371 5.64108 6.88122C5.45675 6.90833 5.2711 6.92563 5.08492 6.93304C4.88802 6.95031 4.68766 6.95722 4.50112 6.97449C4.30748 6.97986 4.11457 7.00065 3.92423 7.03667C3.83762 7.06153 3.75416 7.09631 3.67551 7.14031L3.52697 7.24394C3.4717 7.24394 3.45098 7.09885 3.48207 7.01595C3.51468 6.95199 3.52903 6.88027 3.52352 6.80868C3.51719 6.73388 3.49605 6.66107 3.46134 6.59451C3.46134 6.56687 3.46134 6.53924 3.43025 6.53233C3.42413 6.53023 3.41762 6.52949 3.41119 6.53014C3.40475 6.5308 3.39853 6.53283 3.39295 6.53611C3.38738 6.53939 3.38257 6.54384 3.37888 6.54915C3.37518 6.55446 3.37267 6.5605 3.37152 6.56687C3.36603 6.57817 3.36317 6.59058 3.36317 6.60314C3.36317 6.61571 3.36603 6.62811 3.37152 6.63942C3.38965 6.70123 3.40009 6.76504 3.40261 6.82941C3.40089 6.90126 3.38066 6.97146 3.34389 7.03322C3.33773 7.04875 3.33773 7.06605 3.34389 7.08158C3.34389 7.08158 3.34389 7.26121 3.34389 7.29576C3.34389 7.3303 3.34389 7.38557 3.31971 7.4063L3.21607 7.49957C3.21607 7.49957 3.1608 7.40975 3.1608 7.37866C3.16395 7.31998 3.16395 7.26117 3.1608 7.20249C3.1608 7.15758 3.1608 7.1334 3.1608 7.10922C3.1608 7.08504 3.1608 7.04704 3.12971 7.07467C3.1034 7.13797 3.09503 7.20729 3.10553 7.27503C3.10553 7.38903 3.10553 7.46848 3.10553 7.49957C3.11746 7.55033 3.10876 7.60375 3.08135 7.64811C3.08135 7.64811 3.08135 7.66538 3.06063 7.66884L3.0019 7.74138C2.97426 7.7621 2.94317 7.77938 2.93972 7.72065C2.93627 7.66193 2.93972 7.52029 2.91554 7.42357C2.91067 7.3488 2.91067 7.2738 2.91554 7.19903C2.91554 7.1714 2.89827 7.10576 2.87754 7.10576C2.85681 7.10576 2.85336 7.18521 2.85336 7.23012C2.85336 7.27503 2.87409 7.64465 2.85336 7.77247C2.83263 7.90028 2.85336 7.97628 2.79809 8.01428C2.74282 8.05228 2.68064 8.04191 2.68064 7.96246C2.68787 7.83821 2.68787 7.71364 2.68064 7.58938C2.68064 7.41321 2.68064 7.22321 2.68064 7.18521C2.68064 7.14722 2.68064 7.13685 2.68064 7.12303C2.68064 7.10922 2.64955 7.08504 2.63918 7.12303C2.63528 7.15285 2.63528 7.18304 2.63918 7.21285C2.63918 7.25085 2.66682 7.54102 2.66682 7.59284C2.67035 7.70137 2.66457 7.81001 2.64955 7.91755C2.64955 7.94519 2.62537 7.95901 2.59428 7.94864C2.56319 7.93828 2.54937 7.92792 2.54592 7.87265C2.54246 7.81738 2.54592 7.68265 2.54592 7.57557C2.54592 7.46848 2.54592 6.99177 2.54592 6.8605C2.53526 6.81389 2.53526 6.76548 2.54592 6.71887C2.53613 6.70866 2.52798 6.69701 2.52173 6.68432C2.55131 6.66795 2.58466 6.65961 2.61846 6.66014C2.64609 6.66014 2.68755 6.66014 2.69446 6.7085C2.72138 6.77406 2.7309 6.84545 2.72209 6.91577C2.69791 6.9814 2.64609 7.00904 2.64609 7.03322C2.64609 7.0574 2.68064 7.0574 2.70827 7.03322C2.75853 6.98583 2.79342 6.92446 2.80845 6.85704C2.80815 6.80207 2.79261 6.74826 2.76354 6.70159C2.72555 6.64632 2.691 6.63251 2.691 6.61523C2.691 6.59796 2.70827 6.48742 2.74282 6.4736C2.77286 6.46218 2.80605 6.46218 2.83609 6.4736C2.87858 6.48808 2.91545 6.51555 2.94148 6.55212C2.96752 6.58869 2.9814 6.63252 2.98117 6.67741C2.97269 6.76551 2.95054 6.85175 2.91554 6.93304C2.90562 6.96453 2.88634 6.99224 2.86027 7.01249C2.85799 7.01797 2.85681 7.02384 2.85681 7.02977C2.85681 7.03569 2.85799 7.04156 2.86027 7.04704V7.06431C2.86027 7.06431 2.86027 7.06431 2.87754 7.06431C2.94394 7.0209 2.99193 6.95445 3.01226 6.87777C3.02982 6.80664 3.0368 6.73331 3.03299 6.66014C3.03118 6.61178 3.02186 6.564 3.00535 6.51851C2.9925 6.49249 2.97354 6.46997 2.95008 6.45288C3.09438 6.48555 3.24111 6.50635 3.3888 6.51506H3.45443C3.67897 6.51506 3.96223 6.43215 4.17986 6.41488C4.39749 6.3976 4.67384 6.38033 4.91565 6.34924C5.2611 6.30088 5.63072 6.26288 5.98653 6.2007C6.12816 6.17307 6.41142 6.09362 6.40106 6.13852C6.39046 6.17642 6.37023 6.21094 6.34233 6.2387C6.25943 6.34924 6.18343 6.4736 6.09362 6.58414M6.35961 6.38033C6.33197 6.35615 6.35961 6.3147 6.35961 6.29052C6.39548 6.25112 6.43609 6.21631 6.48051 6.18688C6.48051 6.18688 6.51506 6.18688 6.5116 6.20761C6.50815 6.22834 6.37688 6.40451 6.34924 6.38033M6.69469 6.00035C6.67396 6.00035 6.66705 5.94853 6.69469 5.93126C6.72232 5.91398 6.77068 5.90362 6.77759 5.93126C6.7845 5.95889 6.72923 6.01071 6.7085 6.0038M7.44084 5.65836C6.55457 5.89384 5.65475 6.07496 4.74639 6.2007C4.59896 6.22301 4.44974 6.23111 4.30077 6.22488C4.30077 6.20761 4.3664 6.20416 4.39404 6.2007C4.64621 6.16616 4.90529 6.13507 5.14365 6.09362L5.97616 5.94162C6.52196 5.83453 7.04704 5.68599 7.55138 5.55472C7.55138 5.55472 7.61702 5.53054 7.61702 5.58236C7.61702 5.63418 7.4823 5.64799 7.44084 5.65836ZM8.67753 4.27658C8.75353 4.2144 8.88134 4.09695 8.90898 4.10732C8.93661 4.11768 8.94697 4.2075 8.90898 4.23513C8.87098 4.26277 8.85716 4.23513 8.83643 4.25586C8.71898 4.30422 8.63953 4.54258 8.5739 4.50803C8.50826 4.47349 8.62571 4.33876 8.67062 4.27658M8.0281 4.49767C8.0281 4.42513 8.18009 4.41822 8.27681 4.43549C8.38518 4.46706 8.48618 4.51991 8.5739 4.59094C8.61999 4.62136 8.66852 4.64794 8.71898 4.67039C8.79196 4.6905 8.86259 4.71829 8.9297 4.7533C8.9711 4.79208 9.00711 4.83623 9.03679 4.88456C9.06097 5.00892 8.91934 4.99856 8.86407 4.94674C8.8088 4.89493 8.83298 4.86729 8.79498 4.85347C8.75698 4.83966 8.68098 4.82584 8.63953 4.85347C8.59808 4.88111 8.69135 4.90529 8.69826 4.9502C8.70516 4.99511 8.69826 5.01238 8.69826 5.05383C8.69826 5.09528 8.69826 5.09874 8.69826 5.11601C8.69826 5.13328 8.61535 5.21964 8.56699 5.19546C8.51863 5.17128 8.61535 5.11601 8.6119 5.05729C8.52808 5.06636 8.44353 5.06636 8.35972 5.05729C8.26489 5.02437 8.18434 4.95969 8.13173 4.8742C8.09373 4.82929 8.05228 4.7982 8.05573 4.73602C8.05919 4.67384 8.15591 4.73602 8.20082 4.71875C8.22155 4.63239 8.13518 4.63585 8.09373 4.60476C8.07332 4.5922 8.05673 4.57429 8.04577 4.55298C8.03481 4.53167 8.02989 4.50776 8.03155 4.48385M7.96592 5.37855C7.96592 5.344 8.01773 5.28528 8.03501 5.27146C8.13173 5.20583 8.4599 5.17128 8.48408 5.22655C8.50826 5.28182 8.29754 5.382 8.16627 5.40273C8.11791 5.40273 7.97973 5.42691 7.96592 5.37855ZM4.64966 10.4635C4.64966 10.5049 4.60821 10.6707 4.57021 10.6707C4.53221 10.6707 4.50803 10.5809 4.49076 10.5429C4.47349 10.5049 4.42858 10.4497 4.40785 10.4047C4.44585 10.4047 4.46658 10.4255 4.50803 10.4324C4.54948 10.4393 4.6013 10.4324 4.62894 10.4324C4.63026 10.4381 4.63026 10.444 4.62894 10.4497M1.64431 9.13697C1.64935 9.12443 1.65634 9.11277 1.66504 9.10242C1.66504 9.0817 1.69958 9.06097 1.7134 9.03679C1.74407 8.9976 1.76961 8.95465 1.78939 8.90898C1.82236 8.8036 1.84889 8.69631 1.86885 8.58771C1.87033 8.57394 1.87033 8.56004 1.86885 8.54626C1.88086 8.5222 1.89472 8.4991 1.9103 8.47717C1.92469 8.46019 1.94401 8.44812 1.96557 8.44263C1.97603 8.44052 1.98684 8.44099 1.99707 8.444C2.0073 8.44701 2.01665 8.45247 2.0243 8.4599C2.05418 8.51729 2.06735 8.58193 2.06229 8.64644C2.06229 8.66717 2.06229 8.68444 2.06229 8.70171C2.06229 8.73971 2.06229 8.77425 2.06229 8.80189C2.03873 8.91356 2.0004 9.0216 1.9483 9.12315C1.92066 9.19569 1.89648 9.38914 1.82048 9.42369C1.74449 9.45823 1.69958 9.37532 1.66504 9.31314C1.63049 9.25096 1.5994 9.21642 1.5994 9.16806C1.59984 9.16 1.59984 9.15193 1.5994 9.14388M2.13484 8.53935C2.07611 8.53935 2.05539 8.33554 2.15211 8.35972C2.24883 8.3839 2.15211 8.51172 2.13484 8.53935ZM1.95175 9.29933C2.00136 9.12682 2.06371 8.95824 2.13829 8.79498C2.16247 8.74662 2.17284 8.64989 2.24883 8.66026C2.30065 8.72589 2.24883 8.85025 2.20738 8.93661C2.16969 9.11141 2.11651 9.2825 2.04848 9.44787C2.04848 9.46514 2.00702 9.54114 1.96212 9.5135C1.91721 9.48587 1.97939 9.3546 1.99666 9.29587M3.03299 8.74316C3.04212 8.73214 3.05405 8.72378 3.06753 8.71898C3.07918 8.73101 3.08855 8.74506 3.09517 8.76044C3.09517 8.76044 2.98117 8.97461 2.95354 8.97461C2.9259 8.97461 3.0019 8.81225 3.03299 8.74316ZM3.45443 9.21297H3.4717L3.50279 9.23024C3.52473 9.24381 3.54786 9.25537 3.57188 9.26478L3.59606 9.3166L3.64788 9.44441C3.68225 9.50344 3.70236 9.56968 3.7066 9.63786C3.64974 9.65064 3.59075 9.65064 3.53388 9.63786C3.36613 9.65343 3.19729 9.65343 3.02954 9.63786C3.03797 9.42035 3.1127 9.21062 3.24371 9.03679L3.32662 9.09897C3.36116 9.1266 3.39916 9.15079 3.44061 9.17842M3.69969 9.29587L3.77915 9.32351C3.77915 9.34078 3.79987 9.36496 3.81024 9.38569C3.8206 9.40641 3.81024 9.40987 3.81024 9.42369C3.8319 9.47514 3.84362 9.53023 3.84478 9.58604C3.77224 9.60677 3.74115 9.51695 3.71351 9.46514L3.66861 9.37187C3.66861 9.34078 3.64097 9.30623 3.63061 9.27514L3.68242 9.29587M4.11423 9.53423H4.14877C4.13666 9.59634 4.10936 9.65449 4.06932 9.70349C4.04898 9.7036 4.0293 9.69622 4.01405 9.68277C4.01285 9.67359 4.01285 9.66431 4.01405 9.65513M4.19713 9.54805L4.22822 9.53077C4.2891 9.65509 4.31535 9.79351 4.30422 9.93149C4.29634 9.91417 4.29355 9.89497 4.29618 9.87613C4.29881 9.8573 4.30675 9.83959 4.31907 9.8251C4.33139 9.81061 4.34758 9.79992 4.36575 9.79429C4.38392 9.78866 4.40331 9.78832 4.42167 9.79331C4.40504 9.76475 4.39116 9.73468 4.38022 9.70349C4.35445 9.6348 4.33931 9.56258 4.33531 9.48932C4.33336 9.47673 4.33336 9.46391 4.33531 9.45132M4.53221 10.3046C4.49767 10.3426 4.40785 10.2769 4.4044 10.2355C4.40296 10.2259 4.40391 10.2161 4.40717 10.207C4.41043 10.1979 4.41589 10.1897 4.42307 10.1832C4.43025 10.1767 4.43893 10.1721 4.44833 10.1698C4.45773 10.1674 4.46756 10.1675 4.47694 10.1698C4.51149 10.1698 4.56676 10.27 4.53221 10.3046ZM4.3664 9.85549C4.38478 9.90156 4.39303 9.95104 4.39058 10.0006C4.39058 10.0628 4.33186 10.1215 4.3284 10.1837C4.31113 10.1457 4.28004 10.1146 4.27659 10.0766C4.28552 10.0423 4.29707 10.0089 4.31113 9.97639C4.3312 9.91848 4.34283 9.85799 4.34567 9.79676C4.34948 9.8173 4.35647 9.83711 4.3664 9.85549ZM4.24549 9.85549C4.19056 9.8641 4.13462 9.8641 4.07968 9.85549C4.05344 9.80187 4.04153 9.74236 4.04514 9.68277C4.08314 9.65168 4.1695 9.68277 4.22822 9.68277C4.24394 9.71094 4.2536 9.74209 4.25658 9.77421C4.25955 9.80634 4.25578 9.83873 4.24549 9.86931M4.14532 9.44787C4.14686 9.45701 4.14686 9.46636 4.14532 9.4755V9.52041C4.13025 9.54468 4.10686 9.56262 4.07952 9.57089C4.05218 9.57915 4.02276 9.57717 3.99678 9.56532C3.95187 9.56532 3.93805 9.49968 3.92078 9.44441C3.91928 9.43642 3.91928 9.42822 3.92078 9.42023C3.92078 9.42023 3.92078 9.42023 3.92078 9.3995L4.22131 9.4375L4.14532 9.44787ZM4.00023 9.79331C3.9415 9.83131 3.88969 9.77604 3.82405 9.76913C3.69177 9.76066 3.55908 9.76066 3.4268 9.76913C3.29207 9.76913 3.1608 9.76913 3.04335 9.76913V9.72768C3.21262 9.70349 3.41989 9.72768 3.60988 9.72768C3.72388 9.72768 3.84133 9.69659 3.92769 9.70004C4.01405 9.70349 4.01059 9.74495 4.00023 9.80367M3.03644 9.0437C3.05858 8.97258 3.08871 8.90421 3.12626 8.83989C3.16426 8.89516 3.19535 8.95734 3.23335 9.01261C3.20226 9.06788 3.14699 9.18188 3.10208 9.24405C3.09588 9.25405 3.08724 9.2623 3.07696 9.26802C3.06668 9.27375 3.05512 9.27675 3.04335 9.27675C3.03159 9.27675 3.02002 9.27375 3.00975 9.26802C2.99947 9.2623 2.99082 9.25405 2.98463 9.24405C2.98243 9.16931 3.00033 9.09535 3.03644 9.02988M3.03644 9.8624C3.29369 9.85796 3.55097 9.8695 3.80678 9.89694C3.81793 9.91998 3.82606 9.94436 3.83096 9.96949C3.83096 9.99712 3.86205 10.0248 3.86205 10.0455C3.86205 10.0662 3.81369 10.1388 3.79296 10.1802C3.65133 10.4497 3.51661 10.6915 3.36116 10.9609C3.34015 11.0052 3.31083 11.0451 3.2748 11.0784C3.23335 11.0784 3.1988 10.9747 3.18153 10.9367C3.16426 10.8987 3.14008 10.8193 3.12281 10.7709C3.07399 10.6605 3.03918 10.5445 3.01917 10.4255C2.99496 10.2478 2.99496 10.0677 3.01917 9.89003M3.36462 11.0714C3.49588 10.8331 3.63406 10.5878 3.76533 10.3564C3.7826 10.3218 3.80678 10.2389 3.83787 10.2251C3.84275 10.2222 3.84821 10.2205 3.85384 10.22C3.85948 10.2195 3.86515 10.2203 3.87045 10.2223C3.87574 10.2243 3.88053 10.2274 3.88446 10.2315C3.88838 10.2356 3.89135 10.2405 3.89314 10.2458C3.89314 10.2666 3.85169 10.3357 3.83442 10.3737C3.71006 10.6224 3.57879 10.8504 3.43716 11.0956C3.41989 11.1233 3.39225 11.2062 3.34734 11.1924C3.30244 11.1785 3.34734 11.0818 3.34734 11.0714M3.46479 11.1198C3.56843 10.878 3.72388 10.6811 3.83787 10.4531C3.88623 10.3564 3.92078 10.1975 4.00023 10.1526C4.07968 10.1077 4.07968 10.1906 4.10386 10.2389C4.19368 10.4255 4.24549 10.5567 4.34222 10.7467C4.37331 10.8055 4.43549 10.8849 4.43203 10.954C4.41274 11.0531 4.36878 11.1458 4.30422 11.2234C4.26586 11.2952 4.21174 11.3574 4.14593 11.4052C4.08012 11.4531 4.00433 11.4854 3.92423 11.4998C3.78484 11.52 3.64262 11.4971 3.51661 11.4342C3.48667 11.4169 3.46111 11.393 3.44194 11.3642C3.42276 11.3354 3.41049 11.3026 3.40607 11.2684C3.41746 11.216 3.43729 11.1658 3.46479 11.1198ZM4.21786 10.346C4.20059 10.308 4.12804 10.156 4.21786 10.1664C4.30767 10.1768 4.2904 10.2838 4.30767 10.3149C4.36295 10.4186 4.41131 10.5153 4.46312 10.6258C4.51494 10.7364 4.55985 10.7744 4.52185 10.8642C4.47694 10.8642 4.46312 10.8193 4.4424 10.7882C4.35416 10.6491 4.2812 10.5008 4.22477 10.346M2.94663 8.6188C2.94039 8.62943 2.93195 8.63859 2.92187 8.64569C2.9118 8.65278 2.90032 8.65763 2.88821 8.65992C2.87611 8.66222 2.86365 8.66189 2.85168 8.65897C2.83971 8.65604 2.8285 8.6506 2.81882 8.64298C2.79809 8.51172 2.98808 8.50826 2.94663 8.6188ZM1.72722 8.46681C1.7687 8.37311 1.83425 8.29206 1.91721 8.23191C1.97083 8.20566 2.03034 8.19376 2.08993 8.19736C2.32829 8.22154 2.48028 8.41845 2.71864 8.43572C2.77736 8.43572 2.82572 8.41845 2.89827 8.43572C2.89827 8.48063 2.81882 8.49099 2.77391 8.4979C2.66293 8.50053 2.55361 8.4705 2.45955 8.41154C2.32483 8.34245 2.26956 8.24227 2.06229 8.27336C1.98305 8.29823 1.91242 8.34492 1.85848 8.40808C1.83657 8.44308 1.81806 8.4801 1.80321 8.51862C1.80321 8.54626 1.77212 8.62571 1.73758 8.62226C1.70303 8.6188 1.70994 8.4979 1.73758 8.45299M1.51649 8.87789C1.53772 8.76404 1.54583 8.64814 1.54068 8.53244C1.54068 8.53244 1.54068 8.53244 1.54068 8.51517C1.60286 8.51517 1.60976 8.6948 1.5994 8.78462C1.58714 8.86241 1.55368 8.93532 1.50268 8.99534C1.43013 8.97461 1.50268 8.91934 1.50268 8.86407M1.58213 9.34423C1.55449 9.29242 1.53377 9.25787 1.51304 9.21297C1.53807 9.19089 1.56751 9.17441 1.5994 9.1646C1.61865 9.20695 1.64178 9.24743 1.66849 9.28551C1.69267 9.32696 1.73758 9.37532 1.73758 9.40641C1.73722 9.41479 1.73507 9.42299 1.73128 9.43046C1.72749 9.43793 1.72214 9.44451 1.71559 9.44975C1.70905 9.45498 1.70146 9.45876 1.69333 9.46082C1.68521 9.46288 1.67674 9.46317 1.66849 9.46168C1.6374 9.46168 1.60286 9.37532 1.58213 9.34423ZM1.77558 9.79331C1.69613 9.81404 1.62013 9.77604 1.54413 9.79331C1.46813 9.81058 1.48886 9.84167 1.44741 9.83822C1.32996 9.83822 1.33686 9.64822 1.44741 9.63786C1.48886 9.63786 1.51304 9.6724 1.55104 9.67931C1.58904 9.68622 1.79976 9.63786 1.80321 9.73458C1.80321 9.76222 1.80321 9.76567 1.77558 9.79331ZM1.97593 9.93149C1.93773 9.94366 1.89669 9.94366 1.85848 9.93149C1.79285 9.87622 1.85848 9.77604 1.85848 9.68622C1.85848 9.59641 1.77903 9.61368 1.78939 9.55841C1.79976 9.50314 1.94139 9.57913 1.97593 9.61022C2.01048 9.64131 2.04157 9.69659 2.08302 9.71386C2.12085 9.71902 2.15919 9.71902 2.19702 9.71386H2.41465C2.48441 9.70456 2.55538 9.71165 2.62191 9.73458C2.62191 9.73458 2.62191 9.76567 2.62191 9.78986C2.5074 9.80693 2.39098 9.80693 2.27647 9.78986C2.21693 9.78086 2.15638 9.78086 2.09684 9.78986C2.04848 9.80713 2.03466 9.89003 1.97248 9.91422M2.44574 10.9333C2.39737 10.9333 2.35247 10.8089 2.3352 10.7744C2.26611 10.6569 2.21084 10.5464 2.1452 10.4289C2.11757 10.3771 2.05539 10.2838 2.0692 10.2389C2.08302 10.194 2.1832 10.3426 2.21084 10.3909C2.27992 10.5049 2.34556 10.6362 2.4181 10.7364C2.44228 10.7744 2.56319 10.9298 2.44574 10.9264M2.65646 10.1388C2.64611 10.2836 2.62766 10.4278 2.60119 10.5706C2.60119 10.6431 2.58046 10.7364 2.52864 10.7433C2.47683 10.7502 2.4181 10.6327 2.38356 10.5775C2.30065 10.4427 2.23156 10.3357 2.15556 10.194C2.10591 10.1266 2.07709 10.0462 2.07266 9.96258C2.09684 9.85894 2.25229 9.87276 2.36974 9.86931C2.48719 9.86585 2.61155 9.84858 2.64609 9.91076C2.65655 9.9864 2.65655 10.0631 2.64609 10.1388M2.59082 9.13351C2.59082 9.21642 2.63228 9.2786 2.64264 9.37187C2.653 9.46514 2.67373 9.57913 2.64264 9.6275C2.60908 9.64767 2.57117 9.65952 2.5321 9.66204C2.40404 9.66518 2.27591 9.65941 2.14866 9.64477C2.05884 9.55495 2.11757 9.41678 2.14866 9.29933C2.17975 9.18188 2.25229 9.04715 2.30756 8.89861C2.33865 8.81916 2.36283 8.69826 2.42156 8.70862C2.48028 8.71898 2.50446 8.83989 2.52519 8.89861C2.54937 8.97545 2.56784 9.05396 2.58046 9.13351M4.8742 10.7191C4.83752 10.9323 4.75501 11.135 4.63239 11.3133C4.50748 11.47 4.35679 11.6044 4.18677 11.7105L4.09005 11.7554C4.06586 11.7554 4.00368 11.8003 3.99332 11.7554C3.98296 11.7105 4.07623 11.6898 4.11423 11.6622C4.19967 11.605 4.28157 11.5427 4.35949 11.4756C4.39404 11.4445 4.45967 11.3823 4.4424 11.3582C4.42513 11.334 4.3664 11.3962 4.34222 11.4203C4.23061 11.5431 4.07856 11.6215 3.91387 11.6414C3.82317 11.6553 3.73042 11.6458 3.64442 11.6138C3.64442 11.6138 3.52352 11.5654 3.50625 11.6138C3.48897 11.6622 3.61679 11.676 3.62024 11.7312C3.6237 11.7865 3.49934 11.714 3.46479 11.6932C3.20946 11.5327 3.01777 11.2885 2.92245 11.0024C2.90518 10.9575 2.87063 10.8676 2.89827 10.8504C2.9259 10.8331 2.93627 10.9022 2.95008 10.9264C3.02608 11.0576 3.1159 11.2027 3.1988 11.3305C3.23335 11.3823 3.30589 11.4791 3.32662 11.4618C3.34734 11.4445 3.23335 11.3029 3.18498 11.22C3.13662 11.1371 3.0399 10.9955 3.06063 10.9644C3.08135 10.9333 3.12626 11.0404 3.14699 11.0818C3.24412 11.2666 3.39297 11.419 3.57534 11.5205C3.65983 11.5691 3.75441 11.5975 3.85169 11.6034C3.99081 11.6032 4.12495 11.5516 4.22822 11.4583C4.46562 11.2461 4.63507 10.9685 4.7153 10.6604C4.73948 10.5913 4.76366 10.4566 4.82929 10.4497C4.89493 10.4427 4.90184 10.6293 4.88456 10.7295M5.44418 10.9885C5.44418 10.9471 5.51327 10.9022 5.53745 10.8711C5.62727 10.764 5.69981 10.5809 5.77581 10.4876C5.78849 10.4711 5.80512 10.4581 5.82417 10.4497C5.84015 10.4477 5.85629 10.4519 5.86918 10.4616C5.88206 10.4713 5.8907 10.4856 5.89326 10.5015C5.89326 10.5533 5.86217 10.5982 5.84835 10.6466C5.83453 10.6949 5.84835 10.726 5.81035 10.7605C5.77235 10.7951 5.62727 10.8849 5.6169 10.9816C5.60654 11.0784 5.64799 11.068 5.63763 11.1094C5.63389 11.1272 5.62443 11.1432 5.6107 11.1551C5.59697 11.1669 5.57974 11.174 5.56163 11.1751C5.50636 11.1751 5.43382 11.0576 5.44418 10.9885ZM5.44418 11.7209C5.41655 11.6794 5.52363 11.5343 5.6169 11.5413C5.65145 11.5413 5.72399 11.6 5.72745 11.6345C5.72745 11.7347 5.47527 11.7658 5.44418 11.7209ZM5.90708 11.5723C5.86176 11.5723 5.81761 11.5579 5.78099 11.5312C5.74437 11.5046 5.71715 11.4669 5.70326 11.4238C5.71082 11.3913 5.72652 11.3612 5.74887 11.3365C5.77123 11.3117 5.79952 11.293 5.83108 11.2822C5.90362 11.2822 5.97962 11.5102 5.90708 11.5723ZM5.90708 11.2027C5.82417 11.182 5.7309 11.0887 5.75854 10.9989C5.78989 10.9498 5.827 10.9045 5.86908 10.8642C5.9133 10.8771 5.95612 10.8945 5.99689 10.916C5.99689 11.0611 5.9278 11.1164 5.89326 11.2165M6.40797 11.6103C6.4356 11.6794 6.34924 11.7036 6.27325 11.6863C6.19725 11.6691 6.17307 11.6449 6.17307 11.6034C6.19379 11.5551 6.38033 11.5585 6.40451 11.6242M6.17652 11.3202C6.14543 11.3582 6.1178 11.4065 6.05216 11.3754C5.98998 11.2269 6.06943 11.0887 6.08671 10.9505L6.28361 10.9747C6.29218 11.0992 6.25399 11.2224 6.17652 11.3202ZM8.51172 10.0006C8.51172 9.95221 8.6188 9.92112 8.68789 9.94185C8.71923 9.94586 8.74774 9.96198 8.76734 9.98676C8.82607 10.0835 8.53935 10.1146 8.51172 10.0317C8.50829 10.0216 8.50829 10.0107 8.51172 10.0006ZM11.0542 9.66895C11.1578 9.66895 11.2545 9.66895 11.3547 9.66895C11.3789 9.66895 11.5585 9.64131 11.5482 9.7104C11.5378 9.77949 11.3271 9.78295 11.2684 9.78986C11.2096 9.79676 11.1474 9.78986 11.0922 9.78986C11.0117 9.79678 10.9308 9.79678 10.8504 9.78986C10.8262 9.78986 10.7916 9.75877 10.7916 9.73113C10.7916 9.70349 10.9885 9.68622 11.0542 9.68277M14.2081 8.12137C14.2392 8.073 14.4361 8.16973 14.3946 8.25263C14.3532 8.33554 14.177 8.17318 14.2081 8.12137ZM12.7814 6.61869C12.8056 6.61869 12.8228 6.64978 12.8505 6.66014C12.8781 6.6705 12.9507 6.68087 12.961 6.72578C12.9714 6.77068 12.9023 6.85013 12.8712 6.87777C12.8401 6.90541 12.7883 6.91922 12.7952 6.95377C12.8021 6.98831 12.9265 6.95377 12.9507 6.95377C13.0046 6.94968 13.0583 6.96432 13.1027 6.99522C13.1304 7.01479 13.1525 7.04146 13.1665 7.07245C13.1804 7.10344 13.1858 7.13761 13.1821 7.1714C13.1737 7.25312 13.1478 7.33207 13.1061 7.40284C13.0854 7.43739 13.0197 7.50993 12.9783 7.51684C12.9368 7.52375 12.847 7.46848 12.7952 7.44084C12.6743 7.37866 12.5879 7.33721 12.4498 7.27848C12.3671 7.23115 12.2714 7.21177 12.1769 7.22321C12.1178 7.24357 12.0601 7.26781 12.0041 7.29576C11.95 7.33344 11.8868 7.35608 11.8211 7.36139C11.752 7.36139 11.6932 7.25776 11.6656 7.18176C11.6462 7.09739 11.6312 7.01206 11.6207 6.92613C11.5939 6.86974 11.573 6.81069 11.5585 6.74996C11.5642 6.6963 11.5782 6.64385 11.6 6.59451C11.6 6.53233 11.6 6.45633 11.6276 6.38724C11.6412 6.31316 11.6481 6.23802 11.6483 6.1627C11.6483 6.12816 11.6483 6.09016 11.6483 6.05562C11.6987 6.02357 11.7552 6.00239 11.8142 5.99344C11.9804 5.97721 12.1447 5.94482 12.3047 5.89671C12.3989 5.8626 12.4911 5.82339 12.581 5.77926C12.6708 5.73781 12.7572 5.68945 12.847 5.65836C12.9368 5.62727 12.9438 5.67908 12.9714 5.73435C12.9778 5.74671 12.9836 5.7594 12.9887 5.77235C13.0874 5.9674 13.1248 6.18781 13.0957 6.40451C13.0943 6.43556 13.0865 6.46598 13.0728 6.4939C13.0591 6.52182 13.0399 6.54665 13.0163 6.56687C12.9161 6.61523 12.7503 6.51851 12.7296 6.54615C12.7088 6.57378 12.7641 6.59105 12.7848 6.60487M11.7485 5.91398C11.8729 5.8898 12.0111 5.87599 12.1423 5.85526C12.2736 5.83453 12.6121 5.71017 12.6329 5.72399C12.6536 5.73781 12.581 5.7689 12.5499 5.78272C12.3761 5.87165 12.1877 5.92897 11.9938 5.95198C11.8729 5.95198 11.6483 6.00034 11.6483 5.95198C11.6483 5.90362 11.7174 5.90708 11.752 5.90017M13.4723 5.25073C13.3704 5.31844 13.2629 5.37738 13.151 5.42691C13.1061 5.44764 13.0301 5.50636 12.9714 5.49254H12.9507L12.9299 5.45455C12.8969 5.39685 12.8747 5.33364 12.8643 5.26801C12.8643 5.21619 12.9679 5.17474 13.0301 5.13328C13.0893 5.08847 13.156 5.05455 13.227 5.0331C13.3291 5.01059 13.4356 5.02149 13.531 5.06419C13.5454 5.06845 13.558 5.07704 13.5673 5.08879C13.5766 5.10055 13.582 5.11488 13.5828 5.12983C13.5828 5.19201 13.5068 5.23692 13.4723 5.26455M13.0923 4.34913C13.2117 4.38073 13.3275 4.42472 13.4377 4.4804C13.5432 4.53425 13.6448 4.59543 13.7417 4.66348C13.8004 4.70148 13.8799 4.73257 13.8592 4.81893C13.8384 4.90529 13.8039 4.88456 13.7625 4.9122C13.7475 4.92422 13.7312 4.93464 13.7141 4.94329C13.6105 4.97783 13.4999 4.90184 13.4239 4.88111C13.3479 4.86038 13.3548 4.77057 13.3065 4.72912C13.2581 4.68766 13.2305 4.70148 13.2374 4.67039C13.2443 4.6393 13.2823 4.6393 13.3099 4.64275C13.3376 4.64621 13.4688 4.70493 13.4826 4.68421C13.4965 4.66348 13.3928 4.60476 13.3341 4.58057C13.2456 4.54513 13.1591 4.50477 13.075 4.45967C13.075 4.42858 13.0439 4.3664 13.075 4.34913M12.0041 4.51494C12.0244 4.48078 12.0563 4.45504 12.094 4.4424C12.1527 4.49421 12.2183 4.4424 12.2667 4.41476C12.315 4.38713 12.429 4.41476 12.4912 4.41476C12.5534 4.41476 12.5292 4.47349 12.5534 4.47694C12.5776 4.4804 12.5983 4.44931 12.6018 4.43894C12.6052 4.42858 12.5638 4.35604 12.5499 4.35949C12.5264 4.35155 12.5066 4.33513 12.4945 4.31342C12.4823 4.29172 12.4787 4.26627 12.4843 4.24204C12.5119 4.21095 12.5707 4.24204 12.6087 4.24204C12.6467 4.24204 12.6398 4.18677 12.6674 4.17295C12.695 4.15913 12.7848 4.17295 12.8539 4.17295C12.923 4.17295 13.0405 4.21095 13.037 4.28004C13.0349 4.29465 13.0285 4.30832 13.0186 4.31936C13.0088 4.33041 12.996 4.33835 12.9818 4.34222C12.9196 4.36295 12.8298 4.34222 12.809 4.37676C12.7883 4.41131 12.9541 4.46312 13.0094 4.54948C13.0595 4.63614 13.079 4.73713 13.0647 4.8362C13.0412 4.88782 13.0069 4.93372 12.9639 4.9707C12.9209 5.00769 12.8705 5.03488 12.8159 5.05038C12.7925 5.06411 12.7667 5.07348 12.7399 5.07801C12.6259 5.07801 12.6156 4.97092 12.5741 4.89838C12.4498 4.92256 12.5327 5.01583 12.5741 5.09183C12.6156 5.16783 12.7365 5.344 12.8125 5.47182C12.8262 5.49093 12.8335 5.51393 12.8332 5.53745C12.8332 5.59618 12.6329 5.64108 12.5741 5.65836C12.2711 5.7631 11.9569 5.83264 11.638 5.86562C11.6139 5.85169 11.5955 5.82965 11.5862 5.80344C11.5862 5.77926 11.5862 5.75163 11.5689 5.72745V5.64799C11.6 5.5789 11.6656 5.5789 11.7623 5.55472C11.8591 5.53054 11.8591 5.50291 11.9178 5.50982H11.9454L11.9731 5.53054L12.0456 5.572C12.1147 5.60999 12.1872 5.64108 12.208 5.62727C12.2287 5.61345 12.208 5.55472 12.208 5.52018C12.208 5.48563 12.3289 5.54091 12.3807 5.52018C12.4325 5.49945 12.429 5.43382 12.4359 5.37164C12.4429 5.30946 12.4878 5.31637 12.4947 5.28182C12.5016 5.24728 12.4394 5.11947 12.3945 5.06765C12.2983 4.96784 12.1969 4.87328 12.0905 4.78439C12.0421 4.74293 11.9489 4.66694 11.9489 4.61857C11.9489 4.57021 11.9938 4.54258 12.0145 4.51494M11.7831 4.66003C11.8176 4.6013 11.9316 4.70839 11.9972 4.76366C12.1026 4.85 12.2008 4.94473 12.2909 5.04692C12.3358 5.09874 12.4152 5.14365 12.398 5.21619H12.2114C12.17 5.21619 12.1803 5.29219 12.1561 5.31982C12.132 5.34746 12.0491 5.25419 12.0007 5.21274C11.9523 5.17128 11.8902 5.13328 11.8522 5.09183C11.8249 5.06787 11.8077 5.0346 11.8038 4.99856C11.8038 4.95365 11.8763 4.93638 11.8832 4.89147C11.8832 4.78784 11.752 4.71875 11.7831 4.66348M11.8245 5.35437H11.8556C11.8798 5.46145 11.7865 5.48218 11.6967 5.50982C11.6069 5.53745 11.5654 5.56854 11.5171 5.54091V5.50636C11.4998 5.46145 11.4445 5.37164 11.4549 5.33709C11.4653 5.30255 11.5343 5.30255 11.5827 5.30255C11.6746 5.30317 11.7658 5.31952 11.8522 5.35091M10.8745 4.43894C10.9436 4.43894 10.9885 4.36295 11.0611 4.35949C11.1062 4.3661 11.149 4.38391 11.1854 4.41131C11.22 4.43894 11.2338 4.4873 11.2718 4.50458C11.3098 4.52185 11.3478 4.50458 11.3858 4.5253C11.4301 4.54215 11.471 4.56671 11.5067 4.59785C11.5516 4.63239 11.6103 4.67039 11.6172 4.72912C11.6242 4.78784 11.5378 4.9122 11.4894 4.97093C11.4411 5.02965 11.4134 5.08147 11.334 5.09528C11.2642 5.1003 11.1945 5.08503 11.1332 5.05132C11.0719 5.01761 11.0217 4.9669 10.9885 4.90529C10.973 4.8752 10.9636 4.84232 10.9609 4.80857C10.9609 4.75675 11.0162 4.69803 10.9885 4.68075C10.9609 4.66348 10.9298 4.70493 10.9125 4.73602C10.8914 4.80585 10.8914 4.88037 10.9125 4.9502C10.9544 5.02323 11.0055 5.09057 11.0645 5.15056C11.1296 5.20007 11.1919 5.25311 11.2511 5.30946C11.2993 5.36414 11.3368 5.42743 11.3616 5.496C11.3738 5.52948 11.3738 5.56615 11.3616 5.59963C11.3305 5.66181 11.1474 5.70326 11.0611 5.72399C10.8331 5.77926 10.5982 5.83108 10.3702 5.86908C10.2491 5.89095 10.1268 5.90594 10.004 5.91398C9.9833 5.91398 9.9833 5.91398 9.9833 5.8898C9.9833 5.86562 10.0178 5.77581 10.0455 5.7689C10.0731 5.76199 10.1698 5.90362 10.2458 5.80344C10.2458 5.75854 10.2044 5.74817 10.2217 5.70326C10.2389 5.65836 10.3598 5.70326 10.3978 5.70326C10.4268 5.69777 10.4542 5.68594 10.4781 5.66862C10.502 5.65131 10.5218 5.62893 10.536 5.60309C10.536 5.58236 10.536 5.55127 10.536 5.52363C10.5546 5.47915 10.5685 5.43284 10.5775 5.38546C10.5737 5.282 10.5551 5.17962 10.5222 5.08147C10.4911 4.99165 10.4047 4.92602 10.422 4.7982C10.4489 4.7221 10.4899 4.65177 10.5429 4.59094L10.6155 4.49767C10.6332 4.4628 10.6553 4.43031 10.6811 4.40094C10.726 4.36295 10.8573 4.32149 10.8642 4.42167M9.78295 5.80344C9.78295 5.74472 9.87967 5.73435 9.91767 5.73781C9.92334 5.73819 9.92883 5.73997 9.93365 5.74298C9.93847 5.74599 9.94248 5.75015 9.94531 5.75508C9.94531 5.75508 9.94531 5.77235 9.94531 5.77926C9.93122 5.83291 9.89806 5.87958 9.85204 5.91053C9.85204 5.91053 9.81058 5.87599 9.77949 5.82071M10.0938 5.95198C10.2597 5.92089 10.4393 5.90708 10.5947 5.87253C10.8038 5.81427 11.016 5.76813 11.2304 5.73435C11.2304 5.75508 11.1509 5.78272 11.1025 5.79653C10.7537 5.91861 10.39 5.99298 10.0213 6.01762C9.99712 6.01762 9.95221 6.01762 9.94876 5.99689C9.9453 5.97616 10.0455 5.95889 10.0938 5.95198ZM10.3875 4.51494C10.4539 4.37641 10.5551 4.25741 10.6811 4.1695C10.7191 4.14532 10.7709 4.20059 10.7709 4.23168C10.7709 4.26277 10.6915 4.33876 10.6638 4.37331C10.5411 4.49626 10.4395 4.63866 10.3633 4.79475C10.2113 4.75675 10.3253 4.60821 10.384 4.51149M9.94531 4.91565C10.0006 4.91565 10.0593 4.98129 10.08 4.95711C10.1008 4.93293 10.0178 4.84657 9.99712 4.78093C9.98833 4.7657 9.9837 4.74843 9.9837 4.73084C9.9837 4.71326 9.98833 4.69598 9.99712 4.68075C10.0213 4.62894 10.1388 4.68075 10.1837 4.71875C10.3205 4.8568 10.4295 5.0198 10.5049 5.19892C10.517 5.23382 10.5262 5.26963 10.5326 5.30601C10.5326 5.344 10.5326 5.39927 10.4946 5.39927C10.4566 5.39927 10.4566 5.32328 10.4289 5.31982C10.4013 5.31637 10.4117 5.50291 10.3357 5.53054C10.2597 5.55818 10.2597 5.48909 10.2493 5.46491C10.2389 5.44073 10.2493 5.33019 10.2493 5.28873C10.2493 5.24728 10.1802 5.23001 10.1353 5.18855L10.0178 5.08838C9.98447 5.05596 9.95331 5.02134 9.92458 4.98474C9.91608 4.97524 9.91138 4.96294 9.91138 4.9502C9.91138 4.93745 9.91608 4.92515 9.92458 4.91565M9.57913 5.35091C9.6644 5.3781 9.75248 5.39549 9.84167 5.40273C9.88658 5.44418 9.94531 5.48218 9.94531 5.55127C9.94885 5.56952 9.94885 5.58829 9.94531 5.60654L9.92803 5.63072C9.8605 5.64887 9.79067 5.65702 9.72077 5.6549C9.69879 5.6447 9.68065 5.62776 9.66895 5.60654C9.62485 5.53549 9.58782 5.46028 9.55841 5.382C9.55721 5.37747 9.55735 5.37269 9.55882 5.36824C9.56029 5.36379 9.56302 5.35986 9.56668 5.35693C9.57034 5.354 9.57477 5.3522 9.57944 5.35175C9.5841 5.35129 9.5888 5.3522 9.59295 5.35437M8.41154 5.79653C8.72244 5.79653 9.07824 5.7689 9.37187 5.73781C9.42668 5.72686 9.48203 5.71879 9.53768 5.71363C9.55841 5.71363 9.59641 5.71363 9.59986 5.74817C9.60332 5.78272 9.52041 5.78617 9.49968 5.78963C9.23024 5.82417 8.8848 5.82071 8.60499 5.8449C8.50826 5.8449 8.30445 5.87253 8.29754 5.8449C8.29063 5.81726 8.37699 5.81381 8.41154 5.81035M9.95567 7.26812C9.90769 7.27672 9.85856 7.27672 9.81058 7.26812C9.5515 7.2163 9.28896 7.10576 9.03679 7.06776C8.97305 7.05393 8.90708 7.05393 8.84334 7.06776C8.77425 7.06776 8.72935 7.1334 8.64644 7.14031C8.57044 7.06086 8.6188 6.95031 8.59462 6.85013C8.57044 6.74996 8.53244 6.74996 8.51517 6.69814C8.49893 6.64631 8.48737 6.59313 8.48063 6.53924C8.4654 6.37363 8.43651 6.20956 8.39427 6.04871C8.39091 6.03276 8.39091 6.01629 8.39427 6.00035C8.39427 5.94162 8.56008 5.93471 8.64299 5.9278C8.94352 5.90362 9.26133 5.87253 9.53423 5.85871C9.58142 5.85245 9.62928 5.8635 9.66895 5.8898C9.68931 5.90685 9.7058 5.92805 9.71731 5.95198V5.98307C9.76128 6.10502 9.78463 6.23344 9.7864 6.36306C9.7864 6.50815 9.7864 6.66705 9.69313 6.72923C9.64092 6.75571 9.58179 6.76537 9.52386 6.75687C9.49623 6.75687 9.45132 6.73614 9.43405 6.75687C9.41678 6.77759 9.48241 6.79486 9.50659 6.80523L9.59986 6.83977C9.66204 6.86395 9.74149 6.87777 9.79676 6.90541C9.86685 6.94798 9.9195 7.01411 9.94531 7.09195C9.9693 7.15061 9.9693 7.21636 9.94531 7.27503M10.0524 7.05395C10.0333 7.00793 10.0077 6.96489 9.9764 6.92613C9.95567 6.89504 9.9004 6.83977 9.89349 6.80523C9.88658 6.77068 9.93149 6.64632 9.93494 6.55651C9.9384 6.46669 9.90385 6.26634 9.90385 6.14889V6.09707C9.92803 6.05216 10.1284 6.04871 10.2493 6.03144L10.5947 5.96926C10.8158 5.92435 11.0335 5.85526 11.2407 5.81726C11.2874 5.80748 11.3356 5.80748 11.3823 5.81726C11.4155 5.83126 11.4433 5.85546 11.4618 5.88635C11.4618 5.92435 11.4618 5.95889 11.4791 5.99344C11.5033 6.12939 11.5033 6.26856 11.4791 6.40451C11.4791 6.46324 11.4514 6.52196 11.4411 6.59105C11.4307 6.66014 11.4203 6.80523 11.3271 6.83632C11.2091 6.84783 11.0901 6.8288 10.9816 6.78105C11.0024 6.92959 11.2269 6.8985 11.3547 6.94686C11.4014 6.97491 11.4378 7.01733 11.4583 7.06776C11.4753 7.09282 11.486 7.12157 11.4896 7.15161C11.4932 7.18166 11.4896 7.21213 11.4791 7.24049C11.3858 7.24049 11.3409 7.1714 11.2822 7.13685C11.2035 7.08626 11.1153 7.05218 11.0231 7.03667C10.9505 7.03667 10.878 7.06086 10.7985 7.06431C10.7191 7.06776 10.7191 7.06431 10.6811 7.06431C10.585 7.09866 10.4985 7.15551 10.4289 7.23012C10.384 7.26812 10.2631 7.41321 10.1975 7.41666C10.1318 7.42012 10.1457 7.39939 10.1215 7.38903C10.0938 7.27848 10.1042 7.14722 10.0662 7.04358M10.1802 7.73447C10.1802 7.66538 10.1318 7.60666 10.1422 7.54793C10.1526 7.4892 10.2355 7.45121 10.27 7.43048C10.3046 7.40975 10.3702 7.36139 10.4082 7.3303C10.49 7.24581 10.5889 7.17984 10.6984 7.13685C10.7744 7.11958 10.8987 7.13685 10.9678 7.13685C11.0816 7.13684 11.1921 7.17449 11.2822 7.24394L11.4169 7.33376C11.5171 7.39593 11.6276 7.43048 11.714 7.48575C11.7405 7.50617 11.7648 7.52933 11.7865 7.55484C11.8044 7.59983 11.8127 7.64809 11.8107 7.69647C11.8236 7.75 11.8446 7.80125 11.8729 7.84847C11.9074 7.90374 12.0283 8.00046 11.9558 8.05228C11.8832 8.10409 11.7658 8.05228 11.7243 8.02464C11.6829 7.99701 11.6311 7.94174 11.6483 7.90374C11.6656 7.86574 11.7451 7.88646 11.7658 7.85537C11.7865 7.82428 11.7209 7.72756 11.6932 7.71029C11.6385 7.69038 11.5817 7.67649 11.524 7.66884C11.4583 7.6412 11.4169 7.52375 11.3478 7.4823C11.3117 7.46756 11.2748 7.45487 11.2373 7.4443C11.1682 7.4063 11.1233 7.33376 11.0438 7.34757C10.9644 7.36139 10.9436 7.43393 10.9022 7.45466C10.8437 7.47639 10.7814 7.4858 10.7191 7.4823C10.6155 7.4823 10.5395 7.4823 10.4807 7.53411C10.4661 7.55476 10.4533 7.57674 10.4427 7.59975C10.4058 7.66204 10.3578 7.71707 10.3011 7.7621C10.2825 7.77208 10.2618 7.7773 10.2407 7.7773C10.2196 7.7773 10.1988 7.77208 10.1802 7.7621M11.4307 7.79665C11.4756 7.76556 11.5067 7.83119 11.5447 7.85883C11.5115 7.88438 11.4848 7.91741 11.4668 7.95523C11.4488 7.99305 11.44 8.03458 11.4411 8.07646C11.4003 8.06967 11.3599 8.06044 11.3202 8.04882C11.3203 8.00146 11.3302 7.95463 11.3492 7.91125C11.3682 7.86787 11.396 7.82886 11.4307 7.79665ZM11.1958 7.9521C11.0922 7.99701 10.9989 7.9141 10.878 7.90374C10.8158 7.90374 10.7467 7.90374 10.6811 7.90374C10.5851 7.90017 10.4923 7.86766 10.4151 7.81047C10.4352 7.76177 10.4687 7.71982 10.5118 7.68956C10.5495 7.65326 10.5941 7.62505 10.6431 7.60666C10.6774 7.60144 10.7124 7.60144 10.7467 7.60666C10.8528 7.59824 10.9561 7.56889 11.0507 7.52029C11.1094 7.4892 11.144 7.5652 11.1785 7.59975C11.2299 7.64381 11.2868 7.68097 11.3478 7.71029C11.296 7.78283 11.2822 7.90719 11.1958 7.94519M9.96258 8.29063L10.1457 8.3459C10.1698 8.3459 10.1906 8.3459 10.2078 8.37008C10.1789 8.40338 10.1426 8.42946 10.1018 8.44626C10.0611 8.46305 10.0169 8.47009 9.97294 8.46681C9.92836 8.4494 9.88823 8.42226 9.85549 8.38736C9.80367 8.3459 9.7484 8.32863 9.73804 8.263C9.78295 8.21118 9.88313 8.263 9.96258 8.29063ZM8.5808 7.83465C8.61694 7.77031 8.66649 7.71449 8.7261 7.67098C8.7857 7.62747 8.85396 7.59729 8.92625 7.58247C8.9677 7.58247 9.01606 7.58247 9.06097 7.58247C9.10588 7.58247 9.17497 7.53411 9.22678 7.53066C9.33976 7.53497 9.44902 7.57219 9.54114 7.63775C9.56193 7.66372 9.58043 7.69146 9.59641 7.72065C9.63786 7.77592 9.73113 7.80701 9.73458 7.86574C9.73804 7.92446 9.7035 7.9141 9.67586 7.94519C9.64822 7.97628 9.64477 8.00391 9.61023 8.01082C9.56089 8.01043 9.51193 8.00227 9.46514 7.98664L9.18879 7.92446C9.14023 7.91229 9.0903 7.90648 9.04025 7.90719C8.95734 7.90719 8.90552 7.99355 8.83298 8.01428C8.7356 8.02821 8.63673 8.02821 8.53935 8.01428C8.47372 7.94174 8.53935 7.86919 8.57735 7.82428M6.44251 9.77258C6.40244 9.7877 6.35823 9.7877 6.31815 9.77258C6.31815 9.77258 6.34924 9.71731 6.38379 9.71731C6.41833 9.71731 6.45288 9.74149 6.44251 9.75877M5.81381 9.17151C5.85181 9.07824 5.90708 8.95043 5.98307 8.91934C6.10115 8.87966 6.22795 8.87368 6.34924 8.90207C6.43215 8.93316 6.3907 9.1266 6.36997 9.24751C6.31195 9.45407 6.19125 9.63754 6.02453 9.77258C5.67908 9.81058 5.71363 9.42714 5.80344 9.16806M5.29219 9.85894C5.29219 9.92112 5.16092 9.95221 5.09183 9.92458C5.02274 9.89694 4.96747 9.83822 4.98474 9.76913C4.99356 9.73713 5.00757 9.70679 5.0262 9.67931C5.05383 9.63095 5.06074 9.57223 5.11947 9.56532C5.17819 9.55841 5.19201 9.61713 5.2231 9.66895C5.25419 9.72077 5.30946 9.7864 5.29219 9.85894ZM6.19034 10.2389C6.14198 10.2389 6.12125 10.1457 6.13507 10.118C6.14889 10.0904 6.25597 10.0731 6.27325 10.118C6.29052 10.1629 6.23179 10.2389 6.19034 10.2355M6.49778 10.3391C6.46669 10.3978 6.45633 10.4635 6.41142 10.4669C6.36652 10.4704 6.26634 10.3771 6.29397 10.2907C6.31434 10.2442 6.34471 10.2028 6.38293 10.1694C6.42114 10.1359 6.46625 10.1113 6.51506 10.0973C6.5496 10.0973 6.58415 10.0973 6.59105 10.1526C6.59796 10.2078 6.52887 10.2804 6.49778 10.3391ZM7.06776 10.1249C6.93304 10.1491 6.87086 10.0178 6.78796 9.98676H6.38379C6.25437 10.0059 6.12285 10.0059 5.99344 9.98676C5.92925 9.95311 5.86064 9.92869 5.78963 9.91422C5.67217 9.91422 5.48218 9.9453 5.40618 9.89694C5.33019 9.84858 5.34746 9.70349 5.35437 9.5895C5.37314 9.4627 5.364 9.33333 5.32761 9.21042C5.29121 9.08751 5.22843 8.97402 5.14365 8.87789C5.14365 8.87789 5.0711 8.81916 5.07456 8.78116C5.07456 8.67062 5.21274 8.75698 5.25764 8.78116C5.36473 8.83643 5.56509 8.8468 5.64454 8.91243C5.72399 8.97806 5.64454 9.28896 5.62036 9.46859C5.62036 9.50314 5.62036 9.55841 5.62036 9.61713C5.61327 9.66524 5.61327 9.71412 5.62036 9.76222C5.64454 9.82094 5.77926 9.83822 5.87253 9.84513C6.08181 9.86079 6.29196 9.86079 6.50124 9.84513C6.55651 9.84513 6.61178 9.84513 6.6636 9.84513C6.74615 9.82266 6.83321 9.82266 6.91577 9.84513C6.96141 9.86859 7.00239 9.9002 7.03668 9.9384C7.06777 9.96258 7.12304 10.0144 7.12304 10.0628C7.11885 10.0854 7.10811 10.1063 7.09214 10.1229C7.07617 10.1395 7.05568 10.151 7.03322 10.156M7.54793 10.3875H7.52375C7.4936 10.3983 7.46063 10.3983 7.43048 10.3875C7.3979 10.374 7.37103 10.3495 7.35448 10.3184C7.34751 10.3063 7.34384 10.2926 7.34384 10.2787C7.34384 10.2647 7.34751 10.251 7.35448 10.2389C7.35448 10.1837 7.42012 10.1768 7.47884 10.1733C7.53757 10.1698 7.58593 10.2907 7.54793 10.3909M7.66193 10.0455C7.66193 10.0938 7.50993 10.118 7.4443 10.1249C7.37866 10.1318 7.17485 10.1249 7.20249 10.0455C7.23012 9.96603 7.38212 10.0006 7.4443 9.99712C7.50648 9.99367 7.65502 9.99712 7.66193 10.0455ZM7.13685 9.70004C7.23807 9.7069 7.33963 9.7069 7.44084 9.70004C7.6412 9.70004 7.8381 9.68277 8.04191 9.67931C8.1396 9.67076 8.23785 9.67076 8.33554 9.67931C8.39772 9.67931 8.48408 9.76913 8.46335 9.82785C8.44263 9.88658 8.37008 9.86585 8.32172 9.82785C8.27336 9.78986 8.22845 9.73458 8.11791 9.74495C8.00737 9.75531 7.96592 9.78295 7.87265 9.78986C7.70338 9.78986 7.5272 9.81058 7.34412 9.82785C7.16104 9.84513 7.07813 9.87967 6.99868 9.82785C6.91922 9.77604 6.93995 9.64131 6.84323 9.63786C6.7465 9.63441 6.7845 9.67931 6.75687 9.70349C6.732 9.73195 6.69761 9.75037 6.66014 9.75531C6.62385 9.74958 6.58983 9.73399 6.5618 9.71023C6.53378 9.68647 6.51283 9.65546 6.50124 9.62059C6.50124 9.56532 6.56342 9.47205 6.59105 9.38223C6.61869 9.29242 6.59105 9.1197 6.64632 9.03679C6.6678 9.00247 6.70156 8.97763 6.74072 8.96736C6.77988 8.95709 6.82149 8.96215 6.85705 8.98152C6.89778 9.04224 6.92582 9.11056 6.93947 9.18239C6.95312 9.25423 6.95211 9.32808 6.9365 9.3995C6.9365 9.45478 6.89159 9.48932 6.89504 9.53423C6.8985 9.57913 7.04358 9.68968 7.14031 9.70349M7.48575 8.91243C7.44437 8.94436 7.40514 8.97898 7.3683 9.01606C7.31303 9.07133 7.28539 9.13006 7.23358 9.17497C7.19874 9.20181 7.15659 9.21747 7.11267 9.21987C7.05049 9.21987 7.00558 9.10588 6.9814 9.0437C6.96784 9.00401 6.95631 8.96366 6.94686 8.92279C6.92956 8.8853 6.9168 8.84587 6.90886 8.80534C6.90886 8.66026 7.00213 8.62917 7.09195 8.57044C7.18176 8.51172 7.17831 8.48754 7.24394 8.48063C7.30958 8.47372 7.31303 8.51517 7.34757 8.54971C7.40101 8.60808 7.45874 8.66235 7.5203 8.71207C7.55484 8.74316 7.59284 8.77425 7.59284 8.80189C7.59284 8.82952 7.52375 8.88134 7.48575 8.91243ZM9.05406 9.42369C9.02297 9.3546 8.86407 9.32005 8.84334 9.23369C8.8088 9.08515 8.96425 9.10933 8.97807 9.00224C8.81916 8.98152 8.63262 9.05406 8.45299 9.0437C8.33302 9.03973 8.21527 9.0103 8.10755 8.95734C8.05573 8.9297 7.90028 8.83298 7.9141 8.73971C7.9141 8.70171 7.9901 8.6568 8.03501 8.63953C8.14732 8.59526 8.26279 8.55947 8.38045 8.53244C8.50826 8.4979 8.63262 8.45644 8.74316 8.43226C8.8454 8.41417 8.95067 8.43646 9.03679 8.49444C9.09552 8.52208 9.14733 8.54971 9.15424 8.60153C9.15801 8.66507 9.14104 8.72811 9.10588 8.78116C9.07824 8.82952 9.02643 8.87098 9.02988 8.92625C9.03334 8.98152 9.08515 8.92625 9.11279 8.95388C9.20951 8.99534 9.25442 9.19915 9.25442 9.3546C9.25442 9.45477 9.25442 9.70004 9.14733 9.70004C9.04024 9.70004 9.07824 9.51005 9.0437 9.43059M9.38914 10.0558C9.50256 10.0805 9.61859 10.0909 9.73458 10.0869C9.90731 10.0869 10.0973 10.0869 10.2562 10.0869C10.335 10.0917 10.4134 10.1009 10.4911 10.1146C10.5533 10.1146 10.6155 10.0973 10.6569 10.1146C10.6898 10.1297 10.7159 10.1563 10.7306 10.1894C10.7452 10.2224 10.7473 10.2597 10.7364 10.2942C10.6742 10.3149 10.6327 10.2286 10.6086 10.232C10.5437 10.2669 10.4715 10.2859 10.3978 10.2873C10.3253 10.2873 10.2562 10.2009 10.1733 10.1871C10.0904 10.1733 9.90385 10.1871 9.76567 10.1871H9.55495C9.48986 10.1758 9.42408 10.1689 9.35805 10.1664C9.30969 10.1664 9.27515 10.2113 9.23024 10.2044C9.18533 10.1975 9.12661 9.93149 9.18533 9.9004C9.24406 9.86931 9.34078 10.0317 9.39605 10.0628M9.74149 8.68098C9.71473 8.65009 9.68461 8.62228 9.65168 8.59808C9.60133 8.5417 9.54027 8.49591 9.47205 8.46335C9.3926 8.43226 9.30278 8.42881 9.22678 8.40463C9.15079 8.38045 9.05406 8.27681 8.90552 8.28372C8.80828 8.2921 8.71219 8.31062 8.6188 8.33899C8.46205 8.35386 8.30632 8.37808 8.15246 8.41154C8.04852 8.47606 7.92931 8.51182 7.80701 8.51517C7.74483 8.51517 7.61356 8.47717 7.61356 8.42536C7.61356 8.37354 7.75174 8.38045 7.82429 8.36318C7.96592 8.33554 8.05228 8.21809 8.19045 8.15591C8.33576 8.11172 8.48499 8.08164 8.63608 8.06609C8.78424 8.01254 8.93682 7.97208 9.09206 7.94519C9.18129 7.94873 9.26911 7.96863 9.35114 8.00391C9.40338 8.0447 9.44587 8.09663 9.4755 8.15591C9.51245 8.2101 9.55406 8.26096 9.59986 8.30791C9.6275 8.33209 9.67586 8.3459 9.70695 8.37354C9.73804 8.40117 9.75186 8.42881 9.77949 8.45299C9.87037 8.51594 9.95483 8.58768 10.0317 8.66716C10.0821 8.72815 10.108 8.80575 10.1042 8.88479C10.0323 8.90316 9.95608 8.89456 9.89003 8.86061C9.80022 8.8088 9.82095 8.67407 9.77258 8.5808M10.1802 9.24405C10.1802 9.24405 9.91076 9.14388 9.92458 9.07479C9.9384 9.0057 10.194 8.98497 10.2148 9.11624C10.2173 9.16145 10.2052 9.20627 10.1802 9.24405ZM10.0593 8.60844C10.0317 8.58426 9.98676 8.56008 9.9833 8.51862C9.97985 8.47717 10.0628 8.49099 10.1111 8.4979C10.2474 8.51865 10.3709 8.59023 10.4566 8.69826C10.4722 8.76032 10.4792 8.82426 10.4773 8.88825C10.4773 8.95043 10.5015 9.01261 10.5049 9.06097C10.5084 9.10933 10.5049 9.27169 10.422 9.27514C10.3391 9.2786 10.3633 9.17497 10.3633 9.10242C10.3633 8.8537 10.2009 8.75698 10.0697 8.62226M10.5429 9.81749C10.5429 9.90385 10.3702 9.85203 10.3598 9.80022C10.3495 9.7484 10.3598 9.74149 10.3598 9.72422C10.3598 9.70695 10.3391 9.58604 10.3598 9.52732C10.3806 9.41678 10.5464 9.46168 10.5291 9.59641C10.5291 9.63786 10.4635 9.68968 10.46 9.71731C10.4566 9.74495 10.5464 9.75877 10.5395 9.81749M10.9333 8.50481C10.9333 8.5359 10.7502 8.56699 10.6811 8.5739C10.5985 8.57705 10.5161 8.56293 10.4393 8.53244C10.4013 8.53244 10.308 8.4979 10.3046 8.46681C10.3011 8.43572 10.4186 8.39427 10.4462 8.38736C10.5059 8.3648 10.5689 8.35198 10.6327 8.34936C10.6926 8.35961 10.7508 8.37822 10.8055 8.40463C10.84 8.40463 10.9436 8.4599 10.9333 8.50481ZM11.4273 8.60844C11.4825 8.69135 11.5102 8.79843 11.5585 8.88825C11.5287 8.90937 11.4931 8.92071 11.4566 8.92071C11.4201 8.92071 11.3845 8.90937 11.3547 8.88825C11.3167 8.85025 11.3202 8.78116 11.296 8.72589C11.2558 8.67022 11.2094 8.61924 11.1578 8.5739C11.0821 8.47461 11.0409 8.35332 11.0404 8.22845C10.9989 8.16973 10.9436 8.22845 10.8711 8.22845C10.8079 8.22738 10.7455 8.21327 10.688 8.187C10.6396 8.16282 10.5913 8.10755 10.5498 8.10755C10.5084 8.10755 10.4877 8.15936 10.4773 8.20082C10.4669 8.24227 10.3909 8.26645 10.346 8.25609C10.3011 8.24572 10.308 8.18009 10.2942 8.12137C10.2804 8.06264 10.2597 8.035 10.2666 8.00046C10.2735 7.96592 10.3495 7.98319 10.3944 7.97973C10.5256 7.97973 10.6707 7.92792 10.7882 7.93137C10.9056 7.93483 10.9229 7.98319 10.9955 7.99355C11.1187 8.13144 11.2254 8.28332 11.3133 8.44608C11.3443 8.49444 11.3893 8.5359 11.4273 8.58426M12.3565 8.4979C12.3945 8.54626 12.4359 8.62571 12.4049 8.66716C12.3738 8.70862 12.208 8.64298 12.1769 8.53244C12.1711 8.49292 12.1595 8.45449 12.1423 8.41845C12.1147 8.38045 12.0111 8.37699 11.9385 8.36663C11.7036 8.33899 11.4825 8.33209 11.2684 8.28718C11.2178 8.22087 11.1749 8.14902 11.1405 8.073C11.1647 8.04191 11.1889 8.03155 11.2511 8.03846C11.4669 8.05871 11.6786 8.1099 11.8798 8.19045C11.9737 8.22013 12.0623 8.26443 12.1423 8.32172C12.2208 8.37119 12.2928 8.43039 12.3565 8.4979ZM13.0474 8.05228C12.887 8.0296 12.7242 8.0296 12.5638 8.05228C12.5154 8.073 12.4809 8.13864 12.429 8.17318C12.3639 8.20569 12.297 8.23452 12.2287 8.25954C12.163 8.23536 12.1147 8.19045 12.0491 8.16282C11.9834 8.13518 12.0491 7.97973 12.0318 7.90374C12.0145 7.82774 11.9558 7.80701 11.9558 7.75865C11.9558 7.65847 12.1665 7.59284 12.2667 7.58593C12.3669 7.57902 12.6467 7.65156 12.4532 7.70683C12.4187 7.70683 12.3807 7.70683 12.3772 7.74483C12.3738 7.78283 12.4498 7.8001 12.5085 7.79665C12.5672 7.79319 12.6432 7.73792 12.7434 7.74829C12.8203 7.76066 12.8942 7.78763 12.961 7.82774C12.9944 7.87132 13.0223 7.91889 13.0439 7.96937C13.0507 7.99543 13.0507 8.02277 13.0439 8.04882M13.0163 7.79319C12.8988 7.66883 12.6708 7.65502 12.5569 7.53066C12.5569 7.50648 12.5776 7.49611 12.5569 7.45811C12.5361 7.42012 12.3876 7.39939 12.2943 7.42702C12.201 7.45466 12.2045 7.47884 12.1561 7.49957C12.1041 7.51528 12.0533 7.53491 12.0041 7.55829C11.9489 7.58938 11.9178 7.64465 11.8729 7.66193C11.8729 7.62047 11.8729 7.58247 11.8556 7.53757C11.8383 7.49266 11.8211 7.47539 11.8245 7.45121C11.828 7.42702 11.9109 7.4063 11.942 7.39248C12.0283 7.35448 12.1043 7.26467 12.2149 7.27158C12.3667 7.27993 12.514 7.32626 12.6432 7.4063C12.8028 7.47745 12.9584 7.55701 13.1096 7.64465C13.1683 7.6792 13.2892 7.75865 13.2961 7.81047C13.303 7.86228 13.2305 7.92446 13.1787 7.92792C13.1268 7.93137 13.0508 7.84156 13.0025 7.79319M13.1268 8.07991C13.1476 8.00391 13.3997 8.03155 13.4032 8.12827C13.4066 8.225 13.1061 8.15246 13.1268 8.07991ZM13.5897 7.8001C13.6312 7.8001 13.6865 7.8001 13.6968 7.82774C13.7072 7.85537 13.6657 7.9521 13.645 7.97628C13.6258 8.00425 13.6 8.02707 13.5698 8.04273C13.5397 8.05839 13.5062 8.06641 13.4723 8.06609C13.458 8.04141 13.4505 8.01342 13.4505 7.98492C13.4505 7.95642 13.458 7.92842 13.4723 7.90374C13.5148 7.86665 13.5658 7.84055 13.6208 7.82774M14.0803 7.2543C14.0803 7.31994 13.9214 7.3303 13.8419 7.35794C13.7625 7.38557 13.7555 7.45466 13.7037 7.5272C13.6519 7.59975 13.5414 7.72756 13.4688 7.69992C13.3963 7.67229 13.4066 7.6032 13.4239 7.54793C13.4412 7.49266 13.5794 7.42357 13.6312 7.37866C13.683 7.33376 13.7797 7.1714 13.949 7.15413C14.0319 7.15413 14.0872 7.18867 14.0803 7.2543ZM15.0199 7.59975C14.9646 7.66883 14.7988 7.62738 14.8022 7.55138C14.8057 7.47539 15.0371 7.47884 15.0199 7.59975Z" fill="#272727"/>
</svg>
