<svg width="40" height="40" viewBox="0 0 40 40" fill="none" xmlns="http://www.w3.org/2000/svg">
<path d="M0 0V28.8763C3.05184 25.1437 5.68444 23.5904 6.78794 23.1002C6.89025 23.0533 6.89523 22.9829 6.89025 22.9531C6.88102 22.8998 6.82986 22.8479 6.69698 22.8486C6.15341 22.8557 5.03144 23.1598 4.29602 23.4306C4.12335 23.4938 4.09777 23.3808 4.16812 23.2515C4.32444 22.9566 5.04281 22.2788 7.18869 21.414C10.7344 19.9829 14.398 20.1386 16.0756 20.9813C16.8181 21.355 17.1301 22.0976 17.2232 22.3661C17.2338 22.3995 17.2182 22.4187 17.1919 22.4187C14.5898 22.3889 13.4167 22.5218 12.6372 22.7591C12.4063 22.8301 12.3843 23.0035 12.5896 23.1563C12.957 23.4355 14.0974 23.7283 14.5529 23.8043C14.6886 23.8271 14.7639 23.783 14.8478 23.6856C14.9465 23.5755 15.0687 23.4142 15.1789 23.3083C15.2634 23.2259 15.3068 23.2167 15.4681 23.2053C15.709 23.1883 16.266 23.1797 16.7535 23.1883C19.0336 23.2288 21.5803 23.7937 21.5803 27.0231C21.5803 28.1835 21.1049 29.3182 20.879 29.665C20.7326 29.8924 20.5002 29.8824 20.5123 29.542C20.5727 27.9568 20.3176 27.3059 17.8094 27.3059C16.5396 27.3059 14.5365 27.4893 13.6377 27.9113C13.303 28.0676 13.2725 28.3554 13.6078 28.3256C14.1074 28.2815 16.0678 28.1479 17.4541 28.1479C18.3721 28.1479 19.094 28.2389 19.3555 28.6041C19.4195 28.6944 19.4308 28.8585 19.2113 28.8258C19.1232 28.8137 18.8894 28.7874 18.5668 28.7874C15.6784 28.7874 12.8547 30.4921 12.8547 33.4387C12.8547 38.1256 19.752 40 28.376 40C35.3231 40 40 38.5093 40 38.5093V0H0Z" fill="#272727"/>
</svg>
