<svg width="63" height="40" viewBox="0 0 63 40" fill="none" xmlns="http://www.w3.org/2000/svg">
<path d="M62.3285 38.7667C62.3285 38.4307 62.1951 38.1085 61.9575 37.871C61.72 37.6335 61.3978 37.5 61.0619 37.5H1.06186C0.765378 37.5486 0.495811 37.701 0.301301 37.9299C0.10679 38.1589 0 38.4496 0 38.75C0 39.0504 0.10679 39.3411 0.301301 39.5701C0.495811 39.799 0.765378 39.9514 1.06186 40H61.0619C61.7285 40 62.3285 39.4333 62.3285 38.7333V38.7667ZM45.9952 32.3L47.1619 33.7333H44.7619L45.9619 32.3H45.9952ZM30.9619 26.3L37.1285 33.7333H24.7952L30.9619 26.3333V26.3ZM14.7285 33.7667L16.0285 32.2333L17.3285 33.7667H14.7285ZM11.7952 27.1667L14.3952 30.3L11.4952 33.8H6.3952L11.8619 27.1667H11.7952ZM16.5619 21.4333L19.0952 24.6333L16.0285 28.3333L13.4285 25.2333L16.5619 21.4333ZM21.6619 15.2667L24.2952 18.4L20.7285 22.6667L18.1952 19.4667L21.6619 15.2667ZM29.3952 12.3L25.9285 16.4667L23.2619 13.3L26.7619 9.13333L29.3952 12.3ZM33.6619 7.16667L30.9952 10.3667L28.3619 7.16667L31.0285 3.96667L33.6952 7.16667H33.6619ZM38.6619 13.1667L35.9952 16.3667L32.6619 12.3L35.3285 9.1L38.6619 13.1667ZM43.8619 19.5L41.2619 22.7667L37.5952 18.3333L40.2619 15.1333L43.8619 19.4667V19.5ZM35.9952 20.3L39.6619 24.7333L36.3285 28.9333L32.5619 24.4L35.9952 20.3ZM27.5619 18.4L30.9952 14.2667L34.3952 18.3L30.9619 22.4333L27.5952 18.3667L27.5619 18.4ZM25.6285 28.8L22.3285 24.6667L25.9285 20.3333L29.2952 24.4L25.6285 28.8ZM20.5619 33.8L17.7285 30.2333L20.7619 26.5667L24.0952 30.7L21.5619 33.7H20.6285L20.5619 33.8ZM40.3619 33.8L37.9619 30.9L41.2952 26.7333L44.2952 30.4L41.4952 33.8H40.3619ZM48.6285 25.2333L45.9619 28.4333L42.8952 24.7333L45.4952 21.4333L48.6285 25.2333ZM55.7285 33.7667H50.3952L47.5619 30.4L50.2285 27.1667L55.6952 33.8L55.7285 33.7667ZM12.6619 36.2667H61.0619L51.8952 25.2333L50.2952 23.2333L47.1285 19.4667L45.4952 17.4667L41.9285 13.2L40.3285 11.2L36.9619 7.16667L36.6285 6.73334L31.0619 0L25.5285 6.7L25.1952 7.13333L16.6285 17.4667L14.9952 19.4L11.8285 23.2333L10.2285 25.2L1.06186 36.2333H12.6952L12.6619 36.2667Z" fill="#272727"/>
</svg>
