<svg width="120" height="21" viewBox="0 0 120 21" fill="none" xmlns="http://www.w3.org/2000/svg">
<path d="M3.90738 6.25181L0.955138 1.82344V8.42258H0V0.260493H0.955138L3.90738 4.77569L6.94645 0.260493H7.90159V8.42258H6.94645V1.82344L3.90738 6.25181Z" fill="#272727"/>
<path d="M17.5398 4.94935C17.5537 5.4822 17.4653 6.01277 17.2793 6.5123C17.1422 6.93909 16.9039 7.32638 16.5847 7.6411C16.2864 7.98037 15.8932 8.22235 15.4559 8.33575C14.5625 8.68448 13.5706 8.68448 12.6773 8.33575C12.2776 8.24029 11.9151 8.02883 11.6353 7.72793C11.3235 7.40735 11.0863 7.02192 10.9407 6.59913C10.7624 6.09758 10.6742 5.56845 10.6802 5.03618V0.260493H11.5485V4.94935C11.5121 5.70631 11.7598 6.44955 12.2431 7.03329C12.4856 7.26456 12.7717 7.44513 13.0848 7.56441C13.3979 7.68369 13.7317 7.73928 14.0666 7.72793C14.4036 7.76249 14.7441 7.71766 15.0607 7.59704C15.3774 7.47642 15.6614 7.28335 15.89 7.03329C16.3757 6.48514 16.6254 5.76741 16.5847 5.03618V0.260493H17.5398V4.94935Z" fill="#272727"/>
<path d="M21.0999 2.86541L21.4472 3.29957L22.1418 3.64689L23.2706 3.90738C23.9943 4.03915 24.6778 4.33631 25.2677 4.77569C25.4744 4.95953 25.6364 5.18796 25.7418 5.4437C25.8471 5.69944 25.8928 5.97578 25.8755 6.25181C25.9096 6.58022 25.8494 6.91155 25.7019 7.20695L25.0941 7.98842L24.2258 8.42258L23.097 8.59624C22.4717 8.608 21.8507 8.48973 21.2735 8.24891C20.7153 8.04681 20.2105 7.72016 19.7974 7.29378L20.3184 6.59913C20.7101 6.94766 21.1485 7.23991 21.6208 7.46744C22.1204 7.65341 22.6509 7.74184 23.1838 7.72793C23.6444 7.75964 24.1026 7.63748 24.4863 7.38061C24.6534 7.26443 24.7887 7.10815 24.8797 6.9261C24.9707 6.74404 25.0146 6.54205 25.0072 6.33864C25.0072 6.16498 24.9204 5.99132 24.9204 5.81766L24.5731 5.3835L23.8784 5.03618L22.8365 4.77569L21.6208 4.42836C21.3028 4.30763 21.0087 4.13121 20.7525 3.90738C20.5339 3.74811 20.3555 3.53998 20.2315 3.29957C20.1245 3.02216 20.0658 2.72848 20.0579 2.43126C20.0502 2.09435 20.1407 1.76248 20.3184 1.47612C20.4134 1.19486 20.5959 0.951413 20.8394 0.781475C21.1001 0.585329 21.3943 0.438219 21.7077 0.347322C22.0354 0.204521 22.3933 0.144869 22.7496 0.173661C23.3102 0.168061 23.8678 0.256101 24.3994 0.434153C24.8816 0.561473 25.3275 0.799299 25.7019 1.1288L25.0941 1.82344C24.7685 1.53818 24.3826 1.33038 23.9653 1.21563C23.5849 1.0381 23.1693 0.949038 22.7496 0.955137H22.055L21.4472 1.30246L21.0999 1.73661C21.013 1.82344 21.013 1.99711 21.013 2.2576C20.9853 2.46433 21.0153 2.67472 21.0999 2.86541Z" fill="#272727"/>
<path d="M34.385 1.1288H29.3488V3.90738H33.7771V4.77569H29.3488V7.6411H34.385V8.42258H28.3936V0.260493H34.385V1.1288Z" fill="#272727"/>
<path d="M44.5441 5.99132C44.3885 6.48034 44.1209 6.9263 43.7627 7.29378C43.3576 7.68927 42.8877 8.01233 42.3734 8.24891C41.8592 8.49511 41.2934 8.61423 40.7236 8.59624C40.125 8.62491 39.5285 8.50562 38.987 8.24891C38.4924 8.06236 38.0469 7.76538 37.6845 7.38061C37.2857 6.99556 36.9876 6.5185 36.8162 5.99132C36.6086 5.46481 36.4911 4.90707 36.4689 4.34153C36.5006 3.80536 36.6178 3.27771 36.8162 2.77858C37.0219 2.26812 37.3158 1.79784 37.6845 1.38929C38.0645 1.00291 38.5043 0.680387 38.987 0.434153C39.544 0.227714 40.13 0.110497 40.7236 0.086831C41.2902 0.100025 41.8495 0.217775 42.3734 0.434153C42.8877 0.670734 43.3576 0.9938 43.7627 1.38929C44.1041 1.76946 44.3694 2.21161 44.5441 2.69175C44.7842 3.20801 44.903 3.77232 44.8915 4.34153C44.9095 4.91134 44.7903 5.47713 44.5441 5.99132ZM43.6758 3.03907C43.5517 2.63105 43.3101 2.26865 42.9812 1.99711C42.7146 1.64343 42.3534 1.37248 41.9392 1.21563C41.5589 1.0381 41.1433 0.949039 40.7236 0.955138C40.275 0.938756 39.8289 1.02798 39.4211 1.21563C39.007 1.37248 38.6457 1.64343 38.3792 1.99711C38.0797 2.29402 37.8434 2.64845 37.6845 3.03907C37.5421 3.45772 37.4831 3.90021 37.5109 4.34153C37.4702 4.78322 37.5295 5.2284 37.6845 5.64399C37.8644 6.0497 38.0981 6.42937 38.3792 6.77279C38.6761 7.07226 39.0305 7.30854 39.4211 7.46744C39.8289 7.65509 40.275 7.74431 40.7236 7.72793C41.1705 7.7257 41.6127 7.63725 42.026 7.46744L42.9812 6.77279C43.2975 6.45389 43.5454 6.07377 43.7096 5.65571C43.8738 5.23765 43.951 4.79046 43.9363 4.34153C43.9341 3.89467 43.8456 3.45243 43.6758 3.03907Z" fill="#272727"/>
<path d="M57.5687 0.260493H58.5239V8.42258H57.7424L52.4457 1.73661V8.42258H51.5774V0.260493H52.4457L57.5687 6.85962V0.260493Z" fill="#272727"/>
<path d="M69.1172 8.42258H68.0752L67.1201 6.33864H62.6917L61.6498 8.42258H60.7815L64.5152 0.173662H65.3835L69.1172 8.42258ZM64.8625 1.30246L63.0391 5.47033H66.7728L64.8625 1.30246Z" fill="#272727"/>
<path d="M77.1925 7.72793L76.4978 8.24891L75.6295 8.50941H74.5875C74.0177 8.5274 73.452 8.40828 72.9378 8.16208C72.4432 7.97553 71.9977 7.67855 71.6353 7.29378C71.2965 6.89464 71.0051 6.45757 70.767 5.99132C70.5887 5.42991 70.5007 4.84372 70.5065 4.2547C70.5084 3.69468 70.5962 3.13827 70.767 2.60492C70.9842 2.12672 71.2774 1.68687 71.6353 1.30246C71.9926 0.890735 72.4377 0.564352 72.9378 0.347322C73.4643 0.139668 74.022 0.022249 74.5875 0H75.6295L76.4978 0.260493L77.1925 0.694646L77.8003 1.21563L77.1925 1.91028C76.8752 1.57352 76.4906 1.30726 76.0637 1.1288C75.6151 0.873955 75.1027 0.753395 74.5875 0.781476C74.1679 0.775376 73.7523 0.864437 73.3719 1.04197C72.9813 1.20086 72.6269 1.43715 72.33 1.73661C72.0488 2.08003 71.8152 2.45971 71.6353 2.86541C71.5348 3.29281 71.4766 3.72907 71.4616 4.16787C71.4714 4.63573 71.5296 5.10131 71.6353 5.55716L72.33 6.59913C72.6269 6.89859 72.9813 7.13488 73.3719 7.29378C73.7523 7.47131 74.1679 7.56037 74.5875 7.55427C75.0921 7.56811 75.5943 7.4795 76.0637 7.29378L77.2793 6.42547L77.8871 7.03329L77.1925 7.72793Z" fill="#272727"/>
<path d="M81.0998 0.260493V8.42258H80.1447V0.260493H81.0998Z" fill="#272727"/>
<path d="M91.78 5.99132C91.6244 6.48034 91.3568 6.9263 90.9985 7.29378C90.5935 7.68927 90.1236 8.01233 89.6093 8.24891C89.0951 8.49511 88.5293 8.61423 87.9595 8.59624C87.3609 8.62491 86.7644 8.50562 86.2229 8.24891C85.7283 8.06236 85.2828 7.76538 84.9204 7.38061C84.5517 6.97206 84.2578 6.50178 84.0521 5.99132C83.874 5.45972 83.786 4.90213 83.7916 4.34153C83.7939 3.80994 83.8819 3.2822 84.0521 2.77858C84.2578 2.26812 84.5517 1.79784 84.9204 1.38929C85.3003 1.00291 85.7402 0.680387 86.2229 0.434153C86.7731 0.204875 87.3633 0.086831 87.9595 0.086831C88.5556 0.086831 89.1458 0.204875 89.6961 0.434153C90.1697 0.694876 90.6075 1.01593 90.9985 1.38929C91.3399 1.76946 91.6052 2.21161 91.78 2.69175C92.0201 3.20801 92.1389 3.77232 92.1273 4.34153C92.1453 4.91134 92.0262 5.47713 91.78 5.99132ZM90.9117 3.03907C90.7876 2.63105 90.546 2.26865 90.2171 1.99711C89.9635 1.66616 89.6365 1.39864 89.2619 1.21563C88.8486 1.04582 88.4063 0.957371 87.9595 0.955138C87.5109 0.938756 87.0648 1.02798 86.657 1.21563C86.2429 1.37248 85.8816 1.64343 85.6151 1.99711C85.3156 2.29402 85.0793 2.64845 84.9204 3.03907C84.8199 3.46647 84.7617 3.90273 84.7467 4.34153C84.7503 4.78121 84.8087 5.21873 84.9204 5.64399C85.1003 6.0497 85.3339 6.42937 85.6151 6.77279C85.912 7.07226 86.2664 7.30854 86.657 7.46744C87.0648 7.65509 87.5109 7.74431 87.9595 7.72793C88.4063 7.7257 88.8486 7.63725 89.2619 7.46744L90.2171 6.77279C90.5334 6.45389 90.7812 6.07377 90.9455 5.65571C91.1097 5.23765 91.1869 4.79046 91.1722 4.34153C91.17 3.89467 91.0815 3.45243 90.9117 3.03907Z" fill="#272727"/>
<path d="M100.724 0.260493H101.592V8.42258H100.897L95.6006 1.73661V8.42258H94.6454V0.260493H95.5137L100.724 6.85962V0.260493Z" fill="#272727"/>
<path d="M112.185 8.42258H111.23L110.275 6.33864H105.76L104.805 8.42258H103.849L107.583 0.173662H108.452L112.185 8.42258ZM108.017 1.30246L106.107 5.47033H109.841L108.017 1.30246Z" fill="#272727"/>
<path d="M114.443 0.260493H115.311V7.6411H120V8.42258H114.443V0.260493Z" fill="#272727"/>
<path d="M6.85962 18.1476C6.70561 18.6582 6.40339 19.1115 5.99132 19.4501C5.57523 19.8087 5.10671 20.1015 4.60203 20.3184C4.04062 20.4967 3.45443 20.5846 2.86541 20.5789H0V12.4168H2.86541C3.46324 12.3981 4.05737 12.5169 4.60203 12.7641C5.13777 12.9167 5.61941 13.2177 5.99132 13.6324C6.38315 13.9537 6.68277 14.3732 6.85962 14.848C7.08931 15.3677 7.20796 15.9296 7.20796 16.4978C7.20796 17.066 7.08931 17.6279 6.85962 18.1476ZM5.99132 15.2822C5.86716 14.8742 5.62555 14.5118 5.29667 14.2402C5.02513 13.9114 4.66272 13.6697 4.2547 13.5456C3.81367 13.3668 3.34127 13.2782 2.86541 13.2851H0.955138V19.7974H2.86541C3.34127 19.8043 3.81367 19.7157 4.2547 19.5369C4.64533 19.378 4.99976 19.1417 5.29667 18.8423C5.62555 18.5707 5.86716 18.2083 5.99132 17.8003C6.17896 17.3925 6.26819 16.9464 6.25181 16.4978C6.25791 16.0781 6.16885 15.6625 5.99132 15.2822Z" fill="#272727"/>
<path d="M15.7164 13.2851H10.6802V16.0637H15.1954V16.932H10.6802V19.7974H15.8032V20.5789H9.81187V12.4168H15.7164V13.2851Z" fill="#272727"/>
<path d="M18.2344 12.4168H19.1896V19.7974H23.7916V20.5789H18.2344V12.4168Z" fill="#272727"/>
<path d="M36.2952 16.4978C36.1372 16.8637 35.9 17.1899 35.6006 17.453C35.2913 17.6941 34.9371 17.8712 34.5586 17.9739L33.2561 18.1476H31.8669V20.5789H30.0434V12.4168H33.4298L34.7323 12.5905C35.081 12.7408 35.4035 12.946 35.6874 13.1983C35.9652 13.4474 36.1999 13.7408 36.3821 14.0666C36.4885 14.4634 36.5468 14.8715 36.5557 15.2822C36.5618 15.7019 36.4728 16.1175 36.2952 16.4978ZM34.7323 15.2822C34.7358 15.1007 34.6987 14.9207 34.6235 14.7554C34.5484 14.5901 34.4372 14.4437 34.2981 14.3271C33.9848 14.1376 33.6217 14.0468 33.2561 14.0666H31.8669V16.5847H33.2561C33.6597 16.591 34.0548 16.4694 34.385 16.2373C34.5039 16.1095 34.596 15.9591 34.6556 15.795C34.7153 15.631 34.7414 15.4566 34.7323 15.2822Z" fill="#272727"/>
<path d="M43.5022 20.5789L41.7656 17.9739H40.2894V20.5789H38.466V12.4168H42.2865C43.0971 12.3775 43.8959 12.6232 44.5441 13.1114C44.8087 13.3698 45.0152 13.6815 45.1499 14.0258C45.2847 14.3702 45.3446 14.7393 45.3256 15.1085C45.3367 15.6881 45.1863 16.2593 44.8915 16.7583C44.5579 17.195 44.1058 17.5266 43.589 17.7135L45.5861 20.5789H43.5022ZM43.5022 15.1954C43.5159 15.0336 43.4917 14.8708 43.4314 14.7201C43.3711 14.5693 43.2764 14.4347 43.1549 14.3271C42.8416 14.1376 42.4785 14.0468 42.1129 14.0666H40.2894V16.411H42.1129C42.3011 16.427 42.4905 16.4044 42.6696 16.3447C42.8488 16.285 43.0139 16.1893 43.1549 16.0637C43.2753 15.9745 43.3705 15.8556 43.4314 15.7187C43.4923 15.5817 43.5166 15.4314 43.5022 15.2822V15.1954Z" fill="#272727"/>
<path d="M53.6614 20.5789L52.9667 18.7554H49.4935L48.712 20.5789H46.8886L50.3618 12.33H52.0984L55.5716 20.5789H53.6614ZM51.2301 14.5007L50.1013 17.1925H52.2721L51.2301 14.5007Z" fill="#272727"/>
<path d="M64.6889 18.1476C64.5023 18.6422 64.2053 19.0876 63.8205 19.4501L62.4313 20.3184C61.8698 20.4967 61.2837 20.5846 60.6946 20.5789H57.4819V12.4168H60.6946C61.2925 12.3981 61.8866 12.5169 62.4313 12.7641C62.9584 12.9355 63.4355 13.2336 63.8205 13.6324C64.1855 13.978 64.4803 14.3908 64.6889 14.848C64.9351 15.3622 65.0542 15.928 65.0362 16.4978C65.0542 17.0676 64.9351 17.6334 64.6889 18.1476ZM63.1259 16.4978C63.1181 16.1723 63.0595 15.8501 62.9522 15.5427C62.8818 15.2265 62.6961 14.9479 62.4313 14.7612C62.2446 14.4964 61.966 14.3107 61.6498 14.2402C61.3544 14.0927 61.0231 14.0325 60.6946 14.0666H59.3053V19.0159H60.6946L61.6498 18.8423L62.4313 18.3213C62.6621 18.1038 62.8403 17.8365 62.9522 17.5398C63.0595 17.2324 63.1181 16.9101 63.1259 16.5847V16.4978Z" fill="#272727"/>
<path d="M75.2822 18.1476C75.0456 18.6619 74.7225 19.1318 74.3271 19.5369C73.9468 19.9415 73.4681 20.2407 72.9378 20.4052C72.3962 20.6619 71.7998 20.7812 71.2011 20.7525C70.6033 20.7712 70.0092 20.6524 69.4645 20.4052C68.9541 20.1995 68.4838 19.9056 68.0752 19.5369C67.6888 19.142 67.3925 18.668 67.2069 18.1476C66.9611 17.6643 66.8416 17.1266 66.8596 16.5847C66.8416 16.0149 66.9607 15.4491 67.2069 14.9349C67.3935 14.4403 67.6905 13.9948 68.0752 13.6324C68.4803 13.2369 68.9502 12.9139 69.4645 12.6773C70.0215 12.4708 70.6076 12.3536 71.2011 12.33C71.823 12.353 72.4378 12.4701 73.0246 12.6773C73.5247 12.8943 73.9697 13.2207 74.3271 13.6324C74.7287 13.9647 75.0544 14.3792 75.2822 14.848C75.4899 15.3746 75.6073 15.9323 75.6295 16.4978C75.6073 17.0634 75.4899 17.6211 75.2822 18.1476ZM73.7192 16.4978C73.7114 16.1724 73.6529 15.8501 73.5456 15.5427L73.0246 14.6744C72.785 14.4712 72.5228 14.2964 72.2431 14.1534C71.9154 14.0106 71.5575 13.9509 71.2011 13.9797C70.8727 13.9457 70.5414 14.0059 70.246 14.1534C69.9298 14.2238 69.6512 14.4096 69.4645 14.6744C69.2124 14.9088 69.0318 15.2099 68.9436 15.5427C68.8363 15.8501 68.7777 16.1724 68.7699 16.4978C68.7851 16.8509 68.8435 17.2008 68.9436 17.5398C69.0555 17.8365 69.2337 18.1038 69.4645 18.3213C69.6671 18.589 69.9366 18.7987 70.246 18.9291L71.2011 19.1028L72.2431 18.9291L73.0246 18.3213L73.5456 17.5398C73.6448 17.2303 73.7032 16.9092 73.7192 16.5847V16.4978Z" fill="#272727"/>
</svg>
