<svg width="36" height="32" viewBox="0 0 36 32" fill="none" xmlns="http://www.w3.org/2000/svg">
<path d="M6 0H30V15.0698H6V0Z" fill="#D9DADD"/>
<path fill-rule="evenodd" clip-rule="evenodd" d="M4 18C4 18.4779 3.83237 18.9167 3.55271 19.2607C12.638 23.8348 23.362 23.8348 32.4473 19.2607C32.1676 18.9167 32 18.4779 32 18C32 16.8954 32.8954 16 34 16C35.1046 16 36 16.8954 36 18C36 18.7403 35.5978 19.3866 35 19.7324V31.2196C35.3646 31.3856 35.7065 31.6458 36 32H32C32.2935 31.6458 32.6354 31.3856 33 31.2196V20.1018C23.5757 24.8877 12.4243 24.8877 3 20.1018V31.2196C3.36462 31.3856 3.70653 31.6458 4 32H0C0.293469 31.6458 0.635383 31.3856 1 31.2196V19.7324C0.402199 19.3866 0 18.7403 0 18C0 16.8954 0.895431 16 2 16C3.10457 16 4 16.8954 4 18ZM34 19C34.5523 19 35 18.5523 35 18C35 17.4477 34.5523 17 34 17C33.4477 17 33 17.4477 33 18C33 18.5523 33.4477 19 34 19ZM3 18C3 18.5523 2.55228 19 2 19C1.44772 19 1 18.5523 1 18C1 17.4477 1.44772 17 2 17C2.55228 17 3 17.4477 3 18Z" fill="#D9DADD"/>
</svg>
