<svg width="16" height="14" viewBox="0 0 16 14" fill="none" xmlns="http://www.w3.org/2000/svg">
<path fill-rule="evenodd" clip-rule="evenodd" d="M5.04279 1.84776L6.55296 0.380262C7.61219 -0.649033 10.4298 0.478861 12.9672 2.94715C15.5073 5.41543 16.6679 8.156 15.6087 9.18531L14.0985 10.6528C13.8343 10.9121 13.4581 11.0391 12.9965 11.0391C12.9509 11.0391 12.9037 11.0348 12.8562 11.0305C12.8399 11.029 12.8235 11.0275 12.8071 11.0262V11.4047C12.8071 12.0477 12.2601 12.6284 11.3396 13.077C11.3236 13.0848 11.3076 13.0925 11.2916 13.0977C10.1256 13.6526 8.38336 14 6.40355 14C4.42375 14 2.68149 13.6526 1.51551 13.0977C1.4995 13.0925 1.4835 13.0848 1.46749 13.077C0.546965 12.6285 0 12.0477 0 11.4047V9.3305C0 7.87591 2.81226 6.73511 6.40354 6.73511C6.41155 6.73511 6.42022 6.73576 6.42889 6.73641C6.43756 6.73705 6.44623 6.7377 6.45424 6.7377C5.85389 5.99352 5.37631 5.24163 5.05879 4.53641C4.51182 3.32302 4.50649 2.3689 5.04279 1.84776ZM9.57069 6.25025C12.0174 8.62784 14.5174 9.51196 15.2324 8.8171C15.9449 8.12482 15.0376 5.69278 12.591 3.31526C10.6859 1.46145 8.74885 0.515101 7.64691 0.515101C7.33474 0.515101 7.08927 0.592878 6.92918 0.745851C6.21677 1.44079 7.12675 3.87008 9.57069 6.25025ZM6.90249 7.264C6.73706 7.25881 6.57164 7.25363 6.40355 7.25363C2.94563 7.25363 0.533599 8.35038 0.533599 9.33042C0.533599 10.3105 2.9456 11.4046 6.40351 11.4046C8.26054 11.4046 10.0029 11.0805 11.1155 10.5386C10.934 10.4531 11.0781 10.5308 10.5658 10.2586C10.0536 9.98642 7.91905 8.32707 7.40677 7.80329C6.89449 7.27951 7.06525 7.4455 6.90249 7.264Z" fill="white"/>
</svg>
