<svg width="20" height="20" viewBox="0 0 20 20" fill="none" xmlns="http://www.w3.org/2000/svg">
<path fill-rule="evenodd" clip-rule="evenodd" d="M11.5004 1.45831C13.4448 -0.486103 16.5973 -0.486103 18.5417 1.45831C20.4861 3.40272 20.4861 6.55523 18.5417 8.49964L15.1943 11.847C14.6501 12.3913 13.7759 12.4046 13.2155 11.8868C13.1838 13.1499 12.6716 14.3698 11.7587 15.2827L8.49964 18.5417C6.55523 20.4861 3.40272 20.4861 1.45831 18.5417C-0.486102 16.5973 -0.486103 13.4448 1.45831 11.5004L4.80566 8.15301C5.34994 7.60873 6.22414 7.59545 6.78452 8.11317C6.81621 6.8501 7.32844 5.63023 8.24134 4.71733L11.5004 1.45831ZM7.02251 9.92839C6.9673 10.0153 6.90178 10.0975 6.82596 10.1733L3.47861 13.5207C2.64999 14.3493 2.64999 15.6928 3.47861 16.5214C4.30724 17.35 5.65071 17.35 6.47933 16.5214L9.73836 13.2624C10.24 12.7607 10.4578 12.0415 10.3186 11.3459L9.85443 9.02491C9.6997 8.25125 10.2014 7.49864 10.9751 7.34391C11.7487 7.18918 12.5014 7.69092 12.6561 8.46458L12.9775 10.0716C13.0327 9.98472 13.0982 9.9025 13.174 9.82668L16.5214 6.47933C17.35 5.65071 17.35 4.30724 16.5214 3.47861C15.6928 2.64999 14.3493 2.64999 13.5207 3.47861L10.2616 6.73763C9.75999 7.23928 9.54225 7.95846 9.68138 8.65412L10.1456 10.9751C10.3003 11.7487 9.79857 12.5014 9.02491 12.6561C8.25125 12.8108 7.49865 12.3091 7.34391 11.5354L7.02251 9.92839Z" fill="#FECC39"/>
</svg>
