<svg width="20" height="20" viewBox="0 0 20 20" fill="none" xmlns="http://www.w3.org/2000/svg">
<path d="M17.0409 17.0413H14.0776V12.4004C14.0776 11.2937 14.0578 9.86906 12.5363 9.86906C10.9929 9.86906 10.7567 11.0748 10.7567 12.3198V17.041H7.79336V7.49735H10.6382V8.80159H10.678C10.9627 8.31479 11.3741 7.91432 11.8684 7.64285C12.3627 7.37137 12.9214 7.23905 13.4849 7.25996C16.4884 7.25996 17.0422 9.23561 17.0422 11.8058L17.0409 17.0413ZM4.44969 6.1928C4.10957 6.19287 3.77706 6.09206 3.49422 5.90315C3.21139 5.71423 2.99094 5.44568 2.86073 5.13146C2.73051 4.81725 2.69638 4.47147 2.76268 4.13786C2.82897 3.80425 2.99271 3.49779 3.23317 3.25724C3.47363 3.01669 3.78002 2.85284 4.11359 2.78643C4.44716 2.72001 4.79293 2.754 5.10719 2.88411C5.42144 3.01422 5.69006 3.23459 5.87907 3.51737C6.06808 3.80014 6.16901 4.13262 6.16907 4.47275C6.16911 4.69859 6.12466 4.92223 6.03827 5.13089C5.95189 5.33956 5.82527 5.52916 5.66561 5.68889C5.50595 5.84861 5.31638 5.97532 5.10775 6.06178C4.89913 6.14824 4.67552 6.19276 4.44969 6.1928ZM5.93137 17.0413H2.96491V7.49735H5.93137V17.0413ZM18.5183 0.0013016H1.47583C1.08901 -0.00306377 0.716265 0.146325 0.439533 0.416641C0.162802 0.686957 0.00472088 1.05608 0 1.44291V18.5567C0.00455931 18.9437 0.162547 19.3131 0.43927 19.5837C0.715992 19.8543 1.08882 20.0039 1.47583 19.9998H18.5183C18.9061 20.0047 19.28 19.8554 19.5578 19.5848C19.8356 19.3143 19.9946 18.9445 20 18.5567V1.44167C19.9945 1.05408 19.8353 0.684535 19.5575 0.414226C19.2797 0.143917 18.9059 -0.00504556 18.5183 6.63163e-05" fill="#FECC39"/>
</svg>
