<svg width="20" height="20" viewBox="0 0 20 20" fill="none" xmlns="http://www.w3.org/2000/svg">
<path d="M0 10.0012C0.0519959 7.16269 1.05432 4.79219 3.00776 2.89212C4.9612 0.99204 7.29222 0.0264011 10 0C12.9158 0.0520021 15.306 1.04804 17.1682 2.98812C19.0305 4.9282 19.9744 7.26669 20 10.0012C19.948 12.8133 18.9457 15.1782 16.9922 17.0919C15.038 19.004 12.7078 19.9744 10 20C9.06168 20 8.12575 19.856 7.18822 19.5696C7.37061 19.2832 7.5522 18.9576 7.73458 18.5935C7.94256 18.1511 8.20254 17.3175 8.51692 16.0934C8.59531 15.755 8.7129 15.299 8.86889 14.7254C9.05128 15.0374 9.36325 15.3238 9.80722 15.5854C10.9791 16.1318 12.215 16.0798 13.5173 15.4294C14.8716 14.647 15.8091 13.4373 16.3291 11.7973C16.7971 10.0788 16.7395 8.48274 16.1531 7.01228C15.5668 5.54022 14.5188 4.48018 13.0094 3.82815C11.1095 3.28173 9.25926 3.34013 7.4634 4.00416C5.66755 4.66819 4.41645 5.80903 3.7117 7.4227C3.52932 8.02112 3.41973 8.61475 3.37973 9.20117C3.33973 9.78759 3.35973 10.3596 3.43813 10.9196C3.51652 11.4797 3.7125 11.9821 4.02448 12.4237C4.33645 12.8653 4.75482 13.2061 5.27478 13.4397C5.40517 13.4917 5.50916 13.4917 5.58675 13.4397C5.69075 13.3877 5.79474 13.1797 5.89873 12.8157C6.00272 12.4517 6.04272 12.2037 6.01712 12.0733C5.99072 12.0213 5.93873 11.9293 5.86113 11.7989C5.31477 10.9124 5.13079 9.9828 5.31477 9.00676C5.49716 8.03072 5.90113 7.20269 6.52508 6.52666C7.489 5.66663 8.61531 5.19861 9.90321 5.1202C11.1911 5.0418 12.2934 5.39462 13.2029 6.17465C13.6973 6.74667 14.0173 7.4371 14.1589 8.24513C14.3013 9.05316 14.3029 9.82759 14.1589 10.5692C14.0149 11.3109 13.7605 12.0077 13.3965 12.6597C12.7446 13.6757 11.9766 14.1958 11.0927 14.2222C10.5728 14.1958 10.1488 13.9942 9.82241 13.6157C9.49604 13.2373 9.39845 12.8013 9.53044 12.3077C9.58243 12.0213 9.73842 11.4613 9.9984 10.6276C10.2584 9.79319 10.4024 9.16917 10.4288 8.75315C10.3504 7.76271 9.89441 7.25469 9.06087 7.22909C8.40893 7.30749 7.92897 7.6011 7.61459 8.10752C7.30022 8.61395 7.13223 9.19557 7.10663 9.84599C7.18503 10.602 7.30262 11.122 7.4586 11.4085C7.17223 12.5805 6.95064 13.5189 6.79466 14.2206C6.74266 14.403 6.59867 14.963 6.36429 15.9006C6.12991 16.8391 6.00032 17.5551 5.97392 18.0487V19.1432C4.12607 18.2831 2.66619 17.0407 1.59987 15.4126C0.533557 13.7846 0 11.9797 0 10.0012Z" fill="#FECC39"/>
</svg>
